<svg width="125" height="21" viewBox="0 0 125 21" fill="none" xmlns="http://www.w3.org/2000/svg">
<path d="M111.302 20.1349C108.276 20.1349 105.798 19.1994 103.868 17.3284C101.956 15.4392 101 13.0414 101 10.135C101 7.17413 101.965 4.76725 103.896 2.91442C105.845 1.06158 108.313 0.135161 111.302 0.135161C116.796 0.135119 121.992 0.13484 125 0.13491C125 0.529332 125 3.57185 125 5.12146C121.992 5.12146 113.15 5.12147 111.302 5.12147C109.891 5.12147 108.787 5.61193 107.988 6.59284C107.209 7.55559 106.819 8.73632 106.819 10.135C106.819 11.5337 107.218 12.7236 108.016 13.7045C108.833 14.6672 109.928 15.1486 111.302 15.1486C114.608 15.1486 118.893 15.1486 121.992 15.1486C121.992 17.9343 121.992 19.6125 121.992 20.1349C117.89 20.1349 113.879 20.1349 111.302 20.1349Z" fill="white"/>
<path d="M119 20.1349V8.1349H125V20.1349H119Z" fill="white"/>
<path d="M110 8.1349L125 8.1349L125 12.1349L110 12.1349L110 8.1349Z" fill="white"/>
<path d="M77.9316 19.8491V0H98.4828V4.64077H83.6627V7.71598H98.4828V12.3567H83.6627V19.8491H77.9316Z" fill="white"/>
<path d="M52.8477 19.8491V0H67.2285C69.5209 0 71.3195 0.559128 72.6241 1.67739C73.9474 2.79564 74.609 4.48235 74.609 6.7375C74.609 8.99266 73.9474 10.6794 72.6241 11.7976C71.3195 12.9159 69.5209 13.475 67.2285 13.475H59.0378V19.8491H52.8477ZM66.5296 4.92033H59.0378V8.55467H66.5296C68.002 8.55467 68.7382 7.94895 68.7382 6.7375C68.7382 5.52606 68.002 4.92033 66.5296 4.92033Z" fill="white"/>
<path d="M41.8881 0.235359C41.8881 5.71496 42.1316 15.5782 50.2901 19.9619C33.3399 19.9619 27.4788 6.81088 26.667 0.235359H41.8881Z" fill="white"/>
<path d="M24.4966 0.235359C24.4966 5.44436 27.1604 14.2418 36.5311 18.9878C23.0836 18.9878 13.0649 6.48616 12.4209 0.235359H24.4966Z" fill="white"/>
<path d="M10.734 0.151466C10.734 4.81927 13.1017 12.7027 21.4313 16.9556C9.47794 16.9556 0.57248 5.75283 0 0.151466H10.734Z" fill="white"/>
</svg>
