<svg width="88" height="88" viewBox="0 0 88 88" fill="none" xmlns="http://www.w3.org/2000/svg">
<path d="M69.6663 62.3333V18.3333C69.6663 16.3884 68.8937 14.5232 67.5185 13.1479C66.1432 11.7726 64.2779 11 62.333 11H14.6663M14.6663 11C16.6113 11 18.4765 11.7726 19.8518 13.1479C21.2271 14.5232 21.9997 16.3884 21.9997 18.3333V69.6667C21.9997 71.6116 22.7723 73.4768 24.1476 74.8521C25.5228 76.2274 27.3881 77 29.333 77M14.6663 11C12.7214 11 10.8562 11.7726 9.48089 13.1479C8.10562 14.5232 7.33301 16.3884 7.33301 18.3333V25.6667C7.33301 26.6391 7.71932 27.5718 8.40695 28.2594C9.09458 28.947 10.0272 29.3333 10.9997 29.3333H21.9997M29.333 77H73.333C75.2779 77 77.1432 76.2274 78.5185 74.8521C79.8937 73.4768 80.6663 71.6116 80.6663 69.6667V66C80.6663 65.0275 80.28 64.0949 79.5924 63.4073C78.9048 62.7196 77.9721 62.3333 76.9997 62.3333H40.333C39.3605 62.3333 38.4279 62.7196 37.7403 63.4073C37.0527 64.0949 36.6663 65.0275 36.6663 66V69.6667C36.6663 71.6116 35.8937 73.4768 34.5185 74.8521C33.1432 76.2274 31.2779 77 29.333 77Z" stroke="#1D31E4" stroke-width="2" stroke-linecap="round" stroke-linejoin="round"/>
</svg>
