<svg width="44" height="44" viewBox="0 0 44 44" fill="none" xmlns="http://www.w3.org/2000/svg">
<path d="M20.167 31.1666L23.8337 34.8333C24.1948 35.1944 24.6235 35.4809 25.0954 35.6763C25.5672 35.8718 26.0729 35.9724 26.5837 35.9724C27.0944 35.9724 27.6001 35.8718 28.0719 35.6763C28.5438 35.4809 28.9725 35.1944 29.3337 34.8333C29.6948 34.4721 29.9813 34.0434 30.1767 33.5716C30.3722 33.0997 30.4727 32.594 30.4727 32.0833C30.4727 31.5726 30.3722 31.0668 30.1767 30.595C29.9813 30.1231 29.6948 29.6944 29.3337 29.3333M25.667 25.6666L30.2503 30.2499C30.9797 30.9793 31.9689 31.389 33.0003 31.389C34.0318 31.389 35.021 30.9793 35.7503 30.2499C36.4797 29.5206 36.8894 28.5314 36.8894 27.4999C36.8894 26.4685 36.4797 25.4793 35.7503 24.7499L28.637 17.6366C27.6057 16.6066 26.2078 16.0281 24.7503 16.0281C23.2928 16.0281 21.8949 16.6066 20.8637 17.6366L19.2503 19.2499C18.521 19.9793 17.5318 20.389 16.5003 20.389C15.4689 20.389 14.4797 19.9793 13.7503 19.2499C13.021 18.5206 12.6112 17.5314 12.6112 16.4999C12.6112 15.4685 13.021 14.4793 13.7503 13.7499L18.902 8.59828C20.5744 6.93021 22.7555 5.86762 25.0998 5.57873C27.4442 5.28983 29.818 5.79114 31.8453 7.00328L32.707 7.51661C33.4876 7.98776 34.4157 8.15116 35.3103 7.97495L38.5003 7.33328M38.5003 5.49995L40.3337 25.6666H36.667M5.50033 5.49995L3.66699 25.6666L15.5837 37.5833C16.313 38.3126 17.3022 38.7224 18.3337 38.7224C19.3651 38.7224 20.3543 38.3126 21.0837 37.5833C21.813 36.8539 22.2227 35.8647 22.2227 34.8333C22.2227 33.8018 21.813 32.8126 21.0837 32.0833M5.50033 7.33328H20.167" stroke="#1D31E4" stroke-width="1.4" stroke-linecap="round" stroke-linejoin="round"/>
</svg>
