<svg width="44" height="44" viewBox="0 0 44 44" fill="none" xmlns="http://www.w3.org/2000/svg">
<path d="M20.167 27.5H23.8337C24.8061 27.5 25.7388 27.1137 26.4264 26.426C27.114 25.7384 27.5003 24.8058 27.5003 23.8333C27.5003 22.8608 27.114 21.9282 26.4264 21.2406C25.7388 20.5529 24.8061 20.1666 23.8337 20.1666H18.3337C17.2337 20.1666 16.317 20.5333 15.767 21.2666L5.50033 31.1666M12.8337 38.5L15.767 35.9333C16.317 35.2 17.2337 34.8333 18.3337 34.8333H25.667C27.6837 34.8333 29.517 34.1 30.8003 32.6333L39.2337 24.5666C39.9411 23.8981 40.354 22.9758 40.3815 22.0028C40.409 21.0298 40.0489 20.0858 39.3803 19.3783C38.7118 18.6708 37.7895 18.2579 36.8165 18.2304C35.8435 18.2029 34.8995 18.5631 34.192 19.2316L26.492 26.3816M3.66699 29.3333L14.667 40.3333M34.6503 16.5C34.6503 19.4363 32.27 21.8166 29.3337 21.8166C26.3973 21.8166 24.017 19.4363 24.017 16.5C24.017 13.5636 26.3973 11.1833 29.3337 11.1833C32.27 11.1833 34.6503 13.5636 34.6503 16.5ZM16.5003 9.16663C16.5003 12.2042 14.0379 14.6666 11.0003 14.6666C7.96276 14.6666 5.50033 12.2042 5.50033 9.16663C5.50033 6.12906 7.96276 3.66663 11.0003 3.66663C14.0379 3.66663 16.5003 6.12906 16.5003 9.16663Z" stroke="#1D31E4" stroke-width="1.4" stroke-linecap="round" stroke-linejoin="round"/>
</svg>
