<svg width="44" height="44" viewBox="0 0 44 44" fill="none" xmlns="http://www.w3.org/2000/svg">
<path d="M20.1667 16.5H27.5C28.4725 16.5 29.4051 16.1137 30.0927 15.4261C30.7804 14.7384 31.1667 13.8058 31.1667 12.8333V5.5M20.1667 16.5C20.1667 18.525 18.525 20.1667 16.5 20.1667C14.475 20.1667 12.8333 18.525 12.8333 16.5C12.8333 14.475 14.475 12.8333 16.5 12.8333C18.525 12.8333 20.1667 14.475 20.1667 16.5ZM12.8333 38.5V31.1667C12.8333 30.1942 13.2196 29.2616 13.9073 28.5739C14.5949 27.8863 15.5275 27.5 16.5 27.5H23.8333M23.8333 27.5C23.8333 29.525 25.475 31.1667 27.5 31.1667C29.525 31.1667 31.1667 29.525 31.1667 27.5C31.1667 25.475 29.525 23.8333 27.5 23.8333C25.475 23.8333 23.8333 25.475 23.8333 27.5ZM9.16667 5.5H34.8333C36.8584 5.5 38.5 7.14162 38.5 9.16667V34.8333C38.5 36.8584 36.8584 38.5 34.8333 38.5H9.16667C7.14162 38.5 5.5 36.8584 5.5 34.8333V9.16667C5.5 7.14162 7.14162 5.5 9.16667 5.5Z" stroke="#1D31E4" stroke-width="1.4" stroke-linecap="round" stroke-linejoin="round"/>
</svg>
