<svg width="44" height="44" viewBox="0 0 44 44" fill="none" xmlns="http://www.w3.org/2000/svg">
<path d="M29.3337 3.6665H14.667C12.6419 3.6665 11.0003 5.30813 11.0003 7.33317V36.6665C11.0003 38.6916 12.6419 40.3332 14.667 40.3332H29.3337C31.3587 40.3332 33.0003 38.6916 33.0003 36.6665V7.33317C33.0003 5.30813 31.3587 3.6665 29.3337 3.6665Z" stroke="#1D31E4" stroke-width="1.4" stroke-linecap="round" stroke-linejoin="round"/>
<path d="M36.667 10.9998H7.33366C5.30861 10.9998 3.66699 12.6415 3.66699 14.6665V29.3332C3.66699 31.3582 5.30861 32.9998 7.33366 32.9998H36.667C38.692 32.9998 40.3337 31.3582 40.3337 29.3332V14.6665C40.3337 12.6415 38.692 10.9998 36.667 10.9998Z" stroke="#1D31E4" stroke-width="1.4" stroke-linecap="round" stroke-linejoin="round"/>
</svg>
