<svg width="44" height="44" viewBox="0 0 44 44" fill="none" xmlns="http://www.w3.org/2000/svg">
<path d="M22.0003 34.8332L14.722 39.1965C14.1517 39.5391 13.499 39.7201 12.8337 39.7201C12.1684 39.7201 11.5156 39.5391 10.9453 39.1965L5.44533 35.8965C4.90405 35.5713 4.45593 35.1118 4.14437 34.5626C3.83281 34.0134 3.66838 33.393 3.66699 32.7615V26.8215C3.66838 26.1901 3.83281 25.5697 4.14437 25.0204C4.45593 24.4712 4.90405 24.0117 5.44533 23.6865L12.8337 19.2498M22.0003 34.8332V24.7498M22.0003 34.8332L29.2787 39.1965C29.8489 39.5391 30.5017 39.7201 31.167 39.7201C31.8323 39.7201 32.485 39.5391 33.0553 39.1965L38.5553 35.8965C39.0966 35.5713 39.5447 35.1118 39.8563 34.5626C40.1678 34.0134 40.3323 33.393 40.3337 32.7615V26.8215C40.3323 26.1901 40.1678 25.5697 39.8563 25.0204C39.5447 24.4712 39.0966 24.0117 38.5553 23.6865L31.167 19.2498M22.0003 24.7498L12.8337 19.2498M22.0003 24.7498L12.8337 30.2498M22.0003 24.7498L31.167 19.2498M22.0003 24.7498L31.167 30.2498M22.0003 24.7498V14.6665M12.8337 19.2498V11.2382C12.835 10.6067 12.9995 9.98633 13.311 9.43709C13.6226 8.88785 14.0707 8.42837 14.612 8.10318L20.112 4.80318C20.6823 4.46055 21.335 4.27954 22.0003 4.27954C22.6656 4.27954 23.3184 4.46055 23.8887 4.80318L29.3887 8.10318C29.9299 8.42837 30.3781 8.88785 30.6896 9.43709C31.0012 9.98633 31.1656 10.6067 31.167 11.2382V19.2498M12.8337 30.2498L4.14366 25.0248M12.8337 30.2498V39.7282M31.167 30.2498L39.857 25.0248M31.167 30.2498V39.7282M22.0003 14.6665L13.3103 9.44151M22.0003 14.6665L30.6903 9.44151" stroke="#1D31E4" stroke-width="1.4" stroke-linecap="round" stroke-linejoin="round"/>
</svg>
