<svg width="108" height="44" viewBox="0 0 108 44" fill="none" xmlns="http://www.w3.org/2000/svg">
<path d="M28.3164 6.34082H23.5312L22.374 8.66895L22.5674 9.12402L24.9053 14.6377L30.4561 12.4404L30.9326 12.251L31.7549 9.77637L28.3398 6.34082H37.2314V15.2832L33.8535 11.8887L31.3965 12.7119L31.2051 13.1963L29.0098 18.7422L34.4619 21.126L34.9326 21.332L37.2539 20.167V15.3291L43.5352 21.6475L37.2539 27.9648V23.1523L34.9365 21.9883L34.459 22.1953L29.0078 24.5566L31.1875 30.1201L31.374 30.5967L33.8379 31.4238L37.2314 28.0107V36.9541H28.3389L31.7373 33.5361L30.9189 31.0674L30.4346 30.874L24.9199 28.666L22.54 34.1768L22.3467 34.6211L23.5068 36.9541H28.3164L22.0117 43.2949L15.708 36.9541H20.5146L21.6699 34.627L21.4766 34.1748L19.1172 28.666L13.5859 30.8584L13.1094 31.0469L12.29 33.5195L15.7061 36.9541H6.79297V27.9893L10.1904 31.4062L12.6465 30.5811L12.8369 30.1006L15.0322 24.5547L9.58105 22.1719L9.10742 21.9639L6.79199 23.1279V27.9863L0.489258 21.6475L6.79199 15.3076V20.1436L9.1084 21.3066L9.58301 21.1025L15.0342 18.7402L12.8545 13.1768L12.665 12.6953L10.208 11.8721L6.79297 15.3047V6.34082H15.707L12.3086 9.75879L13.1279 12.2314L13.6074 12.4238L19.1221 14.6318L21.502 9.12012L21.6963 8.66992L20.5391 6.34082H15.708L22.0117 0L28.3164 6.34082ZM22.0107 16.2207L19.4307 15.3809L18.1943 17.8096L15.7803 19.0518L16.6152 21.6475L15.7803 24.2432L18.1943 25.4854L19.4307 27.9141L22.0107 27.0742L24.5918 27.9141L25.8271 25.4854L28.2422 24.2432L27.4072 21.6475L28.2422 19.0518L25.8271 17.8096L24.5918 15.3809L22.0107 16.2207ZM9.81348 21.6348L13.9756 19.832L15.7793 19.0518L15.7783 19.0498L9.81348 21.6348ZM28.2656 19.0518L32.9277 21.0879L28.2656 19.0498V19.0518ZM13.3945 12.9639L19.4297 15.3799V15.3789L13.3945 12.9629V12.9639ZM22.0332 9.35156V9.35352L22.0352 9.35156L22.0342 9.34961L22.0332 9.35156Z" fill="#9A9A9A"/>
<path d="M51.5641 18.3484C50.7441 17.5518 50.333 16.4326 50.333 15.0039V9.02051H52.4272V15.0775C52.4272 16.7141 53.3656 17.554 54.713 17.554C56.0603 17.554 57.0138 16.7141 57.0138 15.0775V9.02051H59.1231V15.0039C59.1231 16.4326 58.712 17.554 57.8769 18.3484C57.0569 19.1451 56.0022 19.5412 54.713 19.5412C53.4237 19.5412 52.3842 19.1429 51.5641 18.3484Z" fill="#9A9A9A"/>
<path d="M60.5723 19.3354V17.9651L64.2635 13.7222H60.8069V11.9839H67.0917V13.3996L63.3854 17.5993H67.3263V19.3376H60.5723V19.3354Z" fill="#9A9A9A"/>
<path d="M72.6867 19.3356V9.02051H80.2177V10.9212H74.796V12.9106H79.1631V14.7831H74.796V17.4349H80.377V19.3356H72.6846H72.6867Z" fill="#9A9A9A"/>
<path d="M83.749 11.9819L85.2147 14.0449L86.6955 11.9819H88.9813L86.4179 15.4888L89.2008 19.3356H86.8849L85.1846 16.9782L83.4713 19.3356H81.1855L83.9836 15.504L81.4352 11.9819H83.749Z" fill="#9A9A9A"/>
<path d="M97.3856 12.9104C98.0442 13.6465 98.367 14.56 98.367 15.6662C98.367 16.7724 98.0442 17.6707 97.3856 18.4219C96.7399 19.1579 95.9198 19.5281 94.9233 19.5281C93.9268 19.5281 93.0917 19.1601 92.5213 18.4371V22.2838H90.4551V11.9839H92.5213V12.8823C93.0637 12.1614 93.8687 11.7913 94.9233 11.7913C95.9198 11.7913 96.7399 12.1593 97.3856 12.9104ZM92.5235 14.7072V16.623C92.8614 17.2573 93.5351 17.714 94.34 17.714C94.9104 17.714 95.3947 17.5235 95.7606 17.1252C96.1265 16.7269 96.318 16.242 96.318 15.6662C96.318 15.0903 96.1286 14.5903 95.7606 14.192C95.3925 13.7937 94.9104 13.6032 94.34 13.6032C93.5351 13.6032 92.8592 14.0751 92.5235 14.7093V14.7072Z" fill="#9A9A9A"/>
<path d="M100.55 12.9107C101.312 12.1595 102.278 11.7915 103.467 11.7915C104.655 11.7915 105.621 12.1595 106.383 12.9107C107.145 13.6619 107.526 14.5754 107.526 15.6513C107.526 16.7271 107.145 17.671 106.383 18.4222C105.621 19.1582 104.655 19.5283 103.467 19.5283C102.278 19.5283 101.312 19.1603 100.55 18.4222C99.7882 17.671 99.4072 16.7575 99.4072 15.6513C99.4072 14.5451 99.7882 13.6467 100.55 12.9107ZM103.467 17.7143C104.052 17.7143 104.536 17.5238 104.917 17.1255C105.298 16.7271 105.488 16.2422 105.488 15.6513C105.488 15.0603 105.298 14.5754 104.917 14.1922C104.536 13.7939 104.052 13.6034 103.467 13.6034C102.881 13.6034 102.397 13.7961 102.016 14.1922C101.635 14.5754 101.445 15.0625 101.445 15.6513C101.445 16.2401 101.635 16.7271 102.016 17.1255C102.397 17.5238 102.881 17.7143 103.467 17.7143Z" fill="#9A9A9A"/>
<path d="M51.6962 31.298C50.6416 30.2806 50.1143 28.9991 50.1143 27.4383C50.1143 25.8775 50.6416 24.5786 51.6812 23.5785C52.7358 22.5762 54.0681 22.0762 55.6651 22.0762C56.6767 22.0762 57.5699 22.297 58.3749 22.7256V24.8622C57.5828 24.3318 56.6896 24.0656 55.678 24.0656C54.6664 24.0656 53.8916 24.3903 53.2308 25.0224C52.5851 25.6567 52.2644 26.4511 52.2644 27.4383C52.2644 28.4254 52.6023 29.235 53.261 29.8693C53.9196 30.5036 54.7547 30.8131 55.7663 30.8131C56.879 30.8131 57.8174 30.5187 58.5794 29.9148V32.0514C57.7442 32.5514 56.7779 32.8025 55.663 32.8025C54.0659 32.8025 52.7465 32.3025 51.6919 31.3002L51.6962 31.298Z" fill="#9A9A9A"/>
<path d="M60.9533 31.7267C60.1763 31.0188 59.7803 30.0771 59.7803 28.9125C59.7803 27.8215 60.1311 26.9079 60.8349 26.1719C61.5387 25.4207 62.4621 25.0527 63.5899 25.0527C64.6596 25.0527 65.4947 25.4359 66.1253 26.1871C66.756 26.9382 67.0767 27.8518 67.0767 28.9428V29.4883H61.8314C62.051 30.4906 62.9894 31.021 64.2786 31.021C65.0987 31.021 65.8757 30.8002 66.6225 30.3715V32.0362C65.9639 32.5363 65.0406 32.7874 63.8396 32.7874C62.6386 32.7874 61.7303 32.4346 60.9533 31.7267ZM65.0406 28.1592C64.9975 27.3495 64.425 26.685 63.5016 26.685C62.5783 26.685 61.9348 27.2889 61.8314 28.1592H65.0406Z" fill="#9A9A9A"/>
<path d="M70.7244 32.5947H68.6582V25.241H70.7244V26.1242C71.383 25.4034 72.1902 25.0483 73.1716 25.0483C74.872 25.0483 75.8384 26.1978 75.8384 28.0833V32.5925H73.7721V28.5098C73.7721 27.3755 73.1415 26.949 72.3796 26.949C71.7339 26.949 71.0753 27.3625 70.7244 27.9058V32.5925V32.5947Z" fill="#9A9A9A"/>
<path d="M78.3995 26.9814H76.9639V25.2431H78.3995V23.2234H80.4657V25.2431H82.547V26.9814H80.4657V29.8995C80.4657 30.6225 80.7584 30.9321 81.4622 30.9321C81.8281 30.9321 82.179 30.8433 82.5319 30.6658V32.389C82.1079 32.6552 81.5354 32.7873 80.7885 32.7873C79.1915 32.7873 78.4016 31.9625 78.4016 30.3108V26.9814H78.3995Z" fill="#9A9A9A"/>
<path d="M84.1721 32.5947V25.241H86.2383V26.4793C86.4578 26.0961 86.7958 25.7584 87.2628 25.477C87.732 25.1977 88.2443 25.0505 88.7867 25.0505C88.89 25.0505 88.9632 25.0505 89.0213 25.0657V27.0984C88.8448 27.0551 88.6252 27.0248 88.3756 27.0248C87.379 27.0248 86.5289 27.6439 86.2362 28.3063V32.5947H84.1699H84.1721Z" fill="#9A9A9A"/>
<path d="M91.0578 31.7267C90.2808 31.0188 89.8848 30.0771 89.8848 28.9125C89.8848 27.8215 90.2356 26.9079 90.9394 26.1719C91.6432 25.4207 92.5666 25.0527 93.6944 25.0527C94.7641 25.0527 95.5992 25.4359 96.2298 26.1871C96.8604 26.9382 97.1811 27.8518 97.1811 28.9428V29.4883H91.9359C92.1555 30.4906 93.0939 31.021 94.3831 31.021C95.2032 31.021 95.9802 30.8002 96.727 30.3715V32.0362C96.0684 32.5363 95.145 32.7874 93.944 32.7874C92.7431 32.7874 91.8348 32.4346 91.0578 31.7267ZM95.1451 28.1592C95.102 27.3495 94.5295 26.685 93.6061 26.685C92.6828 26.685 92.0392 27.2889 91.9359 28.1592H95.1451Z" fill="#9A9A9A"/>
</svg>
