<svg width="130" height="30" viewBox="0 0 130 30" fill="none" xmlns="http://www.w3.org/2000/svg">
<path d="M29.3014 13.8448C29.1309 13.8448 28.9925 13.9764 28.9925 14.1392C28.9925 17.4902 28.9925 23.5256 28.9925 26.8765C28.9925 27.0395 28.8544 27.1711 28.684 27.1711H10.3046C10.2144 27.1704 10.1654 27.2208 10.1654 27.3065V29.4778C10.1668 29.5579 10.2326 29.5836 10.2964 29.5836L31.2745 29.6671V29.6643C31.4449 29.6643 31.583 29.5323 31.583 29.3697C31.583 25.2593 31.583 18.2496 31.583 14.1392C31.583 13.9764 31.4449 13.8448 31.2745 13.8448C30.6843 13.8448 29.8915 13.8448 29.3014 13.8448ZM23.813 14.1392C23.813 13.9764 23.6747 13.8448 23.5043 13.8448C22.9141 13.8448 22.1215 13.8448 21.5315 13.8448C21.3609 13.8448 21.2227 13.9764 21.2227 14.1392C21.2227 15.4408 21.2227 18.3492 21.2227 19.6507C21.2227 19.6873 21.2157 19.7162 21.1868 19.7438C21.1584 19.7709 21.1295 19.7776 21.0909 19.7781C17.6147 19.7781 13.0953 19.7781 9.61914 19.7781C9.3776 19.7781 9.1588 19.8024 8.9656 19.9865L0.68834 27.8789C0.633033 27.9316 0.633033 28.0009 0.68834 28.0536L2.33673 29.6268C2.39171 29.6797 2.46482 29.6797 2.51994 29.6268C4.28133 27.9456 8.30782 24.1032 10.0694 22.4216C10.2303 22.2802 10.3911 22.2505 10.5696 22.2505H23.6827C23.7194 22.2505 23.7496 22.2421 23.7771 22.216C23.8049 22.1893 23.813 22.1602 23.813 22.1251C23.813 20.0633 23.813 16.201 23.813 14.1392ZM115.369 23.3332L116.118 19.3548C118.658 20.4614 120.677 21.0149 122.176 21.0149C123.696 21.0149 124.456 20.3946 124.456 19.1544C124.456 18.4674 124.256 17.9568 123.856 17.623C123.456 17.2891 122.776 16.9505 121.816 16.607C121.157 16.3781 120.677 16.2062 120.377 16.0919C120.077 15.9775 119.652 15.8006 119.102 15.5622C118.553 15.324 118.143 15.1139 117.873 14.9326C117.603 14.7514 117.283 14.5033 116.913 14.1885C116.544 13.8735 116.268 13.549 116.088 13.2153C115.909 12.8814 115.754 12.4805 115.624 12.013C115.494 11.5458 115.429 11.0447 115.429 10.5103C115.429 8.71663 116.139 7.34753 117.558 6.4029C118.977 5.45865 120.767 4.98616 122.926 4.98616C124.726 4.98616 126.645 5.33907 128.684 6.0453L127.814 9.85201C126.115 9.08881 124.496 8.70705 122.956 8.70705C121.357 8.70705 120.557 9.30827 120.557 10.5103C120.557 10.9301 120.742 11.3119 121.112 11.6552C121.481 11.9987 121.857 12.2516 122.236 12.4137C122.616 12.5759 123.226 12.8096 124.066 13.1151C124.726 13.3631 125.245 13.5683 125.625 13.7304C126.005 13.8925 126.48 14.1456 127.05 14.4889C127.619 14.8323 128.06 15.1854 128.369 15.548C128.679 15.9105 128.954 16.3829 129.194 16.9648C129.434 17.5467 129.554 18.1909 129.554 18.897C129.554 20.6524 128.894 22.0692 127.575 23.1474C126.255 24.2252 124.566 24.7646 122.506 24.7646C119.567 24.7646 117.188 24.2873 115.369 23.3332ZM98.5932 23.3332L99.3426 19.3548C101.882 20.4614 103.901 21.0149 105.401 21.0149C106.92 21.0149 107.68 20.3946 107.68 19.1544C107.68 18.4674 107.48 17.9568 107.08 17.623C106.681 17.2891 106 16.9505 105.041 16.607C104.381 16.3781 103.901 16.2062 103.601 16.0919C103.302 15.9775 102.877 15.8006 102.327 15.5622C101.777 15.3238 101.367 15.1137 101.097 14.9326C100.827 14.7512 100.507 14.5033 100.138 14.1885C99.7678 13.8736 99.4928 13.549 99.3128 13.2153C99.1331 12.8814 98.9779 12.4805 98.8483 12.013C98.7183 11.5458 98.653 11.0447 98.653 10.5103C98.653 8.71663 99.3628 7.34735 100.782 6.4029C102.202 5.45845 103.991 4.98616 106.151 4.98616C107.95 4.98616 109.869 5.33907 111.909 6.0453L111.039 9.85201C109.339 9.08881 107.72 8.70705 106.18 8.70705C104.581 8.70705 103.781 9.30827 103.781 10.5103C103.781 10.9301 103.967 11.3119 104.336 11.6552C104.706 11.9987 105.081 12.2516 105.461 12.4137C105.84 12.5758 106.45 12.8096 107.29 13.1151C107.95 13.3631 108.47 13.5683 108.85 13.7304C109.23 13.8925 109.704 14.1456 110.274 14.4889C110.844 14.8323 111.284 15.1854 111.594 15.548C111.903 15.9105 112.178 16.3829 112.418 16.9648C112.658 17.5467 112.778 18.1909 112.778 18.897C112.778 20.6524 112.118 22.0692 110.799 23.1474C109.479 24.2254 107.79 24.7646 105.731 24.7646C102.792 24.7646 100.412 24.2873 98.5932 23.3332ZM85.3461 20.2993C85.8359 20.5852 86.4508 20.7286 87.1904 20.7286C87.9303 20.7286 88.5453 20.5854 89.0348 20.2993C89.5247 20.013 89.8896 19.5838 90.1295 19.0112C90.3694 18.439 90.5296 17.8376 90.6096 17.2082C90.6893 16.5784 90.7293 15.8057 90.7293 14.8896C90.7293 14.1453 90.7093 13.506 90.6695 12.972C90.6296 12.4376 90.5345 11.8983 90.3846 11.3548C90.2346 10.811 90.0346 10.367 89.7848 10.0237C89.5351 9.68039 89.19 9.40337 88.75 9.19359C88.3104 8.98376 87.7904 8.87876 87.1904 8.87876C86.4508 8.87876 85.8359 9.02674 85.3461 9.32245C84.8566 9.61823 84.4913 10.062 84.2515 10.6535C84.0116 11.2448 83.8468 11.8653 83.7568 12.5139C83.6669 13.1626 83.6217 13.9546 83.6217 14.8896C83.6217 15.8057 83.6669 16.5784 83.7568 17.2082C83.8468 17.8376 84.0116 18.439 84.2515 19.0112C84.4915 19.5836 84.8566 20.0132 85.3461 20.2993ZM83.4869 5.54422C84.5566 5.17223 85.8011 4.98616 87.2205 4.98616C88.6402 4.98616 89.8848 5.17223 90.9543 5.54422C92.0239 5.91617 92.8737 6.40306 93.5034 7.00406C94.1331 7.60515 94.643 8.34945 95.0329 9.2367C95.4225 10.1238 95.6826 11.0114 95.8126 11.8985C95.9424 12.7857 96.0075 13.7829 96.0075 14.8896C96.0075 15.9773 95.9374 16.9649 95.7976 17.8521C95.6578 18.7392 95.3928 19.6266 95.0029 20.514C94.6131 21.4011 94.0982 22.1457 93.4585 22.7465C92.8188 23.3478 91.9639 23.8343 90.8942 24.2063C89.8247 24.5784 88.5699 24.7646 87.1305 24.7646C85.711 24.7646 84.4713 24.5784 83.412 24.2063C82.3523 23.8343 81.5073 23.3478 80.8776 22.7465C80.248 22.1455 79.7381 21.4013 79.3483 20.514C78.9586 19.6266 78.6982 18.7392 78.5686 17.8521C78.4388 16.9649 78.3736 15.9773 78.3736 14.8896C78.3736 13.8021 78.4437 12.8095 78.5836 11.9129C78.7233 11.0161 78.9936 10.1238 79.3934 9.2367C79.7929 8.34945 80.308 7.60515 80.9375 7.00406C81.5672 6.40306 82.4174 5.91617 83.4869 5.54422ZM66.2464 8.79284V14.6034C66.3465 14.6034 66.4913 14.6129 66.6812 14.632C66.8711 14.6511 67.0411 14.6656 67.1911 14.675C67.3409 14.6845 67.4759 14.6893 67.5959 14.6893C68.5354 14.6893 69.2654 14.484 69.7851 14.0739C70.3049 13.6638 70.565 12.8955 70.565 11.7698C70.565 9.7471 69.5852 8.73567 67.6259 8.73567C66.9862 8.73567 66.5264 8.75472 66.2464 8.79284ZM60.8485 24.4496V5.75892C62.9877 5.33907 65.247 5.12929 67.6259 5.12929C68.5256 5.12929 69.3405 5.17709 70.0701 5.27238C70.7996 5.3677 71.5347 5.55879 72.2744 5.84484C73.0138 6.13091 73.6287 6.50807 74.1187 6.97553C74.6084 7.44312 75.0084 8.07274 75.3182 8.86452C75.6281 9.65654 75.7831 10.5868 75.7831 11.6552C75.7831 14.5939 74.5536 16.5593 72.0943 17.5516L76.8926 24.4496H71.0747L67.0862 18.0667C66.7463 18.0285 66.4663 17.9904 66.2464 17.9523V24.4496H60.8485ZM41.9433 14.8325C42.0034 13.0197 42.3184 11.4548 42.8882 10.1383C43.4578 8.8216 44.2327 7.80059 45.2121 7.0755C46.1918 6.35059 47.2467 5.82094 48.3763 5.48706C49.5058 5.15319 50.7405 4.98616 52.08 4.98616C53.7595 4.98616 55.5989 5.28196 57.5981 5.87347L56.8184 9.4226C54.9789 8.94581 53.5294 8.70705 52.4699 8.70705C49.1309 8.70705 47.4616 10.7202 47.4616 14.7465C47.4616 17.0172 47.8565 18.6107 48.646 19.5265C49.4357 20.4423 50.5703 20.9005 52.05 20.9005C52.4499 20.9005 52.8599 20.8717 53.2797 20.8142V14.7179H58.2578V23.7053C56.1785 24.3734 53.9392 24.7071 51.5403 24.7071C45.1624 24.7071 41.9635 21.4155 41.9433 14.8325ZM3.09222 2.76675C3.09222 7.83433 3.09222 15.4977 3.09222 20.565C3.09016 20.9205 3.06215 21.034 2.81372 21.2624C2.23932 21.8107 1.46246 22.5522 0.888059 23.1003C0.617945 23.3582 0.500589 23.2254 0.501965 22.966V0.294524C0.501965 0.131702 0.640003 0 0.810648 0H31.4718C31.4979 0 31.5291 0.0162384 31.5471 0.0332648C31.5751 0.0601392 31.583 0.0889395 31.583 0.125399C31.586 0.529828 31.5799 1.60113 31.583 2.00555C31.5843 2.18624 31.5179 2.34744 31.3763 2.46745C28.8856 4.84493 26.293 7.32897 23.8019 9.70634C23.6473 9.85918 23.5175 9.88891 23.295 9.88891L10.9967 9.88907C10.9575 9.88943 10.9231 9.89929 10.8977 9.92353C10.8741 9.94624 10.8624 9.97185 10.8624 10.0039V15.6972C10.8624 15.7333 10.8538 15.7619 10.8261 15.7882C10.7981 15.8149 10.7681 15.8225 10.7301 15.8225H8.40294C8.36562 15.8225 8.33534 15.8145 8.30801 15.7882C8.28031 15.7619 8.27193 15.7331 8.27193 15.6972V7.54484C8.27193 7.50864 8.27838 7.4794 8.30801 7.45116C8.33723 7.42324 8.36827 7.41668 8.40606 7.41668C12.3807 7.41668 18.3109 7.41668 22.2856 7.41668C22.4847 7.41668 22.6662 7.37659 22.8279 7.21976C24.2312 5.88046 25.9556 4.15441 27.3588 2.81503C27.5693 2.6024 27.558 2.47468 27.2112 2.47218H3.40091C3.23049 2.47218 3.09222 2.60406 3.09222 2.76675Z" fill="#9A9A9A"/>
</svg>
