<svg width="195" height="34" viewBox="0 0 195 34" fill="none" xmlns="http://www.w3.org/2000/svg">
<path d="M175.843 14.5449V14.0233C176.258 13.8293 176.522 13.6755 176.636 13.5618C176.703 13.5017 176.749 13.4247 176.776 13.3311C176.836 13.1439 176.876 12.7426 176.896 12.1274C176.923 11.2112 176.937 10.6662 176.937 10.4923V5.09564C176.937 4.18616 176.927 3.29674 176.907 2.42738C176.886 1.79208 176.836 1.41759 176.756 1.30391C176.682 1.18353 176.559 1.0966 176.385 1.0431C176.218 0.982914 175.736 0.946133 174.94 0.932758V0.290771C176.572 0.34427 177.582 0.37102 177.97 0.37102C178.398 0.37102 179.357 0.34427 180.849 0.290771V0.932758C180.053 0.946133 179.568 0.982914 179.394 1.0431C179.227 1.0966 179.11 1.1735 179.043 1.27381C178.963 1.40756 178.913 1.7319 178.893 2.24682C178.886 2.38057 178.873 3.33018 178.853 5.09564V11.8365C178.853 12.5387 178.866 13.1104 178.893 13.5518C179.655 13.5986 180.411 13.622 181.16 13.622C183.046 13.622 184.366 13.5017 185.122 13.2609C185.209 13.0603 185.286 12.8296 185.353 12.5688L185.754 10.9036H186.426C186.279 11.9 186.135 13.0703 185.995 14.4145C185.72 14.468 185.503 14.5014 185.343 14.5148C184.995 14.5349 184.46 14.5449 183.738 14.5449L177.799 14.4646C177.157 14.4646 176.505 14.4914 175.843 14.5449Z" fill="#9A9A9A"/>
<path d="M158.726 14.5449V13.8628C159.254 13.8561 159.582 13.8361 159.709 13.8026C159.842 13.7625 159.963 13.6923 160.07 13.592C160.183 13.485 160.344 13.2142 160.551 12.7795C160.672 12.532 161.106 11.5925 161.855 9.96075L164.363 4.30324C164.637 3.68132 165.222 2.29703 166.118 0.150391H166.77L171.054 10.2115C171.749 11.8432 172.211 12.8664 172.438 13.281C172.565 13.5151 172.702 13.6689 172.849 13.7425C173.003 13.816 173.344 13.8561 173.872 13.8628V14.5449C172.829 14.4781 172.1 14.4446 171.686 14.4446L168.456 14.5449V13.8628C169.205 13.8494 169.659 13.826 169.82 13.7926C169.98 13.7592 170.087 13.7124 170.141 13.6522C170.201 13.5853 170.231 13.5051 170.231 13.4114C170.231 13.2643 170.184 13.0737 170.091 12.8397L168.857 9.77016H163.049L161.956 12.3481C161.762 12.8096 161.665 13.1473 161.665 13.3613C161.665 13.4549 161.691 13.5318 161.745 13.592C161.818 13.6789 161.932 13.7391 162.086 13.7725C162.333 13.826 162.768 13.8561 163.39 13.8628V14.5449C162.26 14.4847 161.414 14.4547 160.852 14.4547C160.203 14.4547 159.495 14.4847 158.726 14.5449ZM163.39 8.91752H168.456L165.948 2.8688L163.39 8.91752Z" fill="#9A9A9A"/>
<path d="M141.667 14.5449V13.9129C142.369 13.9062 142.831 13.8527 143.051 13.7524C143.145 13.7123 143.212 13.6488 143.252 13.5618C143.319 13.4281 143.366 13.077 143.392 12.5086C143.433 11.6258 143.453 10.8635 143.453 10.2215V2.0462C143.453 1.82552 143.439 1.68174 143.413 1.61487C143.359 1.4945 143.239 1.35072 143.051 1.18353C142.931 1.07654 142.791 1.00966 142.63 0.982913C142.476 0.949477 142.129 0.929415 141.587 0.922727V0.290771C142.704 0.317521 143.406 0.330896 143.693 0.330896C144.182 0.330896 144.666 0.317521 145.148 0.290771C145.716 1.03307 146.134 1.58143 146.402 1.93586L148.478 4.49378L151.508 8.14508C152.477 9.30868 153.256 10.2248 153.845 10.8936C154.219 11.3349 154.534 11.6827 154.788 11.9368V4.60412C154.788 3.94876 154.764 3.17971 154.718 2.29698C154.691 1.74193 154.647 1.39753 154.587 1.26378C154.54 1.17685 154.47 1.11332 154.376 1.07319C154.156 0.97957 153.698 0.929415 153.002 0.922727V0.290771C153.791 0.317521 154.59 0.330896 155.4 0.330896C156.162 0.330896 156.854 0.317521 157.476 0.290771V0.922727C156.781 0.929415 156.323 0.97957 156.102 1.07319C156.008 1.11332 155.941 1.18019 155.901 1.27381C155.834 1.40087 155.788 1.75196 155.761 2.32707C155.721 3.2098 155.701 3.96882 155.701 4.60412V9.42905C155.701 10.4054 155.717 12.2277 155.751 14.896L154.718 14.595L154.477 14.5449C154.437 14.5315 154.4 14.5114 154.366 14.4847C154.32 14.4513 154.193 14.3175 153.985 14.0835C153.43 13.4548 153.022 12.98 152.761 12.659L151.467 11.024L144.355 2.52769V10.2215C144.355 10.8769 144.379 11.6493 144.426 12.5387C144.452 13.0937 144.496 13.4348 144.556 13.5618C144.603 13.6555 144.673 13.7223 144.767 13.7625C144.987 13.8561 145.446 13.9062 146.141 13.9129V14.5449C145.553 14.4981 144.904 14.4747 144.195 14.4747C143.419 14.4747 142.577 14.4981 141.667 14.5449Z" fill="#9A9A9A"/>
<path d="M125.231 7.51325C125.231 6.45665 125.389 5.48029 125.703 4.58419C126.024 3.68808 126.552 2.88225 127.288 2.1667C128.023 1.45116 128.856 0.912825 129.786 0.551707C130.715 0.183902 131.778 0 132.975 0C134.079 0 135.082 0.157153 135.985 0.471459C136.888 0.779077 137.626 1.19035 138.202 1.70528C138.783 2.21352 139.241 2.77191 139.576 3.38046C139.83 3.8352 140.031 4.37019 140.178 4.98543C140.332 5.60066 140.408 6.25937 140.408 6.96154C140.408 9.21518 139.649 11.091 138.131 12.589C136.62 14.0869 134.711 14.8359 132.404 14.8359C131.354 14.8359 130.374 14.6654 129.465 14.3243C128.555 13.9833 127.786 13.4784 127.157 12.8096C126.529 12.1342 126.051 11.3184 125.723 10.3621C125.395 9.39909 125.231 8.44948 125.231 7.51325ZM127.318 6.68067C127.318 7.31597 127.381 7.9613 127.508 8.61666C127.636 9.27203 127.796 9.83711 127.99 10.3119C128.311 11.1144 128.729 11.7898 129.244 12.3382C129.765 12.8799 130.344 13.2811 130.979 13.5419C131.621 13.796 132.33 13.9231 133.106 13.9231C134.182 13.9231 135.119 13.6623 135.914 13.1407C136.71 12.6124 137.302 11.8734 137.69 10.9238C138.085 9.96751 138.282 8.86744 138.282 7.62359C138.282 6.5603 138.141 5.5806 137.861 4.6845C137.687 4.13613 137.456 3.64127 137.168 3.1999C136.881 2.75185 136.536 2.36398 136.135 2.0363C135.741 1.70193 135.226 1.42106 134.59 1.19369C133.955 0.966324 133.27 0.852639 132.534 0.852639C131.471 0.852639 130.538 1.09004 129.735 1.56484C128.933 2.03965 128.328 2.72844 127.92 3.63124C127.519 4.52734 127.318 5.54382 127.318 6.68067Z" fill="#9A9A9A"/>
<path d="M123.993 13.9029V14.5449C122.569 14.4914 121.633 14.4646 121.185 14.4646L118.085 14.5449V13.9029C118.874 13.8895 119.356 13.8561 119.529 13.8026C119.703 13.7424 119.824 13.6622 119.891 13.5618C119.971 13.4281 120.021 13.1038 120.041 12.5888C120.048 12.4484 120.061 11.4988 120.081 9.74001V5.09564C120.081 4.18616 120.071 3.29674 120.051 2.42738C120.031 1.79208 119.981 1.41759 119.901 1.30391C119.827 1.18353 119.703 1.0966 119.529 1.0431C119.362 0.982914 118.881 0.946133 118.085 0.932758V0.290771C119.362 0.337583 120.349 0.360989 121.044 0.360989C121.713 0.360989 122.696 0.337583 123.993 0.290771V0.932758C123.197 0.946133 122.713 0.982914 122.539 1.0431C122.372 1.0966 122.255 1.1735 122.188 1.27381C122.107 1.40756 122.057 1.7319 122.037 2.24682C122.031 2.38057 122.017 3.33018 121.997 5.09564V9.74001C121.997 10.6495 122.007 11.5356 122.027 12.3982C122.047 13.0335 122.094 13.4114 122.168 13.5317C122.248 13.6521 122.372 13.7424 122.539 13.8026C122.713 13.8561 123.197 13.8895 123.993 13.9029Z" fill="#9A9A9A"/>
<path d="M105.962 3.61105H105.341C105.334 2.01277 105.3 0.906009 105.24 0.290771C105.969 0.317521 107.113 0.350958 108.671 0.391082C109.935 0.417832 110.777 0.431206 111.199 0.431206C111.653 0.431206 112.707 0.411144 114.358 0.37102C115.555 0.344271 116.428 0.317521 116.977 0.290771C116.896 1.03976 116.843 2.14651 116.816 3.61105H116.174L116.094 2.64807C116.04 2.06627 116.004 1.73524 115.983 1.65499C115.963 1.57474 115.933 1.5179 115.893 1.48447C115.86 1.45103 115.806 1.42428 115.733 1.40422C115.639 1.38416 115.305 1.35741 114.73 1.32397C114.154 1.29053 113.7 1.27381 113.365 1.27381H112.142C112.075 1.9158 112.041 2.78181 112.041 3.87185V9.74001C112.041 10.6495 112.051 11.5356 112.071 12.3982C112.091 13.0335 112.138 13.4114 112.212 13.5317C112.292 13.6521 112.416 13.7424 112.583 13.8026C112.757 13.8561 113.242 13.8895 114.037 13.9029V14.5449C112.84 14.4914 111.941 14.4646 111.339 14.4646C111.078 14.4646 110.035 14.4914 108.209 14.5449V13.9029C109.005 13.8895 109.49 13.8561 109.664 13.8026C109.838 13.7424 109.955 13.6622 110.015 13.5618C110.102 13.4281 110.155 13.1038 110.176 12.5888C110.176 12.4484 110.189 11.4988 110.216 9.74001V3.89192C110.216 3.61105 110.209 3.30343 110.196 2.96906L110.135 1.27381H108.641C107.778 1.27381 107.093 1.30725 106.584 1.37412C106.424 1.39419 106.32 1.43765 106.273 1.50453C106.2 1.61821 106.133 1.98267 106.073 2.59791L105.962 3.61105Z" fill="#9A9A9A"/>
<path d="M90.4893 14.5449V13.8628C91.0176 13.8561 91.3452 13.8361 91.4723 13.8026C91.606 13.7625 91.7264 13.6923 91.8334 13.592C91.9471 13.485 92.1076 13.2142 92.3149 12.7795C92.4353 12.532 92.87 11.5925 93.6189 9.96075L96.1267 4.30324C96.4009 3.68132 96.986 2.29703 97.8821 0.150391H98.5342L102.817 10.2115C103.513 11.8432 103.974 12.8664 104.202 13.281C104.329 13.5151 104.466 13.6689 104.613 13.7425C104.767 13.816 105.108 13.8561 105.636 13.8628V14.5449C104.593 14.4781 103.864 14.4446 103.449 14.4446L100.219 14.5449V13.8628C100.968 13.8494 101.423 13.826 101.584 13.7926C101.744 13.7592 101.851 13.7124 101.905 13.6522C101.965 13.5853 101.995 13.5051 101.995 13.4114C101.995 13.2643 101.948 13.0737 101.854 12.8397L100.621 9.77016H94.8126L93.7193 12.3481C93.5253 12.8096 93.4284 13.1473 93.4284 13.3613C93.4284 13.4549 93.4551 13.5318 93.5086 13.592C93.5822 13.6789 93.6958 13.7391 93.8497 13.7725C94.0971 13.826 94.5318 13.8561 95.1537 13.8628V14.5449C94.0235 14.4847 93.1776 14.4547 92.6158 14.4547C91.9672 14.4547 91.2583 14.4847 90.4893 14.5449ZM95.1537 8.91752H100.219L97.7116 2.8688L95.1537 8.91752Z" fill="#9A9A9A"/>
<path d="M73.4318 14.5449V13.9129C74.134 13.9062 74.5954 13.8527 74.8161 13.7524C74.9097 13.7123 74.9766 13.6488 75.0167 13.5618C75.0836 13.4281 75.1304 13.077 75.1572 12.5086C75.1973 11.6258 75.2173 10.8635 75.2173 10.2215V2.0462C75.2173 1.82552 75.204 1.68174 75.1772 1.61487C75.1237 1.4945 75.0033 1.35072 74.8161 1.18353C74.6957 1.07654 74.5553 1.00966 74.3948 0.982913C74.241 0.949477 73.8932 0.929415 73.3516 0.922727V0.290771C74.4684 0.317521 75.1705 0.330896 75.4581 0.330896C75.9463 0.330896 76.4311 0.317521 76.9126 0.290771C77.481 1.03307 77.899 1.58143 78.1665 1.93586L80.2429 4.49378L83.2723 8.14508C84.2419 9.30868 85.021 10.2248 85.6095 10.8936C85.984 11.3349 86.2983 11.6827 86.5524 11.9368V4.60412C86.5524 3.94876 86.529 3.17971 86.4822 2.29698C86.4554 1.74193 86.412 1.39753 86.3518 1.26378C86.305 1.17685 86.2348 1.11332 86.1411 1.07319C85.9205 0.97957 85.4624 0.929415 84.7669 0.922727V0.290771C85.556 0.317521 86.3551 0.330896 87.1643 0.330896C87.9267 0.330896 88.6188 0.317521 89.2407 0.290771V0.922727C88.5453 0.929415 88.0872 0.97957 87.8665 1.07319C87.7729 1.11332 87.706 1.18019 87.6659 1.27381C87.599 1.40087 87.5522 1.75196 87.5254 2.32707C87.4853 3.2098 87.4652 3.96882 87.4652 4.60412V9.42905C87.4652 10.4054 87.482 12.2277 87.5154 14.896L86.4822 14.595L86.2415 14.5449C86.2013 14.5315 86.1645 14.5114 86.1311 14.4847C86.0843 14.4513 85.9572 14.3175 85.7499 14.0835C85.1949 13.4548 84.787 12.98 84.5261 12.659L83.2321 11.024L76.1201 2.52769V10.2215C76.1201 10.8769 76.1435 11.6493 76.1904 12.5387C76.2171 13.0937 76.2606 13.4348 76.3208 13.5618C76.3676 13.6555 76.4378 13.7223 76.5314 13.7625C76.7521 13.8561 77.2102 13.9062 77.9057 13.9129V14.5449C77.3172 14.4981 76.6685 14.4747 75.9596 14.4747C75.1839 14.4747 74.3413 14.4981 73.4318 14.5449Z" fill="#9A9A9A"/>
<path d="M59.3838 0.932801V0.290814C59.6446 0.297501 60.0425 0.307533 60.5775 0.320907L62.5034 0.371063C62.8846 0.371063 63.4765 0.357688 64.2789 0.330938C65.3222 0.290814 65.9274 0.270752 66.0946 0.270752C67.3718 0.270752 68.3014 0.384437 68.8832 0.611807C69.4717 0.839178 69.9264 1.21033 70.2474 1.72525C70.5684 2.23349 70.7289 2.78854 70.7289 3.39041C70.7289 3.95214 70.5784 4.51054 70.2775 5.06559C69.9766 5.62064 69.5386 6.08207 68.9634 6.44987C68.395 6.81768 67.6527 7.10189 66.7365 7.30251C66.9037 7.53657 67.2983 8.05818 67.9202 8.86735L70.448 12.1977C71.1703 13.1272 71.5916 13.6455 71.7119 13.7525C71.7721 13.7993 71.8323 13.8327 71.8925 13.8528C71.9928 13.8862 72.2135 13.9029 72.5546 13.9029V14.5449C72.0463 14.5048 71.6016 14.4847 71.2204 14.4847C70.8259 14.4847 70.341 14.5048 69.7659 14.5449C69.3312 14.0434 68.6023 13.0637 67.5792 11.6058C67.0107 10.7967 66.5092 10.1212 66.0745 9.57956C65.3723 8.68345 64.7036 7.87094 64.0683 7.14202L64.1686 6.84108C64.5163 6.86115 64.7805 6.87118 64.9611 6.87118C66.1782 6.87118 67.101 6.58362 67.7296 6.00851C68.3582 5.43339 68.6725 4.67438 68.6725 3.73146C68.6725 2.90892 68.4017 2.2569 67.86 1.77541C67.3183 1.28723 66.4991 1.04314 65.4024 1.04314C64.7136 1.04314 64.0382 1.1468 63.3761 1.3541C63.3494 1.71522 63.3293 2.05293 63.316 2.36724C63.3093 2.46086 63.2859 3.43387 63.2457 5.28627V9.74005C63.2457 10.6495 63.2591 11.5356 63.2859 12.3983C63.2992 13.0336 63.3427 13.4114 63.4163 13.5318C63.4965 13.6522 63.6236 13.7424 63.7974 13.8026C63.9713 13.8561 64.4528 13.8896 65.2419 13.9029V14.5449C64.2923 14.4914 63.4196 14.4647 62.6238 14.4647C61.9818 14.4647 60.9018 14.4914 59.3838 14.5449V13.9029C60.1729 13.8896 60.6544 13.8561 60.8283 13.8026C61.0021 13.7424 61.1225 13.6622 61.1894 13.5619C61.2696 13.4281 61.3198 13.1038 61.3398 12.5889C61.3465 12.4484 61.3599 11.4988 61.38 9.74005V5.09568C61.38 4.1862 61.3699 3.29678 61.3499 2.42743C61.3298 1.79213 61.2797 1.41763 61.1994 1.30395C61.1258 1.18358 61.0021 1.09664 60.8283 1.04314C60.6611 0.982956 60.1796 0.946176 59.3838 0.932801Z" fill="#9A9A9A"/>
<path d="M46.8806 14.5452V13.9132C47.5827 13.9065 48.0442 13.853 48.2649 13.7527C48.3585 13.7126 48.4254 13.6491 48.4655 13.5621C48.5323 13.4284 48.5792 13.0773 48.6059 12.5089C48.646 11.6261 48.6661 10.8638 48.6661 10.2218V5.09593C48.6661 4.18645 48.6561 3.29703 48.636 2.42767C48.6159 1.79237 48.5658 1.41788 48.4855 1.30419C48.412 1.18382 48.2883 1.09689 48.1144 1.04339C47.9472 0.9832 47.4657 0.94642 46.6699 0.933045V0.291058L49.5288 0.351245L52.5581 0.301089C54.0093 0.281027 55.0626 0.270996 55.7179 0.270996C56.38 0.270996 57.0052 0.307777 57.5937 0.381338C57.4867 0.762517 57.4132 1.09354 57.373 1.37441C57.3597 1.4346 57.2995 2.13008 57.1925 3.46087H56.5605C56.5672 2.77876 56.5237 2.15683 56.4301 1.59509C56.0623 1.44128 55.6577 1.33763 55.2164 1.28413C54.4674 1.19051 53.7184 1.1437 52.9694 1.1437C52.8089 1.1437 52.4511 1.15707 51.8961 1.18382C51.341 1.21057 50.9431 1.23398 50.7024 1.25404C50.6757 1.99634 50.6556 2.69182 50.6422 3.34049L50.6021 6.73099C51.3845 6.77111 52.1034 6.79117 52.7588 6.79117C53.5546 6.79117 54.2333 6.75439 54.7951 6.68083C55.0091 6.65408 55.1462 6.60058 55.2063 6.52033C55.2665 6.44009 55.32 6.16591 55.3668 5.69779L55.427 4.99562H56.0289V5.18621L55.9787 7.27266L56.0289 9.6099H55.3267L55.2966 8.92778C55.2832 8.43292 55.2364 8.1253 55.1562 8.00493C55.0826 7.88456 54.9388 7.80097 54.7248 7.75415C54.3437 7.67391 53.6047 7.63378 52.508 7.63378C52.0599 7.63378 51.4246 7.6505 50.6021 7.68394C50.5687 8.35267 50.5519 9.34575 50.5519 10.6632C50.5519 11.9003 50.5687 12.8399 50.6021 13.4819C51.5651 13.5554 52.6451 13.5922 53.8421 13.5922C54.6914 13.5922 55.2966 13.5655 55.6577 13.512C56.0189 13.4585 56.3532 13.3682 56.6608 13.2411C56.7411 13.0338 56.8213 12.753 56.9016 12.3985C57.0487 11.8034 57.1457 11.3553 57.1925 11.0544H57.8545C57.6807 12.4052 57.5937 13.5253 57.5937 14.4148C57.0186 14.5017 56.3198 14.5452 55.4972 14.5452L49.5087 14.4649C49.4218 14.4649 48.5457 14.4917 46.8806 14.5452Z" fill="#9A9A9A"/>
<path d="M34.5172 3.61105H33.8952C33.8885 2.01277 33.8551 0.906009 33.7949 0.290771C34.5238 0.317521 35.6674 0.350958 37.2255 0.391082C38.4894 0.417832 39.3321 0.431206 39.7534 0.431206C40.2081 0.431206 41.2614 0.411144 42.9131 0.37102C44.1102 0.344271 44.9829 0.317521 45.5312 0.290771C45.451 1.03976 45.3975 2.14651 45.3707 3.61105H44.7288L44.6485 2.64807C44.595 2.06627 44.5582 1.73524 44.5382 1.65499C44.5181 1.57474 44.488 1.5179 44.4479 1.48447C44.4145 1.45103 44.361 1.42428 44.2874 1.40422C44.1938 1.38416 43.8594 1.35741 43.2843 1.32397C42.7092 1.29053 42.2544 1.27381 41.9201 1.27381H40.6963C40.6294 1.9158 40.596 2.78181 40.596 3.87185V9.74001C40.596 10.6495 40.606 11.5356 40.6261 12.3982C40.6461 13.0335 40.6929 13.4114 40.7665 13.5317C40.8467 13.6521 40.9705 13.7424 41.1376 13.8026C41.3115 13.8561 41.7963 13.8895 42.5921 13.9029V14.5449C41.3951 14.4914 40.4957 14.4646 39.8938 14.4646C39.633 14.4646 38.5898 14.4914 36.7641 14.5449V13.9029C37.5599 13.8895 38.0447 13.8561 38.2186 13.8026C38.3925 13.7424 38.5095 13.6622 38.5697 13.5618C38.6566 13.4281 38.7101 13.1038 38.7302 12.5888C38.7302 12.4484 38.7436 11.4988 38.7703 9.74001V3.89192C38.7703 3.61105 38.7636 3.30343 38.7503 2.96906L38.6901 1.27381H37.1954C36.3328 1.27381 35.6473 1.30725 35.1391 1.37412C34.9786 1.39419 34.8749 1.43765 34.8281 1.50453C34.7546 1.61821 34.6877 1.98267 34.6275 2.59791L34.5172 3.61105Z" fill="#9A9A9A"/>
<path d="M16.6564 14.5449V13.9129C17.3586 13.9062 17.82 13.8527 18.0407 13.7524C18.1343 13.7123 18.2012 13.6488 18.2413 13.5618C18.3082 13.4281 18.355 13.077 18.3818 12.5086C18.4219 11.6258 18.4419 10.8635 18.4419 10.2215V2.0462C18.4419 1.82552 18.4286 1.68174 18.4018 1.61487C18.3483 1.4945 18.228 1.35072 18.0407 1.18353C17.9203 1.07654 17.7799 1.00966 17.6194 0.982913C17.4656 0.949477 17.1178 0.929415 16.5762 0.922727V0.290771C17.693 0.317521 18.3951 0.330896 18.6827 0.330896C19.1709 0.330896 19.6557 0.317521 20.1372 0.290771C20.7056 1.03307 21.1236 1.58143 21.3911 1.93586L23.4675 4.49378L26.4969 8.14508C27.4665 9.30868 28.2456 10.2248 28.8341 10.8936C29.2086 11.3349 29.5229 11.6827 29.777 11.9368V4.60412C29.777 3.94876 29.7536 3.17971 29.7068 2.29698C29.6801 1.74193 29.6366 1.39753 29.5764 1.26378C29.5296 1.17685 29.4594 1.11332 29.3658 1.07319C29.1451 0.97957 28.687 0.929415 27.9915 0.922727V0.290771C28.7806 0.317521 29.5797 0.330896 30.3889 0.330896C31.1513 0.330896 31.8434 0.317521 32.4653 0.290771V0.922727C31.7699 0.929415 31.3118 0.97957 31.0911 1.07319C30.9975 1.11332 30.9306 1.18019 30.8905 1.27381C30.8236 1.40087 30.7768 1.75196 30.75 2.32707C30.7099 3.2098 30.6898 3.96882 30.6898 4.60412V9.42905C30.6898 10.4054 30.7066 12.2277 30.74 14.896L29.7068 14.595L29.4661 14.5449C29.4259 14.5315 29.3892 14.5114 29.3557 14.4847C29.3089 14.4513 29.1818 14.3175 28.9745 14.0835C28.4195 13.4548 28.0116 12.98 27.7508 12.659L26.4567 11.024L19.3447 2.52769V10.2215C19.3447 10.8769 19.3681 11.6493 19.415 12.5387C19.4417 13.0937 19.4852 13.4348 19.5454 13.5618C19.5922 13.6555 19.6624 13.7223 19.756 13.7625C19.9767 13.8561 20.4348 13.9062 21.1303 13.9129V14.5449C20.5418 14.4981 19.8931 14.4747 19.1842 14.4747C18.4085 14.4747 17.5659 14.4981 16.6564 14.5449Z" fill="#9A9A9A"/>
<path d="M15.338 13.9029V14.5449C13.9136 14.4914 12.9773 14.4646 12.5293 14.4646L9.42969 14.5449V13.9029C10.2188 13.8895 10.7003 13.8561 10.8742 13.8026C11.048 13.7424 11.1684 13.6622 11.2353 13.5618C11.3155 13.4281 11.3657 13.1038 11.3857 12.5888C11.3924 12.4484 11.4058 11.4988 11.4259 9.74001V5.09564C11.4259 4.18616 11.4158 3.29674 11.3958 2.42738C11.3757 1.79208 11.3256 1.41759 11.2453 1.30391C11.1717 1.18353 11.048 1.0966 10.8742 1.0431C10.707 0.982914 10.2255 0.946133 9.42969 0.932758V0.290771C10.707 0.337583 11.6934 0.360989 12.3888 0.360989C13.0576 0.360989 14.0406 0.337583 15.338 0.290771V0.932758C14.5422 0.946133 14.0573 0.982914 13.8835 1.0431C13.7163 1.0966 13.5993 1.1735 13.5324 1.27381C13.4521 1.40756 13.402 1.7319 13.3819 2.24682C13.3752 2.38057 13.3619 3.33018 13.3418 5.09564V9.74001C13.3418 10.6495 13.3518 11.5356 13.3719 12.3982C13.3919 13.0335 13.4388 13.4114 13.5123 13.5317C13.5926 13.6521 13.7163 13.7424 13.8835 13.8026C14.0573 13.8561 14.5422 13.8895 15.338 13.9029Z" fill="#9A9A9A"/>
<path d="M158.248 32.9185V32.4536C158.764 32.4487 159.104 32.4094 159.266 32.3356C159.335 32.306 159.384 32.2593 159.414 32.1954C159.463 32.097 159.497 31.8387 159.517 31.4205C159.547 30.7711 159.561 30.2103 159.561 29.738V25.967C159.561 25.298 159.554 24.6436 159.539 24.0041C159.524 23.5367 159.487 23.2612 159.428 23.1776C159.374 23.089 159.283 23.0251 159.155 22.9857C159.032 22.9414 158.678 22.9144 158.093 22.9045V22.4322L160.196 22.4765L162.425 22.4396C163.492 22.4249 164.267 22.4175 164.749 22.4175C165.236 22.4175 165.696 22.4445 166.129 22.4987C166.05 22.7791 165.996 23.0226 165.967 23.2292C165.957 23.2735 165.913 23.7852 165.834 24.7642H165.369C165.374 24.2624 165.342 23.8048 165.273 23.3916C165.002 23.2784 164.705 23.2022 164.38 23.1628C163.829 23.0939 163.278 23.0595 162.727 23.0595C162.609 23.0595 162.346 23.0693 161.938 23.089C161.529 23.1087 161.236 23.1259 161.059 23.1407C161.04 23.6868 161.025 24.1984 161.015 24.6756L160.986 27.1699C161.561 27.1994 162.09 27.2142 162.572 27.2142C163.158 27.2142 163.657 27.1871 164.07 27.133C164.228 27.1133 164.328 27.074 164.373 27.0149C164.417 26.9559 164.456 26.7542 164.491 26.4098L164.535 25.8932H164.978V26.0334L164.941 27.5684L164.978 29.2878H164.461L164.439 28.786C164.429 28.422 164.395 28.1956 164.336 28.1071C164.282 28.0185 164.176 27.957 164.019 27.9226C163.738 27.8636 163.194 27.8341 162.388 27.8341C162.058 27.8341 161.591 27.8464 160.986 27.8709C160.961 28.3629 160.949 29.0935 160.949 30.0627C160.949 30.9728 160.961 31.664 160.986 32.1363C161.694 32.1904 162.489 32.2175 163.369 32.2175C163.994 32.2175 164.439 32.1978 164.705 32.1585C164.97 32.1191 165.216 32.0527 165.443 31.9592C165.502 31.8067 165.561 31.6001 165.62 31.3393C165.728 30.9015 165.799 30.5719 165.834 30.3505H166.321C166.193 31.3442 166.129 32.1683 166.129 32.8226C165.706 32.8866 165.192 32.9185 164.587 32.9185L160.181 32.8595C160.117 32.8595 159.473 32.8792 158.248 32.9185Z" fill="#9A9A9A"/>
<path d="M147.81 22.9045V22.4322C148.001 22.4372 148.294 22.4445 148.688 22.4544L150.105 22.4913C150.385 22.4913 150.82 22.4814 151.411 22.4618C152.178 22.4322 152.623 22.4175 152.746 22.4175C153.686 22.4175 154.37 22.5011 154.798 22.6684C155.231 22.8357 155.565 23.1087 155.802 23.4875C156.038 23.8614 156.156 24.2697 156.156 24.7125C156.156 25.1258 156.045 25.5366 155.824 25.9449C155.602 26.3532 155.28 26.6927 154.857 26.9633C154.439 27.2339 153.893 27.4429 153.219 27.5905C153.342 27.7627 153.632 28.1465 154.09 28.7417L155.949 31.1917C156.481 31.8756 156.79 32.2568 156.879 32.3356C156.923 32.37 156.968 32.3946 157.012 32.4094C157.086 32.434 157.248 32.4463 157.499 32.4463V32.9185C157.125 32.889 156.798 32.8743 156.517 32.8743C156.227 32.8743 155.87 32.889 155.447 32.9185C155.128 32.5496 154.591 31.8288 153.839 30.7563C153.42 30.1611 153.051 29.6642 152.732 29.2657C152.215 28.6064 151.723 28.0087 151.256 27.4725L151.33 27.2511C151.585 27.2658 151.78 27.2732 151.913 27.2732C152.808 27.2732 153.487 27.0617 153.949 26.6386C154.412 26.2155 154.643 25.6571 154.643 24.9634C154.643 24.3583 154.444 23.8786 154.045 23.5244C153.647 23.1653 153.044 22.9857 152.237 22.9857C151.731 22.9857 151.234 23.062 150.747 23.2145C150.727 23.4801 150.712 23.7286 150.702 23.9598C150.697 24.0287 150.68 24.7445 150.651 26.1072V29.3838C150.651 30.0528 150.661 30.7047 150.68 31.3393C150.69 31.8067 150.722 32.0847 150.776 32.1732C150.835 32.2618 150.929 32.3282 151.057 32.3725C151.184 32.4118 151.539 32.4364 152.119 32.4463V32.9185C151.421 32.8792 150.779 32.8595 150.193 32.8595C149.721 32.8595 148.926 32.8792 147.81 32.9185V32.4463C148.39 32.4364 148.744 32.4118 148.872 32.3725C149 32.3282 149.089 32.2691 149.138 32.1954C149.197 32.097 149.234 31.8584 149.249 31.4795C149.253 31.3762 149.263 30.6776 149.278 29.3838V25.967C149.278 25.298 149.271 24.6436 149.256 24.0041C149.241 23.5367 149.204 23.2612 149.145 23.1776C149.091 23.089 149 23.0251 148.872 22.9857C148.749 22.9414 148.395 22.9144 147.81 22.9045Z" fill="#9A9A9A"/>
<path d="M138.905 24.8748H138.448C138.443 23.6989 138.418 22.8847 138.374 22.4321C138.91 22.4518 139.752 22.4764 140.898 22.5059C141.828 22.5256 142.448 22.5354 142.757 22.5354C143.092 22.5354 143.867 22.5207 145.082 22.4912C145.963 22.4715 146.605 22.4518 147.008 22.4321C146.949 22.9831 146.91 23.7973 146.89 24.8748H146.418L146.359 24.1663C146.319 23.7383 146.292 23.4948 146.277 23.4357C146.263 23.3767 146.241 23.3349 146.211 23.3103C146.186 23.2857 146.147 23.266 146.093 23.2513C146.024 23.2365 145.778 23.2168 145.355 23.1922C144.932 23.1676 144.597 23.1553 144.351 23.1553H143.451C143.402 23.6276 143.377 24.2647 143.377 25.0666V29.3836C143.377 30.0527 143.385 30.7046 143.399 31.3392C143.414 31.8066 143.449 32.0845 143.503 32.1731C143.562 32.2617 143.653 32.3281 143.776 32.3723C143.904 32.4117 144.26 32.4363 144.846 32.4461V32.9184C143.965 32.8791 143.304 32.8594 142.861 32.8594C142.669 32.8594 141.901 32.8791 140.558 32.9184V32.4461C141.144 32.4363 141.5 32.4117 141.628 32.3723C141.756 32.3281 141.842 32.269 141.887 32.1952C141.951 32.0968 141.99 31.8582 142.005 31.4794C142.005 31.3761 142.015 30.6775 142.034 29.3836V25.0814C142.034 24.8748 142.029 24.6484 142.02 24.4025L141.975 23.1553H140.876C140.241 23.1553 139.737 23.1799 139.363 23.2291C139.245 23.2439 139.169 23.2759 139.134 23.3251C139.08 23.4087 139.031 23.6768 138.987 24.1294L138.905 24.8748Z" fill="#9A9A9A"/>
<path d="M125.767 32.9184V32.4535C126.284 32.4486 126.623 32.4092 126.785 32.3355C126.854 32.3059 126.903 32.2592 126.933 32.1952C126.982 32.0968 127.017 31.8386 127.036 31.4204C127.066 30.771 127.081 30.2101 127.081 29.7379V23.7235C127.081 23.5612 127.071 23.4554 127.051 23.4062C127.012 23.3177 126.923 23.2119 126.785 23.0889C126.697 23.0102 126.594 22.961 126.475 22.9413C126.362 22.9167 126.107 22.902 125.708 22.897V22.4321C126.53 22.4518 127.046 22.4616 127.258 22.4616C127.617 22.4616 127.974 22.4518 128.328 22.4321C128.746 22.9782 129.053 23.3816 129.25 23.6424L130.778 25.5242L133.006 28.2103C133.72 29.0663 134.293 29.7403 134.726 30.2323C135.001 30.557 135.233 30.8128 135.419 30.9998V25.6053C135.419 25.1232 135.402 24.5574 135.368 23.908C135.348 23.4997 135.316 23.2463 135.272 23.1479C135.237 23.084 135.186 23.0373 135.117 23.0077C134.955 22.9389 134.618 22.902 134.106 22.897V22.4321C134.686 22.4518 135.274 22.4616 135.87 22.4616C136.43 22.4616 136.94 22.4518 137.397 22.4321V22.897C136.886 22.902 136.549 22.9389 136.386 23.0077C136.317 23.0373 136.268 23.0864 136.239 23.1553C136.189 23.2488 136.155 23.5071 136.135 23.9302C136.106 24.5796 136.091 25.138 136.091 25.6053V29.1549C136.091 29.8732 136.103 31.2138 136.128 33.1767L135.368 32.9553L135.191 32.9184C135.161 32.9086 135.134 32.8938 135.11 32.8742C135.075 32.8496 134.982 32.7512 134.829 32.579C134.421 32.1165 134.121 31.7672 133.929 31.5311L132.977 30.3282L127.745 24.0778V29.7379C127.745 30.22 127.762 30.7882 127.796 31.4425C127.816 31.8509 127.848 32.1018 127.892 32.1952C127.927 32.2641 127.978 32.3133 128.047 32.3428C128.21 32.4117 128.547 32.4486 129.058 32.4535V32.9184C128.625 32.884 128.148 32.8668 127.627 32.8668C127.056 32.8668 126.436 32.884 125.767 32.9184Z" fill="#9A9A9A"/>
<path d="M116.48 32.9185V32.4536C116.997 32.4487 117.336 32.4094 117.499 32.3356C117.567 32.306 117.617 32.2593 117.646 32.1954C117.695 32.097 117.73 31.8387 117.749 31.4205C117.779 30.7711 117.794 30.2103 117.794 29.738V25.967C117.794 25.298 117.786 24.6436 117.772 24.0041C117.757 23.5367 117.72 23.2612 117.661 23.1776C117.607 23.089 117.516 23.0251 117.388 22.9857C117.265 22.9414 116.911 22.9144 116.325 22.9045V22.4322L118.428 22.4765L120.657 22.4396C121.725 22.4249 122.499 22.4175 122.982 22.4175C123.469 22.4175 123.929 22.4445 124.361 22.4987C124.283 22.7791 124.229 23.0226 124.199 23.2292C124.189 23.2735 124.145 23.7852 124.066 24.7642H123.601C123.606 24.2624 123.574 23.8048 123.505 23.3916C123.235 23.2784 122.937 23.2022 122.613 23.1628C122.062 23.0939 121.511 23.0595 120.96 23.0595C120.841 23.0595 120.578 23.0693 120.17 23.089C119.762 23.1087 119.469 23.1259 119.292 23.1407C119.272 23.6868 119.257 24.1984 119.247 24.6756L119.218 27.1699C119.794 27.1994 120.322 27.2142 120.805 27.2142C121.39 27.2142 121.889 27.1871 122.303 27.133C122.46 27.1133 122.561 27.074 122.605 27.0149C122.649 26.9559 122.689 26.7542 122.723 26.4098L122.768 25.8932H123.21V26.0334L123.173 27.5684L123.21 29.2878H122.694L122.672 28.786C122.662 28.422 122.627 28.1956 122.568 28.1071C122.514 28.0185 122.408 27.957 122.251 27.9226C121.971 27.8636 121.427 27.8341 120.62 27.8341C120.29 27.8341 119.823 27.8464 119.218 27.8709C119.193 28.3629 119.181 29.0935 119.181 30.0627C119.181 30.9728 119.193 31.664 119.218 32.1363C119.926 32.1904 120.721 32.2175 121.602 32.2175C122.226 32.2175 122.672 32.1978 122.937 32.1585C123.203 32.1191 123.449 32.0527 123.675 31.9592C123.734 31.8067 123.793 31.6001 123.852 31.3393C123.961 30.9015 124.032 30.5719 124.066 30.3505H124.553C124.425 31.3442 124.361 32.1683 124.361 32.8226C123.938 32.8866 123.424 32.9185 122.819 32.9185L118.414 32.8595C118.35 32.8595 117.705 32.8792 116.48 32.9185Z" fill="#9A9A9A"/>
<path d="M115.385 31.6124L115.097 32.2987C114.521 32.589 113.958 32.798 113.407 32.926C112.856 33.0588 112.256 33.1252 111.606 33.1252C110.844 33.1252 110.135 33.0293 109.481 32.8374C108.827 32.6455 108.254 32.3725 107.762 32.0183C107.275 31.6591 106.876 31.2582 106.566 30.8154C106.256 30.3726 106.02 29.893 105.858 29.3764C105.695 28.8549 105.614 28.2842 105.614 27.6644C105.614 26.095 106.16 24.7962 107.253 23.768C108.35 22.7348 109.845 22.2183 111.739 22.2183C112.187 22.2183 112.6 22.2453 112.979 22.2994C113.363 22.3486 113.828 22.447 114.374 22.5946C114.925 22.7373 115.262 22.8209 115.385 22.8455C115.277 23.1161 115.195 23.3818 115.141 23.6425C115.063 24.0607 115.008 24.5453 114.979 25.0963H114.514L114.507 24.2255C114.457 23.7434 114.189 23.3842 113.702 23.1481C113.22 22.9119 112.512 22.7939 111.577 22.7939C110.878 22.8037 110.285 22.8947 109.798 23.0669C109.311 23.2342 108.881 23.5023 108.507 23.8713C108.138 24.2353 107.835 24.7002 107.599 25.266C107.363 25.8268 107.243 26.5328 107.238 27.3839C107.238 28.8746 107.693 30.075 108.603 30.9851C109.513 31.8904 110.716 32.343 112.212 32.343C112.886 32.343 113.51 32.2495 114.086 32.0625C114.48 31.9346 114.871 31.7329 115.259 31.4574L115.385 31.6124Z" fill="#9A9A9A"/>
<path d="M93.5498 32.557C93.6285 32.0847 93.6753 31.3197 93.69 30.2619H94.1918C94.2164 30.9802 94.2558 31.4058 94.3099 31.5386C94.3689 31.6665 94.5067 31.8043 94.7232 31.9519C94.9396 32.0994 95.2299 32.2323 95.5939 32.3504C95.958 32.4635 96.3098 32.5201 96.6492 32.5201C97.1461 32.5201 97.6036 32.4069 98.0218 32.1806C98.44 31.9494 98.745 31.6493 98.9369 31.2803C99.1287 30.9064 99.2247 30.5079 99.2247 30.0848C99.2247 29.7601 99.1755 29.4797 99.0771 29.2436C98.9836 29.0074 98.8385 28.818 98.6417 28.6753C98.4449 28.5278 98.2014 28.4244 97.9111 28.3654C97.7291 28.3359 97.365 28.2867 96.8189 28.2178C96.2729 28.1489 95.8079 28.0727 95.4242 27.9891C94.9126 27.8316 94.5362 27.6471 94.2951 27.4356C94.0541 27.224 93.8573 26.9461 93.7048 26.6017C93.5572 26.2573 93.4834 25.8859 93.4834 25.4874C93.4834 24.9069 93.6334 24.3608 93.9335 23.8491C94.2386 23.3326 94.6863 22.9316 95.2766 22.6463C95.8719 22.3609 96.5164 22.2183 97.2101 22.2183C97.6282 22.2183 98.0833 22.2748 98.5753 22.388C99.0722 22.4962 99.5346 22.6561 99.9626 22.8677C99.8937 23.1776 99.8445 23.4679 99.815 23.7384C99.7855 24.0041 99.7634 24.3977 99.7486 24.9192H99.2468C99.232 24.1615 99.2099 23.7483 99.1804 23.6794C99.0574 23.5023 98.8901 23.3424 98.6786 23.1997C98.1719 22.9144 97.643 22.7717 97.092 22.7717C96.3786 22.7717 95.8079 22.9907 95.3799 23.4285C94.9568 23.8614 94.7453 24.4247 94.7453 25.1184C94.7453 25.5366 94.8216 25.8613 94.9741 26.0925C95.1266 26.3188 95.3996 26.5008 95.7932 26.6386C96.0638 26.7321 96.5065 26.8206 97.1215 26.9043C97.7365 26.983 98.2899 27.0691 98.7819 27.1625C99.2443 27.3003 99.5863 27.4651 99.8077 27.657C100.029 27.8439 100.211 28.0924 100.354 28.4023C100.496 28.7073 100.568 29.0665 100.568 29.4797C100.568 30.4587 100.162 31.3123 99.3501 32.0404C98.5384 32.7685 97.488 33.1326 96.1991 33.1326C95.225 33.1326 94.3419 32.9407 93.5498 32.557Z" fill="#9A9A9A"/>
<path d="M85.457 32.557C85.5358 32.0847 85.5825 31.3197 85.5973 30.2619H86.0991C86.1237 30.9802 86.163 31.4058 86.2171 31.5386C86.2762 31.6665 86.4139 31.8043 86.6304 31.9519C86.8468 32.0994 87.1371 32.2323 87.5012 32.3504C87.8652 32.4635 88.217 32.5201 88.5564 32.5201C89.0533 32.5201 89.5109 32.4069 89.929 32.1806C90.3472 31.9494 90.6522 31.6493 90.8441 31.2803C91.036 30.9064 91.1319 30.5079 91.1319 30.0848C91.1319 29.7601 91.0827 29.4797 90.9843 29.2436C90.8908 29.0074 90.7457 28.818 90.5489 28.6753C90.3521 28.5278 90.1086 28.4244 89.8183 28.3654C89.6363 28.3359 89.2723 28.2867 88.7262 28.2178C88.1801 28.1489 87.7152 28.0727 87.3314 27.9891C86.8198 27.8316 86.4434 27.6471 86.2024 27.4356C85.9613 27.224 85.7645 26.9461 85.612 26.6017C85.4644 26.2573 85.3906 25.8859 85.3906 25.4874C85.3906 24.9069 85.5407 24.3608 85.8408 23.8491C86.1458 23.3326 86.5935 22.9316 87.1839 22.6463C87.7791 22.3609 88.4236 22.2183 89.1173 22.2183C89.5355 22.2183 89.9905 22.2748 90.4825 22.388C90.9794 22.4962 91.4418 22.6561 91.8698 22.8677C91.801 23.1776 91.7518 23.4679 91.7223 23.7384C91.6927 24.0041 91.6706 24.3977 91.6558 24.9192H91.154C91.1393 24.1615 91.1171 23.7483 91.0876 23.6794C90.9646 23.5023 90.7974 23.3424 90.5858 23.1997C90.0791 22.9144 89.5502 22.7717 88.9992 22.7717C88.2859 22.7717 87.7152 22.9907 87.2872 23.4285C86.8641 23.8614 86.6525 24.4247 86.6525 25.1184C86.6525 25.5366 86.7288 25.8613 86.8813 26.0925C87.0338 26.3188 87.3068 26.5008 87.7004 26.6386C87.971 26.7321 88.4138 26.8206 89.0287 26.9043C89.6437 26.983 90.1972 27.0691 90.6891 27.1625C91.1516 27.3003 91.4935 27.4651 91.7149 27.657C91.9363 27.8439 92.1183 28.0924 92.261 28.4023C92.4036 28.7073 92.475 29.0665 92.475 29.4797C92.475 30.4587 92.0691 31.3123 91.2573 32.0404C90.4456 32.7685 89.3952 33.1326 88.1063 33.1326C87.1322 33.1326 86.2491 32.9407 85.457 32.557Z" fill="#9A9A9A"/>
<path d="M76.111 32.9185V32.4536C76.6276 32.4487 76.9671 32.4094 77.1294 32.3356C77.1983 32.306 77.2475 32.2593 77.277 32.1954C77.3262 32.097 77.3606 31.8387 77.3803 31.4205C77.4098 30.7711 77.4246 30.2103 77.4246 29.738V25.967C77.4246 25.298 77.4172 24.6436 77.4024 24.0041C77.3877 23.5367 77.3508 23.2612 77.2917 23.1776C77.2376 23.089 77.1466 23.0251 77.0187 22.9857C76.8957 22.9414 76.5415 22.9144 75.9561 22.9045V22.4322L78.0592 22.4765L80.2878 22.4396C81.3554 22.4249 82.1303 22.4175 82.6124 22.4175C83.0994 22.4175 83.5594 22.4445 83.9924 22.4987C83.9136 22.7791 83.8595 23.0226 83.83 23.2292C83.8202 23.2735 83.7759 23.7852 83.6972 24.7642H83.2323C83.2372 24.2624 83.2052 23.8048 83.1363 23.3916C82.8657 23.2784 82.5681 23.2022 82.2434 23.1628C81.6924 23.0939 81.1414 23.0595 80.5904 23.0595C80.4723 23.0595 80.2091 23.0693 79.8008 23.089C79.3925 23.1087 79.0997 23.1259 78.9226 23.1407C78.9029 23.6868 78.8882 24.1984 78.8783 24.6756L78.8488 27.1699C79.4244 27.1994 79.9533 27.2142 80.4354 27.2142C81.0209 27.2142 81.5202 27.1871 81.9335 27.133C82.0909 27.1133 82.1918 27.074 82.236 27.0149C82.2803 26.9559 82.3197 26.7542 82.3541 26.4098L82.3984 25.8932H82.8412V26.0334L82.8043 27.5684L82.8412 29.2878H82.3246L82.3024 28.786C82.2926 28.422 82.2582 28.1956 82.1991 28.1071C82.145 28.0185 82.0392 27.957 81.8818 27.9226C81.6014 27.8636 81.0578 27.8341 80.2509 27.8341C79.9213 27.8341 79.4539 27.8464 78.8488 27.8709C78.8242 28.3629 78.8119 29.0935 78.8119 30.0627C78.8119 30.9728 78.8242 31.664 78.8488 32.1363C79.5573 32.1904 80.3518 32.2175 81.2324 32.2175C81.8572 32.2175 82.3024 32.1978 82.5681 32.1585C82.8338 32.1191 83.0798 32.0527 83.3061 31.9592C83.3651 31.8067 83.4241 31.6001 83.4832 31.3393C83.5914 30.9015 83.6627 30.5719 83.6972 30.3505H84.1842C84.0563 31.3442 83.9924 32.1683 83.9924 32.8226C83.5693 32.8866 83.0552 32.9185 82.45 32.9185L78.0445 32.8595C77.9805 32.8595 77.336 32.8792 76.111 32.9185Z" fill="#9A9A9A"/>
<path d="M63.2973 32.9184V32.4535C63.8139 32.4486 64.1533 32.4092 64.3157 32.3355C64.3846 32.3059 64.4338 32.2592 64.4633 32.1952C64.5125 32.0968 64.5469 31.8386 64.5666 31.4204C64.5961 30.771 64.6109 30.2101 64.6109 29.7379V23.7235C64.6109 23.5612 64.601 23.4554 64.5814 23.4062C64.542 23.3177 64.4534 23.2119 64.3157 23.0889C64.2271 23.0102 64.1238 22.961 64.0058 22.9413C63.8926 22.9167 63.6368 22.902 63.2383 22.897V22.4321C64.0599 22.4518 64.5764 22.4616 64.788 22.4616C65.1471 22.4616 65.5038 22.4518 65.858 22.4321C66.2762 22.9782 66.5837 23.3816 66.7805 23.6424L68.308 25.5242L70.5366 28.2103C71.25 29.0663 71.8231 29.7403 72.2561 30.2323C72.5316 30.557 72.7628 30.8128 72.9497 30.9998V25.6053C72.9497 25.1232 72.9325 24.5574 72.8981 23.908C72.8784 23.4997 72.8464 23.2463 72.8021 23.1479C72.7677 23.084 72.716 23.0373 72.6472 23.0077C72.4848 22.9389 72.1478 22.902 71.6362 22.897V22.4321C72.2167 22.4518 72.8046 22.4616 73.3999 22.4616C73.9607 22.4616 74.4699 22.4518 74.9274 22.4321V22.897C74.4158 22.902 74.0788 22.9389 73.9165 23.0077C73.8476 23.0373 73.7984 23.0864 73.7689 23.1553C73.7197 23.2488 73.6852 23.5071 73.6655 23.9302C73.636 24.5796 73.6213 25.138 73.6213 25.6053V29.1549C73.6213 29.8732 73.6336 31.2138 73.6582 33.1767L72.8981 32.9553L72.721 32.9184C72.6914 32.9086 72.6644 32.8938 72.6398 32.8742C72.6054 32.8496 72.5119 32.7512 72.3594 32.579C71.951 32.1165 71.6509 31.7672 71.4591 31.5311L70.5071 30.3282L65.275 24.0778V29.7379C65.275 30.22 65.2922 30.7882 65.3267 31.4425C65.3464 31.8509 65.3783 32.1018 65.4226 32.1952C65.4571 32.2641 65.5087 32.3133 65.5776 32.3428C65.7399 32.4117 66.0769 32.4486 66.5886 32.4535V32.9184C66.1557 32.884 65.6784 32.8668 65.157 32.8668C64.5863 32.8668 63.9664 32.884 63.2973 32.9184Z" fill="#9A9A9A"/>
<path d="M62.327 32.4461V32.9184C61.2791 32.8791 60.5904 32.8594 60.2607 32.8594L57.9805 32.9184V32.4461C58.561 32.4363 58.9152 32.4117 59.0431 32.3723C59.171 32.3281 59.2596 32.269 59.3088 32.1952C59.3678 32.0968 59.4047 31.8582 59.4195 31.4794C59.4244 31.3761 59.4342 30.6775 59.449 29.3836V25.9669C59.449 25.2978 59.4416 24.6435 59.4269 24.004C59.4121 23.5366 59.3752 23.2611 59.3162 23.1775C59.262 23.0889 59.171 23.025 59.0431 22.9856C58.9201 22.9413 58.5659 22.9143 57.9805 22.9044V22.4321C58.9201 22.4666 59.6458 22.4838 60.1574 22.4838C60.6494 22.4838 61.3726 22.4666 62.327 22.4321V22.9044C61.7416 22.9143 61.3849 22.9413 61.257 22.9856C61.134 23.025 61.0479 23.0815 60.9987 23.1553C60.9397 23.2537 60.9028 23.4923 60.888 23.8711C60.8831 23.9695 60.8732 24.6681 60.8585 25.9669V29.3836C60.8585 30.0527 60.8659 30.7046 60.8806 31.3392C60.8954 31.8066 60.9298 32.0845 60.9839 32.1731C61.043 32.2617 61.134 32.3281 61.257 32.3723C61.3849 32.4117 61.7416 32.4363 62.327 32.4461Z" fill="#9A9A9A"/>
<path d="M50.0215 32.557C50.1002 32.0847 50.1469 31.3197 50.1617 30.2619H50.6635C50.6881 30.9802 50.7275 31.4058 50.7816 31.5386C50.8406 31.6665 50.9784 31.8043 51.1948 31.9519C51.4113 32.0994 51.7016 32.2323 52.0656 32.3504C52.4297 32.4635 52.7814 32.5201 53.1209 32.5201C53.6178 32.5201 54.0753 32.4069 54.4935 32.1806C54.9117 31.9494 55.2167 31.6493 55.4085 31.2803C55.6004 30.9064 55.6963 30.5079 55.6963 30.0848C55.6963 29.7601 55.6472 29.4797 55.5488 29.2436C55.4553 29.0074 55.3102 28.818 55.1134 28.6753C54.9166 28.5278 54.6731 28.4244 54.3828 28.3654C54.2008 28.3359 53.8367 28.2867 53.2906 28.2178C52.7445 28.1489 52.2796 28.0727 51.8959 27.9891C51.3842 27.8316 51.0079 27.6471 50.7668 27.4356C50.5258 27.224 50.329 26.9461 50.1765 26.6017C50.0289 26.2573 49.9551 25.8859 49.9551 25.4874C49.9551 24.9069 50.1051 24.3608 50.4052 23.8491C50.7102 23.3326 51.1579 22.9316 51.7483 22.6463C52.3436 22.3609 52.9881 22.2183 53.6817 22.2183C54.0999 22.2183 54.555 22.2748 55.047 22.388C55.5438 22.4962 56.0063 22.6561 56.4343 22.8677C56.3654 23.1776 56.3162 23.4679 56.2867 23.7384C56.2572 24.0041 56.2351 24.3977 56.2203 24.9192H55.7185C55.7037 24.1615 55.6816 23.7483 55.6521 23.6794C55.5291 23.5023 55.3618 23.3424 55.1503 23.1997C54.6435 22.9144 54.1147 22.7717 53.5637 22.7717C52.8503 22.7717 52.2796 22.9907 51.8516 23.4285C51.4285 23.8614 51.217 24.4247 51.217 25.1184C51.217 25.5366 51.2932 25.8613 51.4457 26.0925C51.5983 26.3188 51.8713 26.5008 52.2649 26.6386C52.5355 26.7321 52.9782 26.8206 53.5932 26.9043C54.2081 26.983 54.7616 27.0691 55.2536 27.1625C55.716 27.3003 56.0579 27.4651 56.2793 27.657C56.5007 27.8439 56.6827 28.0924 56.8254 28.4023C56.9681 28.7073 57.0394 29.0665 57.0394 29.4797C57.0394 30.4587 56.6335 31.3123 55.8218 32.0404C55.0101 32.7685 53.9597 33.1326 52.6707 33.1326C51.6966 33.1326 50.8136 32.9407 50.0215 32.557Z" fill="#9A9A9A"/>
<path d="M37.8477 22.9044V22.4321C38.6496 22.4715 39.3949 22.4912 40.0837 22.4912C40.7822 22.4912 41.4759 22.4715 42.1647 22.4321V22.9044C41.5842 22.9143 41.2299 22.9413 41.102 22.9856C40.9741 23.025 40.888 23.0815 40.8437 23.1553C40.7798 23.2537 40.7404 23.4923 40.7257 23.8711C40.7208 23.9695 40.7109 24.6681 40.6962 25.9669V28.6973C40.6962 29.7551 40.7626 30.4537 40.8954 30.7931C41.0332 31.1277 41.2496 31.4056 41.5448 31.627C41.7711 31.7943 42.0761 31.9296 42.4599 32.0329C42.8436 32.1313 43.2716 32.1805 43.7439 32.1805C44.2949 32.1805 44.7844 32.1141 45.2124 31.9812C45.6404 31.8435 45.9602 31.6787 46.1718 31.4868C46.3882 31.29 46.5481 31.0711 46.6514 30.83C46.7597 30.589 46.8359 30.2593 46.8802 29.8412C46.9294 29.4181 46.954 28.8843 46.954 28.2398V25.9669C46.954 25.2978 46.9442 24.6435 46.9245 24.004C46.9146 23.5366 46.8802 23.2611 46.8212 23.1775C46.767 23.0889 46.676 23.025 46.5481 22.9856C46.4202 22.9413 46.066 22.9143 45.4855 22.9044V22.4321C46.2972 22.4715 46.89 22.4912 47.2639 22.4912C47.6034 22.4912 48.2159 22.4715 49.1014 22.4321V22.9044C48.516 22.9143 48.1593 22.9413 48.0314 22.9856C47.9084 23.025 47.8223 23.0815 47.7731 23.1553C47.7141 23.2537 47.6772 23.4923 47.6624 23.8711C47.6575 23.9695 47.6477 24.6681 47.6329 25.9669V28.4391C47.6329 29.6542 47.5468 30.5029 47.3746 30.985C47.2074 31.4671 46.8974 31.8927 46.4448 32.2617C46.1053 32.5372 45.6675 32.7512 45.1312 32.9037C44.5999 33.0562 44.0096 33.1324 43.3602 33.1324C42.6025 33.1324 41.9458 33.0439 41.3898 32.8668C40.8339 32.6847 40.4108 32.4486 40.1205 32.1583C39.8303 31.8632 39.631 31.5631 39.5228 31.258C39.3851 30.8546 39.3162 30.1782 39.3162 29.2287V25.9669C39.3162 25.2978 39.3088 24.6435 39.294 24.004C39.2793 23.5366 39.2424 23.2611 39.1834 23.1775C39.1292 23.0889 39.0382 23.025 38.9103 22.9856C38.7873 22.9413 38.4331 22.9143 37.8477 22.9044Z" fill="#9A9A9A"/>
<path d="M29.049 32.9185V32.5717C29.354 32.4192 29.5238 32.3257 29.5582 32.2913C29.5926 32.2519 29.6197 32.1855 29.6394 32.092C29.6689 31.9444 29.6935 31.632 29.7132 31.1548C29.7378 30.6727 29.7501 30.3062 29.7501 30.0553V25.6054C29.7501 25.1233 29.7353 24.5575 29.7058 23.9081C29.6861 23.4998 29.6517 23.2464 29.6025 23.1481C29.5681 23.0841 29.5164 23.0374 29.4475 23.0078C29.2852 22.939 28.9482 22.9021 28.4365 22.8971V22.4322C28.5989 22.4421 28.803 22.447 29.049 22.447L30.584 22.4839L33.2996 22.4175C34.0179 22.4175 34.5714 22.4913 34.96 22.6389C35.3487 22.7865 35.6512 23.0275 35.8677 23.3621C36.0891 23.6917 36.1998 24.0607 36.1998 24.469C36.1998 24.7937 36.1334 25.0987 36.0005 25.384C35.8726 25.6694 35.698 25.9178 35.4766 26.1294C35.2601 26.336 35.0166 26.5057 34.746 26.6386C34.4804 26.7665 34.1311 26.8846 33.6981 26.9928C34.2737 27.0469 34.7386 27.1281 35.0929 27.2363C35.4471 27.3396 35.7423 27.4971 35.9784 27.7086C36.2195 27.9152 36.4015 28.1686 36.5245 28.4687C36.6475 28.7688 36.709 29.1033 36.709 29.4723C36.709 30.2004 36.4876 30.8424 36.0448 31.3984C35.607 31.9494 35.0412 32.3577 34.3475 32.6234C33.831 32.8202 33.2185 32.9185 32.51 32.9185L30.37 32.8595C30.1387 32.8595 29.6984 32.8792 29.049 32.9185ZM31.1522 26.7862C31.4326 26.8009 31.6786 26.8083 31.8901 26.8083C32.5002 26.8083 32.97 26.7616 33.2996 26.6681C33.6342 26.5746 33.8925 26.4516 34.0745 26.2991C34.2565 26.1466 34.4066 25.94 34.5246 25.6792C34.6476 25.4185 34.7091 25.1135 34.7091 24.7642C34.7091 24.1492 34.5123 23.7064 34.1188 23.4359C33.7301 23.1604 33.1594 23.0226 32.4067 23.0226C31.9885 23.0226 31.5925 23.0595 31.2186 23.1333C31.1743 23.5416 31.1522 24.1738 31.1522 25.0298V26.7862ZM31.1743 32.1585C31.5433 32.247 31.932 32.2913 32.3403 32.2913C32.9897 32.2913 33.5136 32.1929 33.9121 31.9961C34.3106 31.7944 34.6156 31.4918 34.8272 31.0884C35.0437 30.685 35.1519 30.2226 35.1519 29.7011C35.1519 29.1845 35.051 28.7516 34.8493 28.4023C34.6476 28.0481 34.3451 27.7873 33.9416 27.62C33.5432 27.4479 32.8839 27.3618 31.9639 27.3618C31.7524 27.3618 31.4818 27.3716 31.1522 27.3913V30.1881C31.1522 30.4587 31.1596 31.1155 31.1743 32.1585Z" fill="#9A9A9A"/>
<path d="M0.526367 17.5569H194.501V18.7617H0.526367V17.5569Z" fill="#9A9A9A"/>
</svg>
