<svg width="186" height="35" viewBox="0 0 186 35" fill="none" xmlns="http://www.w3.org/2000/svg">
<mask id="mask0_1241_1115" style="mask-type:luminance" maskUnits="userSpaceOnUse" x="0" y="0" width="186" height="35">
<path d="M185.553 0H0.552734V34.5264H185.553V0Z" fill="white"/>
</mask>
<g mask="url(#mask0_1241_1115)">
<path d="M26.1345 22.604C26.1345 28.8079 20.8296 34.5264 13.3434 34.5264C9.49262 34.5264 6.18043 32.9889 3.91842 30.6692C2.81435 29.5632 1.95264 28.2145 1.38714 26.8119C0.0945631 23.629 0.229206 19.9066 2.3835 16.5618L10.1928 4.36975L11.1083 2.94014C11.243 2.72435 11.5931 2.72435 11.7277 2.94014L12.6433 4.36975L13.4242 5.58356L18.0559 12.8665L20.7219 17.0205L21.4758 18.2072C21.6374 18.4501 21.7721 18.7198 21.9068 18.9626C22.5261 20.1763 22.8223 21.4441 22.8223 22.6849C22.8223 26.9198 19.4832 30.804 14.6629 31.3704C14.5013 31.3974 14.3668 31.3974 14.2052 31.3974C14.0705 31.3974 13.9358 31.4244 13.7743 31.4244C13.6397 31.4244 13.505 31.4244 13.3973 31.4244C13.2627 31.4244 12.9664 31.4244 12.9395 31.4244V29.5902V29.5632L17.3827 22.4152H12.374V26.8119C12.374 28.5112 11.4585 29.9948 9.84274 30.831C9.16947 30.5882 8.55017 30.2645 7.95771 29.8869C7.79614 29.779 7.60764 29.6441 7.44607 29.5363C5.91115 28.4034 4.78014 26.785 4.2685 25.0047C4.07999 24.3303 3.94536 23.629 3.91842 22.9276C3.8915 21.3632 4.2685 19.7448 5.23792 18.2342L10.1659 10.5198L11.3777 8.63161V9.38685C11.3777 11.3559 10.7852 13.298 9.73497 14.9974L7.01522 19.1783C6.39585 20.1763 6.04578 21.2014 5.99192 22.2264C5.965 22.7389 5.99192 23.2513 6.04578 23.7368C6.39585 25.7599 7.74229 27.5942 9.68117 28.6191C10.0043 28.1606 10.2197 27.5942 10.2736 27.0007V20.4461H19.6986V22.3882L15.4978 29.2935C18.6483 28.4303 20.7488 25.679 20.7488 22.7119C20.7488 22.1994 20.695 21.6869 20.5603 21.1474C20.3987 20.473 20.1025 19.8526 19.7255 19.2053L19.564 18.9356L16.2517 13.8375L13.3703 9.3059L12.1586 7.41778L11.5392 6.44672C11.4854 6.33883 11.3238 6.33883 11.243 6.44672L4.13385 17.5869C2.84128 19.6099 2.41042 21.7678 2.67971 23.8718C2.81435 24.9507 3.16442 26.0027 3.64914 26.9737C4.13385 27.9178 4.75321 28.7809 5.53414 29.5363C5.64185 29.6441 5.74957 29.752 5.85729 29.8599C6.50357 30.4263 7.23065 30.9389 8.0385 31.3704C8.09236 31.3974 8.14622 31.4244 8.20007 31.4514C9.14257 31.9369 10.1389 32.2606 11.243 32.4764C11.9162 32.5843 12.6164 32.6652 13.3434 32.6652H13.3703C19.6178 32.6382 24.061 27.8639 24.061 22.6849C24.061 20.9855 23.5763 19.2593 22.5261 17.5869L19.2138 12.3539L13.3434 3.15592L12.1317 1.26776L11.3238 0C12.8048 0 14.2052 0.728291 14.9861 1.94211L21.0181 11.329L24.3572 16.5349C25.5959 18.504 26.1345 20.608 26.1345 22.604Z" fill="#9A9A9A"/>
<path d="M45.0757 14.5657C43.8639 15.7525 42.3559 16.3459 40.5517 16.3459C38.7475 16.3459 37.2394 15.7525 36.0546 14.5657C34.8697 13.3788 34.2773 11.9222 34.2773 10.1959C34.2773 8.49653 34.8697 7.01301 36.0815 5.82617C37.2933 4.63932 38.8014 4.0459 40.6056 4.0459C42.4097 4.0459 43.9178 4.63932 45.1027 5.82617C46.2875 7.01301 46.8799 8.46955 46.8799 10.1959C46.8799 11.9222 46.3145 13.3788 45.0757 14.5657ZM38.0204 12.8394C38.7206 13.5676 39.5553 13.9183 40.5787 13.9183C41.6019 13.9183 42.4905 13.5406 43.1368 12.8394C43.7831 12.138 44.1601 11.2209 44.1601 10.1689C44.1601 9.14393 43.8101 8.2268 43.1368 7.52551C42.4367 6.79722 41.6019 6.44656 40.5787 6.44656C39.5553 6.44656 38.6667 6.82419 38.0204 7.52551C37.3472 8.2268 36.9971 9.14393 36.9971 10.1959C36.9971 11.2209 37.3472 12.138 38.0204 12.8394Z" fill="#9A9A9A"/>
<path d="M48.792 9.62945V7.33671C48.792 6.25777 49.0343 5.44855 49.5729 4.93605C50.1115 4.42355 50.8924 4.18078 51.9157 4.15381L52.1581 5.23276C50.9732 5.34066 50.4077 5.93408 50.4885 6.90514H51.5387V9.62945H48.792Z" fill="#9A9A9A"/>
<path d="M53.7461 16.1573V14.1612L60.2898 6.52763H53.9615V4.23486H63.6828V6.20394L57.1122 13.8375H63.6559V16.1303H53.7461V16.1573Z" fill="#9A9A9A"/>
<path d="M70.173 16.3189C68.2341 16.3189 66.5376 15.6716 65.1104 14.4038L66.6453 12.5426C67.8033 13.5137 68.9881 13.9992 70.1999 13.9992C70.7385 13.9992 71.1424 13.9183 71.4655 13.7025C71.7887 13.4867 71.9234 13.2169 71.9234 12.8394C71.9234 12.4887 71.7618 12.2189 71.4386 12.0032C71.1155 11.7874 70.4692 11.5715 69.4998 11.3018C68.7996 11.14 68.261 10.9512 67.8571 10.7893C67.4531 10.6275 67.0223 10.4117 66.6723 10.1419C66.2952 9.87219 65.999 9.52159 65.8374 9.11695C65.649 8.71238 65.5951 8.19982 65.5951 7.63341C65.5951 6.55446 65.9721 5.6913 66.7531 5.04393C67.5339 4.36958 68.5303 4.0459 69.769 4.0459C71.4386 4.0459 72.9466 4.5584 74.1854 5.55643L72.8389 7.52551C71.7079 6.74327 70.6846 6.36564 69.7421 6.36564C69.2574 6.36564 68.8804 6.44656 68.6111 6.66235C68.3418 6.87814 68.2341 7.1209 68.2341 7.44459C68.2341 7.82222 68.3957 8.11895 68.7188 8.30774C69.042 8.49653 69.7421 8.71238 70.7924 9.0091C72.0849 9.3597 73.0544 9.79132 73.6468 10.3308C74.2661 10.8703 74.5623 11.6255 74.5623 12.6236C74.5623 13.7834 74.1854 14.7005 73.3775 15.3479C72.5427 15.9952 71.4924 16.3189 70.173 16.3189Z" fill="#9A9A9A"/>
<path d="M81.7804 16.3461C80.137 16.3461 78.8986 15.8875 77.9831 14.9974C77.0945 14.1072 76.6367 12.7855 76.6367 11.0592V4.23486H79.2488V10.9783C79.2488 11.9224 79.4911 12.6506 79.9218 13.1631C80.353 13.6757 80.9995 13.9185 81.8342 13.9185C82.669 13.9185 83.2878 13.6757 83.7459 13.1901C84.1763 12.7046 84.4192 12.0033 84.4192 11.0592V4.23486H87.0311V10.9513C87.0311 12.7316 86.573 14.0533 85.6575 14.9704C84.6883 15.8606 83.3954 16.3461 81.7804 16.3461Z" fill="#9A9A9A"/>
<path d="M93.4658 16.2381L88.6455 4.23486H91.5264L94.6234 12.6237L97.7203 4.23486H100.548L95.7548 16.2381H93.4658Z" fill="#9A9A9A"/>
<path d="M105.153 16.1573V6.6625H101.545V4.23486H111.401V6.6625H107.766V16.1573H105.153Z" fill="#9A9A9A"/>
<path d="M110.862 16.1571L115.952 4.15381H118.375L123.464 16.1571H120.745L119.667 13.4867H114.632L113.555 16.1571H110.862ZM115.547 11.167H118.725L117.136 7.30974L115.547 11.167Z" fill="#9A9A9A"/>
<path d="M123.276 9.71052L123.034 8.63158C124.219 8.52366 124.784 7.93022 124.704 6.9592H123.653V4.23486H126.4V6.52763C126.4 7.60657 126.157 8.41581 125.619 8.9283C125.08 9.44079 124.299 9.68354 123.276 9.71052Z" fill="#9A9A9A"/>
<path d="M128.797 16.1573V4.23486H131.624L134.748 9.27898L137.872 4.23486H140.699V16.1573H138.114V8.38883L134.775 13.4599H134.694L131.382 8.41581V16.1303L128.797 16.1573Z" fill="#9A9A9A"/>
<path d="M143.661 16.1573V4.23486H146.273V16.1573H143.661Z" fill="#9A9A9A"/>
<path d="M149.263 16.1573V4.23486H151.686L157.261 11.5717V4.23486H159.819V16.1573H157.583L151.821 8.6046V16.1573H149.263Z" fill="#9A9A9A"/>
<path d="M172.987 14.5657C171.775 15.7525 170.267 16.3459 168.463 16.3459C166.658 16.3459 165.151 15.7525 163.966 14.5657C162.781 13.3788 162.188 11.9222 162.188 10.1959C162.188 8.49653 162.781 7.01301 163.993 5.82617C165.205 4.63932 166.712 4.0459 168.517 4.0459C170.321 4.0459 171.829 4.63932 173.013 5.82617C174.199 7.01301 174.791 8.46955 174.791 10.1959C174.791 11.9222 174.199 13.3788 172.987 14.5657ZM165.904 12.8394C166.604 13.5676 167.439 13.9183 168.463 13.9183C169.486 13.9183 170.375 13.5406 171.021 12.8394C171.694 12.138 172.044 11.2209 172.044 10.1689C172.044 9.14393 171.694 8.2268 171.021 7.52551C170.321 6.79722 169.486 6.44656 168.463 6.44656C167.439 6.44656 166.551 6.82419 165.904 7.52551C165.232 8.2268 164.881 9.14393 164.881 10.1959C164.881 11.2209 165.205 12.138 165.904 12.8394Z" fill="#9A9A9A"/>
<path d="M179.368 16.1573V6.66249H175.733V4.23486H185.589V6.66249H181.953V16.1573H179.368Z" fill="#9A9A9A"/>
<path d="M34.7441 25.1151V24.577C34.7441 24.4136 34.773 24.2402 34.8309 24.0569C34.8906 23.8715 34.9763 23.6931 35.0879 23.5218C35.2015 23.3484 35.338 23.1979 35.4975 23.0704L35.8801 23.3812C35.7546 23.5606 35.6449 23.748 35.5513 23.9433C35.4596 24.1366 35.4138 24.3439 35.4138 24.5651V25.1151H34.7441ZM36.2747 25.1151V24.577C36.2747 24.4136 36.3036 24.2402 36.3614 24.0569C36.4212 23.8715 36.5069 23.6931 36.6184 23.5218C36.7321 23.3484 36.8686 23.1979 37.028 23.0704L37.4106 23.3812C37.2851 23.5606 37.1755 23.748 37.0818 23.9433C36.9902 24.1366 36.9443 24.3439 36.9443 24.5651V25.1151H36.2747ZM38.285 29.3241V23.2019H41.956V23.8595H39.0264V25.9282H41.681V26.5859H39.0264V29.3241H38.285ZM44.4813 29.4317C44.1902 29.4317 43.9262 29.377 43.6891 29.2673C43.4519 29.1557 43.2635 28.9953 43.124 28.7861C42.9845 28.5748 42.9148 28.3197 42.9148 28.0208C42.9148 27.7577 42.9667 27.5444 43.0702 27.3811C43.1739 27.2156 43.3124 27.0861 43.4858 26.9924C43.6592 26.8988 43.8505 26.829 44.0598 26.7832C44.271 26.7353 44.4832 26.6975 44.6965 26.6696C44.9755 26.6337 45.2017 26.6068 45.3751 26.5889C45.5505 26.5689 45.678 26.5361 45.7577 26.4902C45.8394 26.4444 45.8803 26.3646 45.8803 26.2511V26.2272C45.8803 25.9322 45.7996 25.703 45.6381 25.5396C45.4787 25.3762 45.2366 25.2945 44.9117 25.2945C44.5749 25.2945 44.3108 25.3682 44.1195 25.5157C43.9282 25.6632 43.7937 25.8206 43.716 25.988L43.0463 25.7489C43.1659 25.4698 43.3253 25.2526 43.5247 25.0972C43.7259 24.9397 43.9451 24.8301 44.1823 24.7684C44.4214 24.7046 44.6566 24.6727 44.8878 24.6727C45.0353 24.6727 45.2047 24.6906 45.396 24.7265C45.5893 24.7604 45.7757 24.8311 45.955 24.9387C46.1364 25.0463 46.2868 25.2088 46.4064 25.426C46.526 25.6432 46.5857 25.9342 46.5857 26.2989V29.3241H45.8803V28.7024H45.8444C45.7965 28.802 45.7169 28.9086 45.6052 29.0222C45.4937 29.1358 45.3451 29.2325 45.1598 29.3122C44.9744 29.3919 44.7483 29.4317 44.4813 29.4317ZM44.5889 28.798C44.8679 28.798 45.103 28.7432 45.2943 28.6336C45.4876 28.524 45.6332 28.3824 45.7308 28.2091C45.8304 28.0357 45.8803 27.8533 45.8803 27.662V27.0164C45.8504 27.0522 45.7846 27.0851 45.6829 27.115C45.5833 27.1429 45.4677 27.1678 45.3362 27.1897C45.2067 27.2097 45.0801 27.2275 44.9566 27.2435C44.8349 27.2575 44.7364 27.2694 44.6606 27.2794C44.4772 27.3034 44.3058 27.3422 44.1464 27.396C43.989 27.4478 43.8615 27.5266 43.7638 27.6321C43.6681 27.7358 43.6203 27.8772 43.6203 28.0566C43.6203 28.3017 43.711 28.4871 43.8923 28.6126C44.0757 28.7362 44.3078 28.798 44.5889 28.798ZM47.8734 29.3241V24.7324H48.555V25.426H48.6029C48.6866 25.1988 48.838 25.0144 49.0572 24.873C49.2764 24.7315 49.5235 24.6608 49.7986 24.6608C49.8504 24.6608 49.9151 24.6617 49.9929 24.6637C50.0706 24.6657 50.1294 24.6687 50.1693 24.6727V25.3901C50.1453 25.3841 50.0905 25.3752 50.0049 25.3632C49.9211 25.3493 49.8324 25.3423 49.7388 25.3423C49.5156 25.3423 49.3163 25.3891 49.1409 25.4828C48.9675 25.5745 48.83 25.702 48.7283 25.8654C48.6287 26.0268 48.5789 26.2112 48.5789 26.4185V29.3241H47.8734ZM52.7192 31.1417C52.3784 31.1417 52.0854 31.0978 51.8403 31.0101C51.5952 30.9244 51.3909 30.8109 51.2275 30.6694C51.0661 30.5298 50.9375 30.3803 50.8418 30.2209L51.4039 29.8263C51.4676 29.91 51.5483 30.0057 51.646 30.1133C51.7436 30.223 51.8772 30.3176 52.0466 30.3973C52.218 30.479 52.4422 30.5198 52.7192 30.5198C53.0898 30.5198 53.3958 30.4302 53.6369 30.2508C53.8781 30.0714 53.9987 29.7905 53.9987 29.4078V28.4752H53.9388C53.887 28.5588 53.8133 28.6625 53.7176 28.7861C53.6239 28.9076 53.4885 29.0162 53.3111 29.1119C53.1357 29.2056 52.8985 29.2524 52.5996 29.2524C52.2289 29.2524 51.8961 29.1647 51.6012 28.9893C51.3082 28.8139 51.076 28.5588 50.9047 28.224C50.7353 27.8893 50.6505 27.4826 50.6505 27.0044C50.6505 26.534 50.7333 26.1245 50.8986 25.7758C51.0641 25.425 51.2943 25.1539 51.5892 24.9626C51.8841 24.7693 52.2249 24.6727 52.6115 24.6727C52.9105 24.6727 53.1477 24.7225 53.323 24.8222C53.5004 24.9198 53.636 25.0314 53.7296 25.1569C53.8252 25.2805 53.899 25.3821 53.9508 25.4619H54.0226V24.7324H54.7041V29.4557C54.7041 29.8503 54.6144 30.1711 54.4351 30.4182C54.2577 30.6673 54.0185 30.8497 53.7176 30.9653C53.4187 31.0829 53.0859 31.1417 52.7192 31.1417ZM52.6952 28.6186C52.9783 28.6186 53.2174 28.5538 53.4127 28.4243C53.608 28.2948 53.7565 28.1084 53.8581 27.8653C53.9597 27.6222 54.0106 27.3312 54.0106 26.9924C54.0106 26.6616 53.9608 26.3696 53.8611 26.1166C53.7614 25.8634 53.614 25.6652 53.4187 25.5216C53.2234 25.3782 52.9822 25.3064 52.6952 25.3064C52.3963 25.3064 52.1472 25.3821 51.9479 25.5336C51.7507 25.6851 51.6021 25.8884 51.5025 26.1435C51.4049 26.3986 51.3561 26.6815 51.3561 26.9924C51.3561 27.3113 51.4058 27.5933 51.5055 27.8384C51.6071 28.0815 51.7566 28.2729 51.9539 28.4124C52.1532 28.5499 52.4003 28.6186 52.6952 28.6186ZM57.5978 24.1107L56.6652 22.7236H57.4902L58.2196 24.1107H57.5978ZM62.0452 29.4198C61.6308 29.4198 61.267 29.3211 60.9542 29.1238C60.6432 28.9265 60.4001 28.6505 60.2247 28.2958C60.0514 27.941 59.9646 27.5266 59.9646 27.0522C59.9646 26.5739 60.0514 26.1564 60.2247 25.7997C60.4001 25.4429 60.6432 25.1659 60.9542 24.9686C61.267 24.7713 61.6308 24.6727 62.0452 24.6727C62.4597 24.6727 62.8225 24.7713 63.1334 24.9686C63.4463 25.1659 63.6894 25.4429 63.8628 25.7997C64.0382 26.1564 64.1259 26.5739 64.1259 27.0522C64.1259 27.5266 64.0382 27.941 63.8628 28.2958C63.6894 28.6505 63.4463 28.9265 63.1334 29.1238C62.8225 29.3211 62.4597 29.4198 62.0452 29.4198ZM62.0452 28.7861C62.3601 28.7861 62.6192 28.7054 62.8224 28.5439C63.0257 28.3824 63.1762 28.1702 63.2739 27.9071C63.3715 27.6441 63.4204 27.3591 63.4204 27.0522C63.4204 26.7453 63.3715 26.4593 63.2739 26.1943C63.1762 25.9292 63.0257 25.715 62.8224 25.5515C62.6192 25.3881 62.3601 25.3064 62.0452 25.3064C61.7304 25.3064 61.4713 25.3881 61.2681 25.5515C61.0647 25.715 60.9143 25.9292 60.8166 26.1943C60.7189 26.4593 60.6701 26.7453 60.6701 27.0522C60.6701 27.3591 60.7189 27.6441 60.8166 27.9071C60.9143 28.1702 61.0647 28.3824 61.2681 28.5439C61.4713 28.7054 61.7304 28.7861 62.0452 28.7861ZM65.9082 26.562V29.3241H65.2027V24.7324H65.8843V25.4499H65.9441C66.0518 25.2168 66.2151 25.0294 66.4344 24.8879C66.6536 24.7444 66.9366 24.6727 67.2833 24.6727C67.5943 24.6727 67.8663 24.7365 68.0995 24.864C68.3326 24.9895 68.5139 25.1808 68.6436 25.438C68.7731 25.693 68.8378 26.0159 68.8378 26.4065V29.3241H68.1323V26.4543C68.1323 26.0936 68.0386 25.8126 67.8514 25.6114C67.664 25.4081 67.4069 25.3064 67.0801 25.3064C66.8549 25.3064 66.6536 25.3552 66.4763 25.4529C66.3008 25.5506 66.1624 25.693 66.0607 25.8804C65.9591 26.0677 65.9082 26.2949 65.9082 26.562ZM71.4782 29.4317C71.1872 29.4317 70.9231 29.377 70.686 29.2673C70.4489 29.1557 70.2605 28.9953 70.121 28.7861C69.9815 28.5748 69.9118 28.3197 69.9118 28.0208C69.9118 27.7577 69.9636 27.5444 70.0672 27.3811C70.1708 27.2156 70.3094 27.0861 70.4827 26.9924C70.6561 26.8988 70.8474 26.829 71.0567 26.7832C71.2679 26.7353 71.4802 26.6975 71.6934 26.6696C71.9724 26.6337 72.1986 26.6068 72.372 26.5889C72.5474 26.5689 72.6749 26.5361 72.7546 26.4902C72.8364 26.4444 72.8772 26.3646 72.8772 26.2511V26.2272C72.8772 25.9322 72.7965 25.703 72.6351 25.5396C72.4756 25.3762 72.2335 25.2945 71.9086 25.2945C71.5719 25.2945 71.3078 25.3682 71.1165 25.5157C70.9252 25.6632 70.7907 25.8206 70.7129 25.988L70.0433 25.7489C70.1629 25.4698 70.3223 25.2526 70.5216 25.0972C70.7229 24.9397 70.9421 24.8301 71.1793 24.7684C71.4184 24.7046 71.6536 24.6727 71.8847 24.6727C72.0322 24.6727 72.2016 24.6906 72.3929 24.7265C72.5862 24.7604 72.7726 24.8311 72.952 24.9387C73.1333 25.0463 73.2838 25.2088 73.4034 25.426C73.5229 25.6432 73.5827 25.9342 73.5827 26.2989V29.3241H72.8772V28.7024H72.8413C72.7935 28.802 72.7138 28.9086 72.6022 29.0222C72.4906 29.1358 72.3421 29.2325 72.1568 29.3122C71.9714 29.3919 71.7452 29.4317 71.4782 29.4317ZM71.5858 28.798C71.8648 28.798 72.0999 28.7432 72.2913 28.6336C72.4846 28.524 72.6301 28.3824 72.7277 28.2091C72.8274 28.0357 72.8772 27.8533 72.8772 27.662V27.0164C72.8473 27.0522 72.7815 27.0851 72.6799 27.115C72.5802 27.1429 72.4647 27.1678 72.3331 27.1897C72.2036 27.2097 72.0771 27.2275 71.9535 27.2435C71.8319 27.2575 71.7333 27.2694 71.6576 27.2794C71.4742 27.3034 71.3028 27.3422 71.1434 27.396C70.986 27.4478 70.8584 27.5266 70.7608 27.6321C70.6651 27.7358 70.6172 27.8772 70.6172 28.0566C70.6172 28.3017 70.7079 28.4871 70.8893 28.6126C71.0726 28.7362 71.3048 28.798 71.5858 28.798ZM80.4901 25.7608L79.8563 25.9402C79.8168 25.8346 79.7582 25.7319 79.6799 25.6322C79.6045 25.5306 79.5009 25.4469 79.3693 25.3812C79.2378 25.3154 79.0695 25.2825 78.8641 25.2825C78.5832 25.2825 78.349 25.3472 78.1617 25.4768C77.9763 25.6044 77.8836 25.7668 77.8836 25.9641C77.8836 26.1394 77.9474 26.278 78.0749 26.3796C78.2025 26.4812 78.4018 26.5659 78.6728 26.6337L79.3544 26.8011C79.7646 26.9008 80.0708 27.0532 80.2725 27.2585C80.4735 27.4618 80.574 27.7238 80.574 28.0447C80.574 28.3078 80.498 28.5429 80.3469 28.7501C80.1974 28.9574 79.9885 29.1208 79.7195 29.2404C79.45 29.36 79.1372 29.4198 78.7805 29.4198C78.3122 29.4198 77.9245 29.3182 77.6176 29.1149C77.3107 28.9116 77.1163 28.6147 77.0347 28.224L77.7043 28.0566C77.7681 28.3037 77.8886 28.4891 78.066 28.6126C78.2454 28.7362 78.4795 28.798 78.7685 28.798C79.0973 28.798 79.3584 28.7282 79.5517 28.5887C79.7472 28.4473 79.8445 28.2778 79.8445 28.0806C79.8445 27.9212 79.7891 27.7876 79.6775 27.68C79.5656 27.5704 79.3943 27.4887 79.1631 27.4349L78.3978 27.2555C77.9773 27.1559 77.6684 27.0014 77.4711 26.7921C77.2758 26.5809 77.1781 26.3168 77.1781 25.9999C77.1781 25.7409 77.2509 25.5117 77.3964 25.3124C77.5439 25.1131 77.7441 24.9567 77.9972 24.8431C78.2523 24.7295 78.5413 24.6727 78.8641 24.6727C79.3185 24.6727 79.6752 24.7723 79.9347 24.9716C80.1958 25.1709 80.3809 25.434 80.4901 25.7608ZM84.5294 27.4468V24.7324H85.2352V29.3241H84.5294V28.5469H84.482C84.3743 28.7801 84.2066 28.9783 83.9795 29.1418C83.7524 29.3032 83.4652 29.3839 83.1186 29.3839C82.8314 29.3839 82.5766 29.3211 82.3535 29.1956C82.1304 29.0681 81.9547 28.8767 81.8273 28.6216C81.6999 28.3646 81.6359 28.0407 81.6359 27.6501V24.7324H82.3416V27.6023C82.3416 27.9371 82.435 28.2041 82.6225 28.4034C82.8116 28.6027 83.053 28.7024 83.3457 28.7024C83.5214 28.7024 83.6994 28.6575 83.8814 28.5678C84.0642 28.4781 84.2177 28.3406 84.3411 28.1553C84.4669 27.97 84.5294 27.7338 84.5294 27.4468ZM90.2818 24.7324L88.5838 29.3241H87.8669L86.1689 24.7324H86.934L88.2016 28.3915H88.2491L89.5166 24.7324H90.2818ZM95.5776 24.7324V25.3303H93.1983V24.7324H95.5776ZM93.8914 23.6324H94.5972V28.0088C94.5972 28.2081 94.6257 28.3576 94.6843 28.4572C94.7436 28.5549 94.8196 28.6206 94.9113 28.6545C95.0047 28.6864 95.1036 28.7024 95.2073 28.7024C95.2848 28.7024 95.3489 28.6984 95.398 28.6904C95.4478 28.6804 95.4882 28.6724 95.5182 28.6665L95.6614 29.3002C95.6132 29.3182 95.5467 29.3361 95.4613 29.354C95.3758 29.374 95.2666 29.3839 95.1353 29.3839C94.9359 29.3839 94.7404 29.341 94.5497 29.2553C94.3598 29.1697 94.2024 29.0392 94.0774 28.8638C93.9531 28.6884 93.8914 28.4672 93.8914 28.2001V23.6324ZM97.9901 29.4317C97.6989 29.4317 97.4354 29.377 97.198 29.2673C96.9607 29.1557 96.7723 28.9953 96.6331 28.7861C96.4938 28.5748 96.4234 28.3197 96.4234 28.0208C96.4234 27.7577 96.4756 27.5444 96.5793 27.3811C96.6829 27.2156 96.8214 27.0861 96.9947 26.9924C97.168 26.8988 97.3594 26.829 97.5683 26.7832C97.7796 26.7353 97.9924 26.6975 98.2053 26.6696C98.4846 26.6337 98.7109 26.6068 98.8842 26.5889C99.059 26.5689 99.1872 26.5361 99.2663 26.4902C99.3486 26.4444 99.389 26.3646 99.389 26.2511V26.2272C99.389 25.9322 99.3083 25.703 99.1469 25.5396C98.9878 25.3762 98.7457 25.2945 98.4205 25.2945C98.0834 25.2945 97.82 25.3682 97.6285 25.5157C97.437 25.6632 97.3025 25.8206 97.2249 25.988L96.5555 25.7489C96.675 25.4698 96.8341 25.2526 97.0335 25.0972C97.2344 24.9397 97.4544 24.8301 97.691 24.7684C97.9299 24.7046 98.1657 24.6727 98.3968 24.6727C98.5439 24.6727 98.7133 24.6906 98.9047 24.7265C99.0978 24.7604 99.2845 24.8311 99.4642 24.9387C99.6454 25.0463 99.7957 25.2088 99.9152 25.426C100.035 25.6432 100.095 25.9342 100.095 26.2989V29.3241H99.389V28.7024H99.3534C99.3051 28.802 99.226 28.9086 99.1144 29.0222C99.0029 29.1358 98.8541 29.2325 98.669 29.3122C98.483 29.3919 98.2575 29.4317 97.9901 29.4317ZM98.0977 28.798C98.377 28.798 98.612 28.7432 98.8035 28.6336C98.9965 28.524 99.1421 28.3824 99.2394 28.2091C99.3391 28.0357 99.389 27.8533 99.389 27.662V27.0164C99.3589 27.0522 99.2932 27.0851 99.192 27.115C99.0923 27.1429 98.9767 27.1678 98.8454 27.1897C98.7156 27.2097 98.589 27.2275 98.4656 27.2435C98.3438 27.2575 98.2448 27.2694 98.1697 27.2794C97.9861 27.3034 97.8144 27.3422 97.6554 27.396C97.4979 27.4478 97.3705 27.5266 97.2724 27.6321C97.1767 27.7358 97.1292 27.8772 97.1292 28.0566C97.1292 28.3017 97.2202 28.4871 97.4014 28.6126C97.5842 28.7362 97.8168 28.798 98.0977 28.798ZM102.004 23.2019V23.74C102.004 23.9034 101.974 24.0778 101.915 24.2632C101.857 24.4465 101.771 24.6248 101.657 24.7982C101.546 24.9697 101.41 25.1191 101.251 25.2467L100.868 24.9357C100.994 24.7564 101.102 24.5701 101.194 24.3767C101.288 24.1814 101.335 23.9732 101.335 23.7519V23.2019H102.004ZM102.755 29.3241V24.7324H103.437V25.4499H103.496C103.592 25.2048 103.746 25.0144 103.96 24.879C104.173 24.7415 104.429 24.6727 104.728 24.6727C105.031 24.6727 105.283 24.7415 105.485 24.879C105.688 25.0144 105.846 25.2048 105.959 25.4499H106.008C106.125 25.2127 106.301 25.0244 106.537 24.8849C106.772 24.7434 107.054 24.6727 107.383 24.6727C107.794 24.6727 108.129 24.8012 108.39 25.0583C108.651 25.3134 108.782 25.711 108.782 26.2511V29.3241H108.076V26.2511C108.076 25.9123 107.983 25.6701 107.798 25.5246C107.613 25.3791 107.395 25.3064 107.143 25.3064C106.82 25.3064 106.57 25.4041 106.393 25.5994C106.216 25.7927 106.127 26.0378 106.127 26.3348V29.3241H105.41V26.1793C105.41 25.9183 105.325 25.708 105.156 25.5485C104.986 25.3871 104.768 25.3064 104.501 25.3064C104.318 25.3064 104.146 25.3552 103.987 25.4529C103.829 25.5506 103.702 25.686 103.604 25.8595C103.508 26.0309 103.461 26.2292 103.461 26.4543V29.3241H102.755ZM110.072 29.3241V24.7324H110.777V29.3241H110.072ZM110.43 23.9672C110.293 23.9672 110.174 23.9204 110.075 23.8267C109.977 23.733 109.928 23.6204 109.928 23.4889C109.928 23.3573 109.977 23.2447 110.075 23.1511C110.174 23.0575 110.293 23.0106 110.43 23.0106C110.568 23.0106 110.686 23.0575 110.783 23.1511C110.883 23.2447 110.932 23.3573 110.932 23.4889C110.932 23.6204 110.883 23.733 110.783 23.8267C110.686 23.9204 110.568 23.9672 110.43 23.9672ZM112.774 26.562V29.3241H112.069V24.7324H112.751V25.4499H112.811C112.918 25.2168 113.081 25.0294 113.301 24.8879C113.52 24.7444 113.803 24.6727 114.15 24.6727C114.461 24.6727 114.733 24.7365 114.966 24.864C115.199 24.9895 115.381 25.1808 115.51 25.438C115.64 25.693 115.704 26.0159 115.704 26.4065V29.3241H114.999V26.4543C114.999 26.0936 114.905 25.8126 114.718 25.6114C114.53 25.4081 114.273 25.3064 113.946 25.3064C113.722 25.3064 113.52 25.3552 113.343 25.4529C113.168 25.5506 113.029 25.693 112.927 25.8804C112.826 26.0677 112.774 26.2949 112.774 26.562ZM118.859 29.4198C118.445 29.4198 118.081 29.3211 117.768 29.1238C117.457 28.9265 117.213 28.6505 117.038 28.2958C116.865 27.941 116.778 27.5266 116.778 27.0522C116.778 26.5739 116.865 26.1564 117.038 25.7997C117.213 25.4429 117.457 25.1659 117.768 24.9686C118.081 24.7713 118.445 24.6727 118.859 24.6727C119.274 24.6727 119.636 24.7713 119.947 24.9686C120.26 25.1659 120.503 25.4429 120.677 25.7997C120.851 26.1564 120.939 26.5739 120.939 27.0522C120.939 27.5266 120.851 27.941 120.677 28.2958C120.503 28.6505 120.26 28.9265 119.947 29.1238C119.636 29.3211 119.274 29.4198 118.859 29.4198ZM118.859 28.7861C119.174 28.7861 119.433 28.7054 119.636 28.5439C119.839 28.3824 119.99 28.1702 120.087 27.9071C120.185 27.6441 120.234 27.3591 120.234 27.0522C120.234 26.7453 120.185 26.4593 120.087 26.1943C119.99 25.9292 119.839 25.715 119.636 25.5515C119.433 25.3881 119.174 25.3064 118.859 25.3064C118.544 25.3064 118.285 25.3881 118.081 25.5515C117.878 25.715 117.728 25.9292 117.63 26.1943C117.532 26.4593 117.484 26.7453 117.484 27.0522C117.484 27.3591 117.532 27.6441 117.63 27.9071C117.728 28.1702 117.878 28.3824 118.081 28.5439C118.285 28.7054 118.544 28.7861 118.859 28.7861ZM124.013 24.7324V25.3303H121.634V24.7324H124.013ZM122.327 23.6324H123.033V28.0088C123.033 28.2081 123.061 28.3576 123.119 28.4572C123.179 28.5549 123.255 28.6206 123.346 28.6545C123.44 28.6864 123.539 28.7024 123.643 28.7024C123.721 28.7024 123.784 28.6984 123.834 28.6904C123.884 28.6804 123.924 28.6724 123.953 28.6665L124.097 29.3002C124.049 29.3182 123.982 29.3361 123.897 29.354C123.811 29.374 123.702 29.3839 123.571 29.3839C123.372 29.3839 123.176 29.341 122.985 29.2553C122.796 29.1697 122.638 29.0392 122.512 28.8638C122.389 28.6884 122.327 28.4672 122.327 28.2001V23.6324ZM125.074 29.3241V24.7324H125.78V29.3241H125.074ZM125.434 23.9672C125.296 23.9672 125.177 23.9204 125.078 23.8267C124.98 23.733 124.931 23.6204 124.931 23.4889C124.931 23.3573 124.98 23.2447 125.078 23.1511C125.177 23.0575 125.296 23.0106 125.434 23.0106C125.57 23.0106 125.688 23.0575 125.786 23.1511C125.885 23.2447 125.935 23.3573 125.935 23.4889C125.935 23.6204 125.885 23.733 125.786 23.8267C125.688 23.9204 125.57 23.9672 125.434 23.9672ZM127.694 23.2019V23.74C127.694 23.9034 127.664 24.0778 127.604 24.2632C127.546 24.4465 127.461 24.6248 127.347 24.7982C127.235 24.9697 127.1 25.1191 126.941 25.2467L126.558 24.9357C126.684 24.7564 126.792 24.5701 126.884 24.3767C126.977 24.1814 127.024 23.9732 127.024 23.7519V23.2019H127.694ZM129.224 23.2019V23.74C129.224 23.9034 129.194 24.0778 129.135 24.2632C129.077 24.4465 128.991 24.6248 128.878 24.7982C128.766 24.9697 128.631 25.1191 128.471 25.2467L128.088 24.9357C128.214 24.7564 128.322 24.5701 128.414 24.3767C128.508 24.1814 128.555 23.9732 128.555 23.7519V23.2019H129.224ZM132.741 23.2019H133.626L135.707 28.2839H135.778L137.859 23.2019H138.744V29.3241H138.051V24.6727H137.991L136.077 29.3241H135.408L133.495 24.6727H133.435V29.3241H132.741V23.2019ZM145.157 25.1151H144.415C144.372 24.9018 144.295 24.7146 144.185 24.5531C144.078 24.3917 143.946 24.2562 143.791 24.1465C143.638 24.035 143.467 23.9512 143.28 23.8955C143.093 23.8396 142.897 23.8117 142.694 23.8117C142.323 23.8117 141.987 23.9054 141.687 24.0927C141.387 24.2801 141.149 24.5561 140.972 24.9208C140.796 25.2855 140.709 25.7329 140.709 26.263C140.709 26.7932 140.796 27.2405 140.972 27.6052C141.149 27.97 141.387 28.246 141.687 28.4333C141.987 28.6206 142.323 28.7143 142.694 28.7143C142.897 28.7143 143.093 28.6864 143.28 28.6306C143.467 28.5748 143.638 28.4921 143.791 28.3825C143.946 28.2709 144.078 28.1344 144.185 27.9729C144.295 27.8095 144.372 27.6222 144.415 27.411H145.157C145.102 27.7238 144.999 28.0038 144.852 28.2509C144.704 28.498 144.522 28.7083 144.302 28.8817C144.083 29.0531 143.837 29.1837 143.563 29.2733C143.293 29.363 143.002 29.4078 142.694 29.4078C142.172 29.4078 141.707 29.2803 141.3 29.0252C140.894 28.7701 140.574 28.4074 140.341 27.9371C140.108 27.4667 139.992 26.9088 139.992 26.263C139.992 25.6173 140.108 25.0593 140.341 24.589C140.574 24.1187 140.894 23.756 141.3 23.5009C141.707 23.2458 142.172 23.1182 142.694 23.1182C143.002 23.1182 143.293 23.163 143.563 23.2527C143.837 23.3424 144.083 23.474 144.302 23.6473C144.522 23.8187 144.704 24.028 144.852 24.2751C144.999 24.5202 145.102 24.8003 145.157 25.1151ZM146.355 29.3241V23.2019H147.096V25.9282H150.361V23.2019H151.102V29.3241H150.361V26.5859H147.096V29.3241H146.355ZM154.93 23.2019H155.672V27.5783C155.672 27.9689 155.6 28.3008 155.457 28.5738C155.313 28.8468 155.111 29.0541 154.85 29.1956C154.589 29.3371 154.281 29.4078 153.925 29.4078C153.591 29.4078 153.292 29.3471 153.032 29.2254C152.771 29.1019 152.565 28.9265 152.416 28.6993C152.266 28.4722 152.192 28.2021 152.192 27.8893H152.921C152.921 28.0626 152.964 28.2141 153.05 28.3436C153.137 28.4711 153.257 28.5708 153.409 28.6425C153.56 28.7143 153.732 28.7501 153.925 28.7501C154.139 28.7501 154.32 28.7054 154.47 28.6156C154.619 28.526 154.733 28.3944 154.81 28.221C154.89 28.0457 154.93 27.8314 154.93 27.5783V23.2019Z" fill="#9A9A9A"/>
</g>
</svg>
