<svg width="50" height="49" viewBox="0 0 50 49" fill="none" xmlns="http://www.w3.org/2000/svg">
<path d="M37.7339 18.2562C37.7582 18.2641 37.7575 18.309 37.7782 18.3132C37.8322 18.3248 37.8935 18.3041 37.9481 18.3145C37.9554 18.3157 38.0603 18.4122 38.0603 18.42V35.931C38.189 35.9734 38.1914 35.8594 38.2521 35.8205C38.2982 35.7914 38.4457 35.7404 38.4893 35.7156C38.9711 35.4376 39.456 35.1391 39.9329 34.9528C39.9469 34.9474 40.1131 34.7878 40.1623 34.7586C40.1938 34.7398 40.2345 34.755 40.2679 34.7441L40.3043 34.613L40.2988 16.2872C40.2745 16.2823 40.2484 16.2853 40.226 16.272C39.9893 16.1282 39.5349 16.025 39.2357 15.9176C38.6841 15.7204 38.0166 15.5305 37.4402 15.3727C37.0233 15.258 36.6902 15.1421 36.3024 15.0244C35.9711 14.9237 35.6289 14.8946 35.2618 14.7969C35.0039 14.7283 34.7145 14.6658 34.4147 14.5833C34.0749 14.4898 33.7575 14.4401 33.3783 14.3709C33.0858 14.3175 32.8413 14.2501 32.5494 14.1992C32.3091 14.1567 32.1277 14.0924 31.8874 14.1033C31.1125 13.917 30.2199 13.8551 29.4032 13.7671C29.0464 13.7289 28.6356 13.6846 28.3134 13.6136C25.9845 13.5099 23.5549 13.4237 21.277 13.6767C21.0057 13.7071 20.723 13.7313 20.456 13.7647C20.3977 13.772 20.4268 13.823 20.3692 13.8302C20.0949 13.8648 19.7988 13.8515 19.5185 13.8891C18.8522 13.9771 18.2909 14.0784 17.6465 14.1998C17.0731 14.3078 16.408 14.4352 15.8716 14.5833C15.2551 14.7532 14.6599 14.8466 14.0749 15.0244C13.5713 15.1773 13.0415 15.3278 12.584 15.5056C12.3449 15.5984 12.067 15.6531 11.794 15.7404C11.3522 15.8818 10.9092 16.0602 10.4602 16.2259C10.4341 16.2356 10.419 16.3224 10.3164 16.2847L10.3443 34.7319C10.3649 34.7617 10.5397 34.8193 10.5749 34.8406C11.1859 35.204 11.7545 35.5548 12.385 35.8739C12.4268 35.8952 12.3868 35.9546 12.4693 35.9334V18.377C12.5421 18.4103 12.5634 18.3211 12.5816 18.3169C12.695 18.2926 12.8164 18.2835 12.9323 18.2483C13.6617 18.0256 14.4068 17.8478 15.1781 17.6785C15.2933 17.6531 15.4335 17.6433 15.5415 17.6173C15.8674 17.539 16.246 17.4219 16.5561 17.3472C17.0488 17.2283 17.4839 17.1755 17.9699 17.0991C18.5009 17.0153 18.9711 16.9176 19.4918 16.8321C19.5992 16.8145 19.763 16.7744 19.8207 16.7665C20.1253 16.7265 20.4772 16.7398 20.7915 16.7065C21.1429 16.6694 21.5264 16.5796 21.885 16.5566C22.1149 16.542 22.3977 16.5863 22.6143 16.5584C22.6726 16.5511 22.6435 16.5001 22.7011 16.4929C23.0088 16.454 23.4014 16.5268 23.7187 16.4953V38.6907H26.3868V16.4953C26.3868 16.4953 26.4208 16.5007 26.4353 16.4844C26.5767 16.3217 26.7308 16.4316 26.9159 16.4364C27.4135 16.4486 28.1811 16.4346 28.6477 16.4935C28.706 16.5007 28.6768 16.5517 28.7345 16.559C29.0033 16.593 29.3795 16.5924 29.6768 16.6173C30.121 16.6543 30.5506 16.6731 30.956 16.7683C31.0531 16.7914 31.2023 16.7538 31.3128 16.7708C31.6149 16.8175 31.9584 16.9158 32.2296 16.9807C32.4001 17.022 32.7521 17.0123 32.9499 17.0438C33.3565 17.1094 33.7606 17.2198 34.1435 17.306C34.5288 17.3921 34.8771 17.4552 35.2782 17.5602C35.5409 17.6294 35.8352 17.6828 36.1283 17.772C36.6344 17.9261 37.1835 18.0766 37.7345 18.2574L37.7339 18.2562Z" fill="#9A9A9A"/>
<path d="M0.552734 0V49H49.5527V0H0.552734ZM48.3707 14.6456V47.8174H1.73538V1.18265H48.3707V14.6456Z" fill="#9A9A9A"/>
<path d="M43.7319 44.421V41.0855C43.6634 41.077 43.6239 41.023 43.5584 41.0005C43.3236 40.9198 43.0578 40.8676 42.7847 40.7796C42.6767 40.745 42.6585 40.7475 42.5396 40.7208C42.528 40.7183 42.4613 40.6055 42.3369 40.6607V42.6771C42.3369 42.6874 42.2969 42.7232 42.3066 42.7529H7.70948V40.6607C7.6488 40.6674 7.57477 40.648 7.51773 40.6613C7.22768 40.7299 6.85025 40.9034 6.56506 40.992C6.49467 41.0139 6.39212 41.0114 6.31445 41.0545V44.4507H43.6561C43.6664 44.4507 43.7022 44.4107 43.7319 44.4204V44.421Z" fill="#9A9A9A"/>
<path d="M42.3369 35.2334C42.3369 35.2334 42.3794 35.2249 42.3903 35.2389C42.4097 35.2638 42.3903 35.3293 42.4067 35.3772C42.4091 35.3845 42.5141 35.4525 42.5311 35.4786C42.7004 35.7353 42.8242 36.018 42.9765 36.2698C43.1664 36.5836 43.3836 36.9191 43.5784 37.2274C43.6167 37.288 43.6476 37.4294 43.7313 37.4167V8.85358C43.7016 8.86329 43.6658 8.82324 43.6555 8.82324H27.2969V10.5211H42.3363V35.2334H42.3369Z" fill="#9A9A9A"/>
<path d="M7.29504 35.8197C7.43278 35.5916 7.55838 35.3683 7.70948 35.1577V10.5218H22.7186V8.82397H6.31445V37.4174L6.42489 37.3155C6.68339 36.7979 7.0062 36.2997 7.29443 35.8203L7.29504 35.8197Z" fill="#9A9A9A"/>
<path d="M35.7496 19.3744C35.7223 19.3641 35.7235 19.3289 35.7017 19.318C35.3764 19.1608 35.0445 19.0049 34.7326 18.8926C34.3321 18.7488 33.9608 18.6881 33.5657 18.585C33.0214 18.443 32.4007 18.281 31.7981 18.1942C31.2551 18.1159 30.7557 18.0534 30.2241 17.9788C29.9674 17.943 29.411 17.9248 29.1325 17.9187C28.7848 17.9108 28.4468 17.9976 28.0991 17.9782C28.0821 17.997 27.9966 18.0352 27.9941 18.0413V38.3872L30.1786 37.912L30.1816 20.8653C30.2356 20.8283 30.3145 20.8459 30.3673 20.8289C30.3958 20.8198 30.3795 20.7749 30.4335 20.7682C30.6592 20.7385 31.4547 20.7385 31.6804 20.7682C31.7363 20.7755 31.7199 20.8247 31.7447 20.8307C31.8491 20.855 32.1058 20.8659 32.2575 20.8896C32.5803 20.9394 32.891 20.9788 33.1871 21.0516C33.5263 21.1353 33.8437 21.244 34.1568 21.3495C34.6525 21.5176 35.1228 21.7136 35.5949 21.9794C35.6968 22.0364 35.7363 22.1275 35.8479 22.105V19.3762C35.8479 19.3714 35.7775 19.3847 35.7508 19.375L35.7496 19.3744Z" fill="#9A9A9A"/>
<path d="M21.2416 17.8891C21.1609 17.9079 21.0426 17.8788 20.9479 17.8933C20.4837 17.9667 20.0468 18.0335 19.6117 18.1039C18.6858 18.2525 17.8526 18.4874 16.9776 18.6785C16.4473 18.7944 15.8891 19.0438 15.3872 19.2216C15.0323 19.3472 14.7282 19.4109 14.406 19.5911C14.3702 19.6112 14.3508 19.6567 14.2871 19.6664L14.2883 36.5468C14.2968 36.5772 14.4388 36.6379 14.4782 36.6609C15.0389 36.9789 15.6233 37.3241 16.1882 37.6403C16.2695 37.6858 16.3539 37.8114 16.4716 37.7817V21.7264C16.5056 21.6749 16.5656 21.6906 16.613 21.6694C16.7804 21.5954 16.9667 21.5298 17.1767 21.4661C17.5966 21.3399 17.9995 21.1591 18.4655 21.0511C18.6506 21.008 18.8405 20.9655 19.011 20.9243C19.4928 20.809 19.9091 20.7817 20.366 20.7082C20.5832 20.6737 20.8781 20.5802 21.0972 20.5602C21.2713 20.5444 21.4789 20.5814 21.6433 20.5608C21.7015 20.5535 21.6724 20.5025 21.7301 20.4953C21.8454 20.4807 21.991 20.5104 22.1111 20.4977V17.7689C21.9825 17.7295 21.8951 17.8169 21.7944 17.8314C21.5735 17.8624 21.4734 17.8351 21.2416 17.8897V17.8891Z" fill="#9A9A9A"/>
<path d="M9.05685 36.5195C8.7668 36.8915 8.45369 37.306 8.19216 37.664C8.15454 37.7149 8.10479 37.792 8.0611 37.8296C7.95612 37.9194 7.99071 37.9279 7.91 38.0396C7.64605 38.4067 7.29532 38.7532 7.01437 39.1385L6.80078 39.4486C6.91182 39.4995 6.9628 39.3909 6.97311 39.3885C7.35539 39.3035 7.86571 39.0493 8.22008 38.9061C8.75042 38.6919 9.28197 38.4746 9.7668 38.2695C10.14 38.1118 10.4507 38.0074 10.8135 37.8521C11.1958 37.6888 11.6236 37.5402 12.0095 37.3587C12.0484 37.3405 12.0957 37.3345 12.1376 37.3254C12.1363 37.2738 12.0556 37.292 12.0077 37.2647C11.4992 36.9716 10.9749 36.6051 10.4743 36.2981C10.2662 36.1706 10.0156 36.0657 9.82505 35.9303C9.79957 35.9121 9.74192 35.8217 9.73464 35.8187C9.68974 35.7999 9.55139 35.8569 9.53561 35.8751C9.51862 35.8952 9.53804 35.9461 9.52712 35.9661C9.45127 36.1045 9.17093 36.3739 9.05746 36.5189L9.05685 36.5195Z" fill="#9A9A9A"/>
<path d="M38.0528 37.4164C38.2979 37.4765 38.5528 37.5917 38.7688 37.6797C39.5382 37.9934 40.2997 38.289 41.0261 38.5972C41.6492 38.8612 42.2196 39.0468 42.8446 39.3193C42.9186 39.3515 42.8701 39.3521 43.0121 39.3897C43.0261 39.3933 43.0934 39.505 43.216 39.4491L40.4186 35.8205L40.327 35.812L37.9102 37.3266C37.989 37.3041 38.0333 37.4121 38.0534 37.417L38.0528 37.4164Z" fill="#9A9A9A"/>
<path d="M24.4568 7.85257C24.4792 7.84711 24.475 7.79918 24.4986 7.79311C24.7025 7.74396 25.2529 7.74396 25.4574 7.79311C25.481 7.79857 25.4768 7.84711 25.4992 7.85257C25.5563 7.86592 25.6303 7.84651 25.691 7.85318V4.65415L25.6455 4.60864H24.3111L24.2656 4.65415V7.85318C24.3263 7.84651 24.4003 7.86592 24.4574 7.85257H24.4568Z" fill="#9A9A9A"/>
<path d="M24.0495 9.90821C24.1666 10.2911 24.2376 10.441 24.6175 10.5927C24.6272 10.5963 24.6284 10.6333 24.6515 10.64C24.8244 10.6904 25.129 10.6855 25.3025 10.64C25.3268 10.6339 25.3214 10.5933 25.3481 10.583C25.376 10.572 25.4239 10.5902 25.4542 10.5799C25.4834 10.5702 25.8529 10.1764 25.8681 10.1321C25.893 10.0593 25.8863 9.97617 25.9039 9.907C25.9106 9.88212 25.9567 9.88454 25.9615 9.86331C25.9718 9.82022 25.9718 9.61513 25.9615 9.57204C25.9579 9.55748 25.8826 9.36088 25.8614 9.30263C25.8292 9.21343 25.7801 9.211 25.7589 9.17823C25.7413 9.15153 25.7589 9.10238 25.7431 9.07386C25.7237 9.03988 25.5877 8.99013 25.5501 8.96221C25.521 8.94037 25.49 8.8803 25.4664 8.86573C25.288 8.75833 24.8474 8.72071 24.6496 8.76318C24.6345 8.76622 24.4397 8.9434 24.4069 8.96585C24.3814 8.98345 24.3311 8.96585 24.3025 8.98224C24.2795 8.99559 24.1017 9.30323 24.0817 9.3536C24.0198 9.5053 23.9676 9.67641 23.9894 9.84146C23.9967 9.89486 24.0416 9.88272 24.0495 9.90821Z" fill="#9A9A9A"/>
<path d="M25.5696 11.6432C25.7347 11.6372 25.7395 11.7852 25.853 11.8453C25.89 11.8647 25.9422 11.8459 25.9598 11.8611C25.9707 11.8702 25.9549 11.9193 25.9835 11.9491C26.0654 12.0328 26.2741 12.1481 26.3651 12.2215C26.5211 12.3471 26.6643 12.4946 26.8281 12.6141H28.208C28.2225 12.5601 28.1691 12.5352 28.1333 12.5061C27.8196 12.2531 27.5096 11.9096 27.2207 11.6317C26.9938 11.4139 26.7784 11.1772 26.5211 10.9964C26.5011 10.9824 26.5211 10.9424 26.495 10.946C26.444 11.0116 26.387 11.0801 26.3263 11.1366C26.1819 11.2707 25.9932 11.4114 25.8099 11.5049C25.7893 11.5152 25.4974 11.568 25.5702 11.6432H25.5696Z" fill="#9A9A9A"/>
<path d="M21.7541 12.4964L21.748 12.6141H23.1431C23.1491 12.6141 23.1679 12.5498 23.205 12.5146C23.384 12.3447 23.6121 12.1894 23.8324 12.0613C23.8955 12.0249 24.1625 11.7331 24.276 11.6536C24.299 11.6372 24.4301 11.642 24.3318 11.585C24.1042 11.4527 23.8154 11.4011 23.6449 11.1712C23.5715 11.1505 23.4908 11.0225 23.4453 10.9473L23.4004 10.946L21.9495 12.3908L21.7535 12.497L21.7541 12.4964Z" fill="#9A9A9A"/>
</svg>
