<svg width="75" height="50" viewBox="0 0 75 50" fill="none" xmlns="http://www.w3.org/2000/svg">
<path d="M74.8494 12.6964H66.8927V36.6799L64.0557 31.1569C63.8699 30.7759 63.4999 30.2386 62.9506 29.5432C62.3947 28.8479 61.9704 28.3887 61.6842 28.1775C61.2533 27.8581 60.5675 27.5436 59.6235 27.2226C60.801 26.9514 61.7319 26.6054 62.4078 26.1962C63.4768 25.544 64.314 24.6973 64.9175 23.6459C65.5277 22.6012 65.8319 21.3552 65.8319 19.9179C65.8319 18.2626 65.4372 16.8536 64.6429 15.7008C63.8485 14.5529 62.8025 13.761 61.5066 13.3385C60.2155 12.9093 58.3407 12.698 55.8918 12.698H42.6772V17.5207C40.2613 14.4581 36.5428 12.4934 32.3687 12.4934C28.1946 12.4934 24.5156 14.4364 22.0996 17.4708C21.8743 17.0981 21.6325 16.7388 21.3661 16.3961C20.4287 15.205 19.2462 14.2934 17.817 13.6529C16.3895 13.0191 14.508 12.698 12.1891 12.698H0.400391V38.6562H12.1874C13.5969 38.6562 15.1741 38.42 16.9125 37.9492C18.1854 37.6049 19.3745 36.9162 20.4846 35.8831C21.0602 35.3491 21.5684 34.7452 22.0125 34.0781C24.4268 37.174 28.1667 39.1653 32.367 39.1653C36.5674 39.1653 40.2596 37.2006 42.6756 34.138V38.6562H50.6323V28.1425H51.3312C52.0549 28.1425 52.7045 28.3422 53.2785 28.7414C53.6962 29.0492 54.1748 29.7146 54.7126 30.741L58.9475 38.6562H74.8494V12.6964ZM15.4668 30.2436C15.0672 31.1685 14.5162 31.814 13.8189 32.19C13.1134 32.5593 11.9309 32.7456 10.2698 32.7456H8.32257V18.5704H10.306C12.3667 18.5704 13.8419 19.0778 14.7333 20.0926C15.6231 21.1073 16.0655 22.9872 16.0655 25.737C16.0655 27.8165 15.8681 29.3137 15.4685 30.2453L15.4668 30.2436ZM22.9466 32.3513C22.9927 32.2465 23.0404 32.1451 23.0831 32.0386C23.7097 30.5098 24.0205 28.3588 24.0205 25.5856C24.0205 23.8156 23.8117 22.1421 23.3874 20.5584C23.269 20.1125 23.1292 19.6833 22.9696 19.2674C25.0304 16.2531 28.4693 14.2784 32.3654 14.2784C35.0215 14.2784 37.4654 15.195 39.4044 16.7338L23.3528 32.9186C23.2114 32.734 23.0765 32.5443 22.9466 32.353V32.3513ZM23.7706 33.4293L39.9093 17.158C40.2284 17.4408 40.531 17.7419 40.8155 18.0597L24.5222 34.2212C24.259 33.97 24.0074 33.7055 23.7689 33.4293H23.7706ZM32.3654 37.377C29.7998 37.377 27.4315 36.5202 25.5237 35.0746L41.6395 19.0894C42.0342 19.6451 42.3795 20.2373 42.6739 20.8595V30.7976C40.8369 34.6886 36.9111 37.377 32.3654 37.377ZM57.3703 22.0739C57.0414 22.5147 56.6122 22.7875 56.0859 22.889C55.0465 23.1252 54.3409 23.245 53.9824 23.245H50.6306V17.9516H54.1189C55.5711 17.9516 56.5562 18.1745 57.0825 18.6286C57.6088 19.0761 57.8703 19.7216 57.8703 20.5617C57.8703 21.129 57.7025 21.6313 57.3687 22.0722L57.3703 22.0739Z" fill="#9A9A9A"/>
<path d="M69.4888 9.91982H70.6976C77.184 7.39619 70.2749 0 70.2749 0C70.1598 1.97964 68.8934 3.14413 68.3557 3.84283C65.2654 8.5008 69.4872 9.91815 69.4872 9.91815L69.4888 9.91982ZM68.6155 5.29013C69.0957 4.7661 70.5923 3.77628 70.5825 1.14619C70.5825 1.14619 72.4919 3.03933 70.765 5.31009C69.0382 7.58085 69.8819 8.47418 70.1516 9.09469C69.4411 9.05643 66.7735 7.89194 68.6171 5.29013H68.6155Z" fill="#9A9A9A"/>
<path d="M73.5191 42.9648V46.0657L72.529 42.9648H71.0488V49.852H72.529V46.7195L73.45 49.852H74.9992V42.9648H73.5191Z" fill="#9A9A9A"/>
<path d="M44.3631 46.1805L44.1115 44.4321C44.0358 43.8715 43.9651 43.3824 43.901 42.9648H41.6133V49.852H43.1625L43.1675 45.3071L43.8171 49.852H44.9009L45.516 45.2023L45.5209 49.852H47.0702V42.9648H44.766L44.3631 46.1805Z" fill="#9A9A9A"/>
<path d="M3.74317 43.4756C3.58694 43.2942 3.35669 43.1628 3.05572 43.0846C2.75475 43.0048 2.17584 42.9648 1.32228 42.9648H0V49.852H2.23012C2.65279 49.852 2.9702 49.8287 3.17907 49.7821C3.38958 49.7339 3.56555 49.6524 3.71028 49.5359C3.85172 49.4178 3.95204 49.2548 4.0096 49.0452C4.06717 48.8372 4.09513 48.4247 4.09513 47.8058V45.3936C4.09513 44.7415 4.07539 44.304 4.03592 44.0811C3.99645 43.8598 3.89777 43.6569 3.74153 43.4756H3.74317ZM2.32386 47.6744C2.32386 48.1335 2.2959 48.4163 2.2367 48.5211C2.17913 48.6243 2.02454 48.6759 1.77291 48.6759V44.1393C1.96369 44.1393 2.09361 44.1593 2.16104 44.2025C2.23176 44.2425 2.27452 44.3073 2.29426 44.3955C2.31235 44.4837 2.32222 44.685 2.32222 44.9961V47.6744H2.32386Z" fill="#9A9A9A"/>
<path d="M60.7352 43.5486C60.5608 43.3074 60.3256 43.1278 60.0362 43.008C59.7467 42.8882 59.4211 42.8267 59.056 42.8267C58.6728 42.8267 58.3373 42.8899 58.0495 43.018C57.7617 43.1461 57.5314 43.3291 57.362 43.5669C57.1926 43.8048 57.0923 44.0677 57.0611 44.3555C57.0282 44.6433 57.0117 45.1324 57.0117 45.8244V47.0022C57.0117 47.7109 57.0282 48.2066 57.0627 48.4911C57.0972 48.7739 57.2025 49.0367 57.3785 49.278C57.5528 49.5192 57.788 49.6988 58.0774 49.8186C58.3669 49.9384 58.6925 49.9999 59.0576 49.9999C59.4408 49.9999 59.7763 49.9367 60.0641 49.8086C60.352 49.6805 60.5822 49.4975 60.7516 49.2596C60.921 49.0218 61.0213 48.7589 61.0526 48.4711C61.0855 48.1833 61.1019 47.6942 61.1019 47.0022V45.8244C61.1019 45.1157 61.0855 44.62 61.0509 44.3355C61.0164 44.0527 60.9111 43.7899 60.7352 43.5486ZM59.3274 47.9022C59.3274 48.3064 59.3109 48.5643 59.278 48.6708C59.2451 48.7789 59.1695 48.8321 59.0511 48.8321C58.9326 48.8321 58.8636 48.7855 58.8323 48.6907C58.8011 48.5976 58.7846 48.3513 58.7846 47.9521V44.7381C58.7846 44.3838 58.8093 44.1708 58.857 44.0993C58.9063 44.0261 58.9754 43.9912 59.0642 43.9912C59.1711 43.9912 59.2402 44.0361 59.2747 44.1242C59.3093 44.2141 59.3257 44.4187 59.3257 44.7381V47.9005L59.3274 47.9022Z" fill="#9A9A9A"/>
<path d="M31.4464 45.9241C31.578 45.7395 31.6438 45.3801 31.6438 44.8445C31.6438 44.2589 31.55 43.8297 31.3642 43.5635C31.1783 43.2957 30.9366 43.1277 30.6405 43.0628C30.3445 42.9979 29.7804 42.9663 28.9449 42.9663H27.6934V49.8535H29.4663V46.7459C29.708 46.7459 29.8577 46.7892 29.9136 46.8773C29.9712 46.9655 29.9991 47.1934 29.9991 47.5627V49.8535H31.6438V48.0352C31.6438 47.4796 31.629 47.1402 31.5994 47.0171C31.5714 46.894 31.4957 46.7576 31.3757 46.6112C31.2556 46.4631 31.0188 46.345 30.6685 46.2568C31.055 46.2202 31.3148 46.1104 31.4464 45.9258V45.9241ZM30.0008 45.0508C30.0008 45.3535 29.9613 45.5332 29.8824 45.5897C29.8034 45.6446 29.6653 45.6729 29.4679 45.6729V44.1408C29.6702 44.1408 29.81 44.1741 29.8873 44.2423C29.9629 44.3105 30.0024 44.4535 30.0024 44.6731V45.0524L30.0008 45.0508Z" fill="#9A9A9A"/>
<path d="M14.5327 42.9648L13.6348 49.852H15.4669L15.5623 48.616H16.2004L16.2958 49.852H18.1049L17.0918 42.9648H14.5311H14.5327ZM15.5524 47.3966C15.6001 46.786 15.7103 45.8195 15.8846 44.4953C15.98 45.6482 16.0688 46.6147 16.1527 47.3966H15.5524Z" fill="#9A9A9A"/>
</svg>
