<svg width="1310" height="45" viewBox="0 0 1310 45" fill="none" xmlns="http://www.w3.org/2000/svg">
<mask id="mask0_412_332" style="mask-type:luminance" maskUnits="userSpaceOnUse" x="1095" y="2" width="215" height="41">
<path d="M1310 2.54846H1095.96V42.4949H1310V2.54846Z" fill="white"/>
</mask>
<g mask="url(#mask0_412_332)">
<path d="M1125.56 28.7009C1125.56 35.8788 1119.42 42.495 1110.76 42.495C1106.3 42.495 1102.47 40.716 1099.85 38.0322C1098.57 36.7527 1097.58 35.1922 1096.92 33.5693C1095.43 29.8868 1095.58 25.5801 1098.08 21.7103L1107.11 7.60419L1108.17 5.95015C1108.33 5.70049 1108.73 5.70049 1108.89 5.95015L1109.95 7.60419L1110.85 9.00855L1116.21 17.4348L1119.29 22.2408L1120.17 23.6139C1120.35 23.8949 1120.51 24.207 1120.66 24.4878C1121.38 25.8921 1121.72 27.359 1121.72 28.7945C1121.72 33.6942 1117.86 38.1882 1112.28 38.8436C1112.1 38.8748 1111.94 38.8748 1111.75 38.8748C1111.6 38.8748 1111.44 38.906 1111.26 38.906C1111.1 38.906 1110.94 38.906 1110.82 38.906C1110.66 38.906 1110.32 38.906 1110.29 38.906V36.7838V36.7527L1115.43 28.4824H1109.64V33.5693C1109.64 35.5355 1108.58 37.2519 1106.71 38.2194C1105.93 37.9385 1105.21 37.564 1104.53 37.1271C1104.34 37.0023 1104.12 36.8462 1103.93 36.7214C1102.16 35.4107 1100.85 33.5382 1100.26 31.4784C1100.04 30.6982 1099.88 29.8868 1099.85 29.0754C1099.82 27.2653 1100.26 25.3929 1101.38 23.6452L1107.08 14.7196L1108.48 12.5351V13.4089C1108.48 15.6871 1107.8 17.9341 1106.58 19.9002L1103.44 24.7375C1102.72 25.8921 1102.31 27.0781 1102.25 28.264C1102.22 28.8569 1102.25 29.4499 1102.31 30.0116C1102.72 32.3522 1104.28 34.4745 1106.52 35.6603C1106.89 35.1298 1107.14 34.4745 1107.21 33.7879V26.2042H1118.11V28.4512L1113.25 36.4406C1116.89 35.4419 1119.32 32.2586 1119.32 28.8257C1119.32 28.2328 1119.26 27.6398 1119.11 27.0157C1118.92 26.2354 1118.58 25.5176 1118.14 24.7687L1117.95 24.4566L1114.12 18.5582L1110.79 13.3152L1109.39 11.1307L1108.67 10.0072C1108.61 9.88238 1108.42 9.88238 1108.33 10.0072L1100.1 22.8962C1098.61 25.2368 1098.11 27.7335 1098.42 30.1677C1098.57 31.416 1098.98 32.6331 1099.54 33.7566C1100.1 34.8489 1100.82 35.8475 1101.72 36.7214C1101.85 36.8462 1101.97 36.9711 1102.1 37.0959C1102.84 37.7512 1103.68 38.3443 1104.62 38.8436C1104.68 38.8748 1104.74 38.906 1104.81 38.9372C1105.9 39.4989 1107.05 39.8735 1108.33 40.1231C1109.11 40.248 1109.92 40.3415 1110.76 40.3415H1110.79C1118.02 40.3103 1123.16 34.7865 1123.16 28.7945C1123.16 26.8284 1122.6 24.8311 1121.38 22.8962L1117.55 16.8418L1110.76 6.19981L1109.35 4.01524L1108.42 2.54846C1110.13 2.54846 1111.75 3.39108 1112.66 4.79545L1119.64 15.6559L1123.5 21.679C1124.93 23.9572 1125.56 26.3915 1125.56 28.7009Z" fill="#9A9A9A"/>
<path d="M1147.47 19.4008C1146.07 20.7739 1144.32 21.4605 1142.24 21.4605C1140.15 21.4605 1138.4 20.7739 1137.03 19.4008C1135.66 18.0277 1134.98 16.3424 1134.98 14.3451C1134.98 12.3789 1135.66 10.6625 1137.06 9.28935C1138.47 7.9162 1140.21 7.22961 1142.3 7.22961C1144.39 7.22961 1146.13 7.9162 1147.5 9.28935C1148.87 10.6625 1149.56 12.3477 1149.56 14.3451C1149.56 16.3424 1148.9 18.0277 1147.47 19.4008ZM1139.31 17.4035C1140.12 18.2461 1141.08 18.6518 1142.27 18.6518C1143.45 18.6518 1144.48 18.2149 1145.23 17.4035C1145.97 16.592 1146.41 15.531 1146.41 14.3138C1146.41 13.128 1146.01 12.0668 1145.23 11.2555C1144.42 10.4128 1143.45 10.0071 1142.27 10.0071C1141.08 10.0071 1140.05 10.4441 1139.31 11.2555C1138.53 12.0668 1138.12 13.128 1138.12 14.3451C1138.12 15.531 1138.53 16.592 1139.31 17.4035Z" fill="#9A9A9A"/>
<path d="M1151.77 13.6896V11.0369C1151.77 9.78861 1152.05 8.85237 1152.67 8.25941C1153.3 7.66646 1154.2 7.38558 1155.38 7.35437L1155.66 8.6027C1154.29 8.72754 1153.64 9.41411 1153.73 10.5376H1154.95V13.6896H1151.77Z" fill="#9A9A9A"/>
<path d="M1157.5 21.2422V18.9327L1165.07 10.1008H1157.75V7.44812H1169V9.72632L1161.4 18.5582H1168.97V21.2109H1157.5V21.2422Z" fill="#9A9A9A"/>
<path d="M1176.51 21.4293C1174.26 21.4293 1172.3 20.6804 1170.65 19.2135L1172.43 17.0602C1173.77 18.1837 1175.14 18.7455 1176.54 18.7455C1177.16 18.7455 1177.63 18.6518 1178 18.4022C1178.38 18.1524 1178.53 17.8404 1178.53 17.4035C1178.53 16.9978 1178.35 16.6857 1177.97 16.436C1177.6 16.1864 1176.85 15.9367 1175.73 15.6246C1174.92 15.4374 1174.3 15.2189 1173.83 15.0316C1173.36 14.8444 1172.86 14.5947 1172.46 14.2826C1172.02 13.9705 1171.68 13.5649 1171.49 13.0967C1171.27 12.6287 1171.21 12.0356 1171.21 11.3803C1171.21 10.132 1171.65 9.13331 1172.55 8.38432C1173.45 7.60411 1174.61 7.22961 1176.04 7.22961C1177.97 7.22961 1179.72 7.82257 1181.15 8.97727L1179.59 11.2555C1178.28 10.3504 1177.1 9.91352 1176.01 9.91352C1175.45 9.91352 1175.01 10.0071 1174.7 10.2568C1174.39 10.5065 1174.26 10.7873 1174.26 11.1618C1174.26 11.5988 1174.45 11.9421 1174.83 12.1605C1175.2 12.3789 1176.01 12.6287 1177.22 12.972C1178.72 13.3776 1179.84 13.877 1180.53 14.5011C1181.24 15.1253 1181.59 15.9991 1181.59 17.1539C1181.59 18.4957 1181.15 19.5568 1180.22 20.3059C1179.25 21.0548 1178.03 21.4293 1176.51 21.4293Z" fill="#9A9A9A"/>
<path d="M1189.94 21.4606C1188.04 21.4606 1186.6 20.9301 1185.54 19.9002C1184.52 18.8703 1183.99 17.3411 1183.99 15.3438V7.44812H1187.01V15.2501C1187.01 16.3425 1187.29 17.185 1187.79 17.778C1188.29 18.371 1189.03 18.6519 1190 18.6519C1190.97 18.6519 1191.68 18.371 1192.21 17.8092C1192.71 17.2475 1192.99 16.4361 1192.99 15.3438V7.44812H1196.01V15.2189C1196.01 17.2787 1195.48 18.8079 1194.42 19.869C1193.3 20.8989 1191.81 21.4606 1189.94 21.4606Z" fill="#9A9A9A"/>
<path d="M1203.46 21.3357L1197.88 7.44812H1201.21L1204.8 17.1538L1208.38 7.44812H1211.65L1206.11 21.3357H1203.46Z" fill="#9A9A9A"/>
<path d="M1216.98 21.2422V10.2569H1212.8V7.44812H1224.21V10.2569H1220V21.2422H1216.98Z" fill="#9A9A9A"/>
<path d="M1223.58 21.242L1229.47 7.35437H1232.28L1238.16 21.242H1235.02L1233.77 18.1524H1227.95L1226.7 21.242H1223.58ZM1229 15.4685H1232.68L1230.84 11.0057L1229 15.4685Z" fill="#9A9A9A"/>
<path d="M1237.95 13.7834L1237.67 12.5351C1239.04 12.4102 1239.69 11.7236 1239.6 10.6001H1238.38V7.44812H1241.56V10.1008C1241.56 11.3491 1241.28 12.2854 1240.66 12.8783C1240.03 13.4713 1239.13 13.7522 1237.95 13.7834Z" fill="#9A9A9A"/>
<path d="M1244.33 21.2421V7.44812H1247.6L1251.22 13.2841L1254.83 7.44812H1258.1V21.2421H1255.11V12.2542L1251.25 18.1213H1251.16L1247.32 12.2854V21.2109L1244.33 21.2421Z" fill="#9A9A9A"/>
<path d="M1261.53 21.2421V7.44812H1264.55V21.2421H1261.53Z" fill="#9A9A9A"/>
<path d="M1268.01 21.2421V7.44812H1270.82L1277.27 15.9367V7.44812H1280.23V21.2421H1277.64L1270.97 12.5038V21.2421H1268.01Z" fill="#9A9A9A"/>
<path d="M1295.46 19.4008C1294.06 20.7739 1292.31 21.4605 1290.23 21.4605C1288.14 21.4605 1286.4 20.7739 1285.02 19.4008C1283.65 18.0277 1282.97 16.3424 1282.97 14.3451C1282.97 12.3789 1283.65 10.6625 1285.06 9.28935C1286.46 7.9162 1288.2 7.22961 1290.29 7.22961C1292.38 7.22961 1294.12 7.9162 1295.49 9.28935C1296.86 10.6625 1297.55 12.3477 1297.55 14.3451C1297.55 16.3424 1296.86 18.0277 1295.46 19.4008ZM1287.27 17.4035C1288.08 18.2461 1289.04 18.6518 1290.23 18.6518C1291.41 18.6518 1292.44 18.2149 1293.19 17.4035C1293.97 16.592 1294.37 15.531 1294.37 14.3138C1294.37 13.128 1293.97 12.0668 1293.19 11.2555C1292.38 10.4128 1291.41 10.0071 1290.23 10.0071C1289.04 10.0071 1288.01 10.4441 1287.27 11.2555C1286.49 12.0668 1286.08 13.128 1286.08 14.3451C1286.08 15.531 1286.46 16.592 1287.27 17.4035Z" fill="#9A9A9A"/>
<path d="M1302.84 21.2421V10.2568H1298.64V7.44812H1310.04V10.2568H1305.84V21.2421H1302.84Z" fill="#9A9A9A"/>
<path d="M1135.52 31.6064V30.9838C1135.52 30.7947 1135.55 30.5941 1135.62 30.382C1135.69 30.1675 1135.79 29.9612 1135.91 29.7629C1136.05 29.5623 1136.2 29.3882 1136.39 29.2406L1136.83 29.6003C1136.69 29.8078 1136.56 30.0246 1136.45 30.2506C1136.34 30.4742 1136.29 30.7141 1136.29 30.97V31.6064H1135.52ZM1137.29 31.6064V30.9838C1137.29 30.7947 1137.32 30.5941 1137.39 30.382C1137.46 30.1675 1137.56 29.9612 1137.69 29.7629C1137.82 29.5623 1137.97 29.3882 1138.16 29.2406L1138.6 29.6003C1138.46 29.8078 1138.33 30.0246 1138.22 30.2506C1138.12 30.4742 1138.06 30.7141 1138.06 30.97V31.6064H1137.29ZM1139.61 36.4761V29.3929H1143.86V30.1537H1140.47V32.5472H1143.54V33.308H1140.47V36.4761H1139.61ZM1146.78 36.6006C1146.45 36.6006 1146.14 36.5373 1145.87 36.4104C1145.59 36.2813 1145.37 36.0957 1145.21 35.8536C1145.05 35.6092 1144.97 35.314 1144.97 34.9682C1144.97 34.6638 1145.03 34.4171 1145.15 34.228C1145.27 34.0366 1145.43 33.8868 1145.63 33.7784C1145.83 33.6701 1146.05 33.5893 1146.29 33.5363C1146.54 33.4809 1146.78 33.4372 1147.03 33.4049C1147.35 33.3634 1147.62 33.3323 1147.82 33.3115C1148.02 33.2884 1148.17 33.2504 1148.26 33.1973C1148.35 33.1443 1148.4 33.052 1148.4 32.9207V32.893C1148.4 32.5517 1148.31 32.2865 1148.12 32.0975C1147.94 31.9085 1147.66 31.8139 1147.28 31.8139C1146.89 31.8139 1146.59 31.8992 1146.36 32.0698C1146.14 32.2405 1145.99 32.4226 1145.9 32.6163L1145.12 32.3396C1145.26 32.0168 1145.44 31.7655 1145.68 31.5857C1145.91 31.4035 1146.16 31.2766 1146.44 31.2052C1146.71 31.1314 1146.99 31.0945 1147.25 31.0945C1147.42 31.0945 1147.62 31.1152 1147.84 31.1568C1148.06 31.196 1148.28 31.2778 1148.49 31.4023C1148.7 31.5268 1148.87 31.7147 1149.01 31.966C1149.15 32.2174 1149.22 32.554 1149.22 32.976V36.4761H1148.4V35.7568H1148.36C1148.3 35.872 1148.21 35.9954 1148.08 36.1268C1147.95 36.2582 1147.78 36.3701 1147.57 36.4623C1147.35 36.5546 1147.09 36.6006 1146.78 36.6006ZM1146.91 35.8674C1147.23 35.8674 1147.5 35.804 1147.72 35.6772C1147.95 35.5504 1148.12 35.3866 1148.23 35.1861C1148.34 34.9855 1148.4 34.7745 1148.4 34.5531V33.8061C1148.37 33.8476 1148.29 33.8857 1148.17 33.9202C1148.06 33.9525 1147.92 33.9813 1147.77 34.0067C1147.62 34.0297 1147.48 34.0504 1147.33 34.0689C1147.19 34.085 1147.08 34.0989 1146.99 34.1104C1146.78 34.1381 1146.58 34.1831 1146.39 34.2453C1146.21 34.3053 1146.07 34.3964 1145.95 34.5185C1145.84 34.6384 1145.79 34.8021 1145.79 35.0097C1145.79 35.2933 1145.89 35.5078 1146.1 35.6529C1146.31 35.7959 1146.58 35.8674 1146.91 35.8674ZM1150.71 36.4761V31.1636H1151.5V31.966H1151.55C1151.65 31.7032 1151.82 31.4899 1152.08 31.3262C1152.33 31.1625 1152.62 31.0807 1152.93 31.0807C1152.99 31.0807 1153.07 31.0818 1153.16 31.0841C1153.25 31.0865 1153.32 31.0899 1153.36 31.0945V31.9246C1153.34 31.9176 1153.27 31.9073 1153.17 31.8934C1153.08 31.8773 1152.97 31.8693 1152.87 31.8693C1152.61 31.8693 1152.38 31.9234 1152.17 32.0318C1151.97 32.1379 1151.81 32.2854 1151.7 32.4745C1151.58 32.6612 1151.52 32.8745 1151.52 33.1144V36.4761H1150.71ZM1156.31 38.579C1155.92 38.579 1155.58 38.5283 1155.3 38.4268C1155.01 38.3276 1154.78 38.1963 1154.59 38.0326C1154.4 37.8711 1154.25 37.6982 1154.14 37.5137L1154.79 37.0572C1154.87 37.154 1154.96 37.2647 1155.07 37.3892C1155.18 37.5161 1155.34 37.6256 1155.54 37.7178C1155.73 37.8123 1155.99 37.8596 1156.31 37.8596C1156.74 37.8596 1157.1 37.7558 1157.38 37.5483C1157.65 37.3408 1157.79 37.0157 1157.79 36.573V35.4939H1157.72C1157.66 35.5907 1157.58 35.7106 1157.47 35.8536C1157.36 35.9942 1157.2 36.1199 1157 36.2306C1156.8 36.339 1156.52 36.3932 1156.18 36.3932C1155.75 36.3932 1155.36 36.2917 1155.02 36.0888C1154.68 35.8858 1154.41 35.5907 1154.21 35.2034C1154.02 34.816 1153.92 34.3456 1153.92 33.7923C1153.92 33.248 1154.02 32.7742 1154.21 32.3708C1154.4 31.9649 1154.66 31.6513 1155.01 31.4299C1155.35 31.2063 1155.74 31.0945 1156.19 31.0945C1156.53 31.0945 1156.81 31.1521 1157.01 31.2675C1157.22 31.3804 1157.37 31.5095 1157.48 31.6548C1157.59 31.7978 1157.68 31.9153 1157.74 32.0076H1157.82V31.1636H1158.61V36.6284C1158.61 37.0849 1158.51 37.4561 1158.3 37.742C1158.09 38.0302 1157.82 38.2412 1157.47 38.375C1157.12 38.511 1156.74 38.579 1156.31 38.579ZM1156.29 35.6599C1156.61 35.6599 1156.89 35.5849 1157.12 35.4351C1157.34 35.2852 1157.51 35.0696 1157.63 34.7883C1157.75 34.5071 1157.81 34.1704 1157.81 33.7784C1157.81 33.3956 1157.75 33.0578 1157.63 32.765C1157.52 32.4722 1157.35 32.2428 1157.12 32.0767C1156.9 31.9107 1156.62 31.8277 1156.29 31.8277C1155.94 31.8277 1155.65 31.9153 1155.42 32.0905C1155.19 32.2658 1155.02 32.501 1154.91 32.7962C1154.79 33.0913 1154.74 33.4187 1154.74 33.7784C1154.74 34.1473 1154.79 34.4736 1154.91 34.7572C1155.03 35.0385 1155.2 35.2598 1155.43 35.4212C1155.66 35.5803 1155.94 35.6599 1156.29 35.6599ZM1161.96 30.4443L1160.88 28.8395H1161.83L1162.68 30.4443H1161.96ZM1167.1 36.5868C1166.62 36.5868 1166.2 36.4726 1165.84 36.2444C1165.48 36.0161 1165.2 35.6968 1165 35.2864C1164.8 34.8759 1164.7 34.3964 1164.7 33.8476C1164.7 33.2942 1164.8 32.8111 1165 32.3984C1165.2 31.9856 1165.48 31.6651 1165.84 31.4369C1166.2 31.2086 1166.62 31.0945 1167.1 31.0945C1167.58 31.0945 1168 31.2086 1168.36 31.4369C1168.72 31.6651 1169.01 31.9856 1169.21 32.3984C1169.41 32.8111 1169.51 33.2942 1169.51 33.8476C1169.51 34.3964 1169.41 34.8759 1169.21 35.2864C1169.01 35.6968 1168.72 36.0161 1168.36 36.2444C1168 36.4726 1167.58 36.5868 1167.1 36.5868ZM1167.1 35.8536C1167.47 35.8536 1167.77 35.7602 1168 35.5735C1168.24 35.3866 1168.41 35.1411 1168.53 34.8367C1168.64 34.5324 1168.69 34.2027 1168.69 33.8476C1168.69 33.4925 1168.64 33.1616 1168.53 32.8549C1168.41 32.5483 1168.24 32.3005 1168 32.1113C1167.77 31.9223 1167.47 31.8277 1167.1 31.8277C1166.74 31.8277 1166.44 31.9223 1166.2 32.1113C1165.97 32.3005 1165.8 32.5483 1165.68 32.8549C1165.57 33.1616 1165.51 33.4925 1165.51 33.8476C1165.51 34.2027 1165.57 34.5324 1165.68 34.8367C1165.8 35.1411 1165.97 35.3866 1166.2 35.5735C1166.44 35.7602 1166.74 35.8536 1167.1 35.8536ZM1171.57 33.2804V36.4761H1170.76V31.1636H1171.55V31.9938H1171.61C1171.74 31.724 1171.93 31.5072 1172.18 31.3435C1172.44 31.1775 1172.76 31.0945 1173.16 31.0945C1173.52 31.0945 1173.84 31.1683 1174.11 31.3159C1174.38 31.4611 1174.59 31.6824 1174.74 31.9799C1174.89 32.275 1174.96 32.6486 1174.96 33.1005V36.4761H1174.15V33.1559C1174.15 32.7385 1174.04 32.4134 1173.82 32.1805C1173.6 31.9453 1173.31 31.8277 1172.93 31.8277C1172.67 31.8277 1172.44 31.8842 1172.23 31.9972C1172.03 32.1102 1171.87 32.275 1171.75 32.4918C1171.63 32.7086 1171.57 32.9714 1171.57 33.2804ZM1178.02 36.6006C1177.68 36.6006 1177.38 36.5373 1177.1 36.4104C1176.83 36.2813 1176.61 36.0957 1176.45 35.8536C1176.29 35.6092 1176.2 35.314 1176.2 34.9682C1176.2 34.6638 1176.26 34.4171 1176.38 34.228C1176.5 34.0366 1176.66 33.8868 1176.87 33.7784C1177.07 33.6701 1177.29 33.5893 1177.53 33.5363C1177.77 33.4809 1178.02 33.4372 1178.27 33.4049C1178.59 33.3634 1178.85 33.3323 1179.05 33.3115C1179.25 33.2884 1179.4 33.2504 1179.49 33.1973C1179.59 33.1443 1179.64 33.052 1179.64 32.9207V32.893C1179.64 32.5517 1179.54 32.2865 1179.36 32.0975C1179.17 31.9085 1178.89 31.8139 1178.52 31.8139C1178.13 31.8139 1177.82 31.8992 1177.6 32.0698C1177.38 32.2405 1177.22 32.4226 1177.13 32.6163L1176.36 32.3396C1176.5 32.0168 1176.68 31.7655 1176.91 31.5857C1177.14 31.4035 1177.4 31.2766 1177.67 31.2052C1177.95 31.1314 1178.22 31.0945 1178.49 31.0945C1178.66 31.0945 1178.85 31.1152 1179.08 31.1568C1179.3 31.196 1179.51 31.2778 1179.72 31.4023C1179.93 31.5268 1180.11 31.7147 1180.24 31.966C1180.38 32.2174 1180.45 32.554 1180.45 32.976V36.4761H1179.64V35.7568H1179.59C1179.54 35.872 1179.45 35.9954 1179.32 36.1268C1179.19 36.2582 1179.02 36.3701 1178.8 36.4623C1178.59 36.5546 1178.33 36.6006 1178.02 36.6006ZM1178.14 35.8674C1178.46 35.8674 1178.74 35.804 1178.96 35.6772C1179.18 35.5504 1179.35 35.3866 1179.46 35.1861C1179.58 34.9855 1179.64 34.7745 1179.64 34.5531V33.8061C1179.6 33.8476 1179.53 33.8857 1179.41 33.9202C1179.29 33.9525 1179.16 33.9813 1179.01 34.0067C1178.86 34.0297 1178.71 34.0504 1178.57 34.0689C1178.43 34.085 1178.31 34.0989 1178.22 34.1104C1178.01 34.1381 1177.81 34.1831 1177.63 34.2453C1177.45 34.3053 1177.3 34.3964 1177.19 34.5185C1177.08 34.6384 1177.02 34.8021 1177.02 35.0097C1177.02 35.2933 1177.13 35.5078 1177.34 35.6529C1177.55 35.7959 1177.82 35.8674 1178.14 35.8674ZM1188.44 32.3535L1187.71 32.561C1187.66 32.4388 1187.6 32.32 1187.51 32.2047C1187.42 32.0872 1187.3 31.9903 1187.15 31.9142C1187 31.8381 1186.8 31.8001 1186.56 31.8001C1186.24 31.8001 1185.97 31.8749 1185.75 32.0249C1185.54 32.1725 1185.43 32.3603 1185.43 32.5886C1185.43 32.7915 1185.5 32.9518 1185.65 33.0693C1185.8 33.187 1186.03 33.2849 1186.34 33.3634L1187.13 33.557C1187.6 33.6724 1187.96 33.8488 1188.19 34.0862C1188.42 34.3214 1188.54 34.6246 1188.54 34.9958C1188.54 35.3002 1188.45 35.5723 1188.28 35.8121C1188.11 36.0519 1187.86 36.2409 1187.55 36.3793C1187.24 36.5177 1186.88 36.5868 1186.47 36.5868C1185.92 36.5868 1185.48 36.4693 1185.12 36.2341C1184.77 35.9989 1184.54 35.6553 1184.45 35.2034L1185.22 35.0097C1185.29 35.2955 1185.43 35.51 1185.64 35.6529C1185.85 35.7959 1186.12 35.8674 1186.45 35.8674C1186.83 35.8674 1187.13 35.7867 1187.36 35.6253C1187.58 35.4616 1187.7 35.2656 1187.7 35.0374C1187.7 34.8529 1187.63 34.6984 1187.5 34.5739C1187.37 34.4471 1187.18 34.3525 1186.91 34.2903L1186.02 34.0828C1185.54 33.9675 1185.18 33.7888 1184.95 33.5467C1184.73 33.3022 1184.61 32.9967 1184.61 32.6301C1184.61 32.3304 1184.7 32.0652 1184.86 31.8347C1185.04 31.6041 1185.27 31.4231 1185.56 31.2916C1185.85 31.1603 1186.19 31.0945 1186.56 31.0945C1187.09 31.0945 1187.5 31.2098 1187.8 31.4404C1188.1 31.6709 1188.32 31.9753 1188.44 32.3535ZM1193.12 34.3041V31.1636H1193.93V36.4761H1193.12V35.5769H1193.06C1192.94 35.8467 1192.74 36.0761 1192.48 36.2652C1192.22 36.452 1191.89 36.5453 1191.49 36.5453C1191.15 36.5453 1190.86 36.4726 1190.6 36.3275C1190.34 36.1799 1190.14 35.9585 1189.99 35.6634C1189.84 35.3659 1189.77 34.9913 1189.77 34.5393V31.1636H1190.59V34.484C1190.59 34.8713 1190.69 35.1803 1190.91 35.4109C1191.13 35.6415 1191.41 35.7568 1191.75 35.7568C1191.95 35.7568 1192.16 35.7048 1192.37 35.6011C1192.58 35.4973 1192.76 35.3382 1192.9 35.1238C1193.05 34.9094 1193.12 34.6361 1193.12 34.3041ZM1199.77 31.1636L1197.81 36.4761H1196.98L1195.01 31.1636H1195.9L1197.37 35.3971H1197.42L1198.89 31.1636H1199.77ZM1205.9 31.1636V31.8554H1203.15V31.1636H1205.9ZM1203.95 29.8909H1204.77V34.9544C1204.77 35.185 1204.8 35.3579 1204.87 35.4731C1204.94 35.5861 1205.02 35.6622 1205.13 35.7014C1205.24 35.7383 1205.35 35.7568 1205.47 35.7568C1205.56 35.7568 1205.64 35.7522 1205.69 35.7429C1205.75 35.7314 1205.8 35.7222 1205.83 35.7153L1206 36.4485C1205.94 36.4693 1205.86 36.4899 1205.77 36.5107C1205.67 36.5338 1205.54 36.5453 1205.39 36.5453C1205.16 36.5453 1204.93 36.4957 1204.71 36.3966C1204.49 36.2974 1204.31 36.1465 1204.16 35.9435C1204.02 35.7406 1203.95 35.4847 1203.95 35.1757V29.8909ZM1208.69 36.6006C1208.35 36.6006 1208.05 36.5373 1207.77 36.4104C1207.5 36.2813 1207.28 36.0957 1207.12 35.8536C1206.96 35.6092 1206.88 35.314 1206.88 34.9682C1206.88 34.6638 1206.94 34.4171 1207.06 34.228C1207.18 34.0366 1207.34 33.8868 1207.54 33.7784C1207.74 33.6701 1207.96 33.5893 1208.2 33.5363C1208.45 33.4809 1208.69 33.4372 1208.94 33.4049C1209.26 33.3634 1209.53 33.3323 1209.73 33.3115C1209.93 33.2884 1210.08 33.2504 1210.17 33.1973C1210.26 33.1443 1210.31 33.052 1210.31 32.9207V32.893C1210.31 32.5517 1210.22 32.2865 1210.03 32.0975C1209.85 31.9085 1209.57 31.8139 1209.19 31.8139C1208.8 31.8139 1208.49 31.8992 1208.27 32.0698C1208.05 32.2405 1207.9 32.4226 1207.81 32.6163L1207.03 32.3396C1207.17 32.0168 1207.35 31.7655 1207.58 31.5857C1207.82 31.4035 1208.07 31.2766 1208.35 31.2052C1208.62 31.1314 1208.89 31.0945 1209.16 31.0945C1209.33 31.0945 1209.53 31.1152 1209.75 31.1568C1209.97 31.196 1210.19 31.2778 1210.4 31.4023C1210.61 31.5268 1210.78 31.7147 1210.92 31.966C1211.06 32.2174 1211.13 32.554 1211.13 32.976V36.4761H1210.31V35.7568H1210.27C1210.21 35.872 1210.12 35.9954 1209.99 36.1268C1209.86 36.2582 1209.69 36.3701 1209.48 36.4623C1209.26 36.5546 1209 36.6006 1208.69 36.6006ZM1208.82 35.8674C1209.14 35.8674 1209.41 35.804 1209.63 35.6772C1209.86 35.5504 1210.02 35.3866 1210.14 35.1861C1210.25 34.9855 1210.31 34.7745 1210.31 34.5531V33.8061C1210.27 33.8476 1210.2 33.8857 1210.08 33.9202C1209.97 33.9525 1209.83 33.9813 1209.68 34.0067C1209.53 34.0297 1209.38 34.0504 1209.24 34.0689C1209.1 34.085 1208.99 34.0989 1208.9 34.1104C1208.69 34.1381 1208.49 34.1831 1208.3 34.2453C1208.12 34.3053 1207.97 34.3964 1207.86 34.5185C1207.75 34.6384 1207.7 34.8021 1207.7 35.0097C1207.7 35.2933 1207.8 35.5078 1208.01 35.6529C1208.22 35.7959 1208.49 35.8674 1208.82 35.8674ZM1213.34 29.3929V30.0154C1213.34 30.2044 1213.3 30.4062 1213.23 30.6207C1213.16 30.8328 1213.07 31.0391 1212.93 31.2397C1212.81 31.4381 1212.65 31.611 1212.46 31.7586L1212.02 31.3988C1212.17 31.1914 1212.29 30.9758 1212.4 30.752C1212.51 30.5261 1212.56 30.2852 1212.56 30.0292V29.3929H1213.34ZM1214.2 36.4761V31.1636H1214.99V31.9938H1215.06C1215.17 31.7102 1215.35 31.4899 1215.6 31.3332C1215.84 31.1741 1216.14 31.0945 1216.49 31.0945C1216.84 31.0945 1217.13 31.1741 1217.36 31.3332C1217.6 31.4899 1217.78 31.7102 1217.91 31.9938H1217.97C1218.1 31.7193 1218.31 31.5014 1218.58 31.34C1218.85 31.1764 1219.18 31.0945 1219.56 31.0945C1220.03 31.0945 1220.42 31.2432 1220.72 31.5406C1221.03 31.8358 1221.18 32.2958 1221.18 32.9207V36.4761H1220.36V32.9207C1220.36 32.5287 1220.25 32.2485 1220.04 32.0802C1219.82 31.9118 1219.57 31.8277 1219.28 31.8277C1218.91 31.8277 1218.62 31.9407 1218.41 32.1667C1218.21 32.3903 1218.11 32.674 1218.11 33.0175V36.4761H1217.28V32.8376C1217.28 32.5356 1217.18 32.2923 1216.98 32.1078C1216.79 31.9211 1216.53 31.8277 1216.22 31.8277C1216.01 31.8277 1215.81 31.8842 1215.63 31.9972C1215.45 32.1102 1215.3 32.2669 1215.19 32.4676C1215.08 32.6659 1215.02 32.8953 1215.02 33.1559V36.4761H1214.2ZM1222.67 36.4761V31.1636H1223.49V36.4761H1222.67ZM1223.08 30.2782C1222.93 30.2782 1222.79 30.2241 1222.67 30.1157C1222.56 30.0073 1222.5 29.8771 1222.5 29.7249C1222.5 29.5727 1222.56 29.4424 1222.67 29.334C1222.79 29.2257 1222.93 29.1715 1223.08 29.1715C1223.24 29.1715 1223.38 29.2257 1223.49 29.334C1223.61 29.4424 1223.67 29.5727 1223.67 29.7249C1223.67 29.8771 1223.61 30.0073 1223.49 30.1157C1223.38 30.2241 1223.24 30.2782 1223.08 30.2782ZM1225.8 33.2804V36.4761H1224.98V31.1636H1225.77V31.9938H1225.84C1225.96 31.724 1226.15 31.5072 1226.41 31.3435C1226.66 31.1775 1226.99 31.0945 1227.39 31.0945C1227.75 31.0945 1228.06 31.1683 1228.33 31.3159C1228.6 31.4611 1228.81 31.6824 1228.96 31.9799C1229.11 32.275 1229.19 32.6486 1229.19 33.1005V36.4761H1228.37V33.1559C1228.37 32.7385 1228.26 32.4134 1228.04 32.1805C1227.83 31.9453 1227.53 31.8277 1227.15 31.8277C1226.89 31.8277 1226.66 31.8842 1226.45 31.9972C1226.25 32.1102 1226.09 32.275 1225.97 32.4918C1225.86 32.7086 1225.8 32.9714 1225.8 33.2804ZM1232.84 36.5868C1232.36 36.5868 1231.94 36.4726 1231.57 36.2444C1231.21 36.0161 1230.93 35.6968 1230.73 35.2864C1230.53 34.8759 1230.43 34.3964 1230.43 33.8476C1230.43 33.2942 1230.53 32.8111 1230.73 32.3984C1230.93 31.9856 1231.21 31.6651 1231.57 31.4369C1231.94 31.2086 1232.36 31.0945 1232.84 31.0945C1233.32 31.0945 1233.74 31.2086 1234.1 31.4369C1234.46 31.6651 1234.74 31.9856 1234.94 32.3984C1235.14 32.8111 1235.24 33.2942 1235.24 33.8476C1235.24 34.3964 1235.14 34.8759 1234.94 35.2864C1234.74 35.6968 1234.46 36.0161 1234.1 36.2444C1233.74 36.4726 1233.32 36.5868 1232.84 36.5868ZM1232.84 35.8536C1233.2 35.8536 1233.5 35.7602 1233.74 35.5735C1233.97 35.3866 1234.14 35.1411 1234.26 34.8367C1234.37 34.5324 1234.43 34.2027 1234.43 33.8476C1234.43 33.4925 1234.37 33.1616 1234.26 32.8549C1234.14 32.5483 1233.97 32.3005 1233.74 32.1113C1233.5 31.9223 1233.2 31.8277 1232.84 31.8277C1232.47 31.8277 1232.17 31.9223 1231.94 32.1113C1231.7 32.3005 1231.53 32.5483 1231.41 32.8549C1231.3 33.1616 1231.25 33.4925 1231.25 33.8476C1231.25 34.2027 1231.3 34.5324 1231.41 34.8367C1231.53 35.1411 1231.7 35.3866 1231.94 35.5735C1232.17 35.7602 1232.47 35.8536 1232.84 35.8536ZM1238.8 31.1636V31.8554H1236.05V31.1636H1238.8ZM1236.85 29.8909H1237.67V34.9544C1237.67 35.185 1237.7 35.3579 1237.77 35.4731C1237.83 35.5861 1237.92 35.6622 1238.03 35.7014C1238.14 35.7383 1238.25 35.7568 1238.37 35.7568C1238.46 35.7568 1238.53 35.7522 1238.59 35.7429C1238.65 35.7314 1238.7 35.7222 1238.73 35.7153L1238.9 36.4485C1238.84 36.4693 1238.76 36.4899 1238.66 36.5107C1238.57 36.5338 1238.44 36.5453 1238.29 36.5453C1238.06 36.5453 1237.83 36.4957 1237.61 36.3966C1237.39 36.2974 1237.21 36.1465 1237.06 35.9435C1236.92 35.7406 1236.85 35.4847 1236.85 35.1757V29.8909ZM1240.03 36.4761V31.1636H1240.84V36.4761H1240.03ZM1240.44 30.2782C1240.28 30.2782 1240.15 30.2241 1240.03 30.1157C1239.92 30.0073 1239.86 29.8771 1239.86 29.7249C1239.86 29.5727 1239.92 29.4424 1240.03 29.334C1240.15 29.2257 1240.28 29.1715 1240.44 29.1715C1240.6 29.1715 1240.74 29.2257 1240.85 29.334C1240.97 29.4424 1241.02 29.5727 1241.02 29.7249C1241.02 29.8771 1240.97 30.0073 1240.85 30.1157C1240.74 30.2241 1240.6 30.2782 1240.44 30.2782ZM1243.06 29.3929V30.0154C1243.06 30.2044 1243.02 30.4062 1242.95 30.6207C1242.89 30.8328 1242.79 31.0391 1242.66 31.2397C1242.53 31.4381 1242.37 31.611 1242.19 31.7586L1241.74 31.3988C1241.89 31.1914 1242.01 30.9758 1242.12 30.752C1242.23 30.5261 1242.28 30.2852 1242.28 30.0292V29.3929H1243.06ZM1244.83 29.3929V30.0154C1244.83 30.2044 1244.79 30.4062 1244.73 30.6207C1244.66 30.8328 1244.56 31.0391 1244.43 31.2397C1244.3 31.4381 1244.14 31.611 1243.96 31.7586L1243.51 31.3988C1243.66 31.1914 1243.79 30.9758 1243.89 30.752C1244 30.5261 1244.05 30.2852 1244.05 30.0292V29.3929H1244.83ZM1248.9 29.3929H1249.92L1252.33 35.2726H1252.41L1254.82 29.3929H1255.84V36.4761H1255.04V31.0945H1254.97L1252.76 36.4761H1251.98L1249.77 31.0945H1249.7V36.4761H1248.9V29.3929ZM1263.26 31.6064H1262.4C1262.35 31.3596 1262.27 31.1429 1262.14 30.9561C1262.01 30.7694 1261.86 30.6126 1261.68 30.4857C1261.5 30.3567 1261.31 30.2598 1261.09 30.1953C1260.87 30.1306 1260.65 30.0984 1260.41 30.0984C1259.98 30.0984 1259.6 30.2068 1259.25 30.4235C1258.9 30.6403 1258.63 30.9596 1258.42 31.3815C1258.22 31.8035 1258.12 32.3211 1258.12 32.9345C1258.12 33.5479 1258.22 34.0655 1258.42 34.4874C1258.63 34.9094 1258.9 35.2287 1259.25 35.4455C1259.6 35.6622 1259.98 35.7706 1260.41 35.7706C1260.65 35.7706 1260.87 35.7383 1261.09 35.6737C1261.31 35.6092 1261.5 35.5135 1261.68 35.3866C1261.86 35.2576 1262.01 35.0996 1262.14 34.9128C1262.27 34.7238 1262.35 34.5071 1262.4 34.2626H1263.26C1263.2 34.6246 1263.08 34.9486 1262.91 35.2345C1262.74 35.5204 1262.53 35.7636 1262.27 35.9643C1262.02 36.1626 1261.74 36.3136 1261.42 36.4173C1261.11 36.5211 1260.77 36.573 1260.41 36.573C1259.81 36.573 1259.27 36.4254 1258.8 36.1303C1258.33 35.8351 1257.96 35.4155 1257.69 34.8713C1257.42 34.3272 1257.29 33.6816 1257.29 32.9345C1257.29 32.1874 1257.42 31.5418 1257.69 30.9977C1257.96 30.4535 1258.33 30.0339 1258.8 29.7387C1259.27 29.4436 1259.81 29.296 1260.41 29.296C1260.77 29.296 1261.11 29.3478 1261.42 29.4516C1261.74 29.5554 1262.02 29.7076 1262.27 29.9082C1262.53 30.1065 1262.74 30.3486 1262.91 30.6345C1263.08 30.9181 1263.2 31.2421 1263.26 31.6064ZM1264.65 36.4761V29.3929H1265.51V32.5472H1269.28V29.3929H1270.14V36.4761H1269.28V33.308H1265.51V36.4761H1264.65ZM1274.57 29.3929H1275.43V34.4563C1275.43 34.9082 1275.34 35.2922 1275.18 35.608C1275.01 35.9239 1274.78 36.1637 1274.48 36.3275C1274.17 36.4911 1273.82 36.573 1273.41 36.573C1273.02 36.573 1272.68 36.5027 1272.37 36.362C1272.07 36.2191 1271.83 36.0161 1271.66 35.7533C1271.49 35.4905 1271.4 35.178 1271.4 34.816H1272.25C1272.25 35.0166 1272.3 35.1918 1272.39 35.3417C1272.5 35.4893 1272.63 35.6046 1272.81 35.6875C1272.98 35.7706 1273.18 35.8121 1273.41 35.8121C1273.65 35.8121 1273.86 35.7602 1274.04 35.6564C1274.21 35.5527 1274.34 35.4005 1274.43 35.1999C1274.52 34.997 1274.57 34.7491 1274.57 34.4563V29.3929Z" fill="#9A9A9A"/>
</g>
<path d="M764.748 22.011C764.577 22.011 764.439 22.1427 764.439 22.3054C764.439 25.6565 764.439 31.6919 764.439 35.0428C764.439 35.2058 764.301 35.3374 764.13 35.3374H745.751C745.661 35.3367 745.612 35.3871 745.612 35.4728V37.644C745.613 37.7241 745.679 37.7499 745.743 37.7499L766.721 37.8333V37.8306C766.891 37.8306 767.029 37.6985 767.029 37.5359C767.029 33.4255 767.029 26.4158 767.029 22.3054C767.029 22.1427 766.891 22.011 766.721 22.011C766.131 22.011 765.338 22.011 764.748 22.011ZM759.259 22.3054C759.259 22.1427 759.121 22.011 758.951 22.011C758.36 22.011 757.568 22.011 756.978 22.011C756.807 22.011 756.669 22.1427 756.669 22.3054C756.669 23.6071 756.669 26.5155 756.669 27.817C756.669 27.8535 756.662 27.8824 756.633 27.9101C756.605 27.9371 756.576 27.9438 756.537 27.9444C753.061 27.9444 748.542 27.9444 745.065 27.9444C744.824 27.9444 744.605 27.9687 744.412 28.1528L736.135 36.0452C736.079 36.0978 736.079 36.1672 736.135 36.2198L737.783 37.7931C737.838 37.8459 737.911 37.8459 737.966 37.7931C739.728 36.1119 743.754 32.2695 745.516 30.5879C745.677 30.4464 745.837 30.4168 746.016 30.4168H759.129C759.166 30.4168 759.196 30.4084 759.223 30.3823C759.251 30.3556 759.259 30.3265 759.259 30.2914C759.259 28.2295 759.259 24.3673 759.259 22.3054ZM850.815 31.4994L851.565 27.5211C854.104 28.6276 856.123 29.1811 857.623 29.1811C859.142 29.1811 859.902 28.5609 859.902 27.3206C859.902 26.6337 859.702 26.1231 859.302 25.7892C858.902 25.4553 858.222 25.1168 857.263 24.7732C856.603 24.5443 856.123 24.3725 855.823 24.2581C855.523 24.1438 855.098 23.9669 854.549 23.7285C853.999 23.4903 853.589 23.2801 853.319 23.0989C853.049 22.9176 852.729 22.6695 852.36 22.3547C851.99 22.0397 851.715 21.7152 851.535 21.3815C851.355 21.0476 851.2 20.6467 851.07 20.1793C850.94 19.712 850.875 19.2109 850.875 18.6766C850.875 16.8829 851.585 15.5138 853.004 14.5692C854.424 13.6249 856.213 13.1524 858.372 13.1524C860.172 13.1524 862.091 13.5053 864.131 14.2116L863.261 18.0183C861.561 17.2551 859.942 16.8733 858.402 16.8733C856.803 16.8733 856.003 17.4745 856.003 18.6766C856.003 19.0964 856.188 19.4781 856.558 19.8215C856.928 20.1649 857.303 20.4178 857.683 20.58C858.062 20.7422 858.672 20.9759 859.512 21.2814C860.172 21.5293 860.692 21.7346 861.072 21.8966C861.451 22.0588 861.926 22.3119 862.496 22.6552C863.066 22.9986 863.506 23.3517 863.816 23.7143C864.125 24.0767 864.4 24.5492 864.64 25.131C864.88 25.713 865 26.3571 865 27.0633C865 28.8186 864.34 30.2354 863.021 31.3136C861.701 32.3915 860.012 32.9308 857.953 32.9308C855.014 32.9308 852.634 32.4536 850.815 31.4994ZM834.039 31.4994L834.789 27.5211C837.328 28.6276 839.348 29.1811 840.847 29.1811C842.366 29.1811 843.126 28.5609 843.126 27.3206C843.126 26.6337 842.926 26.1231 842.526 25.7892C842.127 25.4553 841.447 25.1168 840.487 24.7732C839.827 24.5443 839.347 24.3725 839.048 24.2581C838.748 24.1438 838.323 23.9669 837.773 23.7285C837.223 23.4901 836.813 23.2799 836.544 23.0989C836.274 22.9175 835.954 22.6695 835.584 22.3547C835.214 22.0399 834.939 21.7152 834.759 21.3815C834.579 21.0476 834.424 20.6467 834.295 20.1793C834.165 19.712 834.099 19.2109 834.099 18.6766C834.099 16.8829 834.809 15.5136 836.229 14.5692C837.648 13.6247 839.438 13.1524 841.597 13.1524C843.396 13.1524 845.316 13.5053 847.355 14.2116L846.485 18.0183C844.786 17.2551 843.166 16.8733 841.627 16.8733C840.027 16.8733 839.228 17.4745 839.228 18.6766C839.228 19.0964 839.413 19.4781 839.782 19.8215C840.152 20.1649 840.527 20.4178 840.907 20.58C841.287 20.742 841.897 20.9759 842.736 21.2814C843.396 21.5293 843.916 21.7346 844.296 21.8966C844.676 22.0588 845.15 22.3119 845.72 22.6552C846.29 22.9986 846.73 23.3517 847.04 23.7143C847.35 24.0767 847.625 24.5492 847.864 25.131C848.104 25.713 848.225 26.3571 848.225 27.0633C848.225 28.8186 847.565 30.2354 846.245 31.3136C844.926 32.3917 843.236 32.9308 841.177 32.9308C838.238 32.9308 835.859 32.4536 834.039 31.4994ZM820.792 28.4656C821.282 28.7515 821.897 28.8948 822.637 28.8948C823.377 28.8948 823.992 28.7517 824.481 28.4656C824.971 28.1793 825.336 27.7501 825.576 27.1775C825.816 26.6053 825.976 26.0039 826.056 25.3744C826.136 24.7446 826.176 23.9719 826.176 23.0559C826.176 22.3116 826.156 21.6723 826.116 21.1383C826.076 20.6039 825.981 20.0646 825.831 19.5211C825.681 18.9772 825.481 18.5333 825.231 18.1899C824.981 17.8466 824.636 17.5696 824.196 17.3598C823.757 17.15 823.237 17.045 822.637 17.045C821.897 17.045 821.282 17.193 820.792 17.4887C820.303 17.7845 819.938 18.2282 819.698 18.8197C819.458 19.4111 819.293 20.0315 819.203 20.6801C819.113 21.3289 819.068 22.1208 819.068 23.0559C819.068 23.9719 819.113 24.7446 819.203 25.3744C819.293 26.0039 819.458 26.6053 819.698 27.1775C819.938 27.7499 820.303 28.1795 820.792 28.4656ZM818.933 13.7105C820.003 13.3385 821.247 13.1524 822.667 13.1524C824.087 13.1524 825.331 13.3385 826.401 13.7105C827.47 14.0824 828.32 14.5693 828.95 15.1703C829.579 15.7714 830.089 16.5157 830.479 17.403C830.869 18.2901 831.129 19.1777 831.259 20.0648C831.389 20.952 831.454 21.9491 831.454 23.0559C831.454 24.1436 831.384 25.1312 831.244 26.0184C831.104 26.9055 830.839 27.7929 830.449 28.6803C830.059 29.5673 829.545 30.312 828.905 30.9127C828.265 31.5141 827.41 32.0006 826.34 32.3726C825.271 32.7447 824.016 32.9308 822.577 32.9308C821.157 32.9308 819.918 32.7447 818.858 32.3726C817.799 32.0006 816.954 31.5141 816.324 30.9127C815.694 30.3118 815.184 29.5675 814.795 28.6803C814.405 27.7929 814.145 26.9055 814.015 26.0184C813.885 25.1312 813.82 24.1436 813.82 23.0559C813.82 21.9684 813.89 20.9758 814.03 20.0791C814.17 19.1823 814.44 18.2901 814.84 17.403C815.239 16.5157 815.754 15.7714 816.384 15.1703C817.014 14.5693 817.864 14.0824 818.933 13.7105ZM801.693 16.9591V22.7697C801.793 22.7697 801.938 22.7792 802.128 22.7983C802.317 22.8173 802.487 22.8319 802.637 22.8413C802.787 22.8508 802.922 22.8556 803.042 22.8556C803.982 22.8556 804.712 22.6503 805.231 22.2402C805.751 21.8301 806.011 21.0617 806.011 19.936C806.011 17.9134 805.032 16.9019 803.072 16.9019C802.433 16.9019 801.973 16.921 801.693 16.9591ZM796.295 32.6158V13.9252C798.434 13.5053 800.693 13.2955 803.072 13.2955C803.972 13.2955 804.787 13.3433 805.516 13.4386C806.246 13.534 806.981 13.7251 807.721 14.0111C808.46 14.2972 809.075 14.6743 809.565 15.1418C810.055 15.6094 810.455 16.239 810.765 17.0308C811.074 17.8228 811.229 18.753 811.229 19.8215C811.229 22.7602 810 24.7256 807.541 25.7178L812.339 32.6158H806.521L802.532 26.2329C802.193 26.1948 801.913 26.1566 801.693 26.1185V32.6158H796.295ZM777.39 22.9987C777.45 21.186 777.765 19.621 778.335 18.3046C778.904 16.9879 779.679 15.9668 780.658 15.2418C781.638 14.5168 782.693 13.9872 783.823 13.6533C784.952 13.3194 786.187 13.1524 787.526 13.1524C789.206 13.1524 791.045 13.4482 793.044 14.0397L792.265 17.5889C790.425 17.1121 788.976 16.8733 787.916 16.8733C784.577 16.8733 782.908 18.8864 782.908 22.9128C782.908 25.1835 783.303 26.777 784.092 27.6928C784.882 28.6085 786.017 29.0667 787.496 29.0667C787.896 29.0667 788.306 29.038 788.726 28.9805V22.8842H793.704V31.8715C791.625 32.5396 789.385 32.8734 786.987 32.8734C780.609 32.8734 777.41 29.5818 777.39 22.9987ZM738.539 10.933C738.539 16.0006 738.539 23.664 738.539 28.7313C738.536 29.0867 738.508 29.2002 738.26 29.4287C737.686 29.9769 736.909 30.7184 736.334 31.2665C736.064 31.5244 735.947 31.3917 735.948 31.1323V8.46078C735.948 8.29796 736.086 8.16626 736.257 8.16626H766.918C766.944 8.16626 766.975 8.1825 766.993 8.19952C767.021 8.2264 767.029 8.2552 767.029 8.29166C767.032 8.69609 767.026 9.76739 767.029 10.1718C767.031 10.3525 766.964 10.5137 766.823 10.6337C764.332 13.0112 761.739 15.4952 759.248 17.8726C759.094 18.0254 758.964 18.0552 758.741 18.0552L746.443 18.0553C746.404 18.0557 746.369 18.0656 746.344 18.0898C746.32 18.1125 746.309 18.1381 746.309 18.1702V23.8635C746.309 23.8995 746.3 23.9282 746.272 23.9545C746.244 23.9811 746.214 23.9888 746.176 23.9888H743.849C743.812 23.9888 743.782 23.9808 743.754 23.9545C743.727 23.9282 743.718 23.8993 743.718 23.8635V15.7111C743.718 15.6749 743.725 15.6457 743.754 15.6174C743.784 15.5895 743.815 15.5829 743.852 15.5829C747.827 15.5829 753.757 15.5829 757.732 15.5829C757.931 15.5829 758.113 15.5428 758.274 15.386C759.677 14.0467 761.402 12.3207 762.805 10.9813C763.016 10.7687 763.004 10.6409 762.658 10.6384H738.847C738.677 10.6384 738.539 10.7703 738.539 10.933Z" fill="#9A9A9A"/>
<path d="M660.341 20.5018V19.9802C660.756 19.7862 661.02 19.6324 661.134 19.5188C661.201 19.4586 661.247 19.3817 661.274 19.288C661.334 19.1008 661.374 18.6995 661.395 18.0843C661.421 17.1681 661.435 16.6231 661.435 16.4493V11.0526C661.435 10.1431 661.425 9.25365 661.405 8.38429C661.384 7.74899 661.334 7.3745 661.254 7.26082C661.181 7.14044 661.057 7.05351 660.883 7.00001C660.716 6.93982 660.234 6.90304 659.438 6.88967V6.24768C661.07 6.30118 662.08 6.32793 662.468 6.32793C662.896 6.32793 663.855 6.30118 665.347 6.24768V6.88967C664.551 6.90304 664.066 6.93982 663.892 7.00001C663.725 7.05351 663.608 7.13041 663.541 7.23072C663.461 7.36447 663.411 7.68881 663.391 8.20373C663.384 8.33748 663.371 9.28709 663.351 11.0526V17.7934C663.351 18.4956 663.364 19.0674 663.391 19.5087C664.153 19.5555 664.909 19.5789 665.658 19.5789C667.544 19.5789 668.864 19.4586 669.62 19.2178C669.707 19.0172 669.784 18.7865 669.851 18.5257L670.252 16.8605H670.924C670.777 17.8569 670.633 19.0272 670.493 20.3714C670.219 20.4249 670.001 20.4583 669.841 20.4717C669.493 20.4918 668.958 20.5018 668.236 20.5018L662.297 20.4215C661.655 20.4215 661.003 20.4483 660.341 20.5018Z" fill="#9A9A9A"/>
<path d="M643.224 20.502V19.8199C643.752 19.8132 644.08 19.7931 644.207 19.7597C644.34 19.7195 644.461 19.6493 644.568 19.549C644.681 19.442 644.842 19.1712 645.049 18.7365C645.17 18.4891 645.604 17.5495 646.353 15.9178L648.861 10.2603C649.135 9.63835 649.72 8.25406 650.617 6.10742H651.269L655.552 16.1686C656.247 17.8003 656.709 18.8234 656.936 19.2381C657.063 19.4721 657.2 19.6259 657.347 19.6995C657.501 19.773 657.842 19.8132 658.371 19.8199V20.502C657.327 20.4351 656.598 20.4017 656.184 20.4017L652.954 20.502V19.8199C653.703 19.8065 654.157 19.7831 654.318 19.7496C654.478 19.7162 654.585 19.6694 654.639 19.6092C654.699 19.5423 654.729 19.4621 654.729 19.3685C654.729 19.2213 654.682 19.0307 654.589 18.7967L653.355 15.7272H647.547L646.454 18.3052C646.26 18.7666 646.163 19.1043 646.163 19.3183C646.163 19.4119 646.189 19.4888 646.243 19.549C646.317 19.636 646.43 19.6961 646.584 19.7296C646.831 19.7831 647.266 19.8132 647.888 19.8199V20.502C646.758 20.4418 645.912 20.4117 645.35 20.4117C644.702 20.4117 643.993 20.4418 643.224 20.502ZM647.888 14.8746H652.954L650.446 8.82583L647.888 14.8746Z" fill="#9A9A9A"/>
<path d="M626.165 20.5018V19.8698C626.867 19.8631 627.329 19.8096 627.549 19.7093C627.643 19.6692 627.71 19.6057 627.75 19.5187C627.817 19.385 627.864 19.0339 627.891 18.4655C627.931 17.5828 627.951 16.8204 627.951 16.1784V8.00311C627.951 7.78243 627.937 7.63865 627.911 7.57178C627.857 7.45141 627.737 7.30763 627.549 7.14044C627.429 7.03345 627.289 6.96657 627.128 6.93982C626.974 6.90639 626.627 6.88632 626.085 6.87964V6.24768C627.202 6.27443 627.904 6.2878 628.191 6.2878C628.68 6.2878 629.164 6.27443 629.646 6.24768C630.214 6.98998 630.632 7.53834 630.9 7.89277L632.976 10.4507L636.006 14.102C636.975 15.2656 637.754 16.1818 638.343 16.8505C638.717 17.2919 639.032 17.6396 639.286 17.8937V10.561C639.286 9.90567 639.262 9.13662 639.216 8.25389C639.189 7.69884 639.145 7.35444 639.085 7.22069C639.038 7.13376 638.968 7.07023 638.875 7.0301C638.654 6.93648 638.196 6.88632 637.5 6.87964V6.24768C638.289 6.27443 639.089 6.2878 639.898 6.2878C640.66 6.2878 641.352 6.27443 641.974 6.24768V6.87964C641.279 6.88632 640.821 6.93648 640.6 7.0301C640.506 7.07023 640.439 7.1371 640.399 7.23072C640.332 7.35778 640.286 7.70887 640.259 8.28398C640.219 9.16671 640.199 9.92573 640.199 10.561V15.386C640.199 16.3623 640.215 18.1846 640.249 20.8529L639.216 20.5519L638.975 20.5018C638.935 20.4884 638.898 20.4684 638.865 20.4416C638.818 20.4082 638.691 20.2744 638.483 20.0404C637.928 19.4118 637.52 18.9369 637.26 18.616L635.966 16.9809L628.854 8.4846V16.1784C628.854 16.8338 628.877 17.6062 628.924 18.4956C628.95 19.0506 628.994 19.3917 629.054 19.5187C629.101 19.6124 629.171 19.6792 629.265 19.7194C629.485 19.813 629.944 19.8631 630.639 19.8698V20.5018C630.051 20.455 629.402 20.4316 628.693 20.4316C627.917 20.4316 627.075 20.455 626.165 20.5018Z" fill="#9A9A9A"/>
<path d="M609.729 13.4702C609.729 12.4136 609.887 11.4372 610.201 10.5411C610.522 9.64499 611.05 8.83916 611.786 8.12361C612.521 7.40807 613.354 6.86973 614.284 6.50862C615.213 6.14081 616.276 5.95691 617.473 5.95691C618.577 5.95691 619.58 6.11406 620.483 6.42837C621.386 6.73599 622.125 7.14726 622.7 7.66219C623.281 8.17043 623.74 8.72882 624.074 9.33737C624.328 9.79211 624.529 10.3271 624.676 10.9423C624.83 11.5576 624.906 12.2163 624.906 12.9185C624.906 15.1721 624.147 17.0479 622.629 18.5459C621.118 20.0438 619.209 20.7928 616.902 20.7928C615.852 20.7928 614.872 20.6223 613.963 20.2812C613.053 19.9402 612.284 19.4353 611.655 18.7665C611.027 18.0911 610.549 17.2753 610.221 16.319C609.893 15.356 609.729 14.4064 609.729 13.4702ZM611.816 12.6376C611.816 13.2729 611.879 13.9182 612.007 14.5736C612.134 15.2289 612.294 15.794 612.488 16.2688C612.809 17.0713 613.227 17.7467 613.742 18.2951C614.264 18.8368 614.842 19.238 615.477 19.4988C616.119 19.7529 616.828 19.88 617.604 19.88C618.681 19.88 619.617 19.6192 620.413 19.0976C621.208 18.5693 621.8 17.8303 622.188 16.8807C622.583 15.9244 622.78 14.8244 622.78 13.5805C622.78 12.5172 622.639 11.5375 622.359 10.6414C622.185 10.093 621.954 9.59818 621.666 9.15681C621.379 8.70876 621.034 8.32089 620.633 7.99321C620.239 7.65884 619.724 7.37797 619.088 7.1506C618.453 6.92323 617.768 6.80955 617.032 6.80955C615.969 6.80955 615.036 7.04695 614.233 7.52175C613.431 7.99655 612.826 8.68535 612.418 9.58815C612.017 10.4843 611.816 11.5007 611.816 12.6376Z" fill="#9A9A9A"/>
<path d="M608.491 19.8598V20.5018C607.067 20.4483 606.131 20.4215 605.683 20.4215L602.583 20.5018V19.8598C603.372 19.8464 603.854 19.813 604.027 19.7595C604.201 19.6993 604.322 19.6191 604.389 19.5188C604.469 19.385 604.519 19.0607 604.539 18.5457C604.546 18.4053 604.559 17.4557 604.579 15.6969V11.0526C604.579 10.1431 604.569 9.25365 604.549 8.38429C604.529 7.74899 604.479 7.3745 604.399 7.26082C604.325 7.14044 604.201 7.05351 604.027 7.00001C603.86 6.93982 603.379 6.90304 602.583 6.88967V6.24768C603.86 6.29449 604.847 6.3179 605.542 6.3179C606.211 6.3179 607.194 6.29449 608.491 6.24768V6.88967C607.695 6.90304 607.211 6.93982 607.037 7.00001C606.87 7.05351 606.753 7.13041 606.686 7.23072C606.605 7.36447 606.555 7.68881 606.535 8.20373C606.529 8.33748 606.515 9.28709 606.495 11.0526V15.6969C606.495 16.6064 606.505 17.4925 606.525 18.3551C606.545 18.9904 606.592 19.3683 606.666 19.4887C606.746 19.609 606.87 19.6993 607.037 19.7595C607.211 19.813 607.695 19.8464 608.491 19.8598Z" fill="#9A9A9A"/>
<path d="M590.461 9.56796H589.839C589.832 7.96968 589.798 6.86292 589.738 6.24768C590.467 6.27443 591.611 6.30787 593.169 6.34799C594.433 6.37474 595.275 6.38812 595.697 6.38812C596.151 6.38812 597.205 6.36805 598.856 6.32793C600.054 6.30118 600.926 6.27443 601.475 6.24768C601.394 6.99667 601.341 8.10342 601.314 9.56796H600.672L600.592 8.60498C600.538 8.02318 600.502 7.69215 600.482 7.6119C600.461 7.53165 600.431 7.47481 600.391 7.44137C600.358 7.40794 600.304 7.38119 600.231 7.36113C600.137 7.34106 599.803 7.31431 599.228 7.28088C598.653 7.24744 598.198 7.23072 597.863 7.23072H596.64C596.573 7.87271 596.539 8.73872 596.539 9.82876V15.6969C596.539 16.6064 596.549 17.4925 596.569 18.3551C596.589 18.9904 596.636 19.3683 596.71 19.4887C596.79 19.609 596.914 19.6993 597.081 19.7595C597.255 19.813 597.74 19.8464 598.536 19.8598V20.5018C597.338 20.4483 596.439 20.4215 595.837 20.4215C595.576 20.4215 594.533 20.4483 592.707 20.5018V19.8598C593.503 19.8464 593.988 19.813 594.162 19.7595C594.336 19.6993 594.453 19.6191 594.513 19.5188C594.6 19.385 594.653 19.0607 594.674 18.5457C594.674 18.4053 594.687 17.4557 594.714 15.6969V9.84882C594.714 9.56796 594.707 9.26034 594.694 8.92597L594.633 7.23072H593.139C592.276 7.23072 591.591 7.26416 591.082 7.33103C590.922 7.3511 590.818 7.39456 590.771 7.46144C590.698 7.57512 590.631 7.93958 590.571 8.55482L590.461 9.56796Z" fill="#9A9A9A"/>
<path d="M574.987 20.502V19.8199C575.516 19.8132 575.843 19.7931 575.97 19.7597C576.104 19.7195 576.224 19.6493 576.331 19.549C576.445 19.442 576.606 19.1712 576.813 18.7365C576.933 18.4891 577.368 17.5495 578.117 15.9178L580.625 10.2603C580.899 9.63835 581.484 8.25406 582.38 6.10742H583.032L587.315 16.1686C588.011 17.8003 588.472 18.8234 588.7 19.2381C588.827 19.4721 588.964 19.6259 589.111 19.6995C589.265 19.773 589.606 19.8132 590.134 19.8199V20.502C589.091 20.4351 588.362 20.4017 587.947 20.4017L584.717 20.502V19.8199C585.466 19.8065 585.921 19.7831 586.082 19.7496C586.242 19.7162 586.349 19.6694 586.403 19.6092C586.463 19.5423 586.493 19.4621 586.493 19.3685C586.493 19.2213 586.446 19.0307 586.352 18.7967L585.119 15.7272H579.311L578.217 18.3052C578.023 18.7666 577.926 19.1043 577.926 19.3183C577.926 19.4119 577.953 19.4888 578.007 19.549C578.08 19.636 578.194 19.6961 578.348 19.7296C578.595 19.7831 579.03 19.8132 579.652 19.8199V20.502C578.522 20.4418 577.676 20.4117 577.114 20.4117C576.465 20.4117 575.756 20.4418 574.987 20.502ZM579.652 14.8746H584.717L582.21 8.82583L579.652 14.8746Z" fill="#9A9A9A"/>
<path d="M557.93 20.5018V19.8698C558.632 19.8631 559.093 19.8096 559.314 19.7093C559.408 19.6692 559.475 19.6057 559.515 19.5187C559.582 19.385 559.628 19.0339 559.655 18.4655C559.695 17.5828 559.715 16.8204 559.715 16.1784V8.00311C559.715 7.78243 559.702 7.63865 559.675 7.57178C559.622 7.45141 559.501 7.30763 559.314 7.14044C559.194 7.03345 559.053 6.96657 558.893 6.93982C558.739 6.90639 558.391 6.88632 557.85 6.87964V6.24768C558.966 6.27443 559.669 6.2878 559.956 6.2878C560.444 6.2878 560.929 6.27443 561.411 6.24768C561.979 6.98998 562.397 7.53834 562.665 7.89277L564.741 10.4507L567.77 14.102C568.74 15.2656 569.519 16.1818 570.108 16.8505C570.482 17.2919 570.796 17.6396 571.05 17.8937V10.561C571.05 9.90567 571.027 9.13662 570.98 8.25389C570.953 7.69884 570.91 7.35444 570.85 7.22069C570.803 7.13376 570.733 7.07023 570.639 7.0301C570.419 6.93648 569.96 6.88632 569.265 6.87964V6.24768C570.054 6.27443 570.853 6.2878 571.662 6.2878C572.425 6.2878 573.117 6.27443 573.739 6.24768V6.87964C573.043 6.88632 572.585 6.93648 572.365 7.0301C572.271 7.07023 572.204 7.1371 572.164 7.23072C572.097 7.35778 572.05 7.70887 572.023 8.28398C571.983 9.16671 571.963 9.92573 571.963 10.561V15.386C571.963 16.3623 571.98 18.1846 572.013 20.8529L570.98 20.5519L570.739 20.5018C570.699 20.4884 570.663 20.4684 570.629 20.4416C570.582 20.4082 570.455 20.2744 570.248 20.0404C569.693 19.4118 569.285 18.9369 569.024 18.616L567.73 16.9809L560.618 8.4846V16.1784C560.618 16.8338 560.642 17.6062 560.688 18.4956C560.715 19.0506 560.759 19.3917 560.819 19.5187C560.866 19.6124 560.936 19.6792 561.029 19.7194C561.25 19.813 561.708 19.8631 562.404 19.8698V20.5018C561.815 20.455 561.167 20.4316 560.458 20.4316C559.682 20.4316 558.839 20.455 557.93 20.5018Z" fill="#9A9A9A"/>
<path d="M543.882 6.88983V6.24785C544.143 6.25453 544.541 6.26456 545.076 6.27794L547.001 6.32809C547.383 6.32809 547.975 6.31472 548.777 6.28797C549.82 6.24785 550.425 6.22778 550.593 6.22778C551.87 6.22778 552.799 6.34147 553.381 6.56884C553.97 6.79621 554.424 7.16736 554.745 7.68228C555.066 8.19052 555.227 8.74557 555.227 9.34744C555.227 9.90918 555.076 10.4676 554.776 11.0226C554.475 11.5777 554.037 12.0391 553.461 12.4069C552.893 12.7747 552.151 13.0589 551.235 13.2595C551.402 13.4936 551.796 14.0152 552.418 14.8244L554.946 18.1547C555.668 19.0842 556.09 19.6025 556.21 19.7095C556.27 19.7563 556.33 19.7898 556.391 19.8098C556.491 19.8433 556.712 19.86 557.053 19.86V20.502C556.544 20.4618 556.1 20.4418 555.718 20.4418C555.324 20.4418 554.839 20.4618 554.264 20.502C553.829 20.0004 553.1 19.0207 552.077 17.5629C551.509 16.7537 551.007 16.0783 550.573 15.5366C549.87 14.6405 549.202 13.828 548.566 13.099L548.667 12.7981C549.014 12.8182 549.279 12.8282 549.459 12.8282C550.676 12.8282 551.599 12.5407 552.228 11.9655C552.856 11.3904 553.171 10.6314 553.171 9.68849C553.171 8.86595 552.9 8.21393 552.358 7.73244C551.816 7.24426 550.997 7.00017 549.9 7.00017C549.212 7.00017 548.536 7.10383 547.874 7.31114C547.847 7.67225 547.827 8.00996 547.814 8.32427C547.807 8.41789 547.784 9.39091 547.744 11.2433V15.6971C547.744 16.6066 547.757 17.4926 547.784 18.3553C547.797 18.9906 547.841 19.3684 547.914 19.4888C547.995 19.6092 548.122 19.6995 548.295 19.7597C548.469 19.8132 548.951 19.8466 549.74 19.86V20.502C548.79 20.4485 547.918 20.4217 547.122 20.4217C546.48 20.4217 545.4 20.4485 543.882 20.502V19.86C544.671 19.8466 545.152 19.8132 545.326 19.7597C545.5 19.6995 545.621 19.6192 545.687 19.5189C545.768 19.3852 545.818 19.0608 545.838 18.5459C545.845 18.4055 545.858 17.4559 545.878 15.6971V11.0527C545.878 10.1432 545.868 9.25381 545.848 8.38446C545.828 7.74916 545.778 7.37467 545.697 7.26098C545.624 7.14061 545.5 7.05367 545.326 7.00017C545.159 6.93999 544.678 6.90321 543.882 6.88983Z" fill="#9A9A9A"/>
<path d="M531.379 20.502V19.87C532.081 19.8633 532.542 19.8098 532.763 19.7095C532.857 19.6694 532.923 19.6058 532.964 19.5189C533.03 19.3852 533.077 19.0341 533.104 18.4657C533.144 17.5829 533.164 16.8206 533.164 16.1786V11.0527C533.164 10.1432 533.154 9.25381 533.134 8.38446C533.114 7.74916 533.064 7.37467 532.984 7.26098C532.91 7.14061 532.786 7.05367 532.612 7.00017C532.445 6.93999 531.964 6.90321 531.168 6.88983V6.24785L534.027 6.30803L537.056 6.25788C538.507 6.23781 539.561 6.22778 540.216 6.22778C540.878 6.22778 541.503 6.26456 542.092 6.33812C541.985 6.7193 541.911 7.05033 541.871 7.3312C541.858 7.39138 541.798 8.08687 541.691 9.41765H541.059C541.065 8.73554 541.022 8.11362 540.928 7.55188C540.56 7.39807 540.156 7.29442 539.714 7.24092C538.965 7.1473 538.216 7.10048 537.467 7.10048C537.307 7.10048 536.949 7.11386 536.394 7.14061C535.839 7.16736 535.441 7.19076 535.2 7.21083C535.174 7.95312 535.154 8.64861 535.14 9.29728L535.1 12.6878C535.883 12.7279 536.601 12.748 537.257 12.748C538.053 12.748 538.731 12.7112 539.293 12.6376C539.507 12.6109 539.644 12.5574 539.704 12.4771C539.765 12.3969 539.818 12.1227 539.865 11.6546L539.925 10.9524H540.527V11.143L540.477 13.2295L540.527 15.5667H539.825L539.795 14.8846C539.781 14.3897 539.734 14.0821 539.654 13.9617C539.581 13.8413 539.437 13.7578 539.223 13.7109C538.842 13.6307 538.103 13.5906 537.006 13.5906C536.558 13.5906 535.923 13.6073 535.1 13.6407C535.067 14.3095 535.05 15.3025 535.05 16.6199C535.05 17.8571 535.067 18.7967 535.1 19.4387C536.063 19.5122 537.143 19.549 538.34 19.549C539.189 19.549 539.795 19.5223 540.156 19.4688C540.517 19.4153 540.851 19.325 541.159 19.1979C541.239 18.9906 541.319 18.7097 541.4 18.3553C541.547 17.7601 541.644 17.3121 541.691 17.0112H542.353C542.179 18.362 542.092 19.4821 542.092 20.3716C541.517 20.4585 540.818 20.502 539.995 20.502L534.007 20.4217C533.92 20.4217 533.044 20.4485 531.379 20.502Z" fill="#9A9A9A"/>
<path d="M519.015 9.56796H518.393C518.387 7.96968 518.353 6.86292 518.293 6.24768C519.022 6.27443 520.165 6.30787 521.724 6.34799C522.987 6.37474 523.83 6.38812 524.251 6.38812C524.706 6.38812 525.759 6.36805 527.411 6.32793C528.608 6.30118 529.481 6.27443 530.029 6.24768C529.949 6.99667 529.896 8.10342 529.869 9.56796H529.227L529.147 8.60498C529.093 8.02318 529.056 7.69215 529.036 7.6119C529.016 7.53165 528.986 7.47481 528.946 7.44137C528.912 7.40794 528.859 7.38119 528.785 7.36113C528.692 7.34106 528.357 7.31431 527.782 7.28088C527.207 7.24744 526.752 7.23072 526.418 7.23072H525.194C525.127 7.87271 525.094 8.73872 525.094 9.82876V15.6969C525.094 16.6064 525.104 17.4925 525.124 18.3551C525.144 18.9904 525.191 19.3683 525.265 19.4887C525.345 19.609 525.469 19.6993 525.636 19.7595C525.81 19.813 526.294 19.8464 527.09 19.8598V20.5018C525.893 20.4483 524.994 20.4215 524.392 20.4215C524.131 20.4215 523.088 20.4483 521.262 20.5018V19.8598C522.058 19.8464 522.543 19.813 522.717 19.7595C522.891 19.6993 523.008 19.6191 523.068 19.5188C523.155 19.385 523.208 19.0607 523.228 18.5457C523.228 18.4053 523.242 17.4557 523.268 15.6969V9.84882C523.268 9.56796 523.262 9.26034 523.248 8.92597L523.188 7.23072H521.693C520.831 7.23072 520.145 7.26416 519.637 7.33103C519.477 7.3511 519.373 7.39456 519.326 7.46144C519.253 7.57512 519.186 7.93958 519.126 8.55482L519.015 9.56796Z" fill="#9A9A9A"/>
<path d="M501.154 20.5018V19.8698C501.857 19.8631 502.318 19.8096 502.539 19.7093C502.632 19.6692 502.699 19.6057 502.739 19.5187C502.806 19.385 502.853 19.0339 502.88 18.4655C502.92 17.5828 502.94 16.8204 502.94 16.1784V8.00311C502.94 7.78243 502.927 7.63865 502.9 7.57178C502.846 7.45141 502.726 7.30763 502.539 7.14044C502.418 7.03345 502.278 6.96657 502.117 6.93982C501.964 6.90639 501.616 6.88632 501.074 6.87964V6.24768C502.191 6.27443 502.893 6.2878 503.181 6.2878C503.669 6.2878 504.154 6.27443 504.635 6.24768C505.204 6.98998 505.622 7.53834 505.889 7.89277L507.966 10.4507L510.995 14.102C511.965 15.2656 512.744 16.1818 513.332 16.8505C513.707 17.2919 514.021 17.6396 514.275 17.8937V10.561C514.275 9.90567 514.252 9.13662 514.205 8.25389C514.178 7.69884 514.135 7.35444 514.074 7.22069C514.028 7.13376 513.957 7.07023 513.864 7.0301C513.643 6.93648 513.185 6.88632 512.49 6.87964V6.24768C513.279 6.27443 514.078 6.2878 514.887 6.2878C515.649 6.2878 516.341 6.27443 516.963 6.24768V6.87964C516.268 6.88632 515.81 6.93648 515.589 7.0301C515.496 7.07023 515.429 7.1371 515.389 7.23072C515.322 7.35778 515.275 7.70887 515.248 8.28398C515.208 9.16671 515.188 9.92573 515.188 10.561V15.386C515.188 16.3623 515.205 18.1846 515.238 20.8529L514.205 20.5519L513.964 20.5018C513.924 20.4884 513.887 20.4684 513.854 20.4416C513.807 20.4082 513.68 20.2744 513.473 20.0404C512.918 19.4118 512.51 18.9369 512.249 18.616L510.955 16.9809L503.843 8.4846V16.1784C503.843 16.8338 503.866 17.6062 503.913 18.4956C503.94 19.0506 503.983 19.3917 504.043 19.5187C504.09 19.6124 504.16 19.6792 504.254 19.7194C504.475 19.813 504.933 19.8631 505.628 19.8698V20.5018C505.04 20.455 504.391 20.4316 503.682 20.4316C502.907 20.4316 502.064 20.455 501.154 20.5018Z" fill="#9A9A9A"/>
<path d="M499.836 19.8598V20.5018C498.412 20.4483 497.475 20.4215 497.027 20.4215L493.928 20.5018V19.8598C494.717 19.8464 495.198 19.813 495.372 19.7595C495.546 19.6993 495.666 19.6191 495.733 19.5188C495.814 19.385 495.864 19.0607 495.884 18.5457C495.89 18.4053 495.904 17.4557 495.924 15.6969V11.0526C495.924 10.1431 495.914 9.25365 495.894 8.38429C495.874 7.74899 495.824 7.3745 495.743 7.26082C495.67 7.14044 495.546 7.05351 495.372 7.00001C495.205 6.93982 494.724 6.90304 493.928 6.88967V6.24768C495.205 6.29449 496.191 6.3179 496.887 6.3179C497.556 6.3179 498.539 6.29449 499.836 6.24768V6.88967C499.04 6.90304 498.555 6.93982 498.382 7.00001C498.214 7.05351 498.097 7.13041 498.03 7.23072C497.95 7.36447 497.9 7.68881 497.88 8.20373C497.873 8.33748 497.86 9.28709 497.84 11.0526V15.6969C497.84 16.6064 497.85 17.4925 497.87 18.3551C497.89 18.9904 497.937 19.3683 498.01 19.4887C498.091 19.609 498.214 19.6993 498.382 19.7595C498.555 19.813 499.04 19.8464 499.836 19.8598Z" fill="#9A9A9A"/>
<path d="M642.746 38.8753V38.4104C643.262 38.4055 643.602 38.3661 643.764 38.2924C643.833 38.2628 643.882 38.2161 643.912 38.1521C643.961 38.0537 643.995 37.7955 644.015 37.3773C644.045 36.7279 644.059 36.167 644.059 35.6948V31.9238C644.059 31.2547 644.052 30.6004 644.037 29.9609C644.022 29.4935 643.986 29.218 643.927 29.1344C643.872 29.0458 643.781 28.9818 643.653 28.9425C643.53 28.8982 643.176 28.8712 642.591 28.8613V28.389L644.694 28.4333L646.923 28.3964C647.99 28.3816 648.765 28.3743 649.247 28.3743C649.734 28.3743 650.194 28.4013 650.627 28.4554C650.548 28.7359 650.494 28.9794 650.465 29.186C650.455 29.2303 650.411 29.7419 650.332 30.721H649.867C649.872 30.2191 649.84 29.7616 649.771 29.3484C649.501 29.2352 649.203 29.159 648.878 29.1196C648.327 29.0507 647.776 29.0163 647.225 29.0163C647.107 29.0163 646.844 29.0261 646.436 29.0458C646.027 29.0655 645.735 29.0827 645.557 29.0975C645.538 29.6435 645.523 30.1552 645.513 30.6324L645.484 33.1267C646.059 33.1562 646.588 33.171 647.07 33.171C647.656 33.171 648.155 33.1439 648.568 33.0898C648.726 33.0701 648.827 33.0307 648.871 32.9717C648.915 32.9127 648.954 32.711 648.989 32.3666L649.033 31.85H649.476V31.9902L649.439 33.5252L649.476 35.2446H648.959L648.937 34.7428C648.927 34.3787 648.893 34.1524 648.834 34.0639C648.78 33.9753 648.674 33.9138 648.517 33.8794C648.236 33.8204 647.693 33.7908 646.886 33.7908C646.556 33.7908 646.089 33.8031 645.484 33.8277C645.459 34.3197 645.447 35.0503 645.447 36.0195C645.447 36.9296 645.459 37.6208 645.484 38.0931C646.192 38.1472 646.987 38.1743 647.867 38.1743C648.492 38.1743 648.937 38.1546 649.203 38.1152C649.469 38.0759 649.715 38.0095 649.941 37.916C650 37.7635 650.059 37.5569 650.118 37.2961C650.226 36.8583 650.298 36.5286 650.332 36.3073H650.819C650.691 37.301 650.627 38.1251 650.627 38.7794C650.204 38.8434 649.69 38.8753 649.085 38.8753L644.679 38.8163C644.615 38.8163 643.971 38.836 642.746 38.8753Z" fill="#9A9A9A"/>
<path d="M632.308 28.8613V28.389C632.499 28.3939 632.792 28.4013 633.186 28.4112L634.603 28.4481C634.883 28.4481 635.318 28.4382 635.909 28.4185C636.676 28.389 637.122 28.3743 637.245 28.3743C638.184 28.3743 638.868 28.4579 639.296 28.6252C639.729 28.7924 640.063 29.0655 640.3 29.4443C640.536 29.8182 640.654 30.2265 640.654 30.6693C640.654 31.0826 640.543 31.4933 640.322 31.9017C640.1 32.31 639.778 32.6495 639.355 32.9201C638.937 33.1906 638.391 33.3997 637.717 33.5473C637.84 33.7195 638.13 34.1032 638.588 34.6985L640.447 37.1485C640.979 37.8324 641.288 38.2136 641.377 38.2924C641.421 38.3268 641.466 38.3514 641.51 38.3661C641.584 38.3907 641.746 38.403 641.997 38.403V38.8753C641.623 38.8458 641.296 38.8311 641.015 38.8311C640.725 38.8311 640.369 38.8458 639.945 38.8753C639.626 38.5064 639.089 37.7856 638.337 36.7131C637.919 36.1178 637.55 35.621 637.23 35.2225C636.713 34.5632 636.221 33.9655 635.754 33.4292L635.828 33.2079C636.083 33.2226 636.278 33.23 636.411 33.23C637.306 33.23 637.985 33.0184 638.447 32.5954C638.91 32.1723 639.141 31.6139 639.141 30.9202C639.141 30.3151 638.942 29.8354 638.543 29.4812C638.145 29.1221 637.542 28.9425 636.735 28.9425C636.229 28.9425 635.732 29.0187 635.245 29.1713C635.225 29.4369 635.21 29.6854 635.2 29.9166C635.195 29.9855 635.178 30.7013 635.149 32.064V35.3405C635.149 36.0096 635.159 36.6615 635.178 37.2961C635.188 37.7635 635.22 38.0414 635.274 38.13C635.333 38.2186 635.427 38.285 635.555 38.3292C635.683 38.3686 636.037 38.3932 636.617 38.403V38.8753C635.919 38.836 635.277 38.8163 634.691 38.8163C634.219 38.8163 633.424 38.836 632.308 38.8753V38.403C632.888 38.3932 633.242 38.3686 633.37 38.3292C633.498 38.285 633.587 38.2259 633.636 38.1521C633.695 38.0537 633.732 37.8151 633.747 37.4363C633.752 37.333 633.761 36.6344 633.776 35.3405V31.9238C633.776 31.2547 633.769 30.6004 633.754 29.9609C633.739 29.4935 633.702 29.218 633.643 29.1344C633.589 29.0458 633.498 28.9818 633.37 28.9425C633.247 28.8982 632.893 28.8712 632.308 28.8613Z" fill="#9A9A9A"/>
<path d="M623.403 30.8317H622.946C622.941 29.6559 622.916 28.8416 622.872 28.389C623.408 28.4087 624.25 28.4333 625.396 28.4628C626.326 28.4825 626.946 28.4924 627.256 28.4924C627.59 28.4924 628.365 28.4776 629.58 28.4481C630.461 28.4284 631.103 28.4087 631.506 28.389C631.447 28.94 631.408 29.7543 631.388 30.8317H630.916L630.857 30.1232C630.817 29.6952 630.79 29.4517 630.776 29.3927C630.761 29.3336 630.739 29.2918 630.709 29.2672C630.685 29.2426 630.645 29.2229 630.591 29.2082C630.522 29.1934 630.276 29.1737 629.853 29.1491C629.43 29.1245 629.095 29.1122 628.849 29.1122H627.949C627.9 29.5845 627.875 30.2216 627.875 31.0235V35.3406C627.875 36.0096 627.883 36.6615 627.898 37.2961C627.912 37.7635 627.947 38.0415 628.001 38.13C628.06 38.2186 628.151 38.285 628.274 38.3293C628.402 38.3686 628.758 38.3932 629.344 38.4031V38.8753C628.463 38.836 627.802 38.8163 627.359 38.8163C627.167 38.8163 626.399 38.836 625.056 38.8753V38.4031C625.642 38.3932 625.999 38.3686 626.126 38.3293C626.254 38.285 626.34 38.2259 626.385 38.1521C626.449 38.0538 626.488 37.8152 626.503 37.4363C626.503 37.333 626.513 36.6344 626.532 35.3406V31.0383C626.532 30.8317 626.527 30.6054 626.518 30.3594L626.473 29.1122H625.374C624.739 29.1122 624.235 29.1368 623.861 29.186C623.743 29.2008 623.667 29.2328 623.632 29.282C623.578 29.3656 623.529 29.6337 623.485 30.0863L623.403 30.8317Z" fill="#9A9A9A"/>
<path d="M610.265 38.8753V38.4104C610.782 38.4055 611.121 38.3662 611.283 38.2924C611.352 38.2628 611.402 38.2161 611.431 38.1522C611.48 38.0538 611.515 37.7955 611.534 37.3773C611.564 36.7279 611.579 36.1671 611.579 35.6948V29.6805C611.579 29.5181 611.569 29.4123 611.549 29.3631C611.51 29.2746 611.421 29.1688 611.283 29.0458C611.195 28.9671 611.092 28.9179 610.974 28.8982C610.86 28.8736 610.605 28.8589 610.206 28.8539V28.389C611.028 28.4087 611.544 28.4186 611.756 28.4186C612.115 28.4186 612.472 28.4087 612.826 28.389C613.244 28.9351 613.551 29.3385 613.748 29.5993L615.276 31.4811L617.504 34.1672C618.218 35.0232 618.791 35.6972 619.224 36.1892C619.499 36.5139 619.731 36.7697 619.918 36.9567V31.5622C619.918 31.0801 619.9 30.5143 619.866 29.8649C619.846 29.4566 619.814 29.2032 619.77 29.1049C619.735 29.0409 619.684 28.9942 619.615 28.9646C619.453 28.8958 619.116 28.8589 618.604 28.8539V28.389C619.184 28.4087 619.772 28.4186 620.368 28.4186C620.929 28.4186 621.438 28.4087 621.895 28.389V28.8539C621.384 28.8589 621.047 28.8958 620.884 28.9646C620.815 28.9942 620.766 29.0434 620.737 29.1122C620.687 29.2057 620.653 29.464 620.633 29.8871C620.604 30.5365 620.589 31.0949 620.589 31.5622V35.1118C620.589 35.8301 620.601 37.1707 620.626 39.1336L619.866 38.9122L619.689 38.8753C619.659 38.8655 619.632 38.8507 619.608 38.8311C619.573 38.8065 619.48 38.7081 619.327 38.5359C618.919 38.0734 618.619 37.7241 618.427 37.488L617.475 36.2851L612.243 30.0347V35.6948C612.243 36.1769 612.26 36.7451 612.294 37.3994C612.314 37.8078 612.346 38.0587 612.39 38.1522C612.425 38.221 612.476 38.2702 612.545 38.2997C612.708 38.3686 613.045 38.4055 613.556 38.4104V38.8753C613.123 38.8409 612.646 38.8237 612.125 38.8237C611.554 38.8237 610.934 38.8409 610.265 38.8753Z" fill="#9A9A9A"/>
<path d="M600.978 38.8753V38.4104C601.495 38.4055 601.834 38.3661 601.997 38.2924C602.065 38.2628 602.115 38.2161 602.144 38.1521C602.193 38.0537 602.228 37.7955 602.247 37.3773C602.277 36.7279 602.292 36.167 602.292 35.6948V31.9238C602.292 31.2547 602.284 30.6004 602.27 29.9609C602.255 29.4935 602.218 29.218 602.159 29.1344C602.105 29.0458 602.014 28.9818 601.886 28.9425C601.763 28.8982 601.409 28.8712 600.823 28.8613V28.389L602.926 28.4333L605.155 28.3964C606.223 28.3816 606.997 28.3743 607.48 28.3743C607.967 28.3743 608.427 28.4013 608.86 28.4554C608.781 28.7359 608.727 28.9794 608.697 29.186C608.687 29.2303 608.643 29.7419 608.564 30.721H608.099C608.104 30.2191 608.072 29.7616 608.004 29.3484C607.733 29.2352 607.435 29.159 607.111 29.1196C606.56 29.0507 606.009 29.0163 605.458 29.0163C605.34 29.0163 605.076 29.0261 604.668 29.0458C604.26 29.0655 603.967 29.0827 603.79 29.0975C603.77 29.6435 603.755 30.1552 603.746 30.6324L603.716 33.1267C604.292 33.1562 604.82 33.171 605.303 33.171C605.888 33.171 606.387 33.1439 606.801 33.0898C606.958 33.0701 607.059 33.0307 607.103 32.9717C607.147 32.9127 607.187 32.711 607.221 32.3666L607.266 31.85H607.708V31.9902L607.671 33.5252L607.708 35.2446H607.192L607.17 34.7428C607.16 34.3787 607.125 34.1524 607.066 34.0639C607.012 33.9753 606.906 33.9138 606.749 33.8794C606.469 33.8204 605.925 33.7908 605.118 33.7908C604.789 33.7908 604.321 33.8031 603.716 33.8277C603.691 34.3197 603.679 35.0503 603.679 36.0195C603.679 36.9296 603.691 37.6208 603.716 38.0931C604.424 38.1472 605.219 38.1743 606.1 38.1743C606.724 38.1743 607.17 38.1546 607.435 38.1152C607.701 38.0759 607.947 38.0095 608.173 37.916C608.232 37.7635 608.291 37.5569 608.35 37.2961C608.459 36.8583 608.53 36.5286 608.564 36.3073H609.051C608.924 37.301 608.86 38.1251 608.86 38.7794C608.436 38.8434 607.922 38.8753 607.317 38.8753L602.912 38.8163C602.848 38.8163 602.203 38.836 600.978 38.8753Z" fill="#9A9A9A"/>
<path d="M599.883 37.5692L599.595 38.2555C599.019 38.5457 598.456 38.7548 597.905 38.8827C597.354 39.0156 596.754 39.082 596.104 39.082C595.342 39.082 594.633 38.9861 593.979 38.7942C593.325 38.6023 592.752 38.3293 592.26 37.9751C591.773 37.6159 591.374 37.215 591.064 36.7722C590.754 36.3294 590.518 35.8498 590.356 35.3332C590.193 34.8117 590.112 34.241 590.112 33.6211C590.112 32.0518 590.658 30.753 591.751 29.7247C592.848 28.6916 594.343 28.175 596.237 28.175C596.685 28.175 597.098 28.2021 597.477 28.2562C597.861 28.3054 598.326 28.4038 598.872 28.5514C599.423 28.6941 599.76 28.7777 599.883 28.8023C599.775 29.0729 599.693 29.3386 599.639 29.5993C599.561 30.0175 599.506 30.5021 599.477 31.0531H599.012L599.005 30.1823C598.955 29.7002 598.687 29.341 598.2 29.1049C597.718 28.8687 597.01 28.7507 596.075 28.7507C595.376 28.7605 594.784 28.8515 594.296 29.0237C593.809 29.191 593.379 29.4591 593.005 29.8281C592.636 30.1921 592.334 30.657 592.097 31.2228C591.861 31.7836 591.741 32.4896 591.736 33.3407C591.736 34.8314 592.191 36.0318 593.101 36.9419C594.011 37.8471 595.214 38.2998 596.71 38.2998C597.384 38.2998 598.008 38.2063 598.584 38.0193C598.978 37.8914 599.369 37.6897 599.757 37.4142L599.883 37.5692Z" fill="#9A9A9A"/>
<path d="M578.048 38.5138C578.127 38.0415 578.173 37.2765 578.188 36.2187H578.69C578.714 36.937 578.754 37.3626 578.808 37.4954C578.867 37.6233 579.005 37.7611 579.221 37.9086C579.438 38.0562 579.728 38.1891 580.092 38.3071C580.456 38.4203 580.808 38.4769 581.147 38.4769C581.644 38.4769 582.102 38.3637 582.52 38.1374C582.938 37.9062 583.243 37.6061 583.435 37.2371C583.627 36.8632 583.723 36.4647 583.723 36.0416C583.723 35.7169 583.674 35.4365 583.575 35.2004C583.482 34.9642 583.337 34.7748 583.14 34.6321C582.943 34.4845 582.699 34.3812 582.409 34.3222C582.227 34.2927 581.863 34.2435 581.317 34.1746C580.771 34.1057 580.306 34.0295 579.922 33.9458C579.411 33.7884 579.034 33.6039 578.793 33.3924C578.552 33.1808 578.355 32.9029 578.203 32.5585C578.055 32.2141 577.981 31.8427 577.981 31.4442C577.981 30.8637 578.131 30.3176 578.432 29.8059C578.737 29.2894 579.184 28.8884 579.775 28.6031C580.37 28.3177 581.014 28.175 581.708 28.175C582.126 28.175 582.581 28.2316 583.073 28.3448C583.57 28.453 584.033 28.6129 584.461 28.8244C584.392 29.1344 584.343 29.4246 584.313 29.6952C584.284 29.9609 584.261 30.3545 584.247 30.876H583.745C583.73 30.1183 583.708 29.7051 583.678 29.6362C583.555 29.4591 583.388 29.2992 583.177 29.1565C582.67 28.8712 582.141 28.7285 581.59 28.7285C580.877 28.7285 580.306 28.9474 579.878 29.3853C579.455 29.8182 579.243 30.3815 579.243 31.0752C579.243 31.4934 579.32 31.8181 579.472 32.0493C579.625 32.2756 579.898 32.4576 580.291 32.5954C580.562 32.6889 581.005 32.7774 581.62 32.861C582.235 32.9398 582.788 33.0259 583.28 33.1193C583.742 33.2571 584.084 33.4219 584.306 33.6138C584.527 33.8007 584.709 34.0492 584.852 34.3591C584.994 34.6641 585.066 35.0232 585.066 35.4365C585.066 36.4155 584.66 37.2691 583.848 37.9972C583.036 38.7253 581.986 39.0894 580.697 39.0894C579.723 39.0894 578.84 38.8975 578.048 38.5138Z" fill="#9A9A9A"/>
<path d="M569.955 38.5138C570.034 38.0415 570.081 37.2765 570.095 36.2187H570.597C570.622 36.937 570.661 37.3626 570.715 37.4954C570.774 37.6233 570.912 37.7611 571.128 37.9086C571.345 38.0562 571.635 38.1891 571.999 38.3071C572.363 38.4203 572.715 38.4769 573.054 38.4769C573.551 38.4769 574.009 38.3637 574.427 38.1374C574.845 37.9062 575.15 37.6061 575.342 37.2371C575.534 36.8632 575.63 36.4647 575.63 36.0416C575.63 35.7169 575.581 35.4365 575.482 35.2004C575.389 34.9642 575.244 34.7748 575.047 34.6321C574.85 34.4845 574.607 34.3812 574.316 34.3222C574.134 34.2927 573.77 34.2435 573.224 34.1746C572.678 34.1057 572.213 34.0295 571.829 33.9458C571.318 33.7884 570.941 33.6039 570.7 33.3924C570.459 33.1808 570.263 32.9029 570.11 32.5585C569.962 32.2141 569.889 31.8427 569.889 31.4442C569.889 30.8637 570.039 30.3176 570.339 29.8059C570.644 29.2894 571.092 28.8884 571.682 28.6031C572.277 28.3177 572.922 28.175 573.615 28.175C574.034 28.175 574.489 28.2316 574.981 28.3448C575.477 28.453 575.94 28.6129 576.368 28.8244C576.299 29.1344 576.25 29.4246 576.22 29.6952C576.191 29.9609 576.169 30.3545 576.154 30.876H575.652C575.637 30.1183 575.615 29.7051 575.586 29.6362C575.463 29.4591 575.295 29.2992 575.084 29.1565C574.577 28.8712 574.048 28.7285 573.497 28.7285C572.784 28.7285 572.213 28.9474 571.785 29.3853C571.362 29.8182 571.151 30.3815 571.151 31.0752C571.151 31.4934 571.227 31.8181 571.379 32.0493C571.532 32.2756 571.805 32.4576 572.198 32.5954C572.469 32.6889 572.912 32.7774 573.527 32.861C574.142 32.9398 574.695 33.0259 575.187 33.1193C575.65 33.2571 575.992 33.4219 576.213 33.6138C576.434 33.8007 576.616 34.0492 576.759 34.3591C576.902 34.6641 576.973 35.0232 576.973 35.4365C576.973 36.4155 576.567 37.2691 575.755 37.9972C574.944 38.7253 573.893 39.0894 572.604 39.0894C571.63 39.0894 570.747 38.8975 569.955 38.5138Z" fill="#9A9A9A"/>
<path d="M560.609 38.8753V38.4104C561.126 38.4055 561.465 38.3661 561.627 38.2924C561.696 38.2628 561.746 38.2161 561.775 38.1521C561.824 38.0537 561.859 37.7955 561.878 37.3773C561.908 36.7279 561.923 36.167 561.923 35.6948V31.9238C561.923 31.2547 561.915 30.6004 561.9 29.9609C561.886 29.4935 561.849 29.218 561.79 29.1344C561.736 29.0458 561.645 28.9818 561.517 28.9425C561.394 28.8982 561.04 28.8712 560.454 28.8613V28.389L562.557 28.4333L564.786 28.3964C565.853 28.3816 566.628 28.3743 567.11 28.3743C567.597 28.3743 568.057 28.4013 568.49 28.4554C568.412 28.7359 568.358 28.9794 568.328 29.186C568.318 29.2303 568.274 29.7419 568.195 30.721H567.73C567.735 30.2191 567.703 29.7616 567.634 29.3484C567.364 29.2352 567.066 29.159 566.741 29.1196C566.19 29.0507 565.639 29.0163 565.088 29.0163C564.97 29.0163 564.707 29.0261 564.299 29.0458C563.891 29.0655 563.598 29.0827 563.421 29.0975C563.401 29.6435 563.386 30.1552 563.376 30.6324L563.347 33.1267C563.922 33.1562 564.451 33.171 564.933 33.171C565.519 33.171 566.018 33.1439 566.432 33.0898C566.589 33.0701 566.69 33.0307 566.734 32.9717C566.778 32.9127 566.818 32.711 566.852 32.3666L566.896 31.85H567.339V31.9902L567.302 33.5252L567.339 35.2446H566.823L566.8 34.7428C566.791 34.3787 566.756 34.1524 566.697 34.0639C566.643 33.9753 566.537 33.9138 566.38 33.8794C566.099 33.8204 565.556 33.7908 564.749 33.7908C564.419 33.7908 563.952 33.8031 563.347 33.8277C563.322 34.3197 563.31 35.0503 563.31 36.0195C563.31 36.9296 563.322 37.6208 563.347 38.0931C564.055 38.1472 564.85 38.1743 565.73 38.1743C566.355 38.1743 566.8 38.1546 567.066 38.1152C567.332 38.0759 567.578 38.0095 567.804 37.916C567.863 37.7635 567.922 37.5569 567.981 37.2961C568.089 36.8583 568.161 36.5286 568.195 36.3073H568.682C568.554 37.301 568.49 38.1251 568.49 38.7794C568.067 38.8434 567.553 38.8753 566.948 38.8753L562.543 38.8163C562.479 38.8163 561.834 38.836 560.609 38.8753Z" fill="#9A9A9A"/>
<path d="M547.795 38.8753V38.4104C548.312 38.4055 548.651 38.3662 548.814 38.2924C548.883 38.2628 548.932 38.2161 548.961 38.1522C549.011 38.0538 549.045 37.7955 549.065 37.3773C549.094 36.7279 549.109 36.1671 549.109 35.6948V29.6805C549.109 29.5181 549.099 29.4123 549.079 29.3631C549.04 29.2746 548.951 29.1688 548.814 29.0458C548.725 28.9671 548.622 28.9179 548.504 28.8982C548.391 28.8736 548.135 28.8589 547.736 28.8539V28.389C548.558 28.4087 549.074 28.4186 549.286 28.4186C549.645 28.4186 550.002 28.4087 550.356 28.389C550.774 28.9351 551.082 29.3385 551.279 29.5993L552.806 31.4811L555.035 34.1672C555.748 35.0232 556.321 35.6972 556.754 36.1892C557.03 36.5139 557.261 36.7697 557.448 36.9567V31.5622C557.448 31.0801 557.431 30.5143 557.396 29.8649C557.376 29.4566 557.344 29.2032 557.3 29.1049C557.266 29.0409 557.214 28.9942 557.145 28.9646C556.983 28.8958 556.646 28.8589 556.134 28.8539V28.389C556.715 28.4087 557.303 28.4186 557.898 28.4186C558.459 28.4186 558.968 28.4087 559.425 28.389V28.8539C558.914 28.8589 558.577 28.8958 558.414 28.9646C558.346 28.9942 558.296 29.0434 558.267 29.1122C558.218 29.2057 558.183 29.464 558.164 29.8871C558.134 30.5365 558.119 31.0949 558.119 31.5622V35.1118C558.119 35.8301 558.132 37.1707 558.156 39.1336L557.396 38.9122L557.219 38.8753C557.189 38.8655 557.162 38.8507 557.138 38.8311C557.103 38.8065 557.01 38.7081 556.857 38.5359C556.449 38.0734 556.149 37.7241 555.957 37.488L555.005 36.2851L549.773 30.0347V35.6948C549.773 36.1769 549.79 36.7451 549.825 37.3994C549.844 37.8078 549.876 38.0587 549.921 38.1522C549.955 38.221 550.007 38.2702 550.076 38.2997C550.238 38.3686 550.575 38.4055 551.087 38.4104V38.8753C550.654 38.8409 550.176 38.8237 549.655 38.8237C549.084 38.8237 548.464 38.8409 547.795 38.8753Z" fill="#9A9A9A"/>
<path d="M546.825 38.4031V38.8753C545.777 38.836 545.088 38.8163 544.759 38.8163L542.479 38.8753V38.4031C543.059 38.3932 543.413 38.3686 543.541 38.3293C543.669 38.285 543.758 38.2259 543.807 38.1521C543.866 38.0538 543.903 37.8152 543.918 37.4363C543.922 37.333 543.932 36.6344 543.947 35.3406V31.9238C543.947 31.2548 543.94 30.6004 543.925 29.9609C543.91 29.4935 543.873 29.218 543.814 29.1344C543.76 29.0458 543.669 28.9819 543.541 28.9425C543.418 28.8982 543.064 28.8712 542.479 28.8613V28.389C543.418 28.4235 544.144 28.4407 544.655 28.4407C545.147 28.4407 545.871 28.4235 546.825 28.389V28.8613C546.24 28.8712 545.883 28.8982 545.755 28.9425C545.632 28.9819 545.546 29.0384 545.497 29.1122C545.438 29.2106 545.401 29.4492 545.386 29.828C545.381 29.9264 545.371 30.625 545.357 31.9238V35.3406C545.357 36.0096 545.364 36.6615 545.379 37.2961C545.393 37.7635 545.428 38.0415 545.482 38.13C545.541 38.2186 545.632 38.285 545.755 38.3293C545.883 38.3686 546.24 38.3932 546.825 38.4031Z" fill="#9A9A9A"/>
<path d="M534.52 38.5138C534.598 38.0415 534.645 37.2765 534.66 36.2187H535.162C535.186 36.937 535.226 37.3626 535.28 37.4954C535.339 37.6233 535.476 37.7611 535.693 37.9086C535.909 38.0562 536.2 38.1891 536.564 38.3071C536.928 38.4203 537.279 38.4769 537.619 38.4769C538.116 38.4769 538.573 38.3637 538.992 38.1374C539.41 37.9062 539.715 37.6061 539.907 37.2371C540.098 36.8632 540.194 36.4647 540.194 36.0416C540.194 35.7169 540.145 35.4365 540.047 35.2004C539.953 34.9642 539.808 34.7748 539.611 34.6321C539.415 34.4845 539.171 34.3812 538.881 34.3222C538.699 34.2927 538.335 34.2435 537.789 34.1746C537.243 34.1057 536.778 34.0295 536.394 33.9458C535.882 33.7884 535.506 33.6039 535.265 33.3924C535.024 33.1808 534.827 32.9029 534.675 32.5585C534.527 32.2141 534.453 31.8427 534.453 31.4442C534.453 30.8637 534.603 30.3176 534.903 29.8059C535.208 29.2894 535.656 28.8884 536.246 28.6031C536.842 28.3177 537.486 28.175 538.18 28.175C538.598 28.175 539.053 28.2316 539.545 28.3448C540.042 28.453 540.504 28.6129 540.932 28.8244C540.863 29.1344 540.814 29.4246 540.785 29.6952C540.755 29.9609 540.733 30.3545 540.718 30.876H540.217C540.202 30.1183 540.18 29.7051 540.15 29.6362C540.027 29.4591 539.86 29.2992 539.648 29.1565C539.142 28.8712 538.613 28.7285 538.062 28.7285C537.348 28.7285 536.778 28.9474 536.35 29.3853C535.927 29.8182 535.715 30.3815 535.715 31.0752C535.715 31.4934 535.791 31.8181 535.944 32.0493C536.096 32.2756 536.369 32.4576 536.763 32.5954C537.033 32.6889 537.476 32.7774 538.091 32.861C538.706 32.9398 539.26 33.0259 539.752 33.1193C540.214 33.2571 540.556 33.4219 540.777 33.6138C540.999 33.8007 541.181 34.0492 541.323 34.3591C541.466 34.6641 541.537 35.0232 541.537 35.4365C541.537 36.4155 541.132 37.2691 540.32 37.9972C539.508 38.7253 538.458 39.0894 537.169 39.0894C536.195 39.0894 535.312 38.8975 534.52 38.5138Z" fill="#9A9A9A"/>
<path d="M522.346 28.8613V28.389C523.148 28.4284 523.893 28.4481 524.582 28.4481C525.28 28.4481 525.974 28.4284 526.663 28.389V28.8613C526.082 28.8712 525.728 28.8982 525.6 28.9425C525.472 28.9819 525.386 29.0384 525.342 29.1122C525.278 29.2106 525.238 29.4492 525.224 29.828C525.219 29.9264 525.209 30.625 525.194 31.9238V34.6543C525.194 35.712 525.261 36.4106 525.393 36.75C525.531 37.0846 525.748 37.3625 526.043 37.5839C526.269 37.7512 526.574 37.8865 526.958 37.9898C527.342 38.0882 527.77 38.1374 528.242 38.1374C528.793 38.1374 529.282 38.071 529.71 37.9381C530.138 37.8004 530.458 37.6356 530.67 37.4437C530.886 37.2469 531.046 37.028 531.149 36.7869C531.258 36.5459 531.334 36.2163 531.378 35.7981C531.427 35.375 531.452 34.8412 531.452 34.1967V31.9238C531.452 31.2548 531.442 30.6004 531.423 29.9609C531.413 29.4935 531.378 29.218 531.319 29.1344C531.265 29.0458 531.174 28.9819 531.046 28.9425C530.918 28.8982 530.564 28.8712 529.984 28.8613V28.389C530.795 28.4284 531.388 28.4481 531.762 28.4481C532.101 28.4481 532.714 28.4284 533.599 28.389V28.8613C533.014 28.8712 532.657 28.8982 532.529 28.9425C532.406 28.9819 532.32 29.0384 532.271 29.1122C532.212 29.2106 532.175 29.4492 532.16 29.828C532.156 29.9264 532.146 30.625 532.131 31.9238V34.396C532.131 35.6111 532.045 36.4598 531.873 36.9419C531.705 37.424 531.395 37.8496 530.943 38.2186C530.603 38.4941 530.166 38.7081 529.629 38.8606C529.098 39.0131 528.508 39.0893 527.858 39.0893C527.101 39.0893 526.444 39.0008 525.888 38.8237C525.332 38.6417 524.909 38.4055 524.619 38.1153C524.328 37.8201 524.129 37.52 524.021 37.215C523.883 36.8115 523.814 36.1351 523.814 35.1856V31.9238C523.814 31.2548 523.807 30.6004 523.792 29.9609C523.777 29.4935 523.74 29.218 523.681 29.1344C523.627 29.0458 523.536 28.9819 523.408 28.9425C523.285 28.8982 522.931 28.8712 522.346 28.8613Z" fill="#9A9A9A"/>
<path d="M513.547 38.8753V38.5285C513.852 38.376 514.022 38.2825 514.056 38.2481C514.091 38.2087 514.118 38.1423 514.137 38.0488C514.167 37.9012 514.192 37.5888 514.211 37.1116C514.236 36.6295 514.248 36.263 514.248 36.0121V31.5622C514.248 31.0801 514.233 30.5143 514.204 29.8649C514.184 29.4566 514.15 29.2032 514.101 29.1048C514.066 29.0409 514.014 28.9941 513.946 28.9646C513.783 28.8958 513.446 28.8589 512.935 28.8539V28.389C513.097 28.3989 513.301 28.4038 513.547 28.4038L515.082 28.4407L517.798 28.3743C518.516 28.3743 519.069 28.4481 519.458 28.5957C519.847 28.7432 520.149 28.9843 520.366 29.3188C520.587 29.6485 520.698 30.0174 520.698 30.4258C520.698 30.7505 520.631 31.0555 520.499 31.3408C520.371 31.6262 520.196 31.8746 519.975 32.0862C519.758 32.2928 519.515 32.4625 519.244 32.5954C518.978 32.7233 518.629 32.8413 518.196 32.9496C518.772 33.0037 519.237 33.0849 519.591 33.1931C519.945 33.2964 520.24 33.4538 520.476 33.6654C520.718 33.872 520.9 34.1254 521.023 34.4255C521.146 34.7256 521.207 35.0601 521.207 35.4291C521.207 36.1572 520.986 36.7992 520.543 37.3552C520.105 37.9062 519.539 38.3145 518.846 38.5802C518.329 38.7769 517.717 38.8753 517.008 38.8753L514.868 38.8163C514.637 38.8163 514.196 38.836 513.547 38.8753ZM515.65 32.7429C515.931 32.7577 516.177 32.7651 516.388 32.7651C516.998 32.7651 517.468 32.7183 517.798 32.6249C518.132 32.5314 518.39 32.4084 518.573 32.2559C518.755 32.1034 518.905 31.8968 519.023 31.636C519.146 31.3753 519.207 31.0703 519.207 30.721C519.207 30.106 519.01 29.6632 518.617 29.3926C518.228 29.1171 517.657 28.9794 516.905 28.9794C516.487 28.9794 516.091 29.0163 515.717 29.0901C515.672 29.4984 515.65 30.1306 515.65 30.9866V32.7429ZM515.672 38.1152C516.041 38.2038 516.43 38.2481 516.838 38.2481C517.488 38.2481 518.012 38.1497 518.41 37.9529C518.809 37.7512 519.114 37.4486 519.325 37.0452C519.542 36.6418 519.65 36.1793 519.65 35.6579C519.65 35.1413 519.549 34.7084 519.347 34.3591C519.146 34.0048 518.843 33.7441 518.44 33.5768C518.041 33.4046 517.382 33.3186 516.462 33.3186C516.25 33.3186 515.98 33.3284 515.65 33.3481V36.1449C515.65 36.4155 515.658 37.0723 515.672 38.1152Z" fill="#9A9A9A"/>
<path d="M485.024 23.5138H678.999V24.7186H485.024V23.5138Z" fill="#9A9A9A"/>
<path fill-rule="evenodd" clip-rule="evenodd" d="M366.047 22.5619L359.765 28.8795V24.0665L357.449 22.9025L356.971 23.1096L351.519 25.4713L353.7 31.0347L353.887 31.5118L356.349 32.338L359.742 28.9255V37.8689H350.851L354.249 34.4508L353.431 31.982L352.946 31.7881L347.432 29.58L345.052 35.0915L344.859 35.5356L346.019 37.8689H350.827L344.523 44.2094L338.219 37.8689H343.026L344.182 35.5421L343.988 35.0893L341.629 29.58L336.098 31.7729L335.622 31.9617L334.802 34.4335L338.218 37.8689H329.304V28.9027L332.702 32.3206L335.158 31.4972L335.349 31.0152L337.544 25.4691L332.092 23.0857L331.62 22.8788L329.304 24.0425V28.9022L323 22.5619L329.304 16.2216V21.0574L331.621 22.2217L332.095 22.0164L337.546 19.6546L335.366 14.0912L335.178 13.6105L332.72 12.7859L329.304 16.2211V7.25488H338.219L344.523 0.914307L350.827 7.25488H359.742V16.1983L356.365 12.8031L353.908 13.627L353.717 14.1107L351.521 19.6568L356.973 22.0402L357.446 22.2468L359.765 21.0811V16.2443L366.047 22.5619ZM353.162 31.2447L347.127 28.829L347.127 28.829L348.379 29.3301L353.161 31.2441L353.162 31.2447ZM344.522 34.8574L344.522 34.8576L344.522 34.8577L344.522 34.8576L344.522 34.8575L344.522 34.8574ZM337.947 26.0271L335.89 31.227L335.889 31.2274L337.947 26.0271ZM336.119 13.3378L335.64 13.146L334.821 10.673L338.219 7.25489H343.051L344.208 9.58477L344.014 10.0344L341.634 15.5459L336.119 13.3378ZM346.042 7.25489L344.886 9.58278L345.08 10.0388L347.417 15.5524L352.968 13.3552L353.446 13.1656L354.267 10.6904L350.851 7.25489H346.042ZM341.941 16.2927L344.546 10.2639V10.2661L344.546 10.2674L344.546 10.2674L344.546 10.266L341.941 16.2945L335.907 13.8794L335.906 13.8769L341.941 16.2927ZM353.178 13.895L353.179 13.8942L353.179 13.8942L353.178 13.8949L353.178 13.895ZM350.777 19.9663L350.778 19.9646L356.591 22.5062L351.923 20.4668L350.777 19.9663ZM356.742 22.5729L356.743 22.5726L356.743 22.5726L356.743 22.5727L356.742 22.573L356.742 22.5729ZM332.325 22.5489L338.29 19.9645L338.291 19.9662L340.706 18.7237L341.941 16.2948L344.522 17.1347L347.103 16.2948L348.338 18.7237L350.753 19.9662L349.918 22.5618L350.753 25.1573L348.338 26.3999L347.103 28.8287L344.522 27.9888L341.941 28.8287L340.706 26.3999L338.291 25.1573L338.291 25.1574L338.137 25.0899L338.291 25.1573L339.126 22.5618L338.291 19.9662L335.736 21.073L332.326 22.5495L332.325 22.5489Z" fill="#9A9A9A"/>
<path d="M374.075 19.2627C373.255 18.4661 372.844 17.3469 372.844 15.9182V9.93481H374.938V15.9918C374.938 17.6284 375.876 18.4683 377.224 18.4683C378.571 18.4683 379.525 17.6284 379.525 15.9918V9.93481H381.634V15.9182C381.634 17.3469 381.223 18.4683 380.388 19.2627C379.568 20.0594 378.513 20.4555 377.224 20.4555C375.934 20.4555 374.895 20.0572 374.075 19.2627Z" fill="#9A9A9A"/>
<path d="M383.083 20.2497V18.8794L386.774 14.6365H383.318V12.8982H389.602V14.3139L385.896 18.5136H389.837V20.2519H383.083V20.2497Z" fill="#9A9A9A"/>
<path d="M395.197 20.2499V9.93481H402.728V11.8355H397.307V13.8249H401.674V15.6974H397.307V18.3492H402.888V20.2499H395.195H395.197Z" fill="#9A9A9A"/>
<path d="M406.26 12.8961L407.725 14.9591L409.206 12.8961H411.492L408.929 16.403L411.712 20.2498H409.396L407.695 17.8924L405.982 20.2498H403.696L406.494 16.4182L403.946 12.8961H406.26Z" fill="#9A9A9A"/>
<path d="M419.896 13.8249C420.555 14.5609 420.878 15.4744 420.878 16.5806C420.878 17.6868 420.555 18.5852 419.896 19.3363C419.251 20.0724 418.431 20.4425 417.434 20.4425C416.438 20.4425 415.602 20.0745 415.032 19.3515V23.1983H412.966V12.8984H415.032V13.7967C415.574 13.0759 416.379 12.7057 417.434 12.7057C418.431 12.7057 419.251 13.0737 419.896 13.8249ZM415.034 15.6216V17.5374C415.372 18.1717 416.046 18.6285 416.851 18.6285C417.421 18.6285 417.905 18.438 418.271 18.0396C418.637 17.6413 418.829 17.1564 418.829 16.5806C418.829 16.0048 418.639 15.5047 418.271 15.1064C417.903 14.7081 417.421 14.5176 416.851 14.5176C416.046 14.5176 415.37 14.9895 415.034 15.6238V15.6216Z" fill="#9A9A9A"/>
<path d="M423.061 13.8249C423.823 13.0737 424.789 12.7057 425.977 12.7057C427.165 12.7057 428.132 13.0737 428.894 13.8249C429.656 14.576 430.037 15.4896 430.037 16.5654C430.037 17.6413 429.656 18.5852 428.894 19.3363C428.132 20.0724 427.165 20.4425 425.977 20.4425C424.789 20.4425 423.823 20.0745 423.061 19.3363C422.299 18.5852 421.918 17.6716 421.918 16.5654C421.918 15.4593 422.299 14.5609 423.061 13.8249ZM425.977 18.6285C426.563 18.6285 427.047 18.438 427.428 18.0396C427.809 17.6413 427.998 17.1564 427.998 16.5654C427.998 15.9745 427.809 15.4896 427.428 15.1064C427.047 14.7081 426.563 14.5176 425.977 14.5176C425.392 14.5176 424.908 14.7103 424.527 15.1064C424.146 15.4896 423.956 15.9766 423.956 16.5654C423.956 17.1543 424.146 17.6413 424.527 18.0396C424.908 18.438 425.392 18.6285 425.977 18.6285Z" fill="#9A9A9A"/>
<path d="M374.207 32.2122C373.152 31.1948 372.625 29.9132 372.625 28.3525C372.625 26.7917 373.152 25.4928 374.192 24.4927C375.247 23.4904 376.579 22.9904 378.176 22.9904C379.187 22.9904 380.081 23.2112 380.886 23.6398V25.7764C380.094 25.246 379.2 24.9798 378.189 24.9798C377.177 24.9798 376.402 25.3045 375.742 25.9366C375.096 26.5709 374.775 27.3653 374.775 28.3525C374.775 29.3396 375.113 30.1492 375.772 30.7835C376.43 31.4177 377.265 31.7273 378.277 31.7273C379.39 31.7273 380.328 31.4329 381.09 30.8289V32.9655C380.255 33.4656 379.289 33.7167 378.174 33.7167C376.577 33.7167 375.257 33.2167 374.203 32.2144L374.207 32.2122Z" fill="#9A9A9A"/>
<path d="M383.464 32.6409C382.687 31.933 382.291 30.9913 382.291 29.8267C382.291 28.7356 382.642 27.8221 383.346 27.0861C384.049 26.3349 384.973 25.9669 386.101 25.9669C387.17 25.9669 388.005 26.3501 388.636 27.1013C389.267 27.8524 389.587 28.7659 389.587 29.857V30.4025H384.342C384.562 31.4048 385.5 31.9352 386.789 31.9352C387.609 31.9352 388.386 31.7143 389.133 31.2857V32.9504C388.475 33.4505 387.551 33.7016 386.35 33.7016C385.149 33.7016 384.241 33.3487 383.464 32.6409ZM387.551 29.0733C387.508 28.2637 386.936 27.5991 386.012 27.5991C385.089 27.5991 384.445 28.2031 384.342 29.0733H387.551Z" fill="#9A9A9A"/>
<path d="M393.235 33.5089H391.169V26.1552H393.235V27.0384C393.894 26.3175 394.701 25.9625 395.682 25.9625C397.383 25.9625 398.349 27.112 398.349 28.9975V33.5067H396.283V29.424C396.283 28.2896 395.652 27.8632 394.89 27.8632C394.245 27.8632 393.586 28.2766 393.235 28.82V33.5067V33.5089Z" fill="#9A9A9A"/>
<path d="M400.91 27.8957H399.475V26.1574H400.91V24.1377H402.976V26.1574H405.058V27.8957H402.976V30.8138C402.976 31.5368 403.269 31.8464 403.973 31.8464C404.339 31.8464 404.69 31.7576 405.043 31.5801V33.3033C404.619 33.5695 404.046 33.7016 403.299 33.7016C401.702 33.7016 400.912 32.8768 400.912 31.2251V27.8957H400.91Z" fill="#9A9A9A"/>
<path d="M406.683 33.509V26.1553H408.749V27.3936C408.969 27.0104 409.307 26.6727 409.774 26.3913C410.243 26.112 410.755 25.9648 411.297 25.9648C411.401 25.9648 411.474 25.9648 411.532 25.98V28.0127C411.356 27.9694 411.136 27.9391 410.886 27.9391C409.89 27.9391 409.04 28.5582 408.747 29.2206V33.509H406.681H406.683Z" fill="#9A9A9A"/>
<path d="M413.569 32.6409C412.792 31.933 412.396 30.9913 412.396 29.8267C412.396 28.7356 412.746 27.8221 413.45 27.0861C414.154 26.3349 415.077 25.9669 416.205 25.9669C417.275 25.9669 418.11 26.3501 418.741 27.1013C419.371 27.8524 419.692 28.7659 419.692 29.857V30.4025H414.447C414.666 31.4048 415.605 31.9352 416.894 31.9352C417.714 31.9352 418.491 31.7143 419.238 31.2857V32.9504C418.579 33.4505 417.656 33.7016 416.455 33.7016C415.254 33.7016 414.346 33.3487 413.569 32.6409ZM417.656 29.0733C417.613 28.2637 417.04 27.5991 416.117 27.5991C415.194 27.5991 414.55 28.2031 414.447 29.0733H417.656Z" fill="#9A9A9A"/>
<path d="M220.483 37.6072L230.775 13.5361H235.697L246.436 37.6072H241.067L238.829 32.5153H227.642L225.853 37.6072H220.483ZM233.463 19.0911L229.883 28.3493H237.042L233.463 19.0911ZM249.567 37.6072V13.5361H254.489V37.6072H249.567ZM182.004 37.6061V32.0512H165V37.6061H182.004ZM182.004 25.5705V19.5526H165V25.5705H182.004ZM182.899 13.5349H165V7.97998H183.794C189.164 7.97998 193.639 13.9978 193.639 17.701V37.6061H187.821C187.971 32.3597 188.179 21.1265 187.821 18.1639C187.542 15.8494 184.689 13.9978 182.899 13.5349ZM200.796 37.6072V13.5361H219.142V17.7022H206.165V23.2572H216.905V27.4233H206.165V33.4411H219.142V37.6072H200.796Z" fill="#9A9A9A"/>
<path d="M942.758 19.4534V14.5664L959.998 31.7614V36.6937L942.758 19.4534Z" fill="#9A9A9A"/>
<path d="M942.668 25.4263V20.5393L954.026 31.7161V36.7388L942.668 25.4263Z" fill="#9A9A9A"/>
<path d="M947.282 31.8065V36.7388L942.803 32.621V27.3268L947.282 31.8065Z" fill="#9A9A9A"/>
<path d="M947.283 12.1681V17.1908L943.075 13.4803V12.5753H940.948L938.052 9.67932H964.885L961.989 12.5753H959.953V30.1324L955.473 25.6526V12.4396H953.573V23.7069L949.229 19.3628V12.1681H947.283Z" fill="#9A9A9A"/>
<path fill-rule="evenodd" clip-rule="evenodd" d="M966.196 9.86035V21.0823V21.1276V36.1958H971.988C974.188 36.1958 975.97 34.413 975.97 32.2138V25.0643C975.97 23.0095 974.414 21.3182 972.416 21.105C974.414 20.8918 975.97 19.2005 975.97 17.1456V13.8424C975.97 11.6432 974.188 9.86035 971.988 9.86035H966.196ZM969.501 13.1637H972.985V16.8742C972.985 18.4236 971.729 19.6797 970.18 19.6797H969.501V13.1637ZM969.501 33.1189H972.985V25.6978C972.985 24.1484 971.729 22.8923 970.179 22.8923H969.501V33.1189Z" fill="#9A9A9A"/>
<path d="M988.733 9.67932V32.8021L992.625 36.5126H983.846C980.997 36.5126 978.688 34.2031 978.688 31.3541V9.67932H982.262V33.0284H985.385V9.67932H988.733Z" fill="#9A9A9A"/>
<path d="M1002.22 9.67932V32.8021V36.5126H997.329C994.48 36.5126 992.171 34.2031 992.171 31.3541V9.67932H995.746V33.0284H998.868V9.67932H1002.22Z" fill="#9A9A9A"/>
<path d="M1011.67 16.3311H1015V14.1591C1015 11.5601 1012.89 9.45312 1010.29 9.45312H1009.41C1006.81 9.45312 1004.71 11.5601 1004.71 14.1591V31.5352C1004.71 34.1342 1006.81 36.2412 1009.41 36.2412H1010.29C1012.89 36.2412 1015 34.1342 1015 31.5352V25.8789H1011.54V33.2094H1008.01V12.8469H1011.67V16.3311Z" fill="#9A9A9A"/>
<path d="M79.4795 22.5912V22.6598V34.8718H85.0022V22.5912V22.5226C85.0022 18.4063 87.9522 15.0447 92.2057 15.0447C96.4593 15.0447 99.4779 18.4749 99.4779 22.5912V22.6598V34.8718H105.001V22.5912V22.5226C105.001 15.6964 99.6837 10.1737 92.2743 10.1737C84.865 10.1737 79.4795 15.765 79.4795 22.5912Z" fill="#9A9A9A"/>
<path d="M64.3298 35.0088C56.9204 35.0088 51.6035 29.486 51.6035 22.6598V22.5912C51.6035 15.765 56.989 10.1737 64.3984 10.1737C71.8077 10.1737 77.1246 15.6964 77.1246 22.5226V22.5912C77.1246 29.4174 71.7391 35.0088 64.3298 35.0088Z" fill="#9A9A9A"/>
<mask id="mask1_412_332" style="mask-type:alpha" maskUnits="userSpaceOnUse" x="51" y="10" width="27" height="26">
<path d="M64.3307 35.0088C56.9214 35.0088 51.6045 29.486 51.6045 22.6598V22.5912C51.6045 15.765 56.99 10.1737 64.3993 10.1737C71.8087 10.1737 77.1256 15.6964 77.1256 22.5226V22.5912C77.1256 29.4174 71.7401 35.0088 64.3307 35.0088Z" fill="white"/>
</mask>
<g mask="url(#mask1_412_332)">
<path d="M72.4303 43.5024C65.021 43.5024 59.7041 37.9797 59.7041 31.1535V31.0849C59.7041 24.2587 65.0896 18.6674 72.499 18.6674C79.9083 18.6674 85.2252 24.1901 85.2252 31.0163V31.0849C85.2252 37.9111 79.8397 43.5024 72.4303 43.5024Z" fill="#A6A6A6"/>
</g>
<path d="M38.9252 34.9402C35.2548 34.9402 31.6187 33.7053 28.7373 31.0983L31.8588 27.3593C34.0542 29.143 36.2839 30.275 39.0281 30.275C41.2234 30.275 42.4926 29.4174 42.4926 28.011V27.9424C42.4926 26.6046 41.6694 25.8843 37.656 24.8895C32.785 23.6889 29.6978 22.2825 29.6978 17.5488V17.4802C29.6978 13.1237 33.1623 10.2423 38.1019 10.2423C41.6351 10.2423 44.5508 11.34 47.0206 13.2952L44.2764 17.2743C42.1153 15.7993 40.0914 14.9075 38.0333 14.9075C35.9751 14.9075 34.9461 15.7993 34.9461 16.9999V17.0685C34.9461 18.6807 35.9751 19.1267 40.1258 20.2244C44.9967 21.5279 47.7409 23.243 47.7409 27.4279V27.4965C47.7409 32.2646 44.1049 34.9402 38.9252 34.9402Z" fill="#9A9A9A"/>
<path d="M12.7262 35.0088C5.3169 35.0088 0 29.486 0 22.6598V22.5912C0 15.765 5.3855 10.1737 12.7949 10.1737C20.2042 10.1737 25.5211 15.6964 25.5211 22.5226V22.5912C25.5211 29.4174 20.1356 35.0088 12.7262 35.0088ZM12.7949 30.1378C17.0484 30.1378 19.9984 26.7761 19.9984 22.6598V22.5912C19.9984 18.4749 16.9798 15.0447 12.7262 15.0447C8.47273 15.0447 5.52271 18.4063 5.52271 22.5226V22.5912C5.52271 26.7075 8.54134 30.1378 12.7949 30.1378Z" fill="#9A9A9A"/>
</svg>
