<svg width="108" height="44" viewBox="0 0 108 44" fill="none" xmlns="http://www.w3.org/2000/svg">
<path d="M28.3174 6.34082H23.5322L22.375 8.66895L22.5684 9.12402L24.9062 14.6377L30.457 12.4404L30.9336 12.251L31.7559 9.77637L28.3408 6.34082H37.2324V15.2832L33.8545 11.8887L31.3975 12.7119L31.2061 13.1963L29.0107 18.7422L34.4629 21.126L34.9336 21.332L37.2549 20.167V15.3291L43.5361 21.6475L37.2549 27.9648V23.1523L34.9375 21.9883L34.46 22.1953L29.0088 24.5566L31.1885 30.1201L31.375 30.5967L33.8389 31.4238L37.2324 28.0107V36.9541H28.3398L31.7383 33.5361L30.9199 31.0674L30.4355 30.874L24.9209 28.666L22.541 34.1768L22.3477 34.6211L23.5078 36.9541H28.3174L22.0127 43.2949L15.709 36.9541H20.5156L21.6709 34.627L21.4775 34.1748L19.1182 28.666L13.5869 30.8584L13.1104 31.0469L12.291 33.5195L15.707 36.9541H6.79395V27.9893L10.1914 31.4062L12.6475 30.5811L12.8379 30.1006L15.0332 24.5547L9.58203 22.1719L9.1084 21.9639L6.79297 23.1279V27.9863L0.490234 21.6475L6.79297 15.3076V20.1436L9.10938 21.3066L9.58398 21.1025L15.0352 18.7402L12.8555 13.1768L12.666 12.6953L10.209 11.8721L6.79395 15.3047V6.34082H15.708L12.3096 9.75879L13.1289 12.2314L13.6084 12.4238L19.123 14.6318L21.5029 9.12012L21.6973 8.66992L20.54 6.34082H15.709L22.0127 0L28.3174 6.34082ZM30.6504 30.3301L30.6494 30.3291L24.6162 27.915H24.6152L30.6504 30.3301ZM22.0117 16.2207L19.4316 15.3809L18.1953 17.8096L15.7812 19.0518L16.6162 21.6475L15.7812 24.2432L18.1953 25.4854L19.4316 27.9141L22.0117 27.0742L24.5928 27.9141L25.8281 25.4854L28.2432 24.2432L27.4082 21.6475L28.2432 19.0518L25.8281 17.8096L24.5928 15.3809L22.0117 16.2207ZM9.81445 21.6348L13.9766 19.832L15.7803 19.0518L15.7793 19.0498L9.81445 21.6348ZM28.2666 19.0518L32.9287 21.0879L28.2666 19.0498V19.0518ZM13.3955 12.9639L19.4307 15.3799V15.3789L13.3955 12.9629V12.9639ZM22.0342 9.35156V9.35352L22.0361 9.35156L22.0352 9.34961L22.0342 9.35156Z" fill="#9A9A9A"/>
<path d="M51.5651 18.3484C50.7451 17.5518 50.334 16.4326 50.334 15.0039V9.02051H52.4282V15.0775C52.4282 16.7141 53.3666 17.554 54.714 17.554C56.0613 17.554 57.0148 16.7141 57.0148 15.0775V9.02051H59.1241V15.0039C59.1241 16.4326 58.713 17.554 57.8779 18.3484C57.0579 19.1451 56.0032 19.5412 54.714 19.5412C53.4247 19.5412 52.3852 19.1429 51.5651 18.3484Z" fill="#9A9A9A"/>
<path d="M60.5723 19.3354V17.9651L64.2635 13.7222H60.8069V11.9839H67.0917V13.3996L63.3854 17.5993H67.3263V19.3376H60.5723V19.3354Z" fill="#9A9A9A"/>
<path d="M72.6877 19.3356V9.02051H80.2187V10.9212H74.797V12.9106H79.164V14.7831H74.797V17.4349H80.378V19.3356H72.6855H72.6877Z" fill="#9A9A9A"/>
<path d="M83.749 11.9818L85.2147 14.0448L86.6955 11.9818H88.9813L86.4179 15.4887L89.2008 19.3355H86.8849L85.1846 16.9781L83.4713 19.3355H81.1855L83.9836 15.5039L81.4352 11.9818H83.749Z" fill="#9A9A9A"/>
<path d="M97.3856 12.9106C98.0442 13.6466 98.367 14.5601 98.367 15.6663C98.367 16.7725 98.0442 17.6709 97.3856 18.422C96.7399 19.158 95.9198 19.5282 94.9233 19.5282C93.9268 19.5282 93.0917 19.1602 92.5213 18.4372V22.284H90.4551V11.984H92.5213V12.8824C93.0637 12.1616 93.8687 11.7914 94.9233 11.7914C95.9198 11.7914 96.7399 12.1594 97.3856 12.9106ZM92.5235 14.7073V16.6231C92.8614 17.2574 93.5351 17.7142 94.34 17.7142C94.9104 17.7142 95.3947 17.5237 95.7606 17.1253C96.1265 16.727 96.318 16.2421 96.318 15.6663C96.318 15.0905 96.1286 14.5904 95.7606 14.1921C95.3925 13.7938 94.9104 13.6033 94.34 13.6033C93.5351 13.6033 92.8592 14.0752 92.5235 14.7095V14.7073Z" fill="#9A9A9A"/>
<path d="M100.551 12.9106C101.313 12.1594 102.279 11.7914 103.467 11.7914C104.656 11.7914 105.622 12.1594 106.384 12.9106C107.146 13.6617 107.527 14.5753 107.527 15.6511C107.527 16.727 107.146 17.6709 106.384 18.422C105.622 19.158 104.656 19.5282 103.467 19.5282C102.279 19.5282 101.313 19.1602 100.551 18.422C99.7892 17.6709 99.4082 16.7573 99.4082 15.6511C99.4082 14.545 99.7892 13.6466 100.551 12.9106ZM103.467 17.7142C104.053 17.7142 104.537 17.5237 104.918 17.1253C105.299 16.727 105.489 16.2421 105.489 15.6511C105.489 15.0602 105.299 14.5753 104.918 14.1921C104.537 13.7938 104.053 13.6033 103.467 13.6033C102.882 13.6033 102.398 13.7959 102.017 14.1921C101.636 14.5753 101.446 15.0623 101.446 15.6511C101.446 16.24 101.636 16.727 102.017 17.1253C102.398 17.5237 102.882 17.7142 103.467 17.7142Z" fill="#9A9A9A"/>
<path d="M51.6972 31.2979C50.6426 30.2805 50.1152 28.9989 50.1152 27.4381C50.1152 25.8774 50.6426 24.5785 51.6821 23.5784C52.7368 22.5761 54.0691 22.076 55.6661 22.076C56.6777 22.076 57.5709 22.2969 58.3759 22.7255V24.8621C57.5838 24.3317 56.6906 24.0655 55.679 24.0655C54.6674 24.0655 53.8926 24.3902 53.2318 25.0223C52.5861 25.6566 52.2654 26.451 52.2654 27.4381C52.2654 28.4253 52.6033 29.2349 53.2619 29.8692C53.9205 30.5034 54.7556 30.813 55.7672 30.813C56.88 30.813 57.8184 30.5186 58.5803 29.9146V32.0512C57.7452 32.5513 56.7788 32.8024 55.6639 32.8024C54.0669 32.8024 52.7475 32.3024 51.6929 31.3001L51.6972 31.2979Z" fill="#9A9A9A"/>
<path d="M60.9543 31.7266C60.1773 31.0187 59.7812 30.077 59.7812 28.9124C59.7812 27.8213 60.1321 26.9078 60.8359 26.1718C61.5397 25.4206 62.463 25.0526 63.5909 25.0526C64.6606 25.0526 65.4957 25.4358 66.1263 26.1869C66.7569 26.9381 67.0776 27.8516 67.0776 28.9427V29.4882H61.8324C62.052 30.4905 62.9904 31.0208 64.2796 31.0208C65.0996 31.0208 65.8766 30.8 66.6235 30.3714V32.0361C65.9649 32.5362 65.0415 32.7873 63.8405 32.7873C62.6395 32.7873 61.7313 32.4344 60.9543 31.7266ZM65.0415 28.159C64.9985 27.3494 64.426 26.6848 63.5026 26.6848C62.5793 26.6848 61.9357 27.2888 61.8324 28.159H65.0415Z" fill="#9A9A9A"/>
<path d="M70.7244 32.5946H68.6582V25.2409H70.7244V26.1241C71.383 25.4032 72.1902 25.0482 73.1716 25.0482C74.872 25.0482 75.8384 26.1977 75.8384 28.0832V32.5924H73.7721V28.5097C73.7721 27.3753 73.1415 26.9489 72.3796 26.9489C71.7339 26.9489 71.0753 27.3623 70.7244 27.9057V32.5924V32.5946Z" fill="#9A9A9A"/>
<path d="M78.4004 26.9814H76.9648V25.2431H78.4004V23.2234H80.4667V25.2431H82.548V26.9814H80.4667V29.8995C80.4667 30.6225 80.7594 30.9321 81.4632 30.9321C81.8291 30.9321 82.1799 30.8433 82.5329 30.6658V32.389C82.1089 32.6552 81.5364 32.7873 80.7895 32.7873C79.1925 32.7873 78.4026 31.9625 78.4026 30.3108V26.9814H78.4004Z" fill="#9A9A9A"/>
<path d="M84.1721 32.5947V25.241H86.2383V26.4793C86.4578 26.0961 86.7958 25.7584 87.2628 25.477C87.732 25.1977 88.2443 25.0505 88.7867 25.0505C88.89 25.0505 88.9632 25.0505 89.0213 25.0657V27.0984C88.8448 27.0551 88.6252 27.0248 88.3756 27.0248C87.379 27.0248 86.5289 27.6439 86.2362 28.3063V32.5947H84.1699H84.1721Z" fill="#9A9A9A"/>
<path d="M91.0578 31.7266C90.2808 31.0187 89.8848 30.077 89.8848 28.9124C89.8848 27.8213 90.2356 26.9078 90.9394 26.1718C91.6432 25.4206 92.5666 25.0526 93.6944 25.0526C94.7641 25.0526 95.5992 25.4358 96.2298 26.1869C96.8604 26.9381 97.1811 27.8516 97.1811 28.9427V29.4882H91.9359C92.1555 30.4905 93.0939 31.0208 94.3831 31.0208C95.2032 31.0208 95.9802 30.8 96.727 30.3714V32.0361C96.0684 32.5362 95.145 32.7873 93.944 32.7873C92.7431 32.7873 91.8348 32.4344 91.0578 31.7266ZM95.1451 28.159C95.102 27.3494 94.5295 26.6848 93.6061 26.6848C92.6828 26.6848 92.0392 27.2888 91.9359 28.159H95.1451Z" fill="#9A9A9A"/>
</svg>
