<svg width="50" height="49" viewBox="0 0 50 49" fill="none" xmlns="http://www.w3.org/2000/svg">
<g clip-path="url(#clip0_885_1028)">
<path d="M37.7339 18.2561C37.7582 18.264 37.7575 18.3089 37.7782 18.3131C37.8322 18.3247 37.8935 18.304 37.9481 18.3143C37.9554 18.3156 38.0603 18.412 38.0603 18.4199V35.9308C38.189 35.9733 38.1914 35.8592 38.2521 35.8204C38.2982 35.7913 38.4457 35.7403 38.4893 35.7154C38.9711 35.4375 39.456 35.139 39.9329 34.9527C39.9469 34.9472 40.1131 34.7876 40.1623 34.7585C40.1938 34.7397 40.2345 34.7549 40.2679 34.744L40.3043 34.6129L40.2988 16.287C40.2745 16.2822 40.2484 16.2852 40.226 16.2719C39.9893 16.1281 39.5349 16.0249 39.2357 15.9175C38.6841 15.7203 38.0166 15.5304 37.4402 15.3726C37.0233 15.2579 36.6902 15.142 36.3024 15.0243C35.9711 14.9236 35.6289 14.8944 35.2618 14.7967C35.0039 14.7282 34.7145 14.6657 34.4147 14.5832C34.0749 14.4897 33.7575 14.4399 33.3783 14.3708C33.0858 14.3174 32.8413 14.25 32.5494 14.199C32.3091 14.1566 32.1277 14.0923 31.8874 14.1032C31.1125 13.9169 30.2199 13.855 29.4032 13.767C29.0464 13.7288 28.6356 13.6845 28.3134 13.6135C25.9845 13.5097 23.5549 13.4236 21.277 13.6766C21.0057 13.7069 20.723 13.7312 20.456 13.7646C20.3977 13.7719 20.4268 13.8228 20.3692 13.8301C20.0949 13.8647 19.7988 13.8514 19.5185 13.889C18.8522 13.977 18.2909 14.0783 17.6465 14.1997C17.0731 14.3077 16.408 14.4351 15.8716 14.5832C15.2551 14.7531 14.6599 14.8465 14.0749 15.0243C13.5713 15.1772 13.0415 15.3277 12.584 15.5055C12.3449 15.5983 12.067 15.6529 11.794 15.7403C11.3522 15.8817 10.9092 16.0601 10.4602 16.2257C10.4341 16.2355 10.419 16.3222 10.3164 16.2846L10.3443 34.7318C10.3649 34.7615 10.5397 34.8192 10.5749 34.8404C11.1859 35.2039 11.7545 35.5546 12.385 35.8738C12.4268 35.895 12.3868 35.9545 12.4693 35.9333V18.3768C12.5421 18.4102 12.5634 18.321 12.5816 18.3168C12.695 18.2925 12.8164 18.2834 12.9323 18.2482C13.6617 18.0255 14.4068 17.8477 15.1781 17.6784C15.2933 17.6529 15.4335 17.6432 15.5415 17.6171C15.8674 17.5389 16.246 17.4217 16.5561 17.3471C17.0488 17.2282 17.4839 17.1754 17.9699 17.0989C18.5009 17.0152 18.9711 16.9175 19.4918 16.8319C19.5992 16.8143 19.763 16.7743 19.8207 16.7664C20.1253 16.7264 20.4772 16.7397 20.7915 16.7063C21.1429 16.6693 21.5264 16.5795 21.885 16.5565C22.1149 16.5419 22.3977 16.5862 22.6143 16.5583C22.6726 16.551 22.6435 16.5 22.7011 16.4927C23.0088 16.4539 23.4014 16.5267 23.7187 16.4952V38.6906H26.3868V16.4952C26.3868 16.4952 26.4208 16.5006 26.4353 16.4842C26.5767 16.3216 26.7308 16.4315 26.9159 16.4363C27.4135 16.4484 28.1811 16.4345 28.6477 16.4933C28.706 16.5006 28.6768 16.5516 28.7345 16.5589C29.0033 16.5929 29.3795 16.5923 29.6768 16.6171C30.121 16.6541 30.5506 16.673 30.956 16.7682C31.0531 16.7913 31.2023 16.7537 31.3128 16.7707C31.6149 16.8174 31.9584 16.9157 32.2296 16.9806C32.4001 17.0219 32.7521 17.0122 32.9499 17.0437C33.3565 17.1092 33.7606 17.2197 34.1435 17.3058C34.5288 17.392 34.8771 17.4551 35.2782 17.5601C35.5409 17.6293 35.8352 17.6827 36.1283 17.7719C36.6344 17.926 37.1835 18.0765 37.7345 18.2573L37.7339 18.2561Z" fill="#9A9A9A"/>
<path d="M0.552734 0V49H49.5527V0H0.552734ZM48.3707 14.6456V47.8174H1.73538V1.18265H48.3707V14.6456Z" fill="#9A9A9A"/>
<path d="M43.7319 44.4211V41.0856C43.6634 41.0771 43.6239 41.0231 43.5584 41.0006C43.3236 40.9199 43.0578 40.8677 42.7847 40.7798C42.6767 40.7452 42.6585 40.7476 42.5396 40.7209C42.528 40.7185 42.4613 40.6056 42.3369 40.6608V42.6772C42.3369 42.6875 42.2969 42.7233 42.3066 42.7531H7.70948V40.6608C7.6488 40.6675 7.57477 40.6481 7.51773 40.6614C7.22768 40.73 6.85025 40.9035 6.56506 40.9921C6.49467 41.014 6.39212 41.0116 6.31445 41.0546V44.4509H43.6561C43.6664 44.4509 43.7022 44.4108 43.7319 44.4205V44.4211Z" fill="#9A9A9A"/>
<path d="M42.3369 35.2336C42.3369 35.2336 42.3794 35.2251 42.3903 35.239C42.4097 35.2639 42.3903 35.3294 42.4067 35.3774C42.4091 35.3846 42.5141 35.4526 42.5311 35.4787C42.7004 35.7354 42.8242 36.0181 42.9765 36.27C43.1664 36.5837 43.3836 36.9192 43.5784 37.2275C43.6167 37.2882 43.6476 37.4296 43.7313 37.4168V8.8537C43.7016 8.86341 43.6658 8.82336 43.6555 8.82336H27.2969V10.5212H42.3363V35.2336H42.3369Z" fill="#9A9A9A"/>
<path d="M7.29504 35.8197C7.43278 35.5916 7.55838 35.3683 7.70948 35.1577V10.5218H22.7186V8.82397H6.31445V37.4174L6.42489 37.3155C6.68339 36.7979 7.0062 36.2997 7.29443 35.8203L7.29504 35.8197Z" fill="#9A9A9A"/>
<path d="M35.7496 19.3744C35.7223 19.3641 35.7235 19.3289 35.7017 19.318C35.3764 19.1608 35.0445 19.0049 34.7326 18.8926C34.3321 18.7488 33.9608 18.6881 33.5657 18.585C33.0214 18.443 32.4007 18.281 31.7981 18.1942C31.2551 18.1159 30.7557 18.0534 30.2241 17.9788C29.9674 17.943 29.411 17.9248 29.1325 17.9187C28.7848 17.9108 28.4468 17.9976 28.0991 17.9782C28.0821 17.997 27.9966 18.0352 27.9941 18.0413V38.3872L30.1786 37.912L30.1816 20.8653C30.2356 20.8283 30.3145 20.8459 30.3673 20.8289C30.3958 20.8198 30.3795 20.7749 30.4335 20.7682C30.6592 20.7385 31.4547 20.7385 31.6804 20.7682C31.7363 20.7755 31.7199 20.8247 31.7447 20.8307C31.8491 20.855 32.1058 20.8659 32.2575 20.8896C32.5803 20.9394 32.891 20.9788 33.1871 21.0516C33.5263 21.1353 33.8437 21.244 34.1568 21.3495C34.6525 21.5176 35.1228 21.7136 35.5949 21.9794C35.6968 22.0364 35.7363 22.1275 35.8479 22.105V19.3762C35.8479 19.3714 35.7775 19.3847 35.7508 19.375L35.7496 19.3744Z" fill="#9A9A9A"/>
<path d="M21.2416 17.8889C21.1609 17.9078 21.0426 17.8786 20.9479 17.8932C20.4837 17.9666 20.0468 18.0334 19.6117 18.1038C18.6858 18.2524 17.8526 18.4873 16.9776 18.6784C16.4473 18.7943 15.8891 19.0437 15.3872 19.2215C15.0323 19.3471 14.7282 19.4108 14.406 19.591C14.3702 19.611 14.3508 19.6565 14.2871 19.6663L14.2883 36.5467C14.2968 36.5771 14.4388 36.6377 14.4782 36.6608C15.0389 36.9788 15.6233 37.324 16.1882 37.6402C16.2695 37.6857 16.3539 37.8113 16.4716 37.7815V21.7263C16.5056 21.6748 16.5656 21.6905 16.613 21.6693C16.7804 21.5953 16.9667 21.5297 17.1767 21.466C17.5966 21.3398 17.9995 21.159 18.4655 21.051C18.6506 21.0079 18.8405 20.9654 19.011 20.9241C19.4928 20.8089 19.9091 20.7815 20.366 20.7081C20.5832 20.6735 20.8781 20.5801 21.0972 20.5601C21.2713 20.5443 21.4789 20.5813 21.6433 20.5607C21.7016 20.5534 21.6724 20.5024 21.7301 20.4951C21.8454 20.4806 21.991 20.5103 22.1111 20.4976V17.7688C21.9825 17.7294 21.8951 17.8167 21.7944 17.8313C21.5735 17.8622 21.4734 17.8349 21.2416 17.8896V17.8889Z" fill="#9A9A9A"/>
<path d="M9.0549 36.5194C8.76485 36.8914 8.45174 37.3058 8.19021 37.6638C8.15259 37.7148 8.10283 37.7919 8.05914 37.8295C7.95417 37.9193 7.98876 37.9278 7.90805 38.0395C7.6441 38.4066 7.29337 38.753 7.01242 39.1384L6.79883 39.4484C6.90987 39.4994 6.96084 39.3908 6.97116 39.3884C7.35344 39.3034 7.86376 39.0492 8.21812 38.906C8.74846 38.6918 9.28002 38.4745 9.76485 38.2694C10.138 38.1117 10.4487 38.0073 10.8116 37.8519C11.1939 37.6887 11.6216 37.5401 12.0076 37.3586C12.0464 37.3404 12.0937 37.3344 12.1356 37.3253C12.1344 37.2737 12.0537 37.2919 12.0057 37.2646C11.4973 36.9715 10.973 36.605 10.4724 36.2979C10.2642 36.1705 10.0136 36.0655 9.8231 35.9302C9.79761 35.912 9.73997 35.8216 9.73269 35.8186C9.68778 35.7998 9.54944 35.8568 9.53366 35.875C9.51667 35.895 9.53609 35.946 9.52516 35.966C9.44931 36.1044 9.16897 36.3738 9.0555 36.5188L9.0549 36.5194Z" fill="#9A9A9A"/>
<path d="M38.0528 37.4163C38.2979 37.4763 38.5528 37.5916 38.7688 37.6796C39.5382 37.9933 40.2997 38.2888 41.0261 38.5971C41.6492 38.861 42.2196 39.0467 42.8446 39.3192C42.9186 39.3513 42.8701 39.3519 43.0121 39.3896C43.0261 39.3932 43.0934 39.5049 43.216 39.449L40.4186 35.8204L40.327 35.8119L37.9102 37.3265C37.989 37.304 38.0333 37.412 38.0534 37.4169L38.0528 37.4163Z" fill="#9A9A9A"/>
<path d="M24.4568 7.85258C24.4792 7.84711 24.475 7.79918 24.4986 7.79311C24.7025 7.74396 25.2529 7.74396 25.4574 7.79311C25.481 7.79857 25.4768 7.84711 25.4992 7.85258C25.5563 7.86592 25.6303 7.84651 25.691 7.85318V4.65415L25.6455 4.60864H24.3111L24.2656 4.65415V7.85318C24.3263 7.84651 24.4003 7.86592 24.4574 7.85258H24.4568Z" fill="#9A9A9A"/>
<path d="M24.0495 9.90833C24.1666 10.2912 24.2376 10.4411 24.6175 10.5928C24.6272 10.5964 24.6284 10.6335 24.6515 10.6401C24.8244 10.6905 25.129 10.6856 25.3025 10.6401C25.3268 10.6341 25.3214 10.5934 25.3481 10.5831C25.376 10.5722 25.4239 10.5904 25.4542 10.5801C25.4834 10.5703 25.8529 10.1765 25.8681 10.1322C25.893 10.0594 25.8863 9.97629 25.9039 9.90712C25.9106 9.88224 25.9567 9.88467 25.9615 9.86343C25.9718 9.82035 25.9718 9.61525 25.9615 9.57217C25.9579 9.5576 25.8826 9.361 25.8614 9.30275C25.8292 9.21355 25.7801 9.21112 25.7589 9.17836C25.7413 9.15166 25.7589 9.10251 25.7431 9.07399C25.7237 9.04001 25.5877 8.99025 25.5501 8.96234C25.521 8.94049 25.49 8.88042 25.4664 8.86586C25.288 8.75845 24.8474 8.72083 24.6496 8.76331C24.6345 8.76634 24.4397 8.94353 24.4069 8.96598C24.3814 8.98357 24.3311 8.96598 24.3025 8.98236C24.2795 8.99571 24.1017 9.30336 24.0817 9.35372C24.0198 9.50542 23.9676 9.67654 23.9894 9.84158C23.9967 9.89498 24.0416 9.88285 24.0495 9.90833Z" fill="#9A9A9A"/>
<path d="M25.5677 11.6432C25.7327 11.6372 25.7376 11.7852 25.851 11.8453C25.8881 11.8647 25.9402 11.8459 25.9578 11.8611C25.9688 11.8702 25.953 11.9193 25.9815 11.9491C26.0634 12.0328 26.2722 12.1481 26.3632 12.2215C26.5191 12.3471 26.6623 12.4946 26.8262 12.6141H28.206C28.2206 12.5601 28.1672 12.5352 28.1314 12.5061C27.8177 12.2531 27.5076 11.9096 27.2188 11.6317C26.9918 11.4139 26.7764 11.1772 26.5191 10.9964C26.4991 10.9824 26.5191 10.9424 26.493 10.946C26.4421 11.0116 26.385 11.0801 26.3243 11.1366C26.1799 11.2707 25.9912 11.4114 25.808 11.5049C25.7873 11.5152 25.4955 11.568 25.5683 11.6432H25.5677Z" fill="#9A9A9A"/>
<path d="M21.7541 12.4964L21.748 12.6141H23.1431C23.1491 12.6141 23.1679 12.5498 23.205 12.5146C23.384 12.3447 23.6121 12.1894 23.8324 12.0613C23.8955 12.0249 24.1625 11.7331 24.276 11.6536C24.299 11.6372 24.4301 11.642 24.3318 11.585C24.1042 11.4527 23.8154 11.4011 23.6449 11.1712C23.5715 11.1505 23.4908 11.0225 23.4453 10.9473L23.4004 10.946L21.9495 12.3908L21.7535 12.497L21.7541 12.4964Z" fill="#9A9A9A"/>
</g>
<defs>
<clipPath id="clip0_885_1028">
<rect width="49" height="49" fill="white" transform="translate(0.552734)"/>
</clipPath>
</defs>
</svg>
