<svg width="195" height="34" viewBox="0 0 195 34" fill="none" xmlns="http://www.w3.org/2000/svg">
<path d="M175.844 14.5449V14.0233C176.259 13.8293 176.523 13.6755 176.637 13.5618C176.704 13.5017 176.75 13.4248 176.777 13.3311C176.837 13.1439 176.877 12.7426 176.897 12.1274C176.924 11.2112 176.938 10.6662 176.938 10.4923V5.09564C176.938 4.18616 176.928 3.29674 176.907 2.42738C176.887 1.79208 176.837 1.41759 176.757 1.30391C176.683 1.18353 176.56 1.0966 176.386 1.0431C176.219 0.982914 175.737 0.946133 174.941 0.932758V0.290771C176.573 0.34427 177.583 0.37102 177.971 0.37102C178.399 0.37102 179.358 0.34427 180.85 0.290771V0.932758C180.054 0.946133 179.569 0.982914 179.395 1.0431C179.228 1.0966 179.111 1.1735 179.044 1.27381C178.964 1.40756 178.914 1.7319 178.894 2.24682C178.887 2.38057 178.874 3.33018 178.854 5.09564V11.8365C178.854 12.5387 178.867 13.1104 178.894 13.5518C179.656 13.5986 180.412 13.622 181.161 13.622C183.046 13.622 184.367 13.5017 185.123 13.2609C185.21 13.0603 185.287 12.8296 185.354 12.5688L185.755 10.9036H186.427C186.28 11.9 186.136 13.0703 185.996 14.4145C185.721 14.468 185.504 14.5014 185.344 14.5148C184.996 14.5349 184.461 14.5449 183.739 14.5449L177.8 14.4646C177.158 14.4646 176.506 14.4914 175.844 14.5449Z" fill="#9A9A9A"/>
<path d="M158.727 14.5451V13.8629C159.255 13.8563 159.583 13.8362 159.71 13.8028C159.843 13.7626 159.964 13.6924 160.071 13.5921C160.184 13.4851 160.345 13.2143 160.552 12.7796C160.673 12.5322 161.107 11.5926 161.856 9.96087L164.364 4.30336C164.638 3.68144 165.223 2.29716 166.119 0.150513H166.771L171.055 10.2116C171.75 11.8434 172.212 12.8665 172.439 13.2811C172.566 13.5152 172.703 13.669 172.85 13.7426C173.004 13.8161 173.345 13.8563 173.873 13.8629V14.5451C172.83 14.4782 172.101 14.4447 171.687 14.4447L168.457 14.5451V13.8629C169.206 13.8496 169.66 13.8262 169.821 13.7927C169.981 13.7593 170.088 13.7125 170.142 13.6523C170.202 13.5854 170.232 13.5052 170.232 13.4115C170.232 13.2644 170.185 13.0738 170.092 12.8398L168.858 9.77028H163.05L161.957 12.3483C161.763 12.8097 161.666 13.1474 161.666 13.3614C161.666 13.455 161.692 13.5319 161.746 13.5921C161.819 13.679 161.933 13.7392 162.087 13.7727C162.334 13.8262 162.769 13.8563 163.391 13.8629V14.5451C162.261 14.4849 161.415 14.4548 160.853 14.4548C160.204 14.4548 159.496 14.4849 158.727 14.5451ZM163.391 8.91764H168.457L165.949 2.86892L163.391 8.91764Z" fill="#9A9A9A"/>
<path d="M141.666 14.5449V13.9129C142.368 13.9062 142.83 13.8527 143.05 13.7524C143.144 13.7123 143.211 13.6488 143.251 13.5618C143.318 13.4281 143.365 13.077 143.392 12.5086C143.432 11.6258 143.452 10.8635 143.452 10.2215V2.0462C143.452 1.82552 143.438 1.68174 143.412 1.61487C143.358 1.4945 143.238 1.35072 143.05 1.18353C142.93 1.07654 142.79 1.00966 142.629 0.982913C142.475 0.949477 142.128 0.929415 141.586 0.922727V0.290771C142.703 0.317521 143.405 0.330896 143.692 0.330896C144.181 0.330896 144.665 0.317521 145.147 0.290771C145.715 1.03307 146.133 1.58143 146.401 1.93586L148.477 4.49378L151.507 8.14508C152.476 9.30868 153.255 10.2248 153.844 10.8936C154.218 11.3349 154.533 11.6827 154.787 11.9368V4.60412C154.787 3.94876 154.763 3.17971 154.717 2.29698C154.69 1.74193 154.646 1.39753 154.586 1.26378C154.539 1.17685 154.469 1.11332 154.376 1.07319C154.155 0.97957 153.697 0.929415 153.001 0.922727V0.290771C153.79 0.317521 154.59 0.330896 155.399 0.330896C156.161 0.330896 156.853 0.317521 157.475 0.290771V0.922727C156.78 0.929415 156.322 0.97957 156.101 1.07319C156.007 1.11332 155.94 1.18019 155.9 1.27381C155.833 1.40087 155.787 1.75196 155.76 2.32707C155.72 3.2098 155.7 3.96882 155.7 4.60412V9.42905C155.7 10.4054 155.716 12.2277 155.75 14.896L154.717 14.595L154.476 14.5449C154.436 14.5315 154.399 14.5114 154.365 14.4847C154.319 14.4513 154.192 14.3175 153.984 14.0835C153.429 13.4548 153.021 12.98 152.761 12.659L151.467 11.024L144.355 2.52769V10.2215C144.355 10.8769 144.378 11.6493 144.425 12.5387C144.451 13.0937 144.495 13.4348 144.555 13.5618C144.602 13.6555 144.672 13.7223 144.766 13.7625C144.986 13.8561 145.445 13.9062 146.14 13.9129V14.5449C145.552 14.4981 144.903 14.4747 144.194 14.4747C143.418 14.4747 142.576 14.4981 141.666 14.5449Z" fill="#9A9A9A"/>
<path d="M125.23 7.51325C125.23 6.45665 125.388 5.48029 125.702 4.58419C126.023 3.68808 126.551 2.88225 127.287 2.1667C128.022 1.45116 128.855 0.912825 129.785 0.551707C130.714 0.183903 131.777 0 132.974 0C134.078 0 135.081 0.157153 135.984 0.471459C136.887 0.779077 137.625 1.19035 138.201 1.70528C138.782 2.21352 139.24 2.77191 139.575 3.38046C139.829 3.8352 140.03 4.37019 140.177 4.98543C140.331 5.60067 140.407 6.25937 140.407 6.96154C140.407 9.21518 139.648 11.091 138.13 12.589C136.619 14.0869 134.71 14.8359 132.403 14.8359C131.353 14.8359 130.373 14.6654 129.464 14.3243C128.554 13.9833 127.785 13.4784 127.156 12.8096C126.528 12.1342 126.05 11.3184 125.722 10.3621C125.394 9.39909 125.23 8.44948 125.23 7.51325ZM127.317 6.68067C127.317 7.31597 127.38 7.9613 127.508 8.61666C127.635 9.27203 127.795 9.83711 127.989 10.3119C128.31 11.1144 128.728 11.7898 129.243 12.3382C129.764 12.8799 130.343 13.2811 130.978 13.5419C131.62 13.796 132.329 13.9231 133.105 13.9231C134.181 13.9231 135.118 13.6623 135.914 13.1407C136.709 12.6124 137.301 11.8734 137.689 10.9238C138.084 9.96751 138.281 8.86744 138.281 7.62359C138.281 6.5603 138.14 5.5806 137.86 4.6845C137.686 4.13613 137.455 3.64127 137.167 3.1999C136.88 2.75185 136.535 2.36398 136.134 2.0363C135.74 1.70193 135.225 1.42106 134.589 1.19369C133.954 0.966324 133.269 0.852639 132.533 0.852639C131.47 0.852639 130.537 1.09004 129.734 1.56484C128.932 2.03965 128.327 2.72844 127.919 3.63124C127.518 4.52734 127.317 5.54382 127.317 6.68067Z" fill="#9A9A9A"/>
<path d="M123.992 13.9029V14.5449C122.568 14.4914 121.632 14.4646 121.184 14.4646L118.084 14.5449V13.9029C118.873 13.8895 119.355 13.8561 119.528 13.8026C119.702 13.7424 119.823 13.6622 119.89 13.5618C119.97 13.4281 120.02 13.1038 120.04 12.5888C120.047 12.4484 120.06 11.4988 120.08 9.74001V5.09564C120.08 4.18616 120.07 3.29674 120.05 2.42738C120.03 1.79208 119.98 1.41759 119.9 1.30391C119.826 1.18353 119.702 1.0966 119.528 1.0431C119.361 0.982914 118.88 0.946133 118.084 0.932758V0.290771C119.361 0.337583 120.348 0.360989 121.043 0.360989C121.712 0.360989 122.695 0.337583 123.992 0.290771V0.932758C123.196 0.946133 122.712 0.982914 122.538 1.0431C122.371 1.0966 122.254 1.1735 122.187 1.27381C122.106 1.40756 122.056 1.7319 122.036 2.24682C122.03 2.38057 122.016 3.33018 121.996 5.09564V9.74001C121.996 10.6495 122.006 11.5356 122.026 12.3982C122.046 13.0335 122.093 13.4114 122.167 13.5317C122.247 13.6521 122.371 13.7424 122.538 13.8026C122.712 13.8561 123.196 13.8895 123.992 13.9029Z" fill="#9A9A9A"/>
<path d="M105.962 3.61105H105.341C105.334 2.01277 105.3 0.906009 105.24 0.290771C105.969 0.317521 107.113 0.350958 108.671 0.391082C109.935 0.417832 110.777 0.431206 111.199 0.431206C111.653 0.431206 112.707 0.411144 114.358 0.37102C115.555 0.344271 116.428 0.317521 116.977 0.290771C116.896 1.03976 116.843 2.14651 116.816 3.61105H116.174L116.094 2.64807C116.04 2.06627 116.004 1.73524 115.983 1.65499C115.963 1.57474 115.933 1.5179 115.893 1.48447C115.86 1.45103 115.806 1.42428 115.733 1.40422C115.639 1.38416 115.305 1.35741 114.73 1.32397C114.154 1.29053 113.7 1.27381 113.365 1.27381H112.142C112.075 1.9158 112.041 2.78181 112.041 3.87185V9.74001C112.041 10.6495 112.051 11.5356 112.071 12.3982C112.091 13.0335 112.138 13.4114 112.212 13.5317C112.292 13.6521 112.416 13.7424 112.583 13.8026C112.757 13.8561 113.242 13.8895 114.037 13.9029V14.5449C112.84 14.4914 111.941 14.4646 111.339 14.4646C111.078 14.4646 110.035 14.4914 108.209 14.5449V13.9029C109.005 13.8895 109.49 13.8561 109.664 13.8026C109.838 13.7424 109.955 13.6622 110.015 13.5618C110.102 13.4281 110.155 13.1038 110.176 12.5888C110.176 12.4484 110.189 11.4988 110.216 9.74001V3.89192C110.216 3.61105 110.209 3.30343 110.196 2.96906L110.135 1.27381H108.641C107.778 1.27381 107.093 1.30725 106.584 1.37412C106.424 1.39419 106.32 1.43765 106.273 1.50453C106.2 1.61821 106.133 1.98267 106.073 2.59791L105.962 3.61105Z" fill="#9A9A9A"/>
<path d="M90.4902 14.5451V13.8629C91.0185 13.8563 91.3462 13.8362 91.4733 13.8028C91.607 13.7626 91.7274 13.6924 91.8344 13.5921C91.9481 13.4851 92.1086 13.2143 92.3159 12.7796C92.4363 12.5322 92.8709 11.5926 93.6199 9.96087L96.1277 4.30336C96.4019 3.68144 96.987 2.29716 97.8831 0.150513H98.5351L102.818 10.2116C103.514 11.8434 103.975 12.8665 104.203 13.2811C104.33 13.5152 104.467 13.669 104.614 13.7426C104.768 13.8161 105.109 13.8563 105.637 13.8629V14.5451C104.594 14.4782 103.865 14.4447 103.45 14.4447L100.22 14.5451V13.8629C100.969 13.8496 101.424 13.8262 101.585 13.7927C101.745 13.7593 101.852 13.7125 101.906 13.6523C101.966 13.5854 101.996 13.5052 101.996 13.4115C101.996 13.2644 101.949 13.0738 101.855 12.8398L100.622 9.77028H94.8136L93.7202 12.3483C93.5263 12.8097 93.4293 13.1474 93.4293 13.3614C93.4293 13.455 93.4561 13.5319 93.5096 13.5921C93.5831 13.679 93.6968 13.7392 93.8506 13.7727C94.0981 13.8262 94.5327 13.8563 95.1547 13.8629V14.5451C94.0245 14.4849 93.1786 14.4548 92.6168 14.4548C91.9681 14.4548 91.2593 14.4849 90.4902 14.5451ZM95.1547 8.91764H100.22L97.7126 2.86892L95.1547 8.91764Z" fill="#9A9A9A"/>
<path d="M73.4318 14.5449V13.9129C74.134 13.9062 74.5954 13.8527 74.8161 13.7524C74.9097 13.7123 74.9766 13.6488 75.0167 13.5618C75.0836 13.4281 75.1304 13.077 75.1572 12.5086C75.1973 11.6258 75.2173 10.8635 75.2173 10.2215V2.0462C75.2173 1.82552 75.204 1.68174 75.1772 1.61487C75.1237 1.4945 75.0033 1.35072 74.8161 1.18353C74.6957 1.07654 74.5553 1.00966 74.3948 0.982913C74.241 0.949477 73.8932 0.929415 73.3516 0.922727V0.290771C74.4684 0.317521 75.1705 0.330896 75.4581 0.330896C75.9463 0.330896 76.4311 0.317521 76.9126 0.290771C77.481 1.03307 77.899 1.58143 78.1665 1.93586L80.2429 4.49378L83.2723 8.14508C84.2419 9.30868 85.021 10.2248 85.6095 10.8936C85.984 11.3349 86.2983 11.6827 86.5524 11.9368V4.60412C86.5524 3.94876 86.529 3.17971 86.4822 2.29698C86.4555 1.74193 86.412 1.39753 86.3518 1.26378C86.305 1.17685 86.2348 1.11332 86.1411 1.07319C85.9205 0.97957 85.4624 0.929415 84.7669 0.922727V0.290771C85.556 0.317521 86.3551 0.330896 87.1643 0.330896C87.9267 0.330896 88.6188 0.317521 89.2407 0.290771V0.922727C88.5453 0.929415 88.0872 0.97957 87.8665 1.07319C87.7729 1.11332 87.706 1.18019 87.6659 1.27381C87.599 1.40087 87.5522 1.75196 87.5254 2.32707C87.4853 3.2098 87.4652 3.96882 87.4652 4.60412V9.42905C87.4652 10.4054 87.482 12.2277 87.5154 14.896L86.4822 14.595L86.2415 14.5449C86.2013 14.5315 86.1645 14.5114 86.1311 14.4847C86.0843 14.4513 85.9572 14.3175 85.7499 14.0835C85.1949 13.4548 84.787 12.98 84.5261 12.659L83.2321 11.024L76.1201 2.52769V10.2215C76.1201 10.8769 76.1435 11.6493 76.1904 12.5387C76.2171 13.0937 76.2606 13.4348 76.3208 13.5618C76.3676 13.6555 76.4378 13.7223 76.5314 13.7625C76.7521 13.8561 77.2102 13.9062 77.9057 13.9129V14.5449C77.3172 14.4981 76.6685 14.4747 75.9596 14.4747C75.1839 14.4747 74.3413 14.4981 73.4318 14.5449Z" fill="#9A9A9A"/>
<path d="M59.3828 0.932923V0.290936C59.6436 0.297624 60.0415 0.307655 60.5765 0.321029L62.5025 0.371185C62.8836 0.371185 63.4755 0.35781 64.278 0.33106C65.3212 0.290936 65.9264 0.270874 66.0936 0.270874C67.3709 0.270874 68.3004 0.384559 68.8822 0.611929C69.4707 0.8393 69.9254 1.21045 70.2464 1.72538C70.5674 2.23361 70.7279 2.78867 70.7279 3.39053C70.7279 3.95227 70.5775 4.51066 70.2765 5.06571C69.9756 5.62076 69.5376 6.08219 68.9625 6.45C68.394 6.8178 67.6517 7.10201 66.7356 7.30263C66.9028 7.53669 67.2973 8.05831 67.9192 8.86748L70.4471 12.1978C71.1693 13.1273 71.5906 13.6456 71.711 13.7526C71.7712 13.7994 71.8313 13.8328 71.8915 13.8529C71.9918 13.8863 72.2125 13.9031 72.5536 13.9031V14.545C72.0453 14.5049 71.6006 14.4849 71.2194 14.4849C70.8249 14.4849 70.3401 14.5049 69.7649 14.545C69.3303 14.0435 68.6013 13.0638 67.5782 11.606C67.0098 10.7968 66.5082 10.1214 66.0735 9.57968C65.3713 8.68357 64.7026 7.87106 64.0673 7.14214L64.1676 6.84121C64.5154 6.86127 64.7795 6.8713 64.9601 6.8713C66.1772 6.8713 67.1 6.58374 67.7286 6.00863C68.3573 5.43352 68.6716 4.6745 68.6716 3.73158C68.6716 2.90904 68.4007 2.25702 67.859 1.77553C67.3174 1.28735 66.4982 1.04326 65.4014 1.04326C64.7126 1.04326 64.0372 1.14692 63.3752 1.35423C63.3484 1.71534 63.3284 2.05306 63.315 2.36736C63.3083 2.46098 63.2849 3.434 63.2448 5.2864V9.74018C63.2448 10.6497 63.2581 11.5357 63.2849 12.3984C63.2983 13.0337 63.3417 13.4115 63.4153 13.5319C63.4955 13.6523 63.6226 13.7426 63.7965 13.8027C63.9703 13.8562 64.4518 13.8897 65.2409 13.9031V14.545C64.2913 14.4915 63.4186 14.4648 62.6228 14.4648C61.9809 14.4648 60.9008 14.4915 59.3828 14.545V13.9031C60.1719 13.8897 60.6534 13.8562 60.8273 13.8027C61.0012 13.7426 61.1215 13.6623 61.1884 13.562C61.2687 13.4283 61.3188 13.1039 61.3389 12.589C61.3456 12.4486 61.3589 11.499 61.379 9.74018V5.09581C61.379 4.18632 61.369 3.29691 61.3489 2.42755C61.3288 1.79225 61.2787 1.41776 61.1984 1.30407C61.1249 1.1837 61.0012 1.09676 60.8273 1.04326C60.6601 0.983078 60.1786 0.946298 59.3828 0.932923Z" fill="#9A9A9A"/>
<path d="M46.8806 14.545V13.9131C47.5827 13.9064 48.0442 13.8529 48.2649 13.7526C48.3585 13.7125 48.4254 13.6489 48.4655 13.562C48.5323 13.4283 48.5792 13.0772 48.6059 12.5087C48.646 11.626 48.6661 10.8637 48.6661 10.2217V5.09581C48.6661 4.18632 48.6561 3.29691 48.636 2.42755C48.6159 1.79225 48.5658 1.41776 48.4855 1.30407C48.412 1.1837 48.2883 1.09676 48.1144 1.04326C47.9472 0.983078 47.4657 0.946298 46.6699 0.932923V0.290936L49.5288 0.351122L52.5581 0.300967C54.0093 0.280905 55.0626 0.270874 55.7179 0.270874C56.38 0.270874 57.0052 0.307655 57.5937 0.381216C57.4867 0.762395 57.4132 1.09342 57.373 1.37429C57.3597 1.43447 57.2995 2.12996 57.1925 3.46075H56.5605C56.5672 2.77863 56.5237 2.15671 56.4301 1.59497C56.0623 1.44116 55.6577 1.33751 55.2164 1.28401C54.4674 1.19039 53.7184 1.14357 52.9694 1.14357C52.8089 1.14357 52.4511 1.15695 51.8961 1.1837C51.341 1.21045 50.9431 1.23385 50.7024 1.25392C50.6757 1.99621 50.6556 2.6917 50.6422 3.34037L50.6021 6.73086C51.3845 6.77099 52.1034 6.79105 52.7588 6.79105C53.5546 6.79105 54.2333 6.75427 54.7951 6.68071C55.0091 6.65396 55.1462 6.60046 55.2063 6.52021C55.2665 6.43996 55.32 6.16578 55.3668 5.69767L55.427 4.99549H56.0289V5.18608L55.9787 7.27254L56.0289 9.60977H55.3267L55.2966 8.92766C55.2832 8.4328 55.2364 8.12518 55.1562 8.00481C55.0826 7.88444 54.9388 7.80084 54.7248 7.75403C54.3437 7.67378 53.6047 7.63366 52.508 7.63366C52.0599 7.63366 51.4246 7.65038 50.6021 7.68381C50.5687 8.35255 50.5519 9.34562 50.5519 10.663C50.5519 11.9002 50.5687 12.8398 50.6021 13.4818C51.5651 13.5553 52.6451 13.5921 53.8421 13.5921C54.6914 13.5921 55.2966 13.5653 55.6577 13.5118C56.0189 13.4584 56.3532 13.3681 56.6608 13.241C56.7411 13.0337 56.8213 12.7528 56.9016 12.3984C57.0487 11.8032 57.1457 11.3552 57.1925 11.0542H57.8545C57.6807 12.4051 57.5937 13.5252 57.5937 14.4146C57.0186 14.5016 56.3198 14.545 55.4972 14.545L49.5087 14.4648C49.4218 14.4648 48.5457 14.4915 46.8806 14.545Z" fill="#9A9A9A"/>
<path d="M34.5172 3.61105H33.8952C33.8885 2.01277 33.8551 0.906009 33.7949 0.290771C34.5238 0.317521 35.6674 0.350958 37.2255 0.391082C38.4894 0.417832 39.3321 0.431206 39.7534 0.431206C40.2081 0.431206 41.2614 0.411144 42.9131 0.37102C44.1102 0.344271 44.9829 0.317521 45.5312 0.290771C45.451 1.03976 45.3975 2.14651 45.3707 3.61105H44.7288L44.6485 2.64807C44.595 2.06627 44.5582 1.73524 44.5382 1.65499C44.5181 1.57474 44.488 1.5179 44.4479 1.48447C44.4145 1.45103 44.361 1.42428 44.2874 1.40422C44.1938 1.38416 43.8594 1.35741 43.2843 1.32397C42.7092 1.29053 42.2544 1.27381 41.9201 1.27381H40.6963C40.6294 1.9158 40.596 2.78181 40.596 3.87185V9.74001C40.596 10.6495 40.606 11.5356 40.6261 12.3982C40.6461 13.0335 40.6929 13.4114 40.7665 13.5317C40.8467 13.6521 40.9705 13.7424 41.1376 13.8026C41.3115 13.8561 41.7963 13.8895 42.5921 13.9029V14.5449C41.3951 14.4914 40.4957 14.4646 39.8938 14.4646C39.633 14.4646 38.5898 14.4914 36.7641 14.5449V13.9029C37.5599 13.8895 38.0447 13.8561 38.2186 13.8026C38.3925 13.7424 38.5095 13.6622 38.5697 13.5618C38.6566 13.4281 38.7101 13.1038 38.7302 12.5888C38.7302 12.4484 38.7436 11.4988 38.7703 9.74001V3.89192C38.7703 3.61105 38.7636 3.30343 38.7503 2.96906L38.6901 1.27381H37.1954C36.3328 1.27381 35.6473 1.30725 35.1391 1.37412C34.9786 1.39419 34.8749 1.43765 34.8281 1.50453C34.7546 1.61821 34.6877 1.98267 34.6275 2.59791L34.5172 3.61105Z" fill="#9A9A9A"/>
<path d="M16.6564 14.5449V13.9129C17.3586 13.9062 17.82 13.8527 18.0407 13.7524C18.1343 13.7123 18.2012 13.6488 18.2413 13.5618C18.3082 13.4281 18.355 13.077 18.3818 12.5086C18.4219 11.6258 18.4419 10.8635 18.4419 10.2215V2.0462C18.4419 1.82552 18.4286 1.68174 18.4018 1.61487C18.3483 1.4945 18.228 1.35072 18.0407 1.18353C17.9203 1.07654 17.7799 1.00966 17.6194 0.982913C17.4656 0.949477 17.1178 0.929415 16.5762 0.922727V0.290771C17.693 0.317521 18.3951 0.330896 18.6827 0.330896C19.1709 0.330896 19.6557 0.317521 20.1372 0.290771C20.7056 1.03307 21.1236 1.58143 21.3911 1.93586L23.4675 4.49378L26.4969 8.14508C27.4665 9.30868 28.2456 10.2248 28.8341 10.8936C29.2086 11.3349 29.5229 11.6827 29.777 11.9368V4.60412C29.777 3.94876 29.7536 3.17971 29.7068 2.29698C29.6801 1.74193 29.6366 1.39753 29.5764 1.26378C29.5296 1.17685 29.4594 1.11332 29.3658 1.07319C29.1451 0.97957 28.687 0.929415 27.9915 0.922727V0.290771C28.7806 0.317521 29.5797 0.330896 30.3889 0.330896C31.1513 0.330896 31.8434 0.317521 32.4653 0.290771V0.922727C31.7699 0.929415 31.3118 0.97957 31.0911 1.07319C30.9975 1.11332 30.9306 1.18019 30.8905 1.27381C30.8236 1.40087 30.7768 1.75196 30.75 2.32707C30.7099 3.2098 30.6898 3.96882 30.6898 4.60412V9.42905C30.6898 10.4054 30.7066 12.2277 30.74 14.896L29.7068 14.595L29.4661 14.5449C29.4259 14.5315 29.3892 14.5114 29.3557 14.4847C29.3089 14.4513 29.1818 14.3175 28.9745 14.0835C28.4195 13.4548 28.0116 12.98 27.7508 12.659L26.4567 11.024L19.3447 2.52769V10.2215C19.3447 10.8769 19.3681 11.6493 19.415 12.5387C19.4417 13.0937 19.4852 13.4348 19.5454 13.5618C19.5922 13.6555 19.6624 13.7223 19.756 13.7625C19.9767 13.8561 20.4348 13.9062 21.1303 13.9129V14.5449C20.5418 14.4981 19.8931 14.4747 19.1842 14.4747C18.4085 14.4747 17.5659 14.4981 16.6564 14.5449Z" fill="#9A9A9A"/>
<path d="M15.338 13.9029V14.5449C13.9136 14.4914 12.9773 14.4646 12.5293 14.4646L9.42969 14.5449V13.9029C10.2188 13.8895 10.7003 13.8561 10.8742 13.8026C11.048 13.7424 11.1684 13.6622 11.2353 13.5618C11.3155 13.4281 11.3657 13.1038 11.3857 12.5888C11.3924 12.4484 11.4058 11.4988 11.4259 9.74001V5.09564C11.4259 4.18616 11.4158 3.29674 11.3958 2.42738C11.3757 1.79208 11.3256 1.41759 11.2453 1.30391C11.1717 1.18353 11.048 1.0966 10.8742 1.0431C10.707 0.982914 10.2255 0.946133 9.42969 0.932758V0.290771C10.707 0.337583 11.6934 0.360989 12.3888 0.360989C13.0576 0.360989 14.0406 0.337583 15.338 0.290771V0.932758C14.5422 0.946133 14.0573 0.982914 13.8835 1.0431C13.7163 1.0966 13.5993 1.1735 13.5324 1.27381C13.4521 1.40756 13.402 1.7319 13.3819 2.24682C13.3752 2.38057 13.3619 3.33018 13.3418 5.09564V9.74001C13.3418 10.6495 13.3518 11.5356 13.3719 12.3982C13.3919 13.0335 13.4388 13.4114 13.5123 13.5317C13.5926 13.6521 13.7163 13.7424 13.8835 13.8026C14.0573 13.8561 14.5422 13.8895 15.338 13.9029Z" fill="#9A9A9A"/>
<path d="M158.247 32.9184V32.4535C158.763 32.4486 159.103 32.4092 159.265 32.3354C159.334 32.3059 159.383 32.2592 159.413 32.1952C159.462 32.0968 159.496 31.8386 159.516 31.4204C159.546 30.771 159.56 30.2101 159.56 29.7378V25.9669C159.56 25.2978 159.553 24.6435 159.538 24.004C159.523 23.5366 159.487 23.2611 159.427 23.1774C159.373 23.0889 159.282 23.0249 159.154 22.9856C159.031 22.9413 158.677 22.9142 158.092 22.9044V22.4321L160.195 22.4764L162.424 22.4395C163.491 22.4247 164.266 22.4174 164.748 22.4174C165.235 22.4174 165.695 22.4444 166.128 22.4985C166.049 22.779 165.995 23.0225 165.966 23.2291C165.956 23.2734 165.912 23.785 165.833 24.764H165.368C165.373 24.2622 165.341 23.8047 165.272 23.3915C165.001 23.2783 164.704 23.202 164.379 23.1627C163.828 23.0938 163.277 23.0594 162.726 23.0594C162.608 23.0594 162.345 23.0692 161.937 23.0889C161.528 23.1086 161.235 23.1258 161.058 23.1406C161.039 23.6866 161.024 24.1983 161.014 24.6755L160.985 27.1698C161.56 27.1993 162.089 27.214 162.571 27.214C163.157 27.214 163.656 27.187 164.069 27.1329C164.227 27.1132 164.327 27.0738 164.372 27.0148C164.416 26.9558 164.455 26.7541 164.49 26.4097L164.534 25.8931H164.977V26.0333L164.94 27.5683L164.977 29.2877H164.46L164.438 28.7859C164.428 28.4218 164.394 28.1955 164.335 28.107C164.281 28.0184 164.175 27.9569 164.018 27.9225C163.737 27.8634 163.194 27.8339 162.387 27.8339C162.057 27.8339 161.59 27.8462 160.985 27.8708C160.96 28.3628 160.948 29.0934 160.948 30.0625C160.948 30.9727 160.96 31.6639 160.985 32.1362C161.693 32.1903 162.488 32.2174 163.368 32.2174C163.993 32.2174 164.438 32.1977 164.704 32.1583C164.97 32.119 165.215 32.0526 165.442 31.9591C165.501 31.8066 165.56 31.5999 165.619 31.3392C165.727 30.9014 165.798 30.5717 165.833 30.3503H166.32C166.192 31.3441 166.128 32.1682 166.128 32.8225C165.705 32.8864 165.191 32.9184 164.586 32.9184L160.18 32.8594C160.116 32.8594 159.472 32.8791 158.247 32.9184Z" fill="#9A9A9A"/>
<path d="M147.809 22.9044V22.4321C148 22.437 148.293 22.4444 148.687 22.4543L150.104 22.4912C150.384 22.4912 150.819 22.4813 151.41 22.4616C152.177 22.4321 152.623 22.4174 152.745 22.4174C153.685 22.4174 154.369 22.501 154.797 22.6683C155.23 22.8355 155.564 23.1086 155.801 23.4874C156.037 23.8613 156.155 24.2696 156.155 24.7124C156.155 25.1256 156.044 25.5364 155.823 25.9448C155.601 26.3531 155.279 26.6926 154.856 26.9631C154.438 27.2337 153.892 27.4428 153.218 27.5904C153.341 27.7626 153.631 28.1463 154.089 28.7416L155.948 31.1916C156.48 31.8755 156.789 32.2567 156.878 32.3354C156.922 32.3699 156.967 32.3945 157.011 32.4092C157.085 32.4338 157.247 32.4461 157.498 32.4461V32.9184C157.124 32.8889 156.797 32.8741 156.516 32.8741C156.226 32.8741 155.869 32.8889 155.446 32.9184C155.127 32.5494 154.59 31.8287 153.838 30.7562C153.419 30.1609 153.051 29.6641 152.731 29.2656C152.214 28.6063 151.722 28.0086 151.255 27.4723L151.329 27.2509C151.584 27.2657 151.779 27.2731 151.912 27.2731C152.807 27.2731 153.486 27.0615 153.948 26.6384C154.411 26.2154 154.642 25.657 154.642 24.9633C154.642 24.3582 154.443 23.8785 154.044 23.5243C153.646 23.1652 153.043 22.9856 152.236 22.9856C151.73 22.9856 151.233 23.0618 150.746 23.2143C150.726 23.48 150.711 23.7285 150.701 23.9597C150.696 24.0286 150.679 24.7444 150.65 26.1071V29.3836C150.65 30.0527 150.66 30.7046 150.679 31.3392C150.689 31.8066 150.721 32.0845 150.775 32.1731C150.834 32.2616 150.928 32.3281 151.056 32.3723C151.183 32.4117 151.538 32.4363 152.118 32.4461V32.9184C151.42 32.8791 150.778 32.8594 150.192 32.8594C149.72 32.8594 148.925 32.8791 147.809 32.9184V32.4461C148.389 32.4363 148.743 32.4117 148.871 32.3723C148.999 32.3281 149.088 32.269 149.137 32.1952C149.196 32.0968 149.233 31.8582 149.248 31.4794C149.253 31.3761 149.262 30.6775 149.277 29.3836V25.9669C149.277 25.2978 149.27 24.6435 149.255 24.004C149.24 23.5366 149.203 23.2611 149.144 23.1774C149.09 23.0889 148.999 23.0249 148.871 22.9856C148.748 22.9413 148.394 22.9142 147.809 22.9044Z" fill="#9A9A9A"/>
<path d="M138.904 24.8748H138.447C138.442 23.6989 138.417 22.8847 138.373 22.4321C138.909 22.4518 139.751 22.4764 140.897 22.5059C141.827 22.5256 142.447 22.5354 142.756 22.5354C143.091 22.5354 143.866 22.5207 145.081 22.4912C145.962 22.4715 146.604 22.4518 147.007 22.4321C146.948 22.9831 146.909 23.7973 146.889 24.8748H146.417L146.358 24.1663C146.318 23.7383 146.291 23.4948 146.277 23.4357C146.262 23.3767 146.24 23.3349 146.21 23.3103C146.186 23.2857 146.146 23.266 146.092 23.2513C146.023 23.2365 145.777 23.2168 145.354 23.1922C144.931 23.1676 144.596 23.1553 144.35 23.1553H143.45C143.401 23.6276 143.376 24.2647 143.376 25.0666V29.3836C143.376 30.0527 143.384 30.7046 143.399 31.3392C143.413 31.8066 143.448 32.0845 143.502 32.1731C143.561 32.2617 143.652 32.3281 143.775 32.3723C143.903 32.4117 144.259 32.4363 144.845 32.4461V32.9184C143.964 32.8791 143.303 32.8594 142.86 32.8594C142.668 32.8594 141.9 32.8791 140.557 32.9184V32.4461C141.143 32.4363 141.5 32.4117 141.627 32.3723C141.755 32.3281 141.841 32.269 141.886 32.1952C141.95 32.0968 141.989 31.8582 142.004 31.4794C142.004 31.3761 142.014 30.6775 142.033 29.3836V25.0814C142.033 24.8748 142.028 24.6484 142.019 24.4025L141.974 23.1553H140.875C140.24 23.1553 139.736 23.1799 139.362 23.2291C139.244 23.2439 139.168 23.2759 139.133 23.3251C139.079 23.4087 139.03 23.6768 138.986 24.1294L138.904 24.8748Z" fill="#9A9A9A"/>
<path d="M125.766 32.9184V32.4535C126.283 32.4486 126.622 32.4092 126.784 32.3355C126.853 32.3059 126.903 32.2592 126.932 32.1952C126.981 32.0968 127.016 31.8386 127.035 31.4204C127.065 30.771 127.08 30.2101 127.08 29.7379V23.7235C127.08 23.5612 127.07 23.4554 127.05 23.4062C127.011 23.3177 126.922 23.2119 126.784 23.0889C126.696 23.0102 126.593 22.961 126.474 22.9413C126.361 22.9167 126.106 22.902 125.707 22.897V22.4321C126.529 22.4518 127.045 22.4616 127.257 22.4616C127.616 22.4616 127.973 22.4518 128.327 22.4321C128.745 22.9782 129.052 23.3816 129.249 23.6424L130.777 25.5242L133.005 28.2103C133.719 29.0663 134.292 29.7403 134.725 30.2323C135 30.557 135.232 30.8128 135.418 30.9998V25.6053C135.418 25.1232 135.401 24.5574 135.367 23.908C135.347 23.4997 135.315 23.2463 135.271 23.1479C135.236 23.084 135.185 23.0373 135.116 23.0077C134.954 22.9389 134.617 22.902 134.105 22.897V22.4321C134.685 22.4518 135.273 22.4616 135.869 22.4616C136.429 22.4616 136.939 22.4518 137.396 22.4321V22.897C136.885 22.902 136.548 22.9389 136.385 23.0077C136.316 23.0373 136.267 23.0864 136.238 23.1553C136.188 23.2488 136.154 23.5071 136.134 23.9302C136.105 24.5796 136.09 25.138 136.09 25.6053V29.1549C136.09 29.8732 136.102 31.2138 136.127 33.1767L135.367 32.9553L135.19 32.9184C135.16 32.9086 135.133 32.8938 135.109 32.8742C135.074 32.8496 134.981 32.7512 134.828 32.579C134.42 32.1165 134.12 31.7672 133.928 31.5311L132.976 30.3282L127.744 24.0778V29.7379C127.744 30.22 127.761 30.7882 127.795 31.4425C127.815 31.8509 127.847 32.1018 127.891 32.1952C127.926 32.2641 127.977 32.3133 128.046 32.3428C128.209 32.4117 128.546 32.4486 129.057 32.4535V32.9184C128.624 32.884 128.147 32.8668 127.626 32.8668C127.055 32.8668 126.435 32.884 125.766 32.9184Z" fill="#9A9A9A"/>
<path d="M116.479 32.9184V32.4535C116.996 32.4486 117.335 32.4092 117.498 32.3354C117.566 32.3059 117.616 32.2592 117.645 32.1952C117.694 32.0968 117.729 31.8386 117.748 31.4204C117.778 30.771 117.793 30.2101 117.793 29.7378V25.9669C117.793 25.2978 117.785 24.6435 117.771 24.004C117.756 23.5366 117.719 23.2611 117.66 23.1774C117.606 23.0889 117.515 23.0249 117.387 22.9856C117.264 22.9413 116.91 22.9142 116.324 22.9044V22.4321L118.427 22.4764L120.656 22.4395C121.724 22.4247 122.498 22.4174 122.981 22.4174C123.468 22.4174 123.928 22.4444 124.361 22.4985C124.282 22.779 124.228 23.0225 124.198 23.2291C124.188 23.2734 124.144 23.785 124.065 24.764H123.6C123.605 24.2622 123.573 23.8047 123.504 23.3915C123.234 23.2783 122.936 23.202 122.612 23.1627C122.061 23.0938 121.51 23.0594 120.959 23.0594C120.84 23.0594 120.577 23.0692 120.169 23.0889C119.761 23.1086 119.468 23.1258 119.291 23.1406C119.271 23.6866 119.256 24.1983 119.247 24.6755L119.217 27.1698C119.793 27.1993 120.321 27.214 120.804 27.214C121.389 27.214 121.888 27.187 122.302 27.1329C122.459 27.1132 122.56 27.0738 122.604 27.0148C122.648 26.9558 122.688 26.7541 122.722 26.4097L122.767 25.8931H123.209V26.0333L123.172 27.5683L123.209 29.2877H122.693L122.671 28.7859C122.661 28.4218 122.626 28.1955 122.567 28.107C122.513 28.0184 122.407 27.9569 122.25 27.9225C121.97 27.8634 121.426 27.8339 120.619 27.8339C120.289 27.8339 119.822 27.8462 119.217 27.8708C119.192 28.3628 119.18 29.0934 119.18 30.0625C119.18 30.9727 119.192 31.6639 119.217 32.1362C119.925 32.1903 120.72 32.2174 121.601 32.2174C122.225 32.2174 122.671 32.1977 122.936 32.1583C123.202 32.119 123.448 32.0526 123.674 31.9591C123.733 31.8066 123.792 31.5999 123.851 31.3392C123.96 30.9014 124.031 30.5717 124.065 30.3503H124.552C124.424 31.3441 124.361 32.1682 124.361 32.8225C123.937 32.8864 123.423 32.9184 122.818 32.9184L118.413 32.8594C118.349 32.8594 117.704 32.8791 116.479 32.9184Z" fill="#9A9A9A"/>
<path d="M115.384 31.6123L115.096 32.2986C114.52 32.5888 113.957 32.7979 113.406 32.9258C112.855 33.0587 112.255 33.1251 111.605 33.1251C110.843 33.1251 110.134 33.0291 109.48 32.8373C108.826 32.6454 108.253 32.3724 107.761 32.0181C107.274 31.659 106.875 31.2581 106.565 30.8153C106.255 30.3725 106.019 29.8928 105.857 29.3763C105.694 28.8548 105.613 28.2841 105.613 27.6642C105.613 26.0949 106.159 24.7961 107.252 23.7678C108.349 22.7347 109.844 22.2181 111.738 22.2181C112.186 22.2181 112.599 22.2452 112.978 22.2993C113.362 22.3485 113.827 22.4469 114.373 22.5945C114.924 22.7372 115.261 22.8208 115.384 22.8454C115.276 23.116 115.194 23.3816 115.14 23.6424C115.062 24.0606 115.007 24.5452 114.978 25.0962H114.513L114.506 24.2254C114.456 23.7432 114.188 23.3841 113.701 23.148C113.219 22.9118 112.511 22.7937 111.576 22.7937C110.877 22.8036 110.285 22.8946 109.797 23.0668C109.31 23.2341 108.88 23.5022 108.506 23.8712C108.137 24.2352 107.835 24.7001 107.598 25.2659C107.362 25.8267 107.242 26.5327 107.237 27.3838C107.237 28.8745 107.692 30.0749 108.602 30.985C109.512 31.8902 110.715 32.3428 112.211 32.3428C112.885 32.3428 113.509 32.2494 114.085 32.0624C114.479 31.9345 114.87 31.7328 115.258 31.4573L115.384 31.6123Z" fill="#9A9A9A"/>
<path d="M93.5488 32.5569C93.6276 32.0846 93.6743 31.3196 93.689 30.2618H94.1909C94.2155 30.9801 94.2548 31.4056 94.3089 31.5385C94.368 31.6664 94.5057 31.8041 94.7222 31.9517C94.9386 32.0993 95.2289 32.2322 95.593 32.3502C95.957 32.4634 96.3088 32.52 96.6482 32.52C97.1451 32.52 97.6027 32.4068 98.0208 32.1805C98.439 31.9493 98.744 31.6492 98.9359 31.2802C99.1278 30.9063 99.2237 30.5078 99.2237 30.0847C99.2237 29.76 99.1745 29.4796 99.0761 29.2434C98.9826 29.0073 98.8375 28.8179 98.6407 28.6752C98.4439 28.5276 98.2004 28.4243 97.9101 28.3653C97.7281 28.3358 97.364 28.2866 96.818 28.2177C96.2719 28.1488 95.807 28.0726 95.4232 27.9889C94.9116 27.8315 94.5352 27.647 94.2942 27.4355C94.0531 27.2239 93.8563 26.946 93.7038 26.6016C93.5562 26.2572 93.4824 25.8858 93.4824 25.4873C93.4824 24.9067 93.6325 24.3607 93.9326 23.849C94.2376 23.3324 94.6853 22.9315 95.2756 22.6462C95.8709 22.3608 96.5154 22.2181 97.2091 22.2181C97.6273 22.2181 98.0823 22.2747 98.5743 22.3879C99.0712 22.4961 99.5336 22.656 99.9616 22.8675C99.8928 23.1775 99.8436 23.4677 99.8141 23.7383C99.7845 24.004 99.7624 24.3976 99.7476 24.919H99.2458C99.2311 24.1614 99.2089 23.7482 99.1794 23.6793C99.0564 23.5022 98.8892 23.3423 98.6776 23.1996C98.1709 22.9143 97.642 22.7716 97.091 22.7716C96.3777 22.7716 95.807 22.9905 95.379 23.4284C94.9559 23.8613 94.7443 24.4246 94.7443 25.1183C94.7443 25.5365 94.8206 25.8612 94.9731 26.0924C95.1256 26.3187 95.3986 26.5007 95.7922 26.6385C96.0628 26.7319 96.5056 26.8205 97.1205 26.9041C97.7355 26.9829 98.289 27.0689 98.7809 27.1624C99.2434 27.3002 99.5853 27.465 99.8067 27.6569C100.028 27.8438 100.21 28.0922 100.353 28.4022C100.495 28.7072 100.567 29.0663 100.567 29.4796C100.567 30.4586 100.161 31.3122 99.3491 32.0403C98.5374 32.7684 97.487 33.1325 96.1981 33.1325C95.224 33.1325 94.3409 32.9406 93.5488 32.5569Z" fill="#9A9A9A"/>
<path d="M85.457 32.5569C85.5358 32.0846 85.5825 31.3196 85.5973 30.2618H86.0991C86.1237 30.9801 86.163 31.4056 86.2171 31.5385C86.2762 31.6664 86.4139 31.8041 86.6304 31.9517C86.8468 32.0993 87.1371 32.2322 87.5012 32.3502C87.8652 32.4634 88.217 32.52 88.5564 32.52C89.0533 32.52 89.5109 32.4068 89.929 32.1805C90.3472 31.9493 90.6522 31.6492 90.8441 31.2802C91.036 30.9063 91.1319 30.5078 91.1319 30.0847C91.1319 29.76 91.0827 29.4796 90.9843 29.2434C90.8908 29.0073 90.7457 28.8179 90.5489 28.6752C90.3521 28.5276 90.1086 28.4243 89.8183 28.3653C89.6363 28.3358 89.2723 28.2866 88.7262 28.2177C88.1801 28.1488 87.7152 28.0726 87.3314 27.9889C86.8198 27.8315 86.4434 27.647 86.2024 27.4355C85.9613 27.2239 85.7645 26.946 85.612 26.6016C85.4644 26.2572 85.3906 25.8858 85.3906 25.4873C85.3906 24.9067 85.5407 24.3607 85.8408 23.849C86.1458 23.3324 86.5935 22.9315 87.1839 22.6462C87.7791 22.3608 88.4236 22.2181 89.1173 22.2181C89.5355 22.2181 89.9905 22.2747 90.4825 22.3879C90.9794 22.4961 91.4418 22.656 91.8698 22.8675C91.801 23.1775 91.7518 23.4677 91.7223 23.7383C91.6927 24.004 91.6706 24.3976 91.6558 24.919H91.154C91.1393 24.1614 91.1171 23.7482 91.0876 23.6793C90.9646 23.5022 90.7974 23.3423 90.5858 23.1996C90.0791 22.9143 89.5502 22.7716 88.9992 22.7716C88.2859 22.7716 87.7152 22.9905 87.2872 23.4284C86.8641 23.8613 86.6525 24.4246 86.6525 25.1183C86.6525 25.5365 86.7288 25.8612 86.8813 26.0924C87.0338 26.3187 87.3068 26.5007 87.7004 26.6385C87.971 26.7319 88.4138 26.8205 89.0287 26.9041C89.6437 26.9829 90.1972 27.0689 90.6891 27.1624C91.1516 27.3002 91.4935 27.465 91.7149 27.6569C91.9363 27.8438 92.1183 28.0922 92.261 28.4022C92.4036 28.7072 92.475 29.0663 92.475 29.4796C92.475 30.4586 92.0691 31.3122 91.2573 32.0403C90.4456 32.7684 89.3952 33.1325 88.1063 33.1325C87.1322 33.1325 86.2491 32.9406 85.457 32.5569Z" fill="#9A9A9A"/>
<path d="M76.11 32.9184V32.4535C76.6266 32.4486 76.9661 32.4092 77.1284 32.3354C77.1973 32.3059 77.2465 32.2592 77.276 32.1952C77.3252 32.0968 77.3596 31.8386 77.3793 31.4204C77.4088 30.771 77.4236 30.2101 77.4236 29.7378V25.9669C77.4236 25.2978 77.4162 24.6435 77.4015 24.004C77.3867 23.5366 77.3498 23.2611 77.2908 23.1774C77.2367 23.0889 77.1456 23.0249 77.0177 22.9856C76.8947 22.9413 76.5405 22.9142 75.9551 22.9044V22.4321L78.0582 22.4764L80.2869 22.4395C81.3544 22.4247 82.1293 22.4174 82.6114 22.4174C83.0985 22.4174 83.5585 22.4444 83.9914 22.4985C83.9127 22.779 83.8585 23.0225 83.829 23.2291C83.8192 23.2734 83.7749 23.785 83.6962 24.764H83.2313C83.2362 24.2622 83.2042 23.8047 83.1354 23.3915C82.8648 23.2783 82.5671 23.202 82.2424 23.1627C81.6914 23.0938 81.1404 23.0594 80.5894 23.0594C80.4713 23.0594 80.2081 23.0692 79.7998 23.0889C79.3915 23.1086 79.0988 23.1258 78.9216 23.1406C78.902 23.6866 78.8872 24.1983 78.8774 24.6755L78.8479 27.1698C79.4235 27.1993 79.9523 27.214 80.4345 27.214C81.0199 27.214 81.5192 27.187 81.9325 27.1329C82.0899 27.1132 82.1908 27.0738 82.2351 27.0148C82.2793 26.9558 82.3187 26.7541 82.3531 26.4097L82.3974 25.8931H82.8402V26.0333L82.8033 27.5683L82.8402 29.2877H82.3236L82.3015 28.7859C82.2916 28.4218 82.2572 28.1955 82.1982 28.107C82.144 28.0184 82.0383 27.9569 81.8808 27.9225C81.6004 27.8634 81.0568 27.8339 80.25 27.8339C79.9203 27.8339 79.453 27.8462 78.8479 27.8708C78.8233 28.3628 78.811 29.0934 78.811 30.0625C78.811 30.9727 78.8233 31.6639 78.8479 32.1362C79.5563 32.1903 80.3508 32.2174 81.2314 32.2174C81.8562 32.2174 82.3015 32.1977 82.5671 32.1583C82.8328 32.119 83.0788 32.0526 83.3051 31.9591C83.3641 31.8066 83.4232 31.5999 83.4822 31.3392C83.5904 30.9014 83.6618 30.5717 83.6962 30.3503H84.1832C84.0553 31.3441 83.9914 32.1682 83.9914 32.8225C83.5683 32.8864 83.0542 32.9184 82.4491 32.9184L78.0435 32.8594C77.9795 32.8594 77.335 32.8791 76.11 32.9184Z" fill="#9A9A9A"/>
<path d="M63.2954 32.9184V32.4535C63.8119 32.4486 64.1514 32.4092 64.3137 32.3355C64.3826 32.3059 64.4318 32.2592 64.4613 32.1952C64.5105 32.0968 64.545 31.8386 64.5646 31.4204C64.5942 30.771 64.6089 30.2101 64.6089 29.7379V23.7235C64.6089 23.5612 64.5991 23.4554 64.5794 23.4062C64.54 23.3177 64.4515 23.2119 64.3137 23.0889C64.2252 23.0102 64.1219 22.961 64.0038 22.9413C63.8906 22.9167 63.6348 22.902 63.2363 22.897V22.4321C64.0579 22.4518 64.5745 22.4616 64.786 22.4616C65.1452 22.4616 65.5018 22.4518 65.8561 22.4321C66.2742 22.9782 66.5817 23.3816 66.7785 23.6424L68.3061 25.5242L70.5347 28.2103C71.248 29.0663 71.8212 29.7403 72.2541 30.2323C72.5296 30.557 72.7608 30.8128 72.9478 30.9998V25.6053C72.9478 25.1232 72.9306 24.5574 72.8961 23.908C72.8764 23.4997 72.8445 23.2463 72.8002 23.1479C72.7658 23.084 72.7141 23.0373 72.6452 23.0077C72.4829 22.9389 72.1459 22.902 71.6342 22.897V22.4321C72.2147 22.4518 72.8026 22.4616 73.3979 22.4616C73.9588 22.4616 74.468 22.4518 74.9255 22.4321V22.897C74.4138 22.902 74.0768 22.9389 73.9145 23.0077C73.8456 23.0373 73.7964 23.0864 73.7669 23.1553C73.7177 23.2488 73.6833 23.5071 73.6636 23.9302C73.6341 24.5796 73.6193 25.138 73.6193 25.6053V29.1549C73.6193 29.8732 73.6316 31.2138 73.6562 33.1767L72.8961 32.9553L72.719 32.9184C72.6895 32.9086 72.6624 32.8938 72.6378 32.8742C72.6034 32.8496 72.5099 32.7512 72.3574 32.579C71.9491 32.1165 71.649 31.7672 71.4571 31.5311L70.5052 30.3282L65.2731 24.0778V29.7379C65.2731 30.22 65.2903 30.7882 65.3247 31.4425C65.3444 31.8509 65.3764 32.1018 65.4207 32.1952C65.4551 32.2641 65.5068 32.3133 65.5756 32.3428C65.738 32.4117 66.075 32.4486 66.5866 32.4535V32.9184C66.1537 32.884 65.6765 32.8668 65.155 32.8668C64.5843 32.8668 63.9644 32.884 63.2954 32.9184Z" fill="#9A9A9A"/>
<path d="M62.327 32.4461V32.9184C61.2791 32.8791 60.5904 32.8594 60.2607 32.8594L57.9805 32.9184V32.4461C58.561 32.4363 58.9152 32.4117 59.0431 32.3723C59.171 32.3281 59.2596 32.269 59.3088 32.1952C59.3678 32.0968 59.4047 31.8582 59.4195 31.4794C59.4244 31.3761 59.4342 30.6775 59.449 29.3836V25.9669C59.449 25.2978 59.4416 24.6435 59.4269 24.004C59.4121 23.5366 59.3752 23.2611 59.3162 23.1775C59.262 23.0889 59.171 23.025 59.0431 22.9856C58.9201 22.9413 58.5659 22.9143 57.9805 22.9044V22.4321C58.9201 22.4666 59.6458 22.4838 60.1574 22.4838C60.6494 22.4838 61.3726 22.4666 62.327 22.4321V22.9044C61.7416 22.9143 61.3849 22.9413 61.257 22.9856C61.134 23.025 61.0479 23.0815 60.9987 23.1553C60.9397 23.2537 60.9028 23.4923 60.888 23.8711C60.8831 23.9695 60.8732 24.6681 60.8585 25.9669V29.3836C60.8585 30.0527 60.8659 30.7046 60.8806 31.3392C60.8954 31.8066 60.9298 32.0845 60.9839 32.1731C61.043 32.2617 61.134 32.3281 61.257 32.3723C61.3849 32.4117 61.7416 32.4363 62.327 32.4461Z" fill="#9A9A9A"/>
<path d="M50.0215 32.5569C50.1002 32.0846 50.1469 31.3196 50.1617 30.2618H50.6635C50.6881 30.9801 50.7275 31.4056 50.7816 31.5385C50.8406 31.6664 50.9784 31.8041 51.1948 31.9517C51.4113 32.0993 51.7016 32.2322 52.0656 32.3502C52.4297 32.4634 52.7814 32.52 53.1209 32.52C53.6178 32.52 54.0753 32.4068 54.4935 32.1805C54.9117 31.9493 55.2167 31.6492 55.4085 31.2802C55.6004 30.9063 55.6963 30.5078 55.6963 30.0847C55.6963 29.76 55.6472 29.4796 55.5488 29.2434C55.4553 29.0073 55.3102 28.8179 55.1134 28.6752C54.9166 28.5276 54.6731 28.4243 54.3828 28.3653C54.2008 28.3358 53.8367 28.2866 53.2906 28.2177C52.7445 28.1488 52.2796 28.0726 51.8959 27.9889C51.3842 27.8315 51.0079 27.647 50.7668 27.4355C50.5258 27.2239 50.329 26.946 50.1765 26.6016C50.0289 26.2572 49.9551 25.8858 49.9551 25.4873C49.9551 24.9067 50.1051 24.3607 50.4052 23.849C50.7102 23.3324 51.1579 22.9315 51.7483 22.6462C52.3436 22.3608 52.9881 22.2181 53.6817 22.2181C54.0999 22.2181 54.555 22.2747 55.047 22.3879C55.5438 22.4961 56.0063 22.656 56.4343 22.8675C56.3654 23.1775 56.3162 23.4677 56.2867 23.7383C56.2572 24.004 56.2351 24.3976 56.2203 24.919H55.7185C55.7037 24.1614 55.6816 23.7482 55.6521 23.6793C55.5291 23.5022 55.3618 23.3423 55.1503 23.1996C54.6435 22.9143 54.1147 22.7716 53.5637 22.7716C52.8503 22.7716 52.2796 22.9905 51.8516 23.4284C51.4285 23.8613 51.217 24.4246 51.217 25.1183C51.217 25.5365 51.2932 25.8612 51.4457 26.0924C51.5983 26.3187 51.8713 26.5007 52.2649 26.6385C52.5355 26.7319 52.9782 26.8205 53.5932 26.9041C54.2081 26.9829 54.7616 27.0689 55.2536 27.1624C55.716 27.3002 56.0579 27.465 56.2793 27.6569C56.5007 27.8438 56.6827 28.0922 56.8254 28.4022C56.9681 28.7072 57.0394 29.0663 57.0394 29.4796C57.0394 30.4586 56.6335 31.3122 55.8218 32.0403C55.0101 32.7684 53.9597 33.1325 52.6707 33.1325C51.6966 33.1325 50.8136 32.9406 50.0215 32.5569Z" fill="#9A9A9A"/>
<path d="M37.8477 22.9044V22.4321C38.6496 22.4715 39.3949 22.4912 40.0837 22.4912C40.7822 22.4912 41.4759 22.4715 42.1647 22.4321V22.9044C41.5842 22.9143 41.2299 22.9413 41.102 22.9856C40.9741 23.025 40.888 23.0815 40.8437 23.1553C40.7798 23.2537 40.7404 23.4923 40.7257 23.8711C40.7208 23.9695 40.7109 24.6681 40.6962 25.9669V28.6973C40.6962 29.7551 40.7626 30.4537 40.8954 30.7931C41.0332 31.1277 41.2496 31.4056 41.5448 31.627C41.7711 31.7943 42.0761 31.9296 42.4599 32.0329C42.8436 32.1313 43.2716 32.1805 43.7439 32.1805C44.2949 32.1805 44.7844 32.1141 45.2124 31.9812C45.6404 31.8435 45.9602 31.6787 46.1718 31.4868C46.3882 31.29 46.5481 31.0711 46.6514 30.83C46.7597 30.589 46.8359 30.2593 46.8802 29.8412C46.9294 29.4181 46.954 28.8843 46.954 28.2398V25.9669C46.954 25.2978 46.9442 24.6435 46.9245 24.004C46.9146 23.5366 46.8802 23.2611 46.8212 23.1775C46.767 23.0889 46.676 23.025 46.5481 22.9856C46.4202 22.9413 46.066 22.9143 45.4855 22.9044V22.4321C46.2972 22.4715 46.89 22.4912 47.2639 22.4912C47.6034 22.4912 48.2159 22.4715 49.1014 22.4321V22.9044C48.516 22.9143 48.1593 22.9413 48.0314 22.9856C47.9084 23.025 47.8223 23.0815 47.7731 23.1553C47.7141 23.2537 47.6772 23.4923 47.6624 23.8711C47.6575 23.9695 47.6477 24.6681 47.6329 25.9669V28.4391C47.6329 29.6542 47.5468 30.5029 47.3746 30.985C47.2074 31.4671 46.8974 31.8927 46.4448 32.2617C46.1053 32.5372 45.6675 32.7512 45.1312 32.9037C44.5999 33.0562 44.0096 33.1324 43.3602 33.1324C42.6025 33.1324 41.9458 33.0439 41.3898 32.8668C40.8339 32.6847 40.4108 32.4486 40.1205 32.1583C39.8303 31.8632 39.631 31.5631 39.5228 31.258C39.3851 30.8546 39.3162 30.1782 39.3162 29.2287V25.9669C39.3162 25.2978 39.3088 24.6435 39.294 24.004C39.2793 23.5366 39.2424 23.2611 39.1834 23.1775C39.1292 23.0889 39.0382 23.025 38.9103 22.9856C38.7873 22.9413 38.4331 22.9143 37.8477 22.9044Z" fill="#9A9A9A"/>
<path d="M29.048 32.9184V32.5716C29.3531 32.4191 29.5228 32.3256 29.5572 32.2912C29.5917 32.2518 29.6187 32.1854 29.6384 32.0919C29.6679 31.9443 29.6925 31.6319 29.7122 31.1547C29.7368 30.6726 29.7491 30.3061 29.7491 30.0552V25.6053C29.7491 25.1232 29.7343 24.5574 29.7048 23.908C29.6851 23.4997 29.6507 23.2463 29.6015 23.1479C29.5671 23.084 29.5154 23.0372 29.4465 23.0077C29.2842 22.9388 28.9472 22.9019 28.4355 22.897V22.4321C28.5979 22.442 28.8021 22.4469 29.048 22.4469L30.583 22.4838L33.2987 22.4174C34.0169 22.4174 34.5704 22.4912 34.959 22.6387C35.3477 22.7863 35.6503 23.0274 35.8667 23.3619C36.0881 23.6916 36.1988 24.0605 36.1988 24.4689C36.1988 24.7936 36.1324 25.0986 35.9996 25.3839C35.8716 25.6693 35.697 25.9177 35.4756 26.1293C35.2591 26.3359 35.0156 26.5056 34.745 26.6384C34.4794 26.7664 34.1301 26.8844 33.6971 26.9927C34.2728 27.0468 34.7377 27.128 35.0919 27.2362C35.4461 27.3395 35.7413 27.4969 35.9774 27.7085C36.2185 27.9151 36.4005 28.1685 36.5235 28.4686C36.6465 28.7687 36.708 29.1032 36.708 29.4722C36.708 30.2003 36.4866 30.8423 36.0438 31.3982C35.606 31.9492 35.0402 32.3576 34.3465 32.6232C33.83 32.82 33.2175 32.9184 32.509 32.9184L30.369 32.8594C30.1378 32.8594 29.6974 32.8791 29.048 32.9184ZM31.1512 26.786C31.4316 26.8008 31.6776 26.8082 31.8892 26.8082C32.4992 26.8082 32.969 26.7614 33.2987 26.668C33.6332 26.5745 33.8915 26.4515 34.0735 26.299C34.2555 26.1465 34.4056 25.9399 34.5237 25.6791C34.6466 25.4184 34.7081 25.1133 34.7081 24.764C34.7081 24.1491 34.5114 23.7063 34.1178 23.4357C33.7291 23.1602 33.1584 23.0225 32.4057 23.0225C31.9876 23.0225 31.5915 23.0594 31.2176 23.1332C31.1734 23.5415 31.1512 24.1737 31.1512 25.0297V26.786ZM31.1734 32.1583C31.5423 32.2469 31.931 32.2912 32.3393 32.2912C32.9887 32.2912 33.5127 32.1928 33.9112 31.996C34.3096 31.7943 34.6147 31.4917 34.8262 31.0883C35.0427 30.6849 35.1509 30.2224 35.1509 29.701C35.1509 29.1844 35.0501 28.7515 34.8484 28.4022C34.6466 28.0479 34.3441 27.7872 33.9407 27.6199C33.5422 27.4477 32.8829 27.3616 31.963 27.3616C31.7514 27.3616 31.4808 27.3715 31.1512 27.3912V30.188C31.1512 30.4586 31.1586 31.1154 31.1734 32.1583Z" fill="#9A9A9A"/>
<path d="M0.525391 17.5569H194.5V18.7617H0.525391V17.5569Z" fill="#9A9A9A"/>
</svg>
