<svg width="105" height="25" viewBox="0 0 105 25" fill="none" xmlns="http://www.w3.org/2000/svg">
<path d="M79.4805 12.4175V12.4861V24.6981H85.0032V12.4175V12.3489C85.0032 8.23261 87.9532 4.87096 92.2067 4.87096C96.4602 4.87096 99.4789 8.30122 99.4789 12.4175V12.4861V24.6981H105.002V12.4175V12.3489C105.002 5.52271 99.6847 0 92.2753 0C84.866 0 79.4805 5.59132 79.4805 12.4175Z" fill="#9A9A9A"/>
<path d="M64.3298 24.8351C56.9204 24.8351 51.6035 19.3123 51.6035 12.4861V12.4175C51.6035 5.59132 56.989 0 64.3984 0C71.8077 0 77.1246 5.52271 77.1246 12.3489V12.4175C77.1246 19.2437 71.7391 24.8351 64.3298 24.8351Z" fill="#9A9A9A"/>
<mask id="mask0_412_432" style="mask-type:alpha" maskUnits="userSpaceOnUse" x="51" y="0" width="27" height="25">
<path d="M64.3298 24.8351C56.9204 24.8351 51.6035 19.3123 51.6035 12.4861V12.4175C51.6035 5.59132 56.989 0 64.3984 0C71.8077 0 77.1246 5.52271 77.1246 12.3489V12.4175C77.1246 19.2437 71.7391 24.8351 64.3298 24.8351Z" fill="white"/>
</mask>
<g mask="url(#mask0_412_432)">
<path d="M72.4294 33.3287C65.02 33.3287 59.7031 27.806 59.7031 20.9798V20.9112C59.7031 14.085 65.0886 8.49365 72.498 8.49365C79.9073 8.49365 85.2242 14.0164 85.2242 20.8426V20.9112C85.2242 27.7374 79.8387 33.3287 72.4294 33.3287Z" fill="#A6A6A6"/>
</g>
<path d="M38.9242 24.7664C35.2538 24.7664 31.6177 23.5316 28.7363 20.9246L31.8579 17.1856C34.0532 18.9693 36.2829 20.1013 39.0271 20.1013C41.2225 20.1013 42.4917 19.2437 42.4917 17.8373V17.7687C42.4917 16.4309 41.6684 15.7106 37.655 14.7158C32.784 13.5152 29.6968 12.1088 29.6968 7.37505V7.30644C29.6968 2.95002 33.1614 0.0686035 38.1009 0.0686035C41.6341 0.0686035 44.5498 1.16629 47.0196 3.12153L44.2754 7.10063C42.1143 5.62562 40.0905 4.73375 38.0323 4.73375C35.9742 4.73375 34.9451 5.62562 34.9451 6.82621V6.89481C34.9451 8.50703 35.9742 8.95297 40.1248 10.0506C44.9957 11.3541 47.7399 13.0693 47.7399 17.2542V17.3228C47.7399 22.0908 44.1039 24.7664 38.9242 24.7664Z" fill="#9A9A9A"/>
<path d="M12.7262 24.8351C5.3169 24.8351 0 19.3123 0 12.4861V12.4175C0 5.59132 5.3855 0 12.7949 0C20.2042 0 25.5211 5.52271 25.5211 12.3489V12.4175C25.5211 19.2437 20.1356 24.8351 12.7262 24.8351ZM12.7949 19.9641C17.0484 19.9641 19.9984 16.6024 19.9984 12.4861V12.4175C19.9984 8.30122 16.9798 4.87096 12.7262 4.87096C8.47273 4.87096 5.52271 8.23262 5.52271 12.3489V12.4175C5.52271 16.5338 8.54134 19.9641 12.7949 19.9641Z" fill="#9A9A9A"/>
</svg>
