<svg width="186" height="35" viewBox="0 0 186 35" fill="none" xmlns="http://www.w3.org/2000/svg">
<mask id="mask0_412_333" style="mask-type:luminance" maskUnits="userSpaceOnUse" x="0" y="0" width="186" height="35">
<path d="M185.553 0H0.552734V34.5264H185.553V0Z" fill="white"/>
</mask>
<g mask="url(#mask0_412_333)">
<path d="M26.1355 22.604C26.1355 28.8079 20.8305 34.5264 13.3444 34.5264C9.49359 34.5264 6.18141 32.9889 3.9194 30.6692C2.81533 29.5632 1.95362 28.2145 1.38812 26.8119C0.0955397 23.629 0.230182 19.9066 2.38447 16.5618L10.1938 4.36975L11.1093 2.94014C11.244 2.72435 11.594 2.72435 11.7287 2.94014L12.6442 4.36975L13.4252 5.58356L18.0569 12.8665L20.7228 17.0205L21.4768 18.2072C21.6384 18.4501 21.7731 18.7198 21.9077 18.9626C22.527 20.1763 22.8233 21.4441 22.8233 22.6849C22.8233 26.9198 19.4842 30.804 14.6639 31.3704C14.5023 31.3974 14.3677 31.3974 14.2062 31.3974C14.0715 31.3974 13.9368 31.4244 13.7753 31.4244C13.6407 31.4244 13.506 31.4244 13.3983 31.4244C13.2636 31.4244 12.9674 31.4244 12.9405 31.4244V29.5902V29.5632L17.3837 22.4152H12.375V26.8119C12.375 28.5112 11.4594 29.9948 9.84372 30.831C9.17045 30.5882 8.55114 30.2645 7.95869 29.8869C7.79712 29.779 7.60862 29.6441 7.44705 29.5363C5.91212 28.4034 4.78112 26.785 4.26948 25.0047C4.08097 24.3303 3.94633 23.629 3.9194 22.9276C3.89247 21.3632 4.26948 19.7448 5.2389 18.2342L10.1669 10.5198L11.3787 8.63161V9.38685C11.3787 11.3559 10.7862 13.298 9.73595 14.9974L7.01619 19.1783C6.39683 20.1763 6.04676 21.2014 5.9929 22.2264C5.96597 22.7389 5.9929 23.2513 6.04676 23.7368C6.39683 25.7599 7.74327 27.5942 9.68215 28.6191C10.0053 28.1606 10.2207 27.5942 10.2745 27.0007V20.4461H19.6995V22.3882L15.4987 29.2935C18.6493 28.4303 20.7497 25.679 20.7497 22.7119C20.7497 22.1994 20.6959 21.6869 20.5613 21.1474C20.3997 20.473 20.1035 19.8526 19.7265 19.2053L19.5649 18.9356L16.2527 13.8375L13.3713 9.3059L12.1595 7.41778L11.5402 6.44672C11.4863 6.33883 11.3248 6.33883 11.244 6.44672L4.13483 17.5869C2.84226 19.6099 2.4114 21.7678 2.68068 23.8718C2.81533 24.9507 3.1654 26.0027 3.65012 26.9737C4.13483 27.9178 4.75418 28.7809 5.53512 29.5363C5.64283 29.6441 5.75055 29.752 5.85826 29.8599C6.50455 30.4263 7.23162 30.9389 8.03948 31.3704C8.09334 31.3974 8.1472 31.4244 8.20105 31.4514C9.14355 31.9369 10.1399 32.2606 11.244 32.4764C11.9172 32.5843 12.6173 32.6652 13.3444 32.6652H13.3713C19.6187 32.6382 24.062 27.8639 24.062 22.6849C24.062 20.9855 23.5773 19.2593 22.527 17.5869L19.2148 12.3539L13.3444 3.15592L12.1326 1.26776L11.3248 0C12.8058 0 14.2062 0.728291 14.987 1.94211L21.0191 11.329L24.3582 16.5349C25.5969 18.504 26.1355 20.608 26.1355 22.604Z" fill="#9A9A9A"/>
<path d="M45.0776 14.5657C43.8658 15.7525 42.3579 16.3459 40.5536 16.3459C38.7494 16.3459 37.2414 15.7525 36.0566 14.5657C34.8717 13.3788 34.2793 11.9222 34.2793 10.1959C34.2793 8.49653 34.8717 7.01301 36.0835 5.82617C37.2953 4.63932 38.8033 4.0459 40.6075 4.0459C42.4117 4.0459 43.9197 4.63932 45.1046 5.82617C46.2894 7.01301 46.8818 8.46955 46.8818 10.1959C46.8818 11.9222 46.3164 13.3788 45.0776 14.5657ZM38.0224 12.8394C38.7225 13.5676 39.5573 13.9183 40.5806 13.9183C41.6038 13.9183 42.4925 13.5406 43.1388 12.8394C43.7851 12.138 44.1621 11.2209 44.1621 10.1689C44.1621 9.14393 43.812 8.2268 43.1388 7.52551C42.4387 6.79722 41.6038 6.44656 40.5806 6.44656C39.5573 6.44656 38.6686 6.82419 38.0224 7.52551C37.3492 8.2268 36.999 9.14393 36.999 10.1959C36.999 11.2209 37.3492 12.138 38.0224 12.8394Z" fill="#9A9A9A"/>
<path d="M48.793 9.62945V7.33671C48.793 6.25777 49.0353 5.44855 49.5739 4.93605C50.1125 4.42355 50.8934 4.18078 51.9167 4.15381L52.1591 5.23276C50.9742 5.34066 50.4087 5.93408 50.4895 6.90514H51.5397V9.62945H48.793Z" fill="#9A9A9A"/>
<path d="M53.748 16.1573V14.1612L60.2917 6.52763H53.9635V4.23486H63.6847V6.20394L57.1142 13.8375H63.6578V16.1303H53.748V16.1573Z" fill="#9A9A9A"/>
<path d="M70.1739 16.3189C68.2351 16.3189 66.5386 15.6716 65.1113 14.4038L66.6463 12.5426C67.8042 13.5136 68.9891 13.9992 70.2008 13.9992C70.7394 13.9992 71.1434 13.9183 71.4665 13.7025C71.7897 13.4867 71.9243 13.2169 71.9243 12.8394C71.9243 12.4887 71.7628 12.2189 71.4396 12.0032C71.1165 11.7874 70.4702 11.5715 69.5008 11.3018C68.8006 11.14 68.262 10.9512 67.8581 10.7893C67.4541 10.6275 67.0233 10.4117 66.6732 10.1419C66.2962 9.87219 66 9.52159 65.8384 9.11695C65.6499 8.71238 65.596 8.19982 65.596 7.63341C65.596 6.55446 65.9731 5.6913 66.754 5.04393C67.5349 4.36958 68.5313 4.0459 69.77 4.0459C71.4396 4.0459 72.9476 4.5584 74.1863 5.55643L72.8399 7.52551C71.7089 6.74327 70.6856 6.36564 69.7431 6.36564C69.2584 6.36564 68.8814 6.44656 68.6121 6.66235C68.3428 6.87814 68.2351 7.1209 68.2351 7.44459C68.2351 7.82222 68.3967 8.11895 68.7198 8.30774C69.0429 8.49653 69.7431 8.71238 70.7933 9.0091C72.0859 9.3597 73.0553 9.79132 73.6477 10.3308C74.2671 10.8703 74.5633 11.6255 74.5633 12.6236C74.5633 13.7834 74.1863 14.7005 73.3785 15.3479C72.5436 15.9952 71.4934 16.3189 70.1739 16.3189Z" fill="#9A9A9A"/>
<path d="M81.7824 16.3461C80.139 16.3461 78.9006 15.8875 77.9851 14.9974C77.0964 14.1072 76.6387 12.7855 76.6387 11.0592V4.23486H79.2507V10.9783C79.2507 11.9224 79.4931 12.6506 79.9238 13.1631C80.355 13.6757 81.0014 13.9185 81.8362 13.9185C82.671 13.9185 83.2897 13.6757 83.7478 13.1901C84.1783 12.7046 84.4212 12.0033 84.4212 11.0592V4.23486H87.0331V10.9513C87.0331 12.7316 86.5749 14.0533 85.6595 14.9704C84.6902 15.8606 83.3973 16.3461 81.7824 16.3461Z" fill="#9A9A9A"/>
<path d="M93.4667 16.2381L88.6465 4.23486H91.5274L94.6243 12.6237L97.7213 4.23486H100.549L95.7558 16.2381H93.4667Z" fill="#9A9A9A"/>
<path d="M105.155 16.1573V6.6625H101.547V4.23486H111.403V6.6625H107.768V16.1573H105.155Z" fill="#9A9A9A"/>
<path d="M110.863 16.1571L115.953 4.15381H118.376L123.465 16.1571H120.746L119.668 13.4867H114.633L113.556 16.1571H110.863ZM115.548 11.167H118.726L117.137 7.30974L115.548 11.167Z" fill="#9A9A9A"/>
<path d="M123.277 9.71052L123.035 8.63158C124.22 8.52366 124.785 7.93022 124.705 6.9592H123.654V4.23486H126.401V6.52763C126.401 7.60657 126.158 8.41581 125.62 8.9283C125.081 9.44079 124.3 9.68354 123.277 9.71052Z" fill="#9A9A9A"/>
<path d="M128.799 16.1573V4.23486H131.626L134.75 9.27898L137.874 4.23486H140.701V16.1573H138.116V8.38883L134.777 13.4599H134.696L131.384 8.41581V16.1303L128.799 16.1573Z" fill="#9A9A9A"/>
<path d="M143.662 16.1573V4.23486H146.274V16.1573H143.662Z" fill="#9A9A9A"/>
<path d="M149.264 16.1573V4.23486H151.687L157.262 11.5717V4.23486H159.82V16.1573H157.584L151.822 8.6046V16.1573H149.264Z" fill="#9A9A9A"/>
<path d="M172.988 14.5657C171.776 15.7525 170.268 16.3459 168.464 16.3459C166.659 16.3459 165.152 15.7525 163.967 14.5657C162.782 13.3788 162.189 11.9222 162.189 10.1959C162.189 8.49653 162.782 7.01301 163.993 5.82617C165.206 4.63932 166.713 4.0459 168.518 4.0459C170.322 4.0459 171.83 4.63932 173.014 5.82617C174.2 7.01301 174.792 8.46955 174.792 10.1959C174.792 11.9222 174.2 13.3788 172.988 14.5657ZM165.905 12.8394C166.605 13.5676 167.44 13.9183 168.464 13.9183C169.487 13.9183 170.376 13.5406 171.022 12.8394C171.695 12.138 172.045 11.2209 172.045 10.1689C172.045 9.14393 171.695 8.2268 171.022 7.52551C170.322 6.79722 169.487 6.44656 168.464 6.44656C167.44 6.44656 166.552 6.82419 165.905 7.52551C165.233 8.2268 164.882 9.14393 164.882 10.1959C164.882 11.2209 165.206 12.138 165.905 12.8394Z" fill="#9A9A9A"/>
<path d="M179.369 16.1573V6.66249H175.734V4.23486H185.59V6.66249H181.954V16.1573H179.369Z" fill="#9A9A9A"/>
<path d="M34.7461 25.1152V24.5772C34.7461 24.4137 34.775 24.2403 34.8328 24.057C34.8926 23.8716 34.9782 23.6933 35.0899 23.5219C35.2034 23.3485 35.34 23.198 35.4994 23.0705L35.8821 23.3814C35.7565 23.5607 35.6468 23.7481 35.5532 23.9434C35.4615 24.1367 35.4157 24.344 35.4157 24.5652V25.1152H34.7461ZM36.2767 25.1152V24.5772C36.2767 24.4137 36.3056 24.2403 36.3633 24.057C36.4231 23.8716 36.5088 23.6933 36.6204 23.5219C36.734 23.3485 36.8705 23.198 37.0299 23.0705L37.4126 23.3814C37.287 23.5607 37.1774 23.7481 37.0837 23.9434C36.9921 24.1367 36.9462 24.344 36.9462 24.5652V25.1152H36.2767ZM38.287 29.3242V23.2021H41.958V23.8597H39.0284V25.9284H41.6829V26.586H39.0284V29.3242H38.287ZM44.4832 29.4318C44.1922 29.4318 43.9282 29.3771 43.691 29.2674C43.4539 29.1559 43.2655 28.9954 43.126 28.7862C42.9865 28.5749 42.9168 28.3198 42.9168 28.0209C42.9168 27.7578 42.9686 27.5446 43.0722 27.3812C43.1758 27.2157 43.3143 27.0862 43.4878 26.9925C43.6611 26.8989 43.8524 26.8291 44.0617 26.7833C44.2729 26.7354 44.4852 26.6976 44.6984 26.6697C44.9774 26.6338 45.2036 26.6069 45.377 26.589C45.5524 26.569 45.68 26.5362 45.7597 26.4903C45.8414 26.4445 45.8822 26.3647 45.8822 26.2512V26.2273C45.8822 25.9323 45.8015 25.7031 45.6401 25.5397C45.4807 25.3763 45.2385 25.2946 44.9137 25.2946C44.5768 25.2946 44.3128 25.3683 44.1215 25.5158C43.9301 25.6633 43.7956 25.8207 43.7179 25.9881L43.0483 25.749C43.1679 25.4699 43.3273 25.2527 43.5266 25.0973C43.7279 24.9399 43.9471 24.8302 44.1843 24.7685C44.4234 24.7047 44.6586 24.6728 44.8898 24.6728C45.0372 24.6728 45.2067 24.6907 45.398 24.7266C45.5913 24.7605 45.7776 24.8312 45.957 24.9388C46.1383 25.0465 46.2888 25.2089 46.4083 25.4261C46.5279 25.6434 46.5877 25.9343 46.5877 26.299V29.3242H45.8822V28.7025H45.8464C45.7985 28.8021 45.7188 28.9087 45.6072 29.0223C45.4956 29.1359 45.3471 29.2326 45.1618 29.3123C44.9764 29.392 44.7503 29.4318 44.4832 29.4318ZM44.5908 28.7981C44.8698 28.7981 45.105 28.7433 45.2963 28.6337C45.4896 28.5241 45.6351 28.3826 45.7328 28.2092C45.8324 28.0358 45.8822 27.8535 45.8822 27.6621V27.0165C45.8523 27.0523 45.7866 27.0852 45.6849 27.1151C45.5853 27.143 45.4697 27.1679 45.3382 27.1899C45.2086 27.2098 45.082 27.2277 44.9585 27.2437C44.8369 27.2576 44.7383 27.2695 44.6626 27.2795C44.4792 27.3035 44.3078 27.3423 44.1484 27.3961C43.9909 27.448 43.8634 27.5267 43.7657 27.6322C43.6701 27.7359 43.6223 27.8774 43.6223 28.0567C43.6223 28.3019 43.7129 28.4873 43.8943 28.6127C44.0776 28.7363 44.3098 28.7981 44.5908 28.7981ZM47.8754 29.3242V24.7326H48.5569V25.4261H48.6048C48.6885 25.1989 48.84 25.0146 49.0591 24.8731C49.2784 24.7316 49.5255 24.6609 49.8005 24.6609C49.8524 24.6609 49.9171 24.6618 49.9949 24.6638C50.0726 24.6659 50.1314 24.6688 50.1712 24.6728V25.3902C50.1473 25.3842 50.0925 25.3753 50.0068 25.3633C49.9231 25.3494 49.8344 25.3425 49.7407 25.3425C49.5175 25.3425 49.3183 25.3892 49.1429 25.4829C48.9695 25.5746 48.832 25.7022 48.7303 25.8655C48.6307 26.027 48.5808 26.2113 48.5808 26.4186V29.3242H47.8754ZM52.7212 31.1418C52.3804 31.1418 52.0874 31.098 51.8423 31.0102C51.5971 30.9245 51.3928 30.811 51.2294 30.6695C51.068 30.5299 50.9394 30.3805 50.8438 30.221L51.4058 29.8264C51.4696 29.9101 51.5503 30.0058 51.6479 30.1134C51.7456 30.2231 51.8791 30.3177 52.0485 30.3974C52.2199 30.4791 52.4442 30.52 52.7212 30.52C53.0918 30.52 53.3978 30.4303 53.6389 30.2509C53.88 30.0716 54.0006 29.7906 54.0006 29.4079V28.4753H53.9408C53.889 28.5589 53.8152 28.6626 53.7196 28.7862C53.6259 28.9077 53.4904 29.0164 53.313 29.112C53.1377 29.2057 52.9005 29.2525 52.6015 29.2525C52.2308 29.2525 51.898 29.1648 51.6031 28.9895C51.3101 28.814 51.078 28.5589 50.9066 28.2242C50.7372 27.8894 50.6525 27.4828 50.6525 27.0045C50.6525 26.5341 50.7352 26.1246 50.9006 25.7759C51.066 25.4251 51.2962 25.1541 51.5911 24.9627C51.8861 24.7694 52.2269 24.6728 52.6135 24.6728C52.9124 24.6728 53.1496 24.7226 53.325 24.8223C53.5024 24.9199 53.6379 25.0315 53.7315 25.1571C53.8272 25.2807 53.9009 25.3823 53.9527 25.462H54.0245V24.7326H54.7061V29.4558C54.7061 29.8504 54.6164 30.1713 54.4371 30.4184C54.2597 30.6674 54.0205 30.8498 53.7196 30.9654C53.4206 31.083 53.0878 31.1418 52.7212 31.1418ZM52.6972 28.6188C52.9802 28.6188 53.2193 28.554 53.4147 28.4244C53.61 28.2949 53.7584 28.1086 53.8601 27.8654C53.9617 27.6223 54.0126 27.3313 54.0126 26.9925C54.0126 26.6617 53.9627 26.3697 53.8631 26.1167C53.7634 25.8636 53.6159 25.6653 53.4206 25.5218C53.2254 25.3783 52.9842 25.3065 52.6972 25.3065C52.3983 25.3065 52.1492 25.3823 51.9499 25.5337C51.7526 25.6852 51.6041 25.8885 51.5045 26.1436C51.4068 26.3987 51.358 26.6816 51.358 26.9925C51.358 27.3114 51.4078 27.5934 51.5075 27.8385C51.6091 28.0817 51.7585 28.273 51.9559 28.4125C52.1551 28.55 52.4023 28.6188 52.6972 28.6188ZM57.5997 24.1108L56.6671 22.7238H57.4921L58.2216 24.1108H57.5997ZM62.0472 29.4199C61.6327 29.4199 61.269 29.3212 60.9561 29.124C60.6452 28.9266 60.4021 28.6506 60.2267 28.2959C60.0533 27.9411 59.9666 27.5267 59.9666 27.0523C59.9666 26.574 60.0533 26.1565 60.2267 25.7998C60.4021 25.443 60.6452 25.166 60.9561 24.9687C61.269 24.7714 61.6327 24.6728 62.0472 24.6728C62.4617 24.6728 62.8244 24.7714 63.1354 24.9687C63.4482 25.166 63.6914 25.443 63.8647 25.7998C64.0401 26.1565 64.1278 26.574 64.1278 27.0523C64.1278 27.5267 64.0401 27.9411 63.8647 28.2959C63.6914 28.6506 63.4482 28.9266 63.1354 29.124C62.8244 29.3212 62.4617 29.4199 62.0472 29.4199ZM62.0472 28.7862C62.3621 28.7862 62.6211 28.7055 62.8244 28.5441C63.0277 28.3826 63.1782 28.1704 63.2758 27.9073C63.3734 27.6443 63.4223 27.3593 63.4223 27.0523C63.4223 26.7454 63.3734 26.4595 63.2758 26.1944C63.1782 25.9293 63.0277 25.7151 62.8244 25.5517C62.6211 25.3883 62.3621 25.3065 62.0472 25.3065C61.7323 25.3065 61.4733 25.3883 61.27 25.5517C61.0667 25.7151 60.9162 25.9293 60.8186 26.1944C60.7209 26.4595 60.6721 26.7454 60.6721 27.0523C60.6721 27.3593 60.7209 27.6443 60.8186 27.9073C60.9162 28.1704 61.0667 28.3826 61.27 28.5441C61.4733 28.7055 61.7323 28.7862 62.0472 28.7862ZM65.9102 26.5621V29.3242H65.2047V24.7326H65.8863V25.4501H65.9461C66.0537 25.2169 66.2171 25.0295 66.4364 24.888C66.6555 24.7445 66.9386 24.6728 67.2853 24.6728C67.5962 24.6728 67.8683 24.7366 68.1014 24.8641C68.3345 24.9896 68.5159 25.181 68.6455 25.4381C68.775 25.6931 68.8398 26.016 68.8398 26.4066V29.3242H68.1343V26.4545C68.1343 26.0937 68.0406 25.8128 67.8533 25.6115C67.6659 25.4082 67.4089 25.3065 67.082 25.3065C66.8568 25.3065 66.6555 25.3554 66.4782 25.453C66.3028 25.5507 66.1643 25.6931 66.0626 25.8805C65.9611 26.0679 65.9102 26.295 65.9102 26.5621ZM71.4801 29.4318C71.1892 29.4318 70.9251 29.3771 70.6879 29.2674C70.4508 29.1559 70.2625 28.9954 70.123 28.7862C69.9835 28.5749 69.9137 28.3198 69.9137 28.0209C69.9137 27.7578 69.9655 27.5446 70.0692 27.3812C70.1728 27.2157 70.3113 27.0862 70.4847 26.9925C70.658 26.8989 70.8494 26.8291 71.0586 26.7833C71.2699 26.7354 71.4821 26.6976 71.6954 26.6697C71.9743 26.6338 72.2006 26.6069 72.3739 26.589C72.5493 26.569 72.6769 26.5362 72.7566 26.4903C72.8383 26.4445 72.8791 26.3647 72.8791 26.2512V26.2273C72.8791 25.9323 72.7984 25.7031 72.637 25.5397C72.4776 25.3763 72.2355 25.2946 71.9106 25.2946C71.5738 25.2946 71.3098 25.3683 71.1185 25.5158C70.9271 25.6633 70.7926 25.8207 70.7148 25.9881L70.0452 25.749C70.1649 25.4699 70.3243 25.2527 70.5235 25.0973C70.7248 24.9399 70.9441 24.8302 71.1812 24.7685C71.4203 24.7047 71.6556 24.6728 71.8867 24.6728C72.0342 24.6728 72.2036 24.6907 72.3949 24.7266C72.5882 24.7605 72.7745 24.8312 72.9539 24.9388C73.1353 25.0465 73.2858 25.2089 73.4053 25.4261C73.5249 25.6434 73.5847 25.9343 73.5847 26.299V29.3242H72.8791V28.7025H72.8433C72.7954 28.8021 72.7157 28.9087 72.6042 29.0223C72.4925 29.1359 72.3441 29.2326 72.1587 29.3123C71.9734 29.392 71.7472 29.4318 71.4801 29.4318ZM71.5877 28.7981C71.8667 28.7981 72.1019 28.7433 72.2932 28.6337C72.4866 28.5241 72.632 28.3826 72.7297 28.2092C72.8294 28.0358 72.8791 27.8535 72.8791 27.6621V27.0165C72.8493 27.0523 72.7835 27.0852 72.6819 27.1151C72.5822 27.143 72.4667 27.1679 72.3351 27.1899C72.2055 27.2098 72.079 27.2277 71.9554 27.2437C71.8339 27.2576 71.7352 27.2695 71.6595 27.2795C71.4762 27.3035 71.3048 27.3423 71.1454 27.3961C70.9879 27.448 70.8604 27.5267 70.7627 27.6322C70.6671 27.7359 70.6192 27.8774 70.6192 28.0567C70.6192 28.3019 70.7099 28.4873 70.8912 28.6127C71.0745 28.7363 71.3068 28.7981 71.5877 28.7981ZM80.4921 25.7609L79.8583 25.9403C79.8187 25.8347 79.7602 25.7321 79.6819 25.6324C79.6064 25.5308 79.5029 25.4471 79.3713 25.3813C79.2398 25.3155 79.0714 25.2826 78.8661 25.2826C78.5851 25.2826 78.351 25.3474 78.1636 25.477C77.9783 25.6045 77.8856 25.7669 77.8856 25.9642C77.8856 26.1396 77.9493 26.2781 78.0769 26.3797C78.2044 26.4814 78.4038 26.566 78.6748 26.6338L79.3563 26.8012C79.7665 26.9009 80.0727 27.0534 80.2745 27.2586C80.4755 27.4619 80.576 27.7239 80.576 28.0448C80.576 28.3079 80.5 28.543 80.3489 28.7503C80.1993 28.9576 79.9904 29.121 79.7214 29.2405C79.452 29.3602 79.1391 29.4199 78.7824 29.4199C78.3141 29.4199 77.9265 29.3183 77.6196 29.115C77.3126 28.9118 77.1183 28.6148 77.0366 28.2242L77.7063 28.0567C77.7701 28.3038 77.8906 28.4892 78.068 28.6127C78.2473 28.7363 78.4815 28.7981 78.7704 28.7981C79.0993 28.7981 79.3604 28.7283 79.5537 28.5888C79.7491 28.4474 79.8464 28.278 79.8464 28.0807C79.8464 27.9213 79.791 27.7877 79.6795 27.6801C79.5676 27.5705 79.3962 27.4888 79.165 27.435L78.3998 27.2556C77.9793 27.156 77.6703 27.0015 77.4731 26.7923C77.2777 26.581 77.1801 26.317 77.1801 26.0001C77.1801 25.741 77.2529 25.5118 77.3983 25.3125C77.5458 25.1132 77.7461 24.9568 77.9992 24.8432C78.2543 24.7296 78.5433 24.6728 78.8661 24.6728C79.3205 24.6728 79.6771 24.7724 79.9366 24.9718C80.1977 25.171 80.3829 25.4341 80.4921 25.7609ZM84.5314 27.4469V24.7326H85.2372V29.3242H84.5314V28.547H84.4839C84.3763 28.7802 84.2086 28.9785 83.9815 29.1419C83.7544 29.3033 83.4672 29.384 83.1206 29.384C82.8334 29.384 82.5786 29.3212 82.3555 29.1957C82.1323 29.0682 81.9567 28.8769 81.8293 28.6218C81.7019 28.3647 81.6378 28.0408 81.6378 27.6502V24.7326H82.3436V27.6024C82.3436 27.9372 82.437 28.2042 82.6245 28.4035C82.8136 28.6029 83.0549 28.7025 83.3477 28.7025C83.5233 28.7025 83.7014 28.6576 83.8834 28.568C84.0661 28.4782 84.2196 28.3407 84.3431 28.1554C84.4689 27.9701 84.5314 27.7339 84.5314 27.4469ZM90.2837 24.7326L88.5857 29.3242H87.8689L86.1708 24.7326H86.936L88.2035 28.3916H88.251L89.5186 24.7326H90.2837ZM95.5795 24.7326V25.3304H93.2002V24.7326H95.5795ZM93.8934 23.6325H94.5992V28.0089C94.5992 28.2083 94.6277 28.3577 94.6862 28.4573C94.7456 28.555 94.8215 28.6207 94.9133 28.6546C95.0067 28.6865 95.1056 28.7025 95.2092 28.7025C95.2868 28.7025 95.3509 28.6985 95.3999 28.6905C95.4498 28.6806 95.4901 28.6726 95.5202 28.6666L95.6634 29.3003C95.6151 29.3183 95.5487 29.3362 95.4632 29.3541C95.3778 29.3741 95.2686 29.384 95.1372 29.384C94.9378 29.384 94.7424 29.3412 94.5517 29.2555C94.3618 29.1698 94.2043 29.0393 94.0793 28.8639C93.9551 28.6885 93.8934 28.4673 93.8934 28.2003V23.6325ZM97.992 29.4318C97.7008 29.4318 97.4374 29.3771 97.2 29.2674C96.9626 29.1559 96.7743 28.9954 96.635 28.7862C96.4958 28.5749 96.4254 28.3198 96.4254 28.0209C96.4254 27.7578 96.4776 27.5446 96.5812 27.3812C96.6849 27.2157 96.8234 27.0862 96.9966 26.9925C97.1699 26.8989 97.3614 26.8291 97.5703 26.7833C97.7815 26.7354 97.9944 26.6976 98.2072 26.6697C98.4865 26.6338 98.7128 26.6069 98.8861 26.589C99.061 26.569 99.1892 26.5362 99.2683 26.4903C99.3506 26.4445 99.3909 26.3647 99.3909 26.2512V26.2273C99.3909 25.9323 99.3102 25.7031 99.1488 25.5397C98.9898 25.3763 98.7477 25.2946 98.4225 25.2946C98.0854 25.2946 97.8219 25.3683 97.6304 25.5158C97.4389 25.6633 97.3044 25.8207 97.2269 25.9881L96.5575 25.749C96.677 25.4699 96.836 25.2527 97.0354 25.0973C97.2364 24.9399 97.4564 24.8302 97.6929 24.7685C97.9319 24.7047 98.1677 24.6728 98.3987 24.6728C98.5459 24.6728 98.7152 24.6907 98.9067 24.7266C99.0998 24.7605 99.2865 24.8312 99.4661 24.9388C99.6473 25.0465 99.7976 25.2089 99.9171 25.4261C100.037 25.6434 100.097 25.9343 100.097 26.299V29.3242H99.3909V28.7025H99.3553C99.3071 28.8021 99.2279 28.9087 99.1164 29.0223C99.0048 29.1359 98.8561 29.2326 98.6709 29.3123C98.485 29.392 98.2595 29.4318 97.992 29.4318ZM98.0996 28.7981C98.3789 28.7981 98.6139 28.7433 98.8054 28.6337C98.9985 28.5241 99.1441 28.3826 99.2414 28.2092C99.3411 28.0358 99.3909 27.8535 99.3909 27.6621V27.0165C99.3609 27.0523 99.2952 27.0852 99.1939 27.1151C99.0942 27.143 98.9787 27.1679 98.8474 27.1899C98.7176 27.2098 98.591 27.2277 98.4676 27.2437C98.3457 27.2576 98.2468 27.2695 98.1716 27.2795C97.9881 27.3035 97.8164 27.3423 97.6573 27.3961C97.4999 27.448 97.3725 27.5267 97.2744 27.6322C97.1786 27.7359 97.1312 27.8774 97.1312 28.0567C97.1312 28.3019 97.2221 28.4873 97.4033 28.6127C97.5861 28.7363 97.8187 28.7981 98.0996 28.7981ZM102.006 23.2021V23.7401C102.006 23.9035 101.976 24.0779 101.917 24.2633C101.859 24.4466 101.773 24.625 101.659 24.7983C101.548 24.9698 101.412 25.1192 101.253 25.2468L100.87 24.9358C100.996 24.7565 101.104 24.5702 101.196 24.3768C101.29 24.1815 101.337 23.9733 101.337 23.7521V23.2021H102.006ZM102.757 29.3242V24.7326H103.439V25.4501H103.498C103.594 25.2049 103.748 25.0146 103.962 24.8791C104.175 24.7416 104.431 24.6728 104.73 24.6728C105.033 24.6728 105.285 24.7416 105.487 24.8791C105.69 25.0146 105.848 25.2049 105.961 25.4501H106.01C106.127 25.2128 106.303 25.0245 106.539 24.885C106.774 24.7436 107.056 24.6728 107.385 24.6728C107.796 24.6728 108.131 24.8013 108.392 25.0584C108.653 25.3135 108.784 25.7111 108.784 26.2512V29.3242H108.078V26.2512C108.078 25.9124 107.985 25.6703 107.8 25.5248C107.615 25.3792 107.397 25.3065 107.145 25.3065C106.822 25.3065 106.572 25.4042 106.395 25.5995C106.218 25.7928 106.129 26.038 106.129 26.3349V29.3242H105.412V26.1794C105.412 25.9184 105.327 25.7081 105.158 25.5487C104.988 25.3872 104.77 25.3065 104.503 25.3065C104.32 25.3065 104.148 25.3554 103.989 25.453C103.831 25.5507 103.704 25.6862 103.606 25.8596C103.51 26.031 103.463 26.2293 103.463 26.4545V29.3242H102.757ZM110.074 29.3242V24.7326H110.779V29.3242H110.074ZM110.432 23.9673C110.295 23.9673 110.176 23.9205 110.077 23.8268C109.979 23.7331 109.93 23.6206 109.93 23.489C109.93 23.3575 109.979 23.2449 110.077 23.1512C110.176 23.0576 110.295 23.0107 110.432 23.0107C110.57 23.0107 110.688 23.0576 110.785 23.1512C110.885 23.2449 110.934 23.3575 110.934 23.489C110.934 23.6206 110.885 23.7331 110.785 23.8268C110.688 23.9205 110.57 23.9673 110.432 23.9673ZM112.776 26.5621V29.3242H112.071V24.7326H112.753V25.4501H112.813C112.92 25.2169 113.083 25.0295 113.303 24.888C113.522 24.7445 113.805 24.6728 114.152 24.6728C114.463 24.6728 114.735 24.7366 114.968 24.8641C115.201 24.9896 115.383 25.181 115.512 25.4381C115.642 25.6931 115.706 26.016 115.706 26.4066V29.3242H115.001V26.4545C115.001 26.0937 114.907 25.8128 114.72 25.6115C114.532 25.4082 114.275 25.3065 113.948 25.3065C113.724 25.3065 113.522 25.3554 113.345 25.453C113.17 25.5507 113.031 25.6931 112.929 25.8805C112.828 26.0679 112.776 26.295 112.776 26.5621ZM118.861 29.4199C118.446 29.4199 118.082 29.3212 117.77 29.124C117.459 28.9266 117.215 28.6506 117.04 28.2959C116.867 27.9411 116.78 27.5267 116.78 27.0523C116.78 26.574 116.867 26.1565 117.04 25.7998C117.215 25.443 117.459 25.166 117.77 24.9687C118.082 24.7714 118.446 24.6728 118.861 24.6728C119.276 24.6728 119.638 24.7714 119.949 24.9687C120.262 25.166 120.505 25.443 120.679 25.7998C120.853 26.1565 120.941 26.574 120.941 27.0523C120.941 27.5267 120.853 27.9411 120.679 28.2959C120.505 28.6506 120.262 28.9266 119.949 29.124C119.638 29.3212 119.276 29.4199 118.861 29.4199ZM118.861 28.7862C119.176 28.7862 119.435 28.7055 119.638 28.5441C119.841 28.3826 119.992 28.1704 120.089 27.9073C120.187 27.6443 120.236 27.3593 120.236 27.0523C120.236 26.7454 120.187 26.4595 120.089 26.1944C119.992 25.9293 119.841 25.7151 119.638 25.5517C119.435 25.3883 119.176 25.3065 118.861 25.3065C118.546 25.3065 118.287 25.3883 118.083 25.5517C117.88 25.7151 117.73 25.9293 117.632 26.1944C117.534 26.4595 117.486 26.7454 117.486 27.0523C117.486 27.3593 117.534 27.6443 117.632 27.9073C117.73 28.1704 117.88 28.3826 118.083 28.5441C118.287 28.7055 118.546 28.7862 118.861 28.7862ZM124.015 24.7326V25.3304H121.636V24.7326H124.015ZM122.329 23.6325H123.035V28.0089C123.035 28.2083 123.063 28.3577 123.121 28.4573C123.181 28.555 123.257 28.6207 123.348 28.6546C123.442 28.6865 123.541 28.7025 123.645 28.7025C123.722 28.7025 123.786 28.6985 123.836 28.6905C123.885 28.6806 123.926 28.6726 123.955 28.6666L124.099 29.3003C124.051 29.3183 123.984 29.3362 123.899 29.3541C123.813 29.3741 123.704 29.384 123.573 29.384C123.374 29.384 123.178 29.3412 122.987 29.2555C122.798 29.1698 122.64 29.0393 122.514 28.8639C122.391 28.6885 122.329 28.4673 122.329 28.2003V23.6325ZM125.076 29.3242V24.7326H125.782V29.3242H125.076ZM125.436 23.9673C125.298 23.9673 125.179 23.9205 125.079 23.8268C124.982 23.7331 124.933 23.6206 124.933 23.489C124.933 23.3575 124.982 23.2449 125.079 23.1512C125.179 23.0576 125.298 23.0107 125.436 23.0107C125.572 23.0107 125.69 23.0576 125.788 23.1512C125.887 23.2449 125.937 23.3575 125.937 23.489C125.937 23.6206 125.887 23.7331 125.788 23.8268C125.69 23.9205 125.572 23.9673 125.436 23.9673ZM127.696 23.2021V23.7401C127.696 23.9035 127.666 24.0779 127.606 24.2633C127.548 24.4466 127.463 24.625 127.349 24.7983C127.237 24.9698 127.102 25.1192 126.943 25.2468L126.56 24.9358C126.686 24.7565 126.794 24.5702 126.886 24.3768C126.979 24.1815 127.026 23.9733 127.026 23.7521V23.2021H127.696ZM129.226 23.2021V23.7401C129.226 23.9035 129.196 24.0779 129.137 24.2633C129.079 24.4466 128.993 24.625 128.88 24.7983C128.768 24.9698 128.633 25.1192 128.473 25.2468L128.09 24.9358C128.216 24.7565 128.324 24.5702 128.416 24.3768C128.51 24.1815 128.557 23.9733 128.557 23.7521V23.2021H129.226ZM132.743 23.2021H133.628L135.709 28.284H135.78L137.861 23.2021H138.746V29.3242H138.053V24.6728H137.993L136.079 29.3242H135.41L133.497 24.6728H133.437V29.3242H132.743V23.2021ZM145.159 25.1152H144.417C144.374 24.902 144.297 24.7147 144.187 24.5532C144.08 24.3918 143.948 24.2563 143.793 24.1466C143.64 24.0351 143.469 23.9514 143.282 23.8956C143.094 23.8397 142.899 23.8119 142.696 23.8119C142.325 23.8119 141.989 23.9056 141.688 24.0928C141.389 24.2802 141.151 24.5562 140.974 24.9209C140.798 25.2856 140.71 25.733 140.71 26.2631C140.71 26.7933 140.798 27.2406 140.974 27.6053C141.151 27.9701 141.389 28.2461 141.688 28.4334C141.989 28.6207 142.325 28.7144 142.696 28.7144C142.899 28.7144 143.094 28.6865 143.282 28.6307C143.469 28.5749 143.64 28.4922 143.793 28.3826C143.948 28.271 144.08 28.1345 144.187 27.973C144.297 27.8096 144.374 27.6223 144.417 27.4111H145.159C145.103 27.7239 145.001 28.004 144.854 28.2511C144.706 28.4982 144.523 28.7084 144.304 28.8818C144.085 29.0532 143.839 29.1838 143.565 29.2734C143.295 29.3631 143.004 29.4079 142.696 29.4079C142.173 29.4079 141.709 29.2804 141.302 29.0253C140.896 28.7702 140.576 28.4075 140.343 27.9372C140.11 27.4669 139.994 26.9089 139.994 26.2631C139.994 25.6174 140.11 25.0594 140.343 24.5891C140.576 24.1188 140.896 23.7561 141.302 23.501C141.709 23.2459 142.173 23.1183 142.696 23.1183C143.004 23.1183 143.295 23.1631 143.565 23.2529C143.839 23.3425 144.085 23.4741 144.304 23.6475C144.523 23.8188 144.706 24.0281 144.854 24.2752C145.001 24.5204 145.103 24.8004 145.159 25.1152ZM146.357 29.3242V23.2021H147.098V25.9284H150.363V23.2021H151.104V29.3242H150.363V26.586H147.098V29.3242H146.357ZM154.932 23.2021H155.674V27.5784C155.674 27.9691 155.602 28.3009 155.458 28.5739C155.314 28.847 155.113 29.0542 154.852 29.1957C154.59 29.3372 154.283 29.4079 153.927 29.4079C153.593 29.4079 153.294 29.3472 153.034 29.2256C152.773 29.102 152.567 28.9266 152.418 28.6995C152.268 28.4723 152.194 28.2022 152.194 27.8894H152.923C152.923 28.0628 152.966 28.2142 153.052 28.3437C153.139 28.4713 153.259 28.571 153.411 28.6427C153.562 28.7144 153.734 28.7503 153.927 28.7503C154.141 28.7503 154.322 28.7055 154.472 28.6158C154.621 28.5261 154.734 28.3945 154.812 28.2212C154.892 28.0458 154.932 27.8316 154.932 27.5784V23.2021Z" fill="#9A9A9A"/>
</g>
</svg>
