<svg width="71" height="46" viewBox="0 0 71 46" fill="none" xmlns="http://www.w3.org/2000/svg">
<g clip-path="url(#clip0_885_1043)">
<path d="M70.4116 11.6806H62.9853V33.7455L60.3374 28.6643C60.164 28.3138 59.8186 27.8195 59.3059 27.1797C58.7871 26.54 58.3911 26.1176 58.124 25.9232C57.7218 25.6294 57.0817 25.3401 56.2007 25.0447C57.2997 24.7953 58.1685 24.4769 58.7994 24.1004C59.7971 23.5005 60.5784 22.7215 61.1418 21.7542C61.7113 20.7931 61.9952 19.6467 61.9952 18.3244C61.9952 16.8016 61.6268 15.5053 60.8854 14.4447C60.144 13.3886 59.1678 12.6601 57.9582 12.2714C56.7533 11.8765 55.0034 11.6821 52.7178 11.6821H40.3842V16.119C38.1293 13.3014 34.6587 11.4939 30.7629 11.4939C26.8671 11.4939 23.4333 13.2815 21.1784 16.0731C20.9681 15.7303 20.7425 15.3997 20.4938 15.0844C19.6189 13.9886 18.5152 13.1499 17.1813 12.5606C15.8489 11.9775 14.0929 11.6821 11.9286 11.6821H0.925781V35.5637H11.927C13.2425 35.5637 14.7146 35.3464 16.337 34.9132C17.5251 34.5964 18.6349 33.9628 19.671 33.0124C20.2083 32.5211 20.6826 31.9655 21.097 31.3518C23.3504 34.2 26.841 36.032 30.7613 36.032C34.6817 36.032 38.1277 34.2245 40.3826 31.4069V35.5637H47.8089V25.8911H48.4613C49.1366 25.8911 49.743 26.0747 50.2787 26.4421C50.6686 26.7252 51.1152 27.3374 51.6172 28.2817L55.5698 35.5637H70.4116V11.6806ZM14.9878 27.8241C14.6148 28.675 14.1006 29.2688 13.4497 29.6147C12.7912 29.9545 11.6876 30.1259 10.1372 30.1259H8.31981V17.0847H10.171C12.0943 17.0847 13.4712 17.5515 14.3032 18.4851C15.1336 19.4187 15.5465 21.1481 15.5465 23.678C15.5465 25.5911 15.3623 26.9685 14.9893 27.8256L14.9878 27.8241ZM21.9689 29.7632C22.0119 29.6668 22.0564 29.5734 22.0963 29.4755C22.6812 28.069 22.9713 26.0901 22.9713 23.5387C22.9713 21.9103 22.7763 20.3707 22.3803 18.9136C22.2698 18.5035 22.1393 18.1086 21.9904 17.726C23.9137 14.9528 27.1234 13.1361 30.7598 13.1361C33.2388 13.1361 35.5198 13.9794 37.3295 15.3951L22.3481 30.2851C22.216 30.1152 22.0902 29.9407 21.9689 29.7647V29.7632ZM22.7379 30.7549L37.8008 15.7854C38.0986 16.0455 38.381 16.3225 38.6465 16.6149L23.4394 31.4834C23.1938 31.2523 22.959 31.009 22.7364 30.7549H22.7379ZM30.7598 34.3868C28.3652 34.3868 26.1548 33.5986 24.3742 32.2686L39.4156 17.5622C39.784 18.0734 40.1063 18.6183 40.3811 19.1907V28.3337C38.6665 31.9135 35.0025 34.3868 30.7598 34.3868ZM54.0977 20.3079C53.7907 20.7135 53.3901 20.9645 52.8989 21.0578C51.9288 21.2752 51.2703 21.3854 50.9357 21.3854H47.8074V16.5154H51.0631C52.4184 16.5154 53.3379 16.7205 53.8291 17.1383C54.3203 17.55 54.5644 18.1438 54.5644 18.9167C54.5644 19.4386 54.4078 19.9008 54.0962 20.3064L54.0977 20.3079Z" fill="#9A9A9A"/>
<path d="M65.4082 9.12623H66.5364C72.5904 6.8045 66.1419 0 66.1419 0C66.0344 1.82127 64.8525 2.8926 64.3506 3.5354C61.4663 7.82073 65.4066 9.1247 65.4066 9.1247L65.4082 9.12623ZM64.5931 4.86692C65.0413 4.38482 66.4381 3.47418 66.4289 1.0545C66.4289 1.0545 68.2111 2.79618 66.5993 4.88528C64.9876 6.97438 65.775 7.79625 66.0268 8.36712C65.3637 8.33191 62.8739 7.26058 64.5946 4.86692H64.5931Z" fill="#9A9A9A"/>
<path d="M69.1708 39.5276V42.3804L68.2467 39.5276H66.8652V45.8638H68.2467V42.9819L69.1063 45.8638H70.5523V39.5276H69.1708Z" fill="#9A9A9A"/>
<path d="M41.9571 42.486L41.7223 40.8775C41.6517 40.3617 41.5857 39.9117 41.5258 39.5276H39.3906V45.8638H40.8366L40.8412 41.6825L41.4475 45.8638H42.4591L43.0331 41.5861L43.0378 45.8638H44.4837V39.5276H42.3332L41.9571 42.486Z" fill="#9A9A9A"/>
<path d="M4.04636 39.9974C3.90054 39.8306 3.68564 39.7097 3.40474 39.6378C3.12384 39.5643 2.58352 39.5276 1.78686 39.5276H0.552734V45.8638H2.63418C3.02867 45.8638 3.32492 45.8423 3.51986 45.7995C3.71634 45.7551 3.88059 45.6801 4.01566 45.573C4.14767 45.4643 4.24131 45.3143 4.29503 45.1215C4.34876 44.9302 4.37485 44.5506 4.37485 43.9813V41.7621C4.37485 41.1621 4.35643 40.7596 4.31959 40.5545C4.28275 40.351 4.19065 40.1643 4.04483 39.9974H4.04636ZM2.72167 43.8604C2.72167 44.2828 2.69558 44.543 2.64032 44.6394C2.58659 44.7343 2.4423 44.7817 2.20745 44.7817V40.6081C2.38551 40.6081 2.50677 40.6265 2.56971 40.6663C2.63571 40.703 2.67562 40.7627 2.69404 40.8438C2.71093 40.9249 2.72014 41.1101 2.72014 41.3963V43.8604H2.72167Z" fill="#9A9A9A"/>
<path d="M57.2389 40.0649C57.0762 39.8429 56.8567 39.6777 56.5865 39.5675C56.3164 39.4573 56.0124 39.4006 55.6717 39.4006C55.314 39.4006 55.0009 39.4588 54.7322 39.5766C54.4636 39.6945 54.2487 39.8628 54.0906 40.0817C53.9325 40.3006 53.8389 40.5424 53.8097 40.8071C53.779 41.0719 53.7637 41.5219 53.7637 42.1586V43.2421C53.7637 43.8941 53.779 44.3502 53.8113 44.6119C53.8435 44.8721 53.9417 45.1139 54.106 45.3358C54.2687 45.5577 54.4882 45.723 54.7583 45.8332C55.0285 45.9434 55.3324 46 55.6732 46C56.0308 46 56.344 45.9419 56.6126 45.824C56.8812 45.7062 57.0961 45.5378 57.2542 45.319C57.4123 45.1001 57.506 44.8583 57.5351 44.5935C57.5658 44.3288 57.5812 43.8788 57.5812 43.2421V42.1586C57.5812 41.5066 57.5658 41.0505 57.5336 40.7888C57.5014 40.5286 57.4031 40.2868 57.2389 40.0649ZM55.9249 44.0701C55.9249 44.442 55.9096 44.6792 55.8789 44.7772C55.8482 44.8767 55.7776 44.9257 55.6671 44.9257C55.5565 44.9257 55.4921 44.8828 55.4629 44.7956C55.4337 44.7099 55.4184 44.4833 55.4184 44.116V41.1592C55.4184 40.8332 55.4414 40.6373 55.4859 40.5714C55.532 40.5041 55.5964 40.472 55.6793 40.472C55.7791 40.472 55.8436 40.5133 55.8758 40.5944C55.908 40.6771 55.9234 40.8653 55.9234 41.1592V44.0686L55.9249 44.0701Z" fill="#9A9A9A"/>
<path d="M29.9032 42.2504C30.026 42.0805 30.0874 41.7499 30.0874 41.2571C30.0874 40.7184 29.9999 40.3235 29.8265 40.0786C29.653 39.8322 29.4274 39.6776 29.1511 39.6179C28.8748 39.5583 28.3483 39.5292 27.5685 39.5292H26.4004V45.8653H28.0551V43.0064C28.2807 43.0064 28.4204 43.0462 28.4726 43.1273C28.5263 43.2084 28.5524 43.4181 28.5524 43.7579V45.8653H30.0874V44.1925C30.0874 43.6814 30.0736 43.3691 30.046 43.2559C30.0199 43.1426 29.9493 43.0171 29.8372 42.8824C29.7252 42.7462 29.5041 42.6376 29.1772 42.5565C29.5379 42.5228 29.7804 42.4218 29.9032 42.2519V42.2504ZM28.554 41.4469C28.554 41.7254 28.5171 41.8907 28.4435 41.9427C28.3698 41.9932 28.2408 42.0193 28.0566 42.0193V40.6097C28.2454 40.6097 28.3759 40.6403 28.4481 40.7031C28.5187 40.7658 28.5555 40.8974 28.5555 41.0994V41.4484L28.554 41.4469Z" fill="#9A9A9A"/>
<path d="M14.1174 39.5276L13.2793 45.8638H14.9893L15.0783 44.7266H15.6739L15.7629 45.8638H17.4514L16.5058 39.5276H14.1159H14.1174ZM15.0691 43.6048C15.1136 43.0431 15.2164 42.1539 15.3792 40.9356C15.4682 41.9962 15.5511 42.8855 15.6294 43.6048H15.0691Z" fill="#9A9A9A"/>
</g>
<defs>
<clipPath id="clip0_885_1043">
<rect width="70" height="46" fill="white" transform="translate(0.552734)"/>
</clipPath>
</defs>
</svg>
