<svg width="90" height="30" viewBox="0 0 90 30" fill="none" xmlns="http://www.w3.org/2000/svg">
<path d="M55.4828 29.6272L65.7748 5.5561H70.697L81.4364 29.6272H76.0667L73.8294 24.5353H62.6424L60.8525 29.6272H55.4828ZM68.4626 11.1111L64.8828 20.3693H72.0424L68.4626 11.1111ZM84.567 29.6272V5.5561H89.4893V29.6272H84.567ZM17.0041 29.6261V24.0712H0V29.6261H17.0041ZM17.0041 17.5905V11.5727H0V17.5905H17.0041ZM17.8991 5.55488H0V0H18.7941C24.1638 0 28.6385 6.01779 28.6385 9.72105V29.6261H22.8214C22.9705 24.3798 23.1794 13.1466 22.8214 10.184C22.5417 7.86942 19.6889 6.01779 17.8991 5.55488ZM35.7955 29.6272V5.5561H54.1421V9.72227H41.1652V15.2772H51.9047V19.4434H41.1652V25.4612H54.1421V29.6272H35.7955Z" fill="#9A9A9A"/>
</svg>
