<svg width="126" height="35" viewBox="0 0 126 35" fill="none" xmlns="http://www.w3.org/2000/svg">
<g clip-path="url(#clip0_1080_101)">
<path d="M110.594 28.8506C107.266 28.8506 104.537 27.8218 102.414 25.7642C100.312 23.6847 99.2559 21.0494 99.2559 17.8476C99.2559 14.6457 100.318 11.9389 102.441 9.90337C104.587 7.86231 107.299 6.84452 110.589 6.84452C116.635 6.84452 122.351 6.84452 125.663 6.84452V12.3295C122.351 12.3295 112.625 12.3295 110.589 12.3295C109.038 12.3295 107.822 12.8687 106.941 13.947C106.083 15.0088 105.654 16.3071 105.654 17.8421C105.654 19.377 106.094 20.6918 106.969 21.7701C107.866 22.8319 109.071 23.3601 110.583 23.3601H122.346V28.8451H110.583L110.594 28.8506Z" fill="white"/>
<path d="M119.061 28.8503V15.6467H125.662V28.8503H119.061Z" fill="white"/>
<path d="M109.158 15.6469H125.663V20.0482H109.158V15.6469Z" fill="white"/>
<path d="M73.8711 28.537V6.696H96.4823V11.8014H80.1758V15.1848H96.4823V20.2902H80.1758V28.537H73.8711Z" fill="white"/>
<path d="M46.2695 28.537V6.696H62.0919C64.6171 6.696 66.5921 7.31217 68.028 8.53901C69.4859 9.77135 70.2121 11.6254 70.2121 14.1065C70.2121 16.5877 69.4859 18.4417 68.028 19.6741C66.5921 20.9064 64.6116 21.5171 62.0919 21.5171H53.0804V28.5315H46.2695V28.537ZM61.3272 12.1095H53.0859V16.1091H61.3272C62.9446 16.1091 63.7589 15.4434 63.7589 14.112C63.7589 12.7807 62.9501 12.115 61.3272 12.115V12.1095Z" fill="white"/>
<path d="M38.7227 20.3893C29.4691 15.0858 26.5038 10.206 20.5402 0.116211C18.5486 1.29354 14.373 3.75822 11.3691 5.53521C15.6878 12.8467 24.0831 22.4029 38.7227 20.3838V20.3893Z" fill="white"/>
<path d="M32.7896 27.8384C23.4315 24.763 18.2766 16.9729 13.2097 8.39602C11.5207 9.3973 7.96677 11.4934 5.41406 13.0063C10.2224 21.1375 19.5805 28.8012 32.7896 27.8439V27.8384Z" fill="white"/>
<path d="M28.071 34.5777C19.5052 32.6687 13.3435 26.0724 7.2973 15.8395C5.8614 16.6868 2.84107 18.4748 0.667969 19.7566C6.68113 27.4092 16.9085 35.4745 28.071 34.5777Z" fill="white"/>
</g>
<defs>
<clipPath id="clip0_1080_101">
<rect width="125" height="34.5275" fill="white" transform="translate(0.667969 0.116211)"/>
</clipPath>
</defs>
</svg>
