<svg width="165" height="27" viewBox="0 0 165 27" fill="none" xmlns="http://www.w3.org/2000/svg">
<path d="M146.919 26.578C142.925 26.578 139.654 25.3431 137.106 22.8734C134.582 20.3797 133.32 17.2146 133.32 13.3782C133.32 9.46976 134.594 6.29269 137.143 3.84694C139.715 1.4012 142.974 0.178324 146.919 0.178324C154.171 0.178269 161.03 0.177901 165 0.177993C165 0.69863 165 4.71475 165 6.76024C161.03 6.76024 149.358 6.76025 146.919 6.76025C145.057 6.76025 143.599 7.40766 142.545 8.70246C141.516 9.97329 141.002 11.5319 141.002 13.3782C141.002 15.2244 141.528 16.795 142.582 18.0898C143.66 19.3606 145.106 19.996 146.919 19.996C151.283 19.996 156.938 19.996 161.03 19.996C161.03 23.6732 161.03 25.8885 161.03 26.578C155.615 26.578 150.321 26.578 146.919 26.578Z" fill="black"/>
<path d="M157.08 26.5783V10.7383H165V26.5783H157.08Z" fill="black"/>
<path d="M145.2 10.7383L165 10.7383L165 16.0183L145.2 16.0183L145.2 10.7383Z" fill="black"/>
<path d="M102.87 26.2008V0H129.998V6.12582H110.435V10.1851H129.998V16.3109H110.435V26.2008H102.87Z" fill="black"/>
<path d="M69.7588 26.2008V0H88.7415C91.7675 0 94.1416 0.73805 95.8637 2.21415C97.6104 3.69025 98.4838 5.9167 98.4838 8.8935C98.4838 11.8703 97.6104 14.0968 95.8637 15.5729C94.1416 17.049 91.7675 17.787 88.7415 17.787H77.9298V26.2008H69.7588ZM87.8189 6.49484H77.9298V11.2922H87.8189C89.7625 11.2922 90.7342 10.4926 90.7342 8.8935C90.7342 7.2944 89.7625 6.49484 87.8189 6.49484Z" fill="black"/>
<path d="M55.293 0.310547C55.293 7.54362 55.6145 20.5631 66.3837 26.3496C44.0094 26.3496 36.2727 8.99023 35.2012 0.310547H55.293Z" fill="#223D79"/>
<path d="M32.3345 0.310547C32.3345 7.18643 35.8506 18.799 48.22 25.0637C30.4693 25.0637 17.2447 8.5616 16.3945 0.310547H32.3345Z" fill="#3B6AB2"/>
<path d="M14.1689 0.200195C14.1689 6.3617 17.2943 16.7678 28.2893 22.3816C12.5109 22.3816 0.755673 7.594 0 0.200195H14.1689Z" fill="#6699D1"/>
</svg>
