<svg width="125" height="35" viewBox="0 0 125 35" fill="none" xmlns="http://www.w3.org/2000/svg">
<g clip-path="url(#clip0_1080_518)">
<path d="M109.927 28.7343C106.598 28.7343 103.869 27.7056 101.746 25.648C99.6442 23.5684 98.5879 20.9332 98.5879 17.7313C98.5879 14.5294 99.6497 11.8227 101.773 9.78712C103.919 7.74605 106.631 6.72827 109.921 6.72827C115.967 6.72827 121.683 6.72827 124.995 6.72827V12.2133C121.683 12.2133 111.957 12.2133 109.921 12.2133C108.37 12.2133 107.154 12.7524 106.274 13.8307C105.415 14.8925 104.986 16.1909 104.986 17.7258C104.986 19.2607 105.426 20.5756 106.301 21.6539C107.198 22.7157 108.403 23.2438 109.916 23.2438H121.678V28.7288H109.916L109.927 28.7343Z" fill="black"/>
<path d="M118.393 28.7344V15.5308H124.994V28.7344H118.393Z" fill="black"/>
<path d="M108.49 15.5308H124.995V19.932H108.49V15.5308Z" fill="black"/>
<path d="M73.2031 28.4209V6.57983H95.8144V11.6852H79.5079V15.0687H95.8144V20.1741H79.5079V28.4209H73.2031Z" fill="black"/>
<path d="M45.6016 28.4209V6.57983H61.4239C63.9491 6.57983 65.9242 7.196 67.3601 8.42284C68.818 9.65518 69.5442 11.5092 69.5442 13.9904C69.5442 16.4716 68.818 18.3256 67.3601 19.5579C65.9242 20.7903 63.9436 21.4009 61.4239 21.4009H52.4124V28.4154H45.6016V28.4209ZM60.6592 11.9933H52.4179V15.9929H60.6592C62.2767 15.9929 63.0909 15.3272 63.0909 13.9959C63.0909 12.6645 62.2822 11.9988 60.6592 11.9988V11.9933Z" fill="black"/>
<path d="M38.0547 20.2731C28.8012 14.9696 25.8358 10.0898 19.8722 0C17.8807 1.17733 13.705 3.64201 10.7012 5.419C15.0199 12.7305 23.4152 22.2866 38.0547 20.2676V20.2731Z" fill="#3A57A7"/>
<path d="M32.1216 27.7222C22.7636 24.6468 17.6086 16.8567 12.5417 8.27979C10.8528 9.28106 7.2988 11.3771 4.74609 12.8901C9.55442 21.0213 18.9125 28.6849 32.1216 27.7277V27.7222Z" fill="#5D7BBC"/>
<path d="M27.4031 34.4616C18.8372 32.5525 12.6755 25.9562 6.62933 15.7234C5.19343 16.5706 2.1731 18.3586 0 19.6405C6.01316 27.2931 16.2405 35.3583 27.4031 34.4616Z" fill="#A9BFE3"/>
</g>
<defs>
<clipPath id="clip0_1080_518">
<rect width="125" height="34.5275" fill="white"/>
</clipPath>
</defs>
</svg>
