<svg width="88" height="88" viewBox="0 0 88 88" fill="none" xmlns="http://www.w3.org/2000/svg">
<path d="M80.6663 44C80.6663 48.8623 78.7348 53.5254 75.2966 56.9636C71.8585 60.4018 67.1953 62.3333 62.333 62.3333C57.4707 62.3333 52.8076 60.4018 49.3694 56.9636C45.9312 53.5254 43.9997 48.8623 43.9997 44M80.6663 44C80.6663 64.2504 64.2501 80.6666 43.9997 80.6666C23.7492 80.6666 7.33301 64.2504 7.33301 44M80.6663 44C80.6663 23.7495 64.2501 7.33331 43.9997 7.33331C23.7492 7.33331 7.33301 23.7495 7.33301 44M43.9997 44C43.9997 39.1377 42.0681 34.4745 38.63 31.0364C35.1918 27.5982 30.5286 25.6666 25.6663 25.6666C20.804 25.6666 16.1409 27.5982 12.7027 31.0364C9.26455 34.4745 7.33301 39.1377 7.33301 44M43.9997 44C39.7695 41.5688 34.7468 40.9177 30.0365 42.1898C25.3262 43.4619 21.3142 46.5531 18.883 50.7833C16.4519 55.0135 15.8007 60.0362 17.0728 64.7465C18.345 69.4568 21.4361 73.4688 25.6663 75.9M43.9997 44C46.0702 45.2038 48.3575 45.9879 50.7311 46.3077C53.1047 46.6275 55.518 46.4767 57.8332 45.8638C60.1485 45.251 62.3204 44.1881 64.2249 42.7359C66.1294 41.2836 67.7292 39.4705 68.933 37.4C70.1368 35.3295 70.921 33.0421 71.2408 30.6686C71.5606 28.295 71.4097 25.8817 70.7969 23.5664C70.184 21.2511 69.1211 19.0792 67.6689 17.1747C66.2167 15.2702 64.4035 13.6704 62.333 12.4666M25.6663 12.1C29.8479 9.66883 34.824 8.99838 39.4999 10.2361C44.1758 11.4739 48.1685 14.5184 50.5997 18.7C53.0308 22.8816 53.7013 27.8576 52.4635 32.5336C51.2258 37.2095 48.1813 41.2022 43.9997 43.6333C39.8181 46.0645 36.7736 50.0572 35.5358 54.7331C34.2981 59.409 34.9685 64.3851 37.3997 68.5667C39.8308 72.7482 43.8235 75.7928 48.4994 77.0305C53.1753 78.2682 58.1514 77.5978 62.333 75.1666" stroke="#1D31E4" stroke-width="2" stroke-linecap="round" stroke-linejoin="round"/>
</svg>
