<svg width="88" height="88" viewBox="0 0 88 88" fill="none" xmlns="http://www.w3.org/2000/svg">
<path d="M40.3333 33H55C56.9449 33 58.8102 32.2274 60.1854 30.8521C61.5607 29.4768 62.3333 27.6116 62.3333 25.6667V11M40.3333 33C40.3333 37.0501 37.0501 40.3333 33 40.3333C28.9499 40.3333 25.6667 37.0501 25.6667 33C25.6667 28.9499 28.9499 25.6667 33 25.6667C37.0501 25.6667 40.3333 28.9499 40.3333 33ZM25.6667 77V62.3333C25.6667 60.3884 26.4393 58.5232 27.8146 57.1479C29.1898 55.7726 31.0551 55 33 55H47.6667M47.6667 55C47.6667 59.0501 50.9499 62.3333 55 62.3333C59.0501 62.3333 62.3333 59.0501 62.3333 55C62.3333 50.9499 59.0501 47.6667 55 47.6667C50.9499 47.6667 47.6667 50.9499 47.6667 55ZM18.3333 11H69.6667C73.7168 11 77 14.2832 77 18.3333V69.6667C77 73.7168 73.7168 77 69.6667 77H18.3333C14.2832 77 11 73.7168 11 69.6667V18.3333C11 14.2832 14.2832 11 18.3333 11Z" stroke="#1D31E4" stroke-width="2" stroke-linecap="round" stroke-linejoin="round"/>
</svg>
