<svg width="73" height="73" viewBox="0 0 73 73" fill="none" xmlns="http://www.w3.org/2000/svg">
<rect width="73" height="73" fill="#F3F7FA"/>
<path d="M42.5 31.5H42.51M32 27H42C44.7614 27 47 29.2386 47 32V42C47 44.7614 44.7614 47 42 47H32C29.2386 47 27 44.7614 27 42V32C27 29.2386 29.2386 27 32 27ZM41 36.37C41.1234 37.2022 40.9813 38.0522 40.5938 38.799C40.2063 39.5458 39.5931 40.1514 38.8416 40.5297C38.0901 40.9079 37.2384 41.0396 36.4078 40.9059C35.5771 40.7723 34.8098 40.3801 34.2148 39.7852C33.6199 39.1902 33.2277 38.4229 33.0941 37.5922C32.9604 36.7616 33.0921 35.9099 33.4703 35.1584C33.8486 34.4069 34.4542 33.7937 35.201 33.4062C35.9478 33.0187 36.7978 32.8766 37.63 33C38.4789 33.1259 39.2649 33.5215 39.8717 34.1283C40.4785 34.7351 40.8741 35.5211 41 36.37Z" stroke="#0046FF" stroke-linecap="round" stroke-linejoin="round"/>
</svg>
