<svg width="73" height="73" viewBox="0 0 73 73" fill="none" xmlns="http://www.w3.org/2000/svg">
<rect width="73" height="73" fill="#F3F7FA"/>
<path d="M27.5005 42C26.8019 38.7033 26.8019 35.2967 27.5005 32C27.5923 31.6652 27.7696 31.3601 28.0151 31.1146C28.2606 30.8691 28.5657 30.6918 28.9005 30.6C34.2639 29.7115 39.737 29.7115 45.1005 30.6C45.4353 30.6918 45.7404 30.8691 45.9859 31.1146C46.2314 31.3601 46.4087 31.6652 46.5005 32C47.1991 35.2967 47.1991 38.7033 46.5005 42C46.4087 42.3348 46.2314 42.6399 45.9859 42.8854C45.7404 43.1309 45.4353 43.3082 45.1005 43.4C39.7371 44.2887 34.2639 44.2887 28.9005 43.4C28.5657 43.3082 28.2606 43.1309 28.0151 42.8854C27.7696 42.6399 27.5923 42.3348 27.5005 42Z" stroke="#0046FF" stroke-linecap="round" stroke-linejoin="round"/>
<path d="M35.0005 40L40.0005 37L35.0005 34V40Z" stroke="#0046FF" stroke-linecap="round" stroke-linejoin="round"/>
</svg>
