<svg width="44" height="44" viewBox="0 0 44 44" fill="none" xmlns="http://www.w3.org/2000/svg">
<path d="M22.0007 3.66589C21.4898 3.66589 20.9957 3.84822 20.6073 4.18005C17.4173 6.96672 12.834 9.16672 9.16732 9.16672C8.68109 9.16672 8.21477 9.35987 7.87096 9.70369C7.52714 10.0475 7.33398 10.5138 7.33398 11.0001V23.8334C7.33398 33 13.7507 37.5834 21.3957 40.2234C21.7908 40.3706 22.2246 40.3771 22.624 40.2417C30.2507 37.5834 36.6673 33 36.6673 23.8334V11.0001C36.6673 10.5138 36.4742 10.0475 36.1303 9.70369C35.7865 9.35987 35.3202 9.16672 34.834 9.16672C31.1673 9.16672 26.6023 6.98505 23.394 4.18005C23.0056 3.84822 22.5115 3.66589 22.0007 3.66589ZM22.0007 3.66589V40.3334" stroke="#1D31E4" stroke-width="1.4" stroke-linecap="round" stroke-linejoin="round"/>
</svg>
