<svg width="44" height="44" viewBox="0 0 44 44" fill="none" xmlns="http://www.w3.org/2000/svg">
<path d="M33 27.5C29.9624 27.5 27.5 29.9624 27.5 33C27.5 36.0376 29.9624 38.5 33 38.5C36.0376 38.5 38.5 36.0376 38.5 33C38.5 29.9624 36.0376 27.5 33 27.5ZM33 27.5V14.6667C33 13.6942 32.6137 12.7616 31.9261 12.0739C31.2384 11.3863 30.3058 11 29.3333 11H23.8333M11 16.5C14.0376 16.5 16.5 14.0376 16.5 11C16.5 7.96243 14.0376 5.5 11 5.5C7.96243 5.5 5.5 7.96243 5.5 11C5.5 14.0376 7.96243 16.5 11 16.5ZM11 16.5V29.3333C11 30.3058 11.3863 31.2384 12.0739 31.9261C12.7616 32.6137 13.6942 33 14.6667 33H20.1667" stroke="#1D31E4" stroke-width="1.4" stroke-linecap="round" stroke-linejoin="round"/>
</svg>
