<svg width="44" height="44" viewBox="0 0 44 44" fill="none" xmlns="http://www.w3.org/2000/svg">
<path d="M22.0003 12.8333V38.5M22.0003 12.8333C22.0003 10.8884 21.2277 9.02315 19.8524 7.64788C18.4772 6.27262 16.6119 5.5 14.667 5.5H5.50033C5.0141 5.5 4.54778 5.69315 4.20396 6.03697C3.86015 6.38079 3.66699 6.8471 3.66699 7.33333V31.1667C3.66699 31.6529 3.86015 32.1192 4.20396 32.463C4.54778 32.8068 5.0141 33 5.50033 33H16.5003C17.959 33 19.358 33.5795 20.3894 34.6109C21.4209 35.6424 22.0003 37.0413 22.0003 38.5M22.0003 12.8333C22.0003 10.8884 22.7729 9.02315 24.1482 7.64788C25.5235 6.27262 27.3887 5.5 29.3337 5.5H38.5003C38.9866 5.5 39.4529 5.69315 39.7967 6.03697C40.1405 6.38079 40.3337 6.8471 40.3337 7.33333V31.1667C40.3337 31.6529 40.1405 32.1192 39.7967 32.463C39.4529 32.8068 38.9866 33 38.5003 33H27.5003C26.0416 33 24.6427 33.5795 23.6112 34.6109C22.5798 35.6424 22.0003 37.0413 22.0003 38.5" stroke="#1D31E4" stroke-width="1.4" stroke-linecap="round" stroke-linejoin="round"/>
</svg>
